<?xml version="1.0" encoding="utf-8" standalone="no"?>
<!DOCTYPE svg PUBLIC "-//W3C//DTD SVG 1.1//EN"
  "http://www.w3.org/Graphics/SVG/1.1/DTD/svg11.dtd">
<!-- Created with matplotlib (https://matplotlib.org/) -->
<svg height="576pt" version="1.1" viewBox="0 0 576 576" width="576pt" xmlns="http://www.w3.org/2000/svg" xmlns:xlink="http://www.w3.org/1999/xlink">
 <metadata>
  <rdf:RDF xmlns:cc="http://creativecommons.org/ns#" xmlns:dc="http://purl.org/dc/elements/1.1/" xmlns:rdf="http://www.w3.org/1999/02/22-rdf-syntax-ns#">
   <cc:Work>
    <dc:type rdf:resource="http://purl.org/dc/dcmitype/StillImage"/>
    <dc:date>2021-05-03T16:00:58.182866</dc:date>
    <dc:format>image/svg+xml</dc:format>
    <dc:creator>
     <cc:Agent>
      <dc:title>Matplotlib v3.3.3, https://matplotlib.org/</dc:title>
     </cc:Agent>
    </dc:creator>
   </cc:Work>
  </rdf:RDF>
 </metadata>
 <defs>
  <style type="text/css">*{stroke-linecap:butt;stroke-linejoin:round;}</style>
 </defs>
 <g id="figure_1">
  <g id="patch_1">
   <path d="M 0 576 
L 576 576 
L 576 0 
L 0 0 
z
" style="fill:#f9fafb;"/>
  </g>
  <g id="axes_1">
   <g id="patch_2">
    <path d="M 105.232692 493.159611 
L 550.08 493.159611 
L 550.08 25.92 
L 105.232692 25.92 
z
" style="fill:#f9fafb;"/>
   </g>
   <g id="line2d_1">
    <path clip-path="url(#p51ac7eddd6)" d="M 253.515128 493.159611 
L 253.515128 25.92 
" style="fill:none;stroke:#000000;stroke-linecap:square;stroke-width:2;"/>
   </g>
   <g id="line2d_2">
    <path clip-path="url(#p51ac7eddd6)" d="M 105.232692 337.413074 
L 550.08 337.413074 
" style="fill:none;stroke:#000000;stroke-linecap:square;stroke-width:2;"/>
   </g>
   <g id="line2d_3">
    <path clip-path="url(#p51ac7eddd6)" d="M 401.797564 493.159611 
L 401.797564 25.92 
" style="fill:none;stroke:#000000;stroke-linecap:square;stroke-width:2;"/>
   </g>
   <g id="line2d_4">
    <path clip-path="url(#p51ac7eddd6)" d="M 105.232692 181.666537 
L 550.08 181.666537 
" style="fill:none;stroke:#000000;stroke-linecap:square;stroke-width:2;"/>
   </g>
   <g id="patch_3">
    <path clip-path="url(#p51ac7eddd6)" d="M 312.828102 103.793268 
L 290.585737 111.580595 
L 290.585737 103.871142 
L 179.37391 103.871142 
L 179.37391 103.715395 
L 290.585737 103.715395 
L 290.585737 96.005942 
z
" style="fill:#adadad;stroke:#adadad;stroke-linejoin:miter;stroke-width:10;"/>
   </g>
   <g id="patch_4">
    <path clip-path="url(#p51ac7eddd6)" d="M 179.37391 243.965152 
L 171.959788 220.603171 
L 179.299769 220.603171 
L 179.299769 103.793268 
L 179.448051 103.793268 
L 179.448051 220.603171 
L 186.788032 220.603171 
z
" style="fill:#adadad;stroke:#adadad;stroke-linejoin:miter;stroke-width:10;"/>
   </g>
   <g id="patch_5">
    <path clip-path="url(#p51ac7eddd6)" d="M 312.828102 243.965152 
L 291.857799 232.952208 
L 297.047949 227.500802 
L 179.321484 103.848333 
L 179.426336 103.738204 
L 297.152801 227.390672 
L 302.342951 221.939265 
z
" style="fill:#adadad;stroke:#adadad;stroke-linejoin:miter;stroke-width:10;"/>
   </g>
   <g id="patch_6">
    <path clip-path="url(#p51ac7eddd6)" d="M 312.828102 259.539805 
L 290.585737 267.327132 
L 290.585737 259.617679 
L 179.37391 259.617679 
L 179.37391 259.461932 
L 290.585737 259.461932 
L 290.585737 251.752478 
z
" style="fill:#adadad;stroke:#adadad;stroke-linejoin:miter;stroke-width:10;"/>
   </g>
   <g id="patch_7">
    <path clip-path="url(#p51ac7eddd6)" d="M 179.37391 399.711689 
L 171.959788 376.349708 
L 179.299769 376.349708 
L 179.299769 259.539805 
L 179.448051 259.539805 
L 179.448051 376.349708 
L 186.788032 376.349708 
z
" style="fill:#adadad;stroke:#adadad;stroke-linejoin:miter;stroke-width:10;"/>
   </g>
   <g id="patch_8">
    <path clip-path="url(#p51ac7eddd6)" d="M 312.828102 399.711689 
L 291.857799 388.698745 
L 297.047949 383.247338 
L 179.321484 259.59487 
L 179.426336 259.484741 
L 297.152801 383.137209 
L 302.342951 377.685802 
z
" style="fill:#adadad;stroke:#adadad;stroke-linejoin:miter;stroke-width:10;"/>
   </g>
   <g id="patch_9">
    <path clip-path="url(#p51ac7eddd6)" d="M 312.828102 415.286342 
L 290.585737 423.073669 
L 290.585737 415.364216 
L 179.37391 415.364216 
L 179.37391 415.208469 
L 290.585737 415.208469 
L 290.585737 407.499015 
z
" style="fill:#adadad;stroke:#adadad;stroke-linejoin:miter;stroke-width:10;"/>
   </g>
   <g id="patch_10">
    <path clip-path="url(#p51ac7eddd6)" d="M 461.110538 103.793268 
L 438.868173 111.580595 
L 438.868173 103.871142 
L 327.656346 103.871142 
L 327.656346 103.715395 
L 438.868173 103.715395 
L 438.868173 96.005942 
z
" style="fill:#adadad;stroke:#adadad;stroke-linejoin:miter;stroke-width:10;"/>
   </g>
   <g id="patch_11">
    <path clip-path="url(#p51ac7eddd6)" d="M 327.656346 243.965152 
L 320.242224 220.603171 
L 327.582205 220.603171 
L 327.582205 103.793268 
L 327.730487 103.793268 
L 327.730487 220.603171 
L 335.070468 220.603171 
z
" style="fill:#adadad;stroke:#adadad;stroke-linejoin:miter;stroke-width:10;"/>
   </g>
   <g id="patch_12">
    <path clip-path="url(#p51ac7eddd6)" d="M 461.110538 243.965152 
L 440.140235 232.952208 
L 445.330385 227.500802 
L 327.60392 103.848333 
L 327.708772 103.738204 
L 445.435237 227.390672 
L 450.625387 221.939265 
z
" style="fill:#adadad;stroke:#adadad;stroke-linejoin:miter;stroke-width:10;"/>
   </g>
   <g id="patch_13">
    <path clip-path="url(#p51ac7eddd6)" d="M 461.110538 259.539805 
L 438.868173 267.327132 
L 438.868173 259.617679 
L 327.656346 259.617679 
L 327.656346 259.461932 
L 438.868173 259.461932 
L 438.868173 251.752478 
z
" style="fill:#adadad;stroke:#adadad;stroke-linejoin:miter;stroke-width:10;"/>
   </g>
   <g id="patch_14">
    <path clip-path="url(#p51ac7eddd6)" d="M 327.656346 399.711689 
L 320.242224 376.349708 
L 327.582205 376.349708 
L 327.582205 259.539805 
L 327.730487 259.539805 
L 327.730487 376.349708 
L 335.070468 376.349708 
z
" style="fill:#adadad;stroke:#adadad;stroke-linejoin:miter;stroke-width:10;"/>
   </g>
   <g id="patch_15">
    <path clip-path="url(#p51ac7eddd6)" d="M 475.938782 243.965152 
L 468.52466 220.603171 
L 475.864641 220.603171 
L 475.864641 103.793268 
L 476.012923 103.793268 
L 476.012923 220.603171 
L 483.352904 220.603171 
z
" style="fill:#adadad;stroke:#adadad;stroke-linejoin:miter;stroke-width:10;"/>
   </g>
   <g id="text_1">
    <!-- $i$ -->
    <g transform="translate(472.615247 547.670899)scale(0.24 -0.24)">
     <defs>
      <path d="M 22.203125 11.515625 
C 19.796875 8.3125 19.09375 7.515625 18.09375 6.40625 
C 16.40625 4.703125 14.90625 3.703125 14 3.703125 
C 13.203125 3.703125 12.40625 4.5 12.40625 5.203125 
C 12.40625 6.21875 12.703125 7.703125 13.40625 9.609375 
C 13.40625 9.921875 13.703125 10.625 13.90625 11.421875 
L 13.90625 11.609375 
L 14 11.8125 
L 22.796875 44.078125 
L 22.5 44.265625 
C 12.40625 42.359375 10.40625 42.0625 6.5 41.765625 
L 6.5 40.0625 
C 11.796875 40.0625 12.796875 39.765625 12.796875 37.765625 
C 12.796875 36.96875 12.5 35.359375 11.90625 33.359375 
L 7.09375 15.625 
C 5.5 9.8125 4.90625 6.71875 4.90625 4.703125 
C 4.90625 1 6.5 -1 9.5 -1 
C 14.09375 -1 17.796875 2 23.5 10.421875 
z
M 21.40625 65.578125 
C 18.703125 65.578125 16.703125 63.28125 16.703125 60.28125 
C 16.703125 57.09375 18.59375 55 21.5 55 
C 24.09375 55 26.40625 57.296875 26.40625 60.078125 
C 26.40625 62.984375 24.09375 65.578125 21.40625 65.578125 
z
" id="Nimbus_Roman_No9_L_Regular_Italic-105"/>
     </defs>
     <use transform="scale(0.996264)" xlink:href="#Nimbus_Roman_No9_L_Regular_Italic-105"/>
    </g>
   </g>
   <g id="text_2">
    <!-- $i-1$ -->
    <g transform="translate(306.970604 547.670899)scale(0.24 -0.24)">
     <defs>
      <path d="M 57.390625 22.953125 
L 57.390625 28.546875 
L 6.1875 28.546875 
L 6.1875 22.953125 
z
" id="txsys-0"/>
      <path d="M 39.40625 0 
L 39.40625 1.5 
C 31.5 1.5 29.90625 2.5 29.90625 7.34375 
L 29.90625 67.609375 
L 29.09375 67.796875 
L 11.09375 58.703125 
L 11.09375 57.296875 
C 12.296875 57.796875 13.40625 58.203125 13.796875 58.40625 
C 15.59375 59.109375 17.296875 59.5 18.296875 59.5 
C 20.40625 59.5 21.296875 57.984375 21.296875 54.765625 
L 21.296875 9.25 
C 21.296875 5.921875 20.5 3.625 18.90625 2.703125 
C 17.40625 1.8125 16 1.5 11.796875 1.5 
L 11.796875 0 
z
" id="TeXGyreTermes-Regular-49"/>
     </defs>
     <use transform="scale(0.996264)" xlink:href="#Nimbus_Roman_No9_L_Regular_Italic-105"/>
     <use transform="translate(45.368777 0)scale(0.996264)" xlink:href="#txsys-0"/>
     <use transform="translate(122.568095 0)scale(0.996264)" xlink:href="#TeXGyreTermes-Regular-49"/>
    </g>
   </g>
   <g id="text_3">
    <!-- $i-2$ -->
    <g transform="translate(158.688168 547.670899)scale(0.24 -0.24)">
     <defs>
      <path d="M 47.5 13.671875 
L 46.203125 14.171875 
C 42.5 8.5 41.203125 7.59375 36.703125 7.59375 
L 12.796875 7.59375 
L 29.59375 25.140625 
C 38.5 34.40625 42.40625 41.984375 42.40625 49.765625 
C 42.40625 59.734375 34.296875 67.390625 23.90625 67.390625 
C 18.40625 67.390625 13.203125 65.203125 9.5 61.21875 
C 6.296875 57.8125 4.796875 54.625 3.09375 47.546875 
L 5.203125 47.046875 
C 9.203125 56.8125 12.796875 60 19.703125 60 
C 28.09375 60 33.796875 54.3125 33.796875 45.9375 
C 33.796875 38.171875 29.203125 28.90625 20.796875 20.03125 
L 3 1.203125 
L 3 0 
L 42 0 
z
" id="TeXGyreTermes-Regular-50"/>
     </defs>
     <use transform="scale(0.996264)" xlink:href="#Nimbus_Roman_No9_L_Regular_Italic-105"/>
     <use transform="translate(45.368777 0)scale(0.996264)" xlink:href="#txsys-0"/>
     <use transform="translate(122.568095 0)scale(0.996264)" xlink:href="#TeXGyreTermes-Regular-50"/>
    </g>
   </g>
   <g id="text_4">
    <!-- $j$ -->
    <g transform="translate(61.515012 420.803639)scale(0.24 -0.24)">
     <defs>
      <path d="M 24.59375 44.203125 
L 24.296875 44.390625 
C 15.40625 42.796875 10.40625 42 7.296875 42 
L 7.296875 40.40625 
L 10 40.40625 
L 10.703125 40.5 
C 11.5 40.59375 13.5 40 14 39.59375 
C 14.40625 39.203125 14.703125 38.296875 14.703125 37.328125 
C 14.703125 36.328125 14.203125 33.625 13.09375 29.359375 
L 5.90625 0.3125 
C 2.5 -13.328125 0.203125 -17.703125 -3.796875 -17.703125 
C -5 -17.703125 -5.59375 -17.3125 -5.59375 -16.609375 
C -5.59375 -16.203125 -5.5 -16.015625 -5.09375 -15.53125 
C -4.5 -14.734375 -4.296875 -14.234375 -4.296875 -13.421875 
C -4.296875 -11.34375 -6.09375 -9.75 -8.40625 -9.75 
C -10.703125 -9.75 -12.40625 -11.546875 -12.40625 -13.921875 
C -12.40625 -17.421875 -9.09375 -20 -4.5 -20 
C 4.203125 -20 10.203125 -12.453125 14.203125 3.359375 
z
M 22.59375 66 
C 19.90625 66 17.90625 63.796875 17.90625 60.703125 
C 17.90625 57.515625 19.796875 55.421875 22.703125 55.421875 
C 25.296875 55.421875 27.59375 57.71875 27.59375 60.5 
C 27.59375 63.40625 25.296875 66 22.59375 66 
z
" id="Nimbus_Roman_No9_L_Regular_Italic-106"/>
     </defs>
     <use transform="scale(0.996264)" xlink:href="#Nimbus_Roman_No9_L_Regular_Italic-106"/>
    </g>
   </g>
   <g id="text_5">
    <!-- $j-1$ -->
    <g transform="translate(26.049391 265.057102)scale(0.24 -0.24)">
     <use transform="scale(0.996264)" xlink:href="#Nimbus_Roman_No9_L_Regular_Italic-106"/>
     <use transform="translate(48.457126 0)scale(0.996264)" xlink:href="#txsys-0"/>
     <use transform="translate(125.656443 0)scale(0.996264)" xlink:href="#TeXGyreTermes-Regular-49"/>
    </g>
   </g>
   <g id="text_6">
    <!-- $j-2$ -->
    <g transform="translate(26.049391 109.310565)scale(0.24 -0.24)">
     <use transform="scale(0.996264)" xlink:href="#Nimbus_Roman_No9_L_Regular_Italic-106"/>
     <use transform="translate(48.457126 0)scale(0.996264)" xlink:href="#txsys-0"/>
     <use transform="translate(125.656443 0)scale(0.996264)" xlink:href="#TeXGyreTermes-Regular-50"/>
    </g>
   </g>
   <g id="text_7">
    <g id="patch_16">
     <path d="M 440.460981 476.764744 
L 511.416583 476.764744 
L 511.416583 417.669984 
L 440.460981 417.669984 
z
" style="fill:#f9fafb;stroke:#f9fafb;stroke-linejoin:miter;"/>
    </g>
    <!-- $\gamma_{i,j}$ -->
    <g style="fill:#ff7f0e;" transform="translate(448.620981 454.222976)scale(0.48 -0.48)">
     <defs>
      <path d="M 53.09375 43.65625 
L 45.796875 42.25 
C 41.203125 31.46875 35.796875 20.90625 28.796875 11.421875 
C 29.203125 21.25 29.90625 44 15.59375 44 
C 8.90625 44 0.296875 35 0.296875 29.09375 
C 0.296875 28.796875 0.40625 28.390625 0.796875 28.390625 
C 3 28.390625 2.796875 36.921875 12.59375 36.921875 
C 23 36.921875 23.5 16.4375 23.5 9.125 
C 23.5 6.515625 23.40625 4.203125 23.40625 1.6875 
C 20 -2.734375 11.90625 -12.875 11.90625 -18.390625 
C 11.90625 -20.203125 12.703125 -21 14.59375 -21 
C 22.90625 -21 24.40625 -3.9375 27.09375 1.78125 
C 28.796875 5.296875 33 10.328125 35.296875 13.609375 
C 41.90625 23 49.09375 32.875 53.09375 43.65625 
z
" id="rtxmi-13"/>
      <path d="M 19.5 0.1875 
C 19.5 8.5 13.703125 9.796875 11.40625 9.796875 
C 8.90625 9.796875 5.59375 8.296875 5.59375 4 
C 5.59375 0 9.203125 -1 11.796875 -1 
C 12.5 -1 13 -0.90625 13.296875 -0.8125 
C 13.703125 -0.703125 14 -0.609375 14.203125 -0.609375 
C 14.90625 -0.609375 15.59375 -1.109375 15.59375 -2 
C 15.59375 -3.90625 14 -8.40625 7.40625 -12.609375 
L 8.296875 -14.5 
C 11.296875 -13.5 19.5 -6.90625 19.5 0.1875 
z
" id="rtxmi-59"/>
     </defs>
     <use transform="scale(0.996264)" xlink:href="#rtxmi-13"/>
     <use transform="translate(50.151851 -14.943915)scale(0.727268)" xlink:href="#Nimbus_Roman_No9_L_Regular_Italic-105"/>
     <use transform="translate(70.260875 -14.943915)scale(0.727268)" xlink:href="#rtxmi-59"/>
     <use transform="translate(93.606191 -14.943915)scale(0.727268)" xlink:href="#Nimbus_Roman_No9_L_Regular_Italic-106"/>
    </g>
   </g>
   <g id="line2d_5">
    <defs>
     <path d="M 0 15 
C 3.978047 15 7.793698 13.419505 10.606602 10.606602 
C 13.419505 7.793698 15 3.978047 15 0 
C 15 -3.978047 13.419505 -7.793698 10.606602 -10.606602 
C 7.793698 -13.419505 3.978047 -15 0 -15 
C -3.978047 -15 -7.793698 -13.419505 -10.606602 -10.606602 
C -13.419505 -7.793698 -15 -3.978047 -15 0 
C -15 3.978047 -13.419505 7.793698 -10.606602 10.606602 
C -7.793698 13.419505 -3.978047 15 0 15 
z
" id="mb874333d9d" style="stroke:#adadad;"/>
    </defs>
    <g clip-path="url(#p51ac7eddd6)">
     <use style="fill:#adadad;stroke:#adadad;" x="179.37391" xlink:href="#mb874333d9d" y="103.793268"/>
     <use style="fill:#adadad;stroke:#adadad;" x="179.37391" xlink:href="#mb874333d9d" y="259.539805"/>
     <use style="fill:#adadad;stroke:#adadad;" x="179.37391" xlink:href="#mb874333d9d" y="415.286342"/>
     <use style="fill:#adadad;stroke:#adadad;" x="327.656346" xlink:href="#mb874333d9d" y="103.793268"/>
     <use style="fill:#adadad;stroke:#adadad;" x="475.938782" xlink:href="#mb874333d9d" y="103.793268"/>
    </g>
   </g>
   <g id="line2d_6">
    <defs>
     <path d="M 0 15 
C 3.978047 15 7.793698 13.419505 10.606602 10.606602 
C 13.419505 7.793698 15 3.978047 15 0 
C 15 -3.978047 13.419505 -7.793698 10.606602 -10.606602 
C 7.793698 -13.419505 3.978047 -15 0 -15 
C -3.978047 -15 -7.793698 -13.419505 -10.606602 -10.606602 
C -13.419505 -7.793698 -15 -3.978047 -15 0 
C -15 3.978047 -13.419505 7.793698 -10.606602 10.606602 
C -7.793698 13.419505 -3.978047 15 0 15 
z
" id="m0026af1273" style="stroke:#2ca02c;"/>
    </defs>
    <g clip-path="url(#p51ac7eddd6)">
     <use style="fill:#2ca02c;stroke:#2ca02c;" x="327.656346" xlink:href="#m0026af1273" y="259.539805"/>
    </g>
   </g>
   <g id="line2d_7">
    <defs>
     <path d="M 0 15 
C 3.978047 15 7.793698 13.419505 10.606602 10.606602 
C 13.419505 7.793698 15 3.978047 15 0 
C 15 -3.978047 13.419505 -7.793698 10.606602 -10.606602 
C 7.793698 -13.419505 3.978047 -15 0 -15 
C -3.978047 -15 -7.793698 -13.419505 -10.606602 -10.606602 
C -13.419505 -7.793698 -15 -3.978047 -15 0 
C -15 3.978047 -13.419505 7.793698 -10.606602 10.606602 
C -7.793698 13.419505 -3.978047 15 0 15 
z
" id="m20b72038d1" style="stroke:#1f77b4;"/>
    </defs>
    <g clip-path="url(#p51ac7eddd6)">
     <use style="fill:#1f77b4;stroke:#1f77b4;" x="327.656346" xlink:href="#m20b72038d1" y="415.286342"/>
    </g>
   </g>
   <g id="line2d_8">
    <defs>
     <path d="M 0 15 
C 3.978047 15 7.793698 13.419505 10.606602 10.606602 
C 13.419505 7.793698 15 3.978047 15 0 
C 15 -3.978047 13.419505 -7.793698 10.606602 -10.606602 
C 7.793698 -13.419505 3.978047 -15 0 -15 
C -3.978047 -15 -7.793698 -13.419505 -10.606602 -10.606602 
C -13.419505 -7.793698 -15 -3.978047 -15 0 
C -15 3.978047 -13.419505 7.793698 -10.606602 10.606602 
C -7.793698 13.419505 -3.978047 15 0 15 
z
" id="m39dffeaf8d" style="stroke:#d62728;"/>
    </defs>
    <g clip-path="url(#p51ac7eddd6)">
     <use style="fill:#d62728;stroke:#d62728;" x="475.938782" xlink:href="#m39dffeaf8d" y="259.539805"/>
    </g>
   </g>
   <g id="patch_17">
    <path clip-path="url(#p51ac7eddd6)" d="M 461.110538 399.711689 
L 440.140235 388.698745 
L 445.330385 383.247338 
L 327.60392 259.59487 
L 327.708772 259.484741 
L 445.435237 383.137209 
L 450.625387 377.685802 
z
" style="fill:#2ca02c;stroke:#2ca02c;stroke-linejoin:miter;stroke-width:10;"/>
   </g>
   <g id="patch_18">
    <path clip-path="url(#p51ac7eddd6)" d="M 461.110538 415.286342 
L 438.868173 423.073669 
L 438.868173 415.364216 
L 327.656346 415.364216 
L 327.656346 415.208469 
L 438.868173 415.208469 
L 438.868173 407.499015 
z
" style="fill:#1f77b4;stroke:#1f77b4;stroke-linejoin:miter;stroke-width:10;"/>
   </g>
   <g id="patch_19">
    <path clip-path="url(#p51ac7eddd6)" d="M 475.938782 399.711689 
L 468.52466 376.349708 
L 475.864641 376.349708 
L 475.864641 259.539805 
L 476.012923 259.539805 
L 476.012923 376.349708 
L 483.352904 376.349708 
z
" style="fill:#d62728;stroke:#d62728;stroke-linejoin:miter;stroke-width:10;"/>
   </g>
   <g id="matplotlib.axis_1"/>
   <g id="matplotlib.axis_2"/>
   <g id="line2d_9">
    <defs>
     <path d="M 0 15 
C 3.978047 15 7.793698 13.419505 10.606602 10.606602 
C 13.419505 7.793698 15 3.978047 15 0 
C 15 -3.978047 13.419505 -7.793698 10.606602 -10.606602 
C 7.793698 -13.419505 3.978047 -15 0 -15 
C -3.978047 -15 -7.793698 -13.419505 -10.606602 -10.606602 
C -13.419505 -7.793698 -15 -3.978047 -15 0 
C -15 3.978047 -13.419505 7.793698 -10.606602 10.606602 
C -7.793698 13.419505 -3.978047 15 0 15 
z
" id="m0facfe6fbf" style="stroke:#ff7f0e;"/>
    </defs>
    <g clip-path="url(#p51ac7eddd6)">
     <use style="fill:#ff7f0e;stroke:#ff7f0e;" x="475.938782" xlink:href="#m0facfe6fbf" y="415.286342"/>
    </g>
   </g>
   <g id="patch_20">
    <path d="M 105.232692 493.159611 
L 105.232692 25.92 
" style="fill:none;stroke:#000000;stroke-linecap:square;stroke-linejoin:miter;stroke-width:2;"/>
   </g>
   <g id="patch_21">
    <path d="M 550.08 493.159611 
L 550.08 25.92 
" style="fill:none;stroke:#000000;stroke-linecap:square;stroke-linejoin:miter;stroke-width:2;"/>
   </g>
   <g id="patch_22">
    <path d="M 105.232692 493.159611 
L 550.08 493.159611 
" style="fill:none;stroke:#000000;stroke-linecap:square;stroke-linejoin:miter;stroke-width:2;"/>
   </g>
   <g id="patch_23">
    <path d="M 105.232692 25.92 
L 550.08 25.92 
" style="fill:none;stroke:#000000;stroke-linecap:square;stroke-linejoin:miter;stroke-width:2;"/>
   </g>
  </g>
 </g>
 <defs>
  <clipPath id="p51ac7eddd6">
   <rect height="467.239611" width="444.847308" x="105.232692" y="25.92"/>
  </clipPath>
 </defs>
</svg>
