<?xml version="1.0" encoding="utf-8" standalone="no"?>
<!DOCTYPE svg PUBLIC "-//W3C//DTD SVG 1.1//EN"
  "http://www.w3.org/Graphics/SVG/1.1/DTD/svg11.dtd">
<!-- Created with matplotlib (https://matplotlib.org/) -->
<svg height="288pt" version="1.1" viewBox="0 0 576 288" width="576pt" xmlns="http://www.w3.org/2000/svg" xmlns:xlink="http://www.w3.org/1999/xlink">
 <metadata>
  <rdf:RDF xmlns:cc="http://creativecommons.org/ns#" xmlns:dc="http://purl.org/dc/elements/1.1/" xmlns:rdf="http://www.w3.org/1999/02/22-rdf-syntax-ns#">
   <cc:Work>
    <dc:type rdf:resource="http://purl.org/dc/dcmitype/StillImage"/>
    <dc:date>2021-05-03T13:14:06.771197</dc:date>
    <dc:format>image/svg+xml</dc:format>
    <dc:creator>
     <cc:Agent>
      <dc:title>Matplotlib v3.3.3, https://matplotlib.org/</dc:title>
     </cc:Agent>
    </dc:creator>
   </cc:Work>
  </rdf:RDF>
 </metadata>
 <defs>
  <style type="text/css">*{stroke-linecap:butt;stroke-linejoin:round;}</style>
 </defs>
 <g id="figure_1">
  <g id="patch_1">
   <path d="M 0 288 
L 576 288 
L 576 0 
L 0 0 
z
" style="fill:#f9fafb;"/>
  </g>
  <g id="axes_1">
   <g id="patch_2">
    <path d="M 74.88 259.2 
L 247.68 259.2 
L 247.68 86.4 
L 74.88 86.4 
z
" style="fill:#f9fafb;"/>
   </g>
   <g id="patch_3">
    <path d="M 8.378182 168.48 
Q 69.709091 168.48 131.04 168.48 
" style="fill:none;stroke:#5c5c5c;stroke-dasharray:4,6;stroke-dashoffset:0;stroke-linecap:round;"/>
   </g>
   <g id="patch_4">
    <path d="M 131.04 25.658182 
Q 131.04 97.069091 131.04 168.48 
" style="fill:none;stroke:#5c5c5c;stroke-dasharray:4,6;stroke-dashoffset:0;stroke-linecap:round;"/>
   </g>
   <g id="matplotlib.axis_1"/>
   <g id="matplotlib.axis_2"/>
   <g id="LineCollection_1">
    <path clip-path="url(#pbfd39751e7)" d="M 74.88 259.2 
L 74.88 86.4 
" style="fill:none;stroke:#000000;stroke-width:0.5;"/>
    <path clip-path="url(#pbfd39751e7)" d="M 83.52 259.2 
L 83.52 86.4 
" style="fill:none;stroke:#000000;stroke-width:0.5;"/>
    <path clip-path="url(#pbfd39751e7)" d="M 92.16 259.2 
L 92.16 86.4 
" style="fill:none;stroke:#000000;stroke-width:0.5;"/>
    <path clip-path="url(#pbfd39751e7)" d="M 100.8 259.2 
L 100.8 86.4 
" style="fill:none;stroke:#000000;stroke-width:0.5;"/>
    <path clip-path="url(#pbfd39751e7)" d="M 109.44 259.2 
L 109.44 86.4 
" style="fill:none;stroke:#000000;stroke-width:0.5;"/>
    <path clip-path="url(#pbfd39751e7)" d="M 118.08 259.2 
L 118.08 86.4 
" style="fill:none;stroke:#000000;stroke-width:0.5;"/>
    <path clip-path="url(#pbfd39751e7)" d="M 126.72 259.2 
L 126.72 86.4 
" style="fill:none;stroke:#000000;stroke-width:0.5;"/>
    <path clip-path="url(#pbfd39751e7)" d="M 135.36 259.2 
L 135.36 86.4 
" style="fill:none;stroke:#000000;stroke-width:0.5;"/>
    <path clip-path="url(#pbfd39751e7)" d="M 144 259.2 
L 144 86.4 
" style="fill:none;stroke:#000000;stroke-width:0.5;"/>
    <path clip-path="url(#pbfd39751e7)" d="M 152.64 259.2 
L 152.64 86.4 
" style="fill:none;stroke:#000000;stroke-width:0.5;"/>
    <path clip-path="url(#pbfd39751e7)" d="M 161.28 259.2 
L 161.28 86.4 
" style="fill:none;stroke:#000000;stroke-width:0.5;"/>
    <path clip-path="url(#pbfd39751e7)" d="M 169.92 259.2 
L 169.92 86.4 
" style="fill:none;stroke:#000000;stroke-width:0.5;"/>
    <path clip-path="url(#pbfd39751e7)" d="M 178.56 259.2 
L 178.56 86.4 
" style="fill:none;stroke:#000000;stroke-width:0.5;"/>
    <path clip-path="url(#pbfd39751e7)" d="M 187.2 259.2 
L 187.2 86.4 
" style="fill:none;stroke:#000000;stroke-width:0.5;"/>
    <path clip-path="url(#pbfd39751e7)" d="M 195.84 259.2 
L 195.84 86.4 
" style="fill:none;stroke:#000000;stroke-width:0.5;"/>
    <path clip-path="url(#pbfd39751e7)" d="M 204.48 259.2 
L 204.48 86.4 
" style="fill:none;stroke:#000000;stroke-width:0.5;"/>
    <path clip-path="url(#pbfd39751e7)" d="M 213.12 259.2 
L 213.12 86.4 
" style="fill:none;stroke:#000000;stroke-width:0.5;"/>
    <path clip-path="url(#pbfd39751e7)" d="M 221.76 259.2 
L 221.76 86.4 
" style="fill:none;stroke:#000000;stroke-width:0.5;"/>
    <path clip-path="url(#pbfd39751e7)" d="M 230.4 259.2 
L 230.4 86.4 
" style="fill:none;stroke:#000000;stroke-width:0.5;"/>
    <path clip-path="url(#pbfd39751e7)" d="M 239.04 259.2 
L 239.04 86.4 
" style="fill:none;stroke:#000000;stroke-width:0.5;"/>
   </g>
   <g id="LineCollection_2">
    <path clip-path="url(#pbfd39751e7)" d="M 74.88 259.2 
L 247.68 259.2 
" style="fill:none;stroke:#000000;stroke-width:0.5;"/>
    <path clip-path="url(#pbfd39751e7)" d="M 74.88 250.56 
L 247.68 250.56 
" style="fill:none;stroke:#000000;stroke-width:0.5;"/>
    <path clip-path="url(#pbfd39751e7)" d="M 74.88 241.92 
L 247.68 241.92 
" style="fill:none;stroke:#000000;stroke-width:0.5;"/>
    <path clip-path="url(#pbfd39751e7)" d="M 74.88 233.28 
L 247.68 233.28 
" style="fill:none;stroke:#000000;stroke-width:0.5;"/>
    <path clip-path="url(#pbfd39751e7)" d="M 74.88 224.64 
L 247.68 224.64 
" style="fill:none;stroke:#000000;stroke-width:0.5;"/>
    <path clip-path="url(#pbfd39751e7)" d="M 74.88 216 
L 247.68 216 
" style="fill:none;stroke:#000000;stroke-width:0.5;"/>
    <path clip-path="url(#pbfd39751e7)" d="M 74.88 207.36 
L 247.68 207.36 
" style="fill:none;stroke:#000000;stroke-width:0.5;"/>
    <path clip-path="url(#pbfd39751e7)" d="M 74.88 198.72 
L 247.68 198.72 
" style="fill:none;stroke:#000000;stroke-width:0.5;"/>
    <path clip-path="url(#pbfd39751e7)" d="M 74.88 190.08 
L 247.68 190.08 
" style="fill:none;stroke:#000000;stroke-width:0.5;"/>
    <path clip-path="url(#pbfd39751e7)" d="M 74.88 181.44 
L 247.68 181.44 
" style="fill:none;stroke:#000000;stroke-width:0.5;"/>
    <path clip-path="url(#pbfd39751e7)" d="M 74.88 172.8 
L 247.68 172.8 
" style="fill:none;stroke:#000000;stroke-width:0.5;"/>
    <path clip-path="url(#pbfd39751e7)" d="M 74.88 164.16 
L 247.68 164.16 
" style="fill:none;stroke:#000000;stroke-width:0.5;"/>
    <path clip-path="url(#pbfd39751e7)" d="M 74.88 155.52 
L 247.68 155.52 
" style="fill:none;stroke:#000000;stroke-width:0.5;"/>
    <path clip-path="url(#pbfd39751e7)" d="M 74.88 146.88 
L 247.68 146.88 
" style="fill:none;stroke:#000000;stroke-width:0.5;"/>
    <path clip-path="url(#pbfd39751e7)" d="M 74.88 138.24 
L 247.68 138.24 
" style="fill:none;stroke:#000000;stroke-width:0.5;"/>
    <path clip-path="url(#pbfd39751e7)" d="M 74.88 129.6 
L 247.68 129.6 
" style="fill:none;stroke:#000000;stroke-width:0.5;"/>
    <path clip-path="url(#pbfd39751e7)" d="M 74.88 120.96 
L 247.68 120.96 
" style="fill:none;stroke:#000000;stroke-width:0.5;"/>
    <path clip-path="url(#pbfd39751e7)" d="M 74.88 112.32 
L 247.68 112.32 
" style="fill:none;stroke:#000000;stroke-width:0.5;"/>
    <path clip-path="url(#pbfd39751e7)" d="M 74.88 103.68 
L 247.68 103.68 
" style="fill:none;stroke:#000000;stroke-width:0.5;"/>
    <path clip-path="url(#pbfd39751e7)" d="M 74.88 95.04 
L 247.68 95.04 
" style="fill:none;stroke:#000000;stroke-width:0.5;"/>
   </g>
   <g id="line2d_1">
    <path clip-path="url(#pbfd39751e7)" d="M 79.2 90.72 
L 79.2 99.36 
L 79.2 108 
L 79.2 116.64 
L 87.84 125.28 
L 96.48 133.92 
L 105.12 142.56 
L 113.76 151.2 
L 122.4 159.84 
L 131.04 168.48 
L 139.68 177.12 
L 148.32 185.76 
L 156.96 194.4 
L 165.6 203.04 
L 174.24 211.68 
L 182.88 220.32 
L 191.52 228.96 
L 200.16 237.6 
L 208.8 246.24 
L 217.44 254.88 
L 226.08 254.88 
L 234.72 254.88 
L 243.36 254.88 
" style="fill:none;stroke:#adadad;stroke-linecap:square;stroke-width:1.5;"/>
    <defs>
     <path d="M 0 1.5 
C 0.397805 1.5 0.77937 1.341951 1.06066 1.06066 
C 1.341951 0.77937 1.5 0.397805 1.5 0 
C 1.5 -0.397805 1.341951 -0.77937 1.06066 -1.06066 
C 0.77937 -1.341951 0.397805 -1.5 0 -1.5 
C -0.397805 -1.5 -0.77937 -1.341951 -1.06066 -1.06066 
C -1.341951 -0.77937 -1.5 -0.397805 -1.5 0 
C -1.5 0.397805 -1.341951 0.77937 -1.06066 1.06066 
C -0.77937 1.341951 -0.397805 1.5 0 1.5 
z
" id="m1fa0df5b7c" style="stroke:#adadad;"/>
    </defs>
    <g clip-path="url(#pbfd39751e7)">
     <use style="fill:#adadad;stroke:#adadad;" x="79.2" xlink:href="#m1fa0df5b7c" y="90.72"/>
     <use style="fill:#adadad;stroke:#adadad;" x="79.2" xlink:href="#m1fa0df5b7c" y="99.36"/>
     <use style="fill:#adadad;stroke:#adadad;" x="79.2" xlink:href="#m1fa0df5b7c" y="108"/>
     <use style="fill:#adadad;stroke:#adadad;" x="79.2" xlink:href="#m1fa0df5b7c" y="116.64"/>
     <use style="fill:#adadad;stroke:#adadad;" x="87.84" xlink:href="#m1fa0df5b7c" y="125.28"/>
     <use style="fill:#adadad;stroke:#adadad;" x="96.48" xlink:href="#m1fa0df5b7c" y="133.92"/>
     <use style="fill:#adadad;stroke:#adadad;" x="105.12" xlink:href="#m1fa0df5b7c" y="142.56"/>
     <use style="fill:#adadad;stroke:#adadad;" x="113.76" xlink:href="#m1fa0df5b7c" y="151.2"/>
     <use style="fill:#adadad;stroke:#adadad;" x="122.4" xlink:href="#m1fa0df5b7c" y="159.84"/>
     <use style="fill:#adadad;stroke:#adadad;" x="131.04" xlink:href="#m1fa0df5b7c" y="168.48"/>
     <use style="fill:#adadad;stroke:#adadad;" x="139.68" xlink:href="#m1fa0df5b7c" y="177.12"/>
     <use style="fill:#adadad;stroke:#adadad;" x="148.32" xlink:href="#m1fa0df5b7c" y="185.76"/>
     <use style="fill:#adadad;stroke:#adadad;" x="156.96" xlink:href="#m1fa0df5b7c" y="194.4"/>
     <use style="fill:#adadad;stroke:#adadad;" x="165.6" xlink:href="#m1fa0df5b7c" y="203.04"/>
     <use style="fill:#adadad;stroke:#adadad;" x="174.24" xlink:href="#m1fa0df5b7c" y="211.68"/>
     <use style="fill:#adadad;stroke:#adadad;" x="182.88" xlink:href="#m1fa0df5b7c" y="220.32"/>
     <use style="fill:#adadad;stroke:#adadad;" x="191.52" xlink:href="#m1fa0df5b7c" y="228.96"/>
     <use style="fill:#adadad;stroke:#adadad;" x="200.16" xlink:href="#m1fa0df5b7c" y="237.6"/>
     <use style="fill:#adadad;stroke:#adadad;" x="208.8" xlink:href="#m1fa0df5b7c" y="246.24"/>
     <use style="fill:#adadad;stroke:#adadad;" x="217.44" xlink:href="#m1fa0df5b7c" y="254.88"/>
     <use style="fill:#adadad;stroke:#adadad;" x="226.08" xlink:href="#m1fa0df5b7c" y="254.88"/>
     <use style="fill:#adadad;stroke:#adadad;" x="234.72" xlink:href="#m1fa0df5b7c" y="254.88"/>
     <use style="fill:#adadad;stroke:#adadad;" x="243.36" xlink:href="#m1fa0df5b7c" y="254.88"/>
    </g>
   </g>
   <g id="line2d_2">
    <path clip-path="url(#pbfd39751e7)" d="M 131.04 168.48 
" style="fill:none;stroke:#000000;stroke-linecap:square;stroke-width:1.5;"/>
    <defs>
     <path d="M 0 1.5 
C 0.397805 1.5 0.77937 1.341951 1.06066 1.06066 
C 1.341951 0.77937 1.5 0.397805 1.5 0 
C 1.5 -0.397805 1.341951 -0.77937 1.06066 -1.06066 
C 0.77937 -1.341951 0.397805 -1.5 0 -1.5 
C -0.397805 -1.5 -0.77937 -1.341951 -1.06066 -1.06066 
C -1.341951 -0.77937 -1.5 -0.397805 -1.5 0 
C -1.5 0.397805 -1.341951 0.77937 -1.06066 1.06066 
C -0.77937 1.341951 -0.397805 1.5 0 1.5 
z
" id="m5b9ed7f656" style="stroke:#000000;"/>
    </defs>
    <g clip-path="url(#pbfd39751e7)">
     <use style="stroke:#000000;" x="131.04" xlink:href="#m5b9ed7f656" y="168.48"/>
    </g>
   </g>
   <g id="patch_5">
    <path d="M 74.88 259.2 
L 74.88 86.4 
" style="fill:none;stroke:#000000;stroke-linecap:square;stroke-linejoin:miter;stroke-width:0.8;"/>
   </g>
   <g id="patch_6">
    <path d="M 247.68 259.2 
L 247.68 86.4 
" style="fill:none;stroke:#000000;stroke-linecap:square;stroke-linejoin:miter;stroke-width:0.8;"/>
   </g>
   <g id="patch_7">
    <path d="M 74.88 259.2 
L 247.68 259.2 
" style="fill:none;stroke:#000000;stroke-linecap:square;stroke-linejoin:miter;stroke-width:0.8;"/>
   </g>
   <g id="patch_8">
    <path d="M 74.88 86.4 
L 247.68 86.4 
" style="fill:none;stroke:#000000;stroke-linecap:square;stroke-linejoin:miter;stroke-width:0.8;"/>
   </g>
  </g>
  <g id="axes_2">
   <g id="patch_9">
    <path d="M 70.56 51.84 
Q 169.92 51.84 268.161966 51.84 
" style="fill:none;stroke:#000000;stroke-linecap:round;"/>
    <path d="M 264.161966 49.84 
L 268.161966 51.84 
L 264.161966 53.84 
" style="fill:none;stroke:#000000;stroke-linecap:round;"/>
   </g>
   <g id="line2d_3">
    <path clip-path="url(#pa80a09b51d)" d="M 79.2 51.84 
L 87.84 51.84 
L 96.48 51.84 
L 105.12 40.187995 
L 113.76 30.843812 
L 122.4 25.658182 
L 131.04 25.658182 
L 139.68 30.843812 
L 148.32 40.187995 
L 156.96 51.84 
L 165.6 63.492005 
L 174.24 72.836188 
L 182.88 78.021818 
L 191.52 78.021818 
L 200.16 72.836188 
L 208.8 63.492005 
L 217.44 51.84 
L 226.08 51.84 
L 234.72 51.84 
L 243.36 51.84 
" style="fill:none;stroke:#ff7f00;stroke-linecap:square;stroke-width:1.5;"/>
    <defs>
     <path d="M 0 2 
C 0.530406 2 1.03916 1.789267 1.414214 1.414214 
C 1.789267 1.03916 2 0.530406 2 0 
C 2 -0.530406 1.789267 -1.03916 1.414214 -1.414214 
C 1.03916 -1.789267 0.530406 -2 0 -2 
C -0.530406 -2 -1.03916 -1.789267 -1.414214 -1.414214 
C -1.789267 -1.03916 -2 -0.530406 -2 0 
C -2 0.530406 -1.789267 1.03916 -1.414214 1.414214 
C -1.03916 1.789267 -0.530406 2 0 2 
z
" id="m1191ff6d55" style="stroke:#ff7f00;"/>
    </defs>
    <g clip-path="url(#pa80a09b51d)">
     <use style="fill:#ff7f00;stroke:#ff7f00;" x="79.2" xlink:href="#m1191ff6d55" y="51.84"/>
     <use style="fill:#ff7f00;stroke:#ff7f00;" x="87.84" xlink:href="#m1191ff6d55" y="51.84"/>
     <use style="fill:#ff7f00;stroke:#ff7f00;" x="96.48" xlink:href="#m1191ff6d55" y="51.84"/>
     <use style="fill:#ff7f00;stroke:#ff7f00;" x="105.12" xlink:href="#m1191ff6d55" y="40.187995"/>
     <use style="fill:#ff7f00;stroke:#ff7f00;" x="113.76" xlink:href="#m1191ff6d55" y="30.843812"/>
     <use style="fill:#ff7f00;stroke:#ff7f00;" x="122.4" xlink:href="#m1191ff6d55" y="25.658182"/>
     <use style="fill:#ff7f00;stroke:#ff7f00;" x="131.04" xlink:href="#m1191ff6d55" y="25.658182"/>
     <use style="fill:#ff7f00;stroke:#ff7f00;" x="139.68" xlink:href="#m1191ff6d55" y="30.843812"/>
     <use style="fill:#ff7f00;stroke:#ff7f00;" x="148.32" xlink:href="#m1191ff6d55" y="40.187995"/>
     <use style="fill:#ff7f00;stroke:#ff7f00;" x="156.96" xlink:href="#m1191ff6d55" y="51.84"/>
     <use style="fill:#ff7f00;stroke:#ff7f00;" x="165.6" xlink:href="#m1191ff6d55" y="63.492005"/>
     <use style="fill:#ff7f00;stroke:#ff7f00;" x="174.24" xlink:href="#m1191ff6d55" y="72.836188"/>
     <use style="fill:#ff7f00;stroke:#ff7f00;" x="182.88" xlink:href="#m1191ff6d55" y="78.021818"/>
     <use style="fill:#ff7f00;stroke:#ff7f00;" x="191.52" xlink:href="#m1191ff6d55" y="78.021818"/>
     <use style="fill:#ff7f00;stroke:#ff7f00;" x="200.16" xlink:href="#m1191ff6d55" y="72.836188"/>
     <use style="fill:#ff7f00;stroke:#ff7f00;" x="208.8" xlink:href="#m1191ff6d55" y="63.492005"/>
     <use style="fill:#ff7f00;stroke:#ff7f00;" x="217.44" xlink:href="#m1191ff6d55" y="51.84"/>
     <use style="fill:#ff7f00;stroke:#ff7f00;" x="226.08" xlink:href="#m1191ff6d55" y="51.84"/>
     <use style="fill:#ff7f00;stroke:#ff7f00;" x="234.72" xlink:href="#m1191ff6d55" y="51.84"/>
     <use style="fill:#ff7f00;stroke:#ff7f00;" x="243.36" xlink:href="#m1191ff6d55" y="51.84"/>
    </g>
   </g>
  </g>
  <g id="axes_3">
   <g id="patch_10">
    <path d="M 34.56 82.08 
Q 34.56 181.44 34.56 279.681966 
" style="fill:none;stroke:#000000;stroke-linecap:round;"/>
    <path d="M 36.56 275.681966 
L 34.56 279.681966 
L 32.56 275.681966 
" style="fill:none;stroke:#000000;stroke-linecap:round;"/>
   </g>
   <g id="line2d_4">
    <path clip-path="url(#p9b86a937d5)" d="M 34.56 90.72 
L 34.56 99.36 
L 34.56 108 
L 34.56 116.64 
L 34.56 125.28 
L 34.56 133.92 
L 22.907995 142.56 
L 13.563812 151.2 
L 8.378182 159.84 
L 8.378182 168.48 
L 13.563812 177.12 
L 22.907995 185.76 
L 34.56 194.4 
L 46.212005 203.04 
L 55.556188 211.68 
L 60.741818 220.32 
L 60.741818 228.96 
L 55.556188 237.6 
L 46.212005 246.24 
L 34.56 254.88 
" style="fill:none;stroke:#ff7f00;stroke-linecap:square;stroke-width:1.5;"/>
    <g clip-path="url(#p9b86a937d5)">
     <use style="fill:#ff7f00;stroke:#ff7f00;" x="34.56" xlink:href="#m1191ff6d55" y="90.72"/>
     <use style="fill:#ff7f00;stroke:#ff7f00;" x="34.56" xlink:href="#m1191ff6d55" y="99.36"/>
     <use style="fill:#ff7f00;stroke:#ff7f00;" x="34.56" xlink:href="#m1191ff6d55" y="108"/>
     <use style="fill:#ff7f00;stroke:#ff7f00;" x="34.56" xlink:href="#m1191ff6d55" y="116.64"/>
     <use style="fill:#ff7f00;stroke:#ff7f00;" x="34.56" xlink:href="#m1191ff6d55" y="125.28"/>
     <use style="fill:#ff7f00;stroke:#ff7f00;" x="34.56" xlink:href="#m1191ff6d55" y="133.92"/>
     <use style="fill:#ff7f00;stroke:#ff7f00;" x="22.907995" xlink:href="#m1191ff6d55" y="142.56"/>
     <use style="fill:#ff7f00;stroke:#ff7f00;" x="13.563812" xlink:href="#m1191ff6d55" y="151.2"/>
     <use style="fill:#ff7f00;stroke:#ff7f00;" x="8.378182" xlink:href="#m1191ff6d55" y="159.84"/>
     <use style="fill:#ff7f00;stroke:#ff7f00;" x="8.378182" xlink:href="#m1191ff6d55" y="168.48"/>
     <use style="fill:#ff7f00;stroke:#ff7f00;" x="13.563812" xlink:href="#m1191ff6d55" y="177.12"/>
     <use style="fill:#ff7f00;stroke:#ff7f00;" x="22.907995" xlink:href="#m1191ff6d55" y="185.76"/>
     <use style="fill:#ff7f00;stroke:#ff7f00;" x="34.56" xlink:href="#m1191ff6d55" y="194.4"/>
     <use style="fill:#ff7f00;stroke:#ff7f00;" x="46.212005" xlink:href="#m1191ff6d55" y="203.04"/>
     <use style="fill:#ff7f00;stroke:#ff7f00;" x="55.556188" xlink:href="#m1191ff6d55" y="211.68"/>
     <use style="fill:#ff7f00;stroke:#ff7f00;" x="60.741818" xlink:href="#m1191ff6d55" y="220.32"/>
     <use style="fill:#ff7f00;stroke:#ff7f00;" x="60.741818" xlink:href="#m1191ff6d55" y="228.96"/>
     <use style="fill:#ff7f00;stroke:#ff7f00;" x="55.556188" xlink:href="#m1191ff6d55" y="237.6"/>
     <use style="fill:#ff7f00;stroke:#ff7f00;" x="46.212005" xlink:href="#m1191ff6d55" y="246.24"/>
     <use style="fill:#ff7f00;stroke:#ff7f00;" x="34.56" xlink:href="#m1191ff6d55" y="254.88"/>
    </g>
   </g>
  </g>
  <g id="axes_4">
   <g id="patch_11">
    <path d="M 305.28 216 
L 535.68 216 
L 535.68 100.8 
L 305.28 100.8 
z
" style="fill:#f9fafb;"/>
   </g>
   <g id="line2d_5">
    <path clip-path="url(#p7464ad3649)" d="M 315.752727 126.663538 
L 315.752727 190.136462 
" style="fill:none;stroke:#adadad;stroke-linecap:square;stroke-width:1.5;"/>
   </g>
   <g id="line2d_6">
    <path clip-path="url(#p7464ad3649)" d="M 315.752727 126.663538 
L 326.776651 190.136462 
" style="fill:none;stroke:#adadad;stroke-linecap:square;stroke-width:1.5;"/>
   </g>
   <g id="line2d_7">
    <path clip-path="url(#p7464ad3649)" d="M 315.752727 126.663538 
L 337.800574 190.136462 
" style="fill:none;stroke:#adadad;stroke-linecap:square;stroke-width:1.5;"/>
   </g>
   <g id="line2d_8">
    <path clip-path="url(#p7464ad3649)" d="M 315.752727 126.663538 
L 348.824498 190.136462 
" style="fill:none;stroke:#adadad;stroke-linecap:square;stroke-width:1.5;"/>
   </g>
   <g id="line2d_9">
    <path clip-path="url(#p7464ad3649)" d="M 326.776651 126.663538 
L 359.848421 190.136462 
" style="fill:none;stroke:#adadad;stroke-linecap:square;stroke-width:1.5;"/>
   </g>
   <g id="line2d_10">
    <path clip-path="url(#p7464ad3649)" d="M 337.800574 126.663538 
L 370.872344 190.136462 
" style="fill:none;stroke:#adadad;stroke-linecap:square;stroke-width:1.5;"/>
   </g>
   <g id="line2d_11">
    <path clip-path="url(#p7464ad3649)" d="M 348.824498 117.483582 
L 381.896268 180.956505 
" style="fill:none;stroke:#adadad;stroke-linecap:square;stroke-width:1.5;"/>
   </g>
   <g id="line2d_12">
    <path clip-path="url(#p7464ad3649)" d="M 359.848421 110.121829 
L 392.920191 173.594752 
" style="fill:none;stroke:#adadad;stroke-linecap:square;stroke-width:1.5;"/>
   </g>
   <g id="line2d_13">
    <path clip-path="url(#p7464ad3649)" d="M 370.872344 106.036364 
L 403.944115 169.509287 
" style="fill:none;stroke:#adadad;stroke-linecap:square;stroke-width:1.5;"/>
   </g>
   <g id="line2d_14">
    <path clip-path="url(#p7464ad3649)" d="M 381.896268 106.036364 
L 414.968038 169.509287 
" style="fill:none;stroke:#000000;stroke-linecap:square;stroke-width:1.5;"/>
   </g>
   <g id="line2d_15">
    <path clip-path="url(#p7464ad3649)" d="M 392.920191 110.121829 
L 425.991962 173.594752 
" style="fill:none;stroke:#adadad;stroke-linecap:square;stroke-width:1.5;"/>
   </g>
   <g id="line2d_16">
    <path clip-path="url(#p7464ad3649)" d="M 403.944115 117.483582 
L 437.015885 180.956505 
" style="fill:none;stroke:#adadad;stroke-linecap:square;stroke-width:1.5;"/>
   </g>
   <g id="line2d_17">
    <path clip-path="url(#p7464ad3649)" d="M 414.968038 126.663538 
L 448.039809 190.136462 
" style="fill:none;stroke:#adadad;stroke-linecap:square;stroke-width:1.5;"/>
   </g>
   <g id="line2d_18">
    <path clip-path="url(#p7464ad3649)" d="M 425.991962 135.843495 
L 459.063732 199.316418 
" style="fill:none;stroke:#adadad;stroke-linecap:square;stroke-width:1.5;"/>
   </g>
   <g id="line2d_19">
    <path clip-path="url(#p7464ad3649)" d="M 437.015885 143.205248 
L 470.087656 206.678171 
" style="fill:none;stroke:#adadad;stroke-linecap:square;stroke-width:1.5;"/>
   </g>
   <g id="line2d_20">
    <path clip-path="url(#p7464ad3649)" d="M 448.039809 147.290713 
L 481.111579 210.763636 
" style="fill:none;stroke:#adadad;stroke-linecap:square;stroke-width:1.5;"/>
   </g>
   <g id="line2d_21">
    <path clip-path="url(#p7464ad3649)" d="M 459.063732 147.290713 
L 492.135502 210.763636 
" style="fill:none;stroke:#adadad;stroke-linecap:square;stroke-width:1.5;"/>
   </g>
   <g id="line2d_22">
    <path clip-path="url(#p7464ad3649)" d="M 470.087656 143.205248 
L 503.159426 206.678171 
" style="fill:none;stroke:#adadad;stroke-linecap:square;stroke-width:1.5;"/>
   </g>
   <g id="line2d_23">
    <path clip-path="url(#p7464ad3649)" d="M 481.111579 135.843495 
L 514.183349 199.316418 
" style="fill:none;stroke:#adadad;stroke-linecap:square;stroke-width:1.5;"/>
   </g>
   <g id="line2d_24">
    <path clip-path="url(#p7464ad3649)" d="M 492.135502 126.663538 
L 525.207273 190.136462 
" style="fill:none;stroke:#adadad;stroke-linecap:square;stroke-width:1.5;"/>
   </g>
   <g id="line2d_25">
    <path clip-path="url(#p7464ad3649)" d="M 503.159426 126.663538 
L 525.207273 190.136462 
" style="fill:none;stroke:#adadad;stroke-linecap:square;stroke-width:1.5;"/>
   </g>
   <g id="line2d_26">
    <path clip-path="url(#p7464ad3649)" d="M 514.183349 126.663538 
L 525.207273 190.136462 
" style="fill:none;stroke:#adadad;stroke-linecap:square;stroke-width:1.5;"/>
   </g>
   <g id="line2d_27">
    <path clip-path="url(#p7464ad3649)" d="M 525.207273 126.663538 
L 525.207273 190.136462 
" style="fill:none;stroke:#adadad;stroke-linecap:square;stroke-width:1.5;"/>
   </g>
   <g id="line2d_28">
    <path clip-path="url(#p7464ad3649)" d="M 315.752727 126.663538 
L 326.776651 126.663538 
L 337.800574 126.663538 
L 348.824498 117.483582 
L 359.848421 110.121829 
L 370.872344 106.036364 
L 381.896268 106.036364 
L 392.920191 110.121829 
L 403.944115 117.483582 
L 414.968038 126.663538 
L 425.991962 135.843495 
L 437.015885 143.205248 
L 448.039809 147.290713 
L 459.063732 147.290713 
L 470.087656 143.205248 
L 481.111579 135.843495 
L 492.135502 126.663538 
L 503.159426 126.663538 
L 514.183349 126.663538 
L 525.207273 126.663538 
" style="fill:none;stroke:#ff7f00;stroke-linecap:square;stroke-width:1.5;"/>
    <g clip-path="url(#p7464ad3649)">
     <use style="fill:#ff7f00;stroke:#ff7f00;" x="315.752727" xlink:href="#m1191ff6d55" y="126.663538"/>
     <use style="fill:#ff7f00;stroke:#ff7f00;" x="326.776651" xlink:href="#m1191ff6d55" y="126.663538"/>
     <use style="fill:#ff7f00;stroke:#ff7f00;" x="337.800574" xlink:href="#m1191ff6d55" y="126.663538"/>
     <use style="fill:#ff7f00;stroke:#ff7f00;" x="348.824498" xlink:href="#m1191ff6d55" y="117.483582"/>
     <use style="fill:#ff7f00;stroke:#ff7f00;" x="359.848421" xlink:href="#m1191ff6d55" y="110.121829"/>
     <use style="fill:#ff7f00;stroke:#ff7f00;" x="370.872344" xlink:href="#m1191ff6d55" y="106.036364"/>
     <use style="fill:#ff7f00;stroke:#ff7f00;" x="381.896268" xlink:href="#m1191ff6d55" y="106.036364"/>
     <use style="fill:#ff7f00;stroke:#ff7f00;" x="392.920191" xlink:href="#m1191ff6d55" y="110.121829"/>
     <use style="fill:#ff7f00;stroke:#ff7f00;" x="403.944115" xlink:href="#m1191ff6d55" y="117.483582"/>
     <use style="fill:#ff7f00;stroke:#ff7f00;" x="414.968038" xlink:href="#m1191ff6d55" y="126.663538"/>
     <use style="fill:#ff7f00;stroke:#ff7f00;" x="425.991962" xlink:href="#m1191ff6d55" y="135.843495"/>
     <use style="fill:#ff7f00;stroke:#ff7f00;" x="437.015885" xlink:href="#m1191ff6d55" y="143.205248"/>
     <use style="fill:#ff7f00;stroke:#ff7f00;" x="448.039809" xlink:href="#m1191ff6d55" y="147.290713"/>
     <use style="fill:#ff7f00;stroke:#ff7f00;" x="459.063732" xlink:href="#m1191ff6d55" y="147.290713"/>
     <use style="fill:#ff7f00;stroke:#ff7f00;" x="470.087656" xlink:href="#m1191ff6d55" y="143.205248"/>
     <use style="fill:#ff7f00;stroke:#ff7f00;" x="481.111579" xlink:href="#m1191ff6d55" y="135.843495"/>
     <use style="fill:#ff7f00;stroke:#ff7f00;" x="492.135502" xlink:href="#m1191ff6d55" y="126.663538"/>
     <use style="fill:#ff7f00;stroke:#ff7f00;" x="503.159426" xlink:href="#m1191ff6d55" y="126.663538"/>
     <use style="fill:#ff7f00;stroke:#ff7f00;" x="514.183349" xlink:href="#m1191ff6d55" y="126.663538"/>
     <use style="fill:#ff7f00;stroke:#ff7f00;" x="525.207273" xlink:href="#m1191ff6d55" y="126.663538"/>
    </g>
   </g>
   <g id="line2d_29">
    <path clip-path="url(#p7464ad3649)" d="M 315.752727 190.136462 
L 326.776651 190.136462 
L 337.800574 190.136462 
L 348.824498 190.136462 
L 359.848421 190.136462 
L 370.872344 190.136462 
L 381.896268 180.956505 
L 392.920191 173.594752 
L 403.944115 169.509287 
L 414.968038 169.509287 
L 425.991962 173.594752 
L 437.015885 180.956505 
L 448.039809 190.136462 
L 459.063732 199.316418 
L 470.087656 206.678171 
L 481.111579 210.763636 
L 492.135502 210.763636 
L 503.159426 206.678171 
L 514.183349 199.316418 
L 525.207273 190.136462 
" style="fill:none;stroke:#ff7f00;stroke-linecap:square;stroke-width:1.5;"/>
    <g clip-path="url(#p7464ad3649)">
     <use style="fill:#ff7f00;stroke:#ff7f00;" x="315.752727" xlink:href="#m1191ff6d55" y="190.136462"/>
     <use style="fill:#ff7f00;stroke:#ff7f00;" x="326.776651" xlink:href="#m1191ff6d55" y="190.136462"/>
     <use style="fill:#ff7f00;stroke:#ff7f00;" x="337.800574" xlink:href="#m1191ff6d55" y="190.136462"/>
     <use style="fill:#ff7f00;stroke:#ff7f00;" x="348.824498" xlink:href="#m1191ff6d55" y="190.136462"/>
     <use style="fill:#ff7f00;stroke:#ff7f00;" x="359.848421" xlink:href="#m1191ff6d55" y="190.136462"/>
     <use style="fill:#ff7f00;stroke:#ff7f00;" x="370.872344" xlink:href="#m1191ff6d55" y="190.136462"/>
     <use style="fill:#ff7f00;stroke:#ff7f00;" x="381.896268" xlink:href="#m1191ff6d55" y="180.956505"/>
     <use style="fill:#ff7f00;stroke:#ff7f00;" x="392.920191" xlink:href="#m1191ff6d55" y="173.594752"/>
     <use style="fill:#ff7f00;stroke:#ff7f00;" x="403.944115" xlink:href="#m1191ff6d55" y="169.509287"/>
     <use style="fill:#ff7f00;stroke:#ff7f00;" x="414.968038" xlink:href="#m1191ff6d55" y="169.509287"/>
     <use style="fill:#ff7f00;stroke:#ff7f00;" x="425.991962" xlink:href="#m1191ff6d55" y="173.594752"/>
     <use style="fill:#ff7f00;stroke:#ff7f00;" x="437.015885" xlink:href="#m1191ff6d55" y="180.956505"/>
     <use style="fill:#ff7f00;stroke:#ff7f00;" x="448.039809" xlink:href="#m1191ff6d55" y="190.136462"/>
     <use style="fill:#ff7f00;stroke:#ff7f00;" x="459.063732" xlink:href="#m1191ff6d55" y="199.316418"/>
     <use style="fill:#ff7f00;stroke:#ff7f00;" x="470.087656" xlink:href="#m1191ff6d55" y="206.678171"/>
     <use style="fill:#ff7f00;stroke:#ff7f00;" x="481.111579" xlink:href="#m1191ff6d55" y="210.763636"/>
     <use style="fill:#ff7f00;stroke:#ff7f00;" x="492.135502" xlink:href="#m1191ff6d55" y="210.763636"/>
     <use style="fill:#ff7f00;stroke:#ff7f00;" x="503.159426" xlink:href="#m1191ff6d55" y="206.678171"/>
     <use style="fill:#ff7f00;stroke:#ff7f00;" x="514.183349" xlink:href="#m1191ff6d55" y="199.316418"/>
     <use style="fill:#ff7f00;stroke:#ff7f00;" x="525.207273" xlink:href="#m1191ff6d55" y="190.136462"/>
    </g>
   </g>
   <g id="matplotlib.axis_3"/>
   <g id="matplotlib.axis_4"/>
   <g id="patch_12">
    <path d="M 305.28 216 
L 305.28 100.8 
" style="fill:none;stroke:#000000;stroke-linecap:square;stroke-linejoin:miter;stroke-width:0.8;"/>
   </g>
   <g id="patch_13">
    <path d="M 535.68 216 
L 535.68 100.8 
" style="fill:none;stroke:#000000;stroke-linecap:square;stroke-linejoin:miter;stroke-width:0.8;"/>
   </g>
   <g id="patch_14">
    <path d="M 305.28 216 
L 535.68 216 
" style="fill:none;stroke:#000000;stroke-linecap:square;stroke-linejoin:miter;stroke-width:0.8;"/>
   </g>
   <g id="patch_15">
    <path d="M 305.28 100.8 
L 535.68 100.8 
" style="fill:none;stroke:#000000;stroke-linecap:square;stroke-linejoin:miter;stroke-width:0.8;"/>
   </g>
  </g>
 </g>
 <defs>
  <clipPath id="pbfd39751e7">
   <rect height="172.8" width="172.8" x="74.88" y="86.4"/>
  </clipPath>
  <clipPath id="pa80a09b51d">
   <rect height="57.6" width="172.8" x="74.88" y="23.04"/>
  </clipPath>
  <clipPath id="p9b86a937d5">
   <rect height="172.8" width="57.6" x="5.76" y="86.4"/>
  </clipPath>
  <clipPath id="p7464ad3649">
   <rect height="115.2" width="230.4" x="305.28" y="100.8"/>
  </clipPath>
 </defs>
</svg>
