<?xml version="1.0" encoding="utf-8" standalone="no"?>
<!DOCTYPE svg PUBLIC "-//W3C//DTD SVG 1.1//EN"
  "http://www.w3.org/Graphics/SVG/1.1/DTD/svg11.dtd">
<!-- Created with matplotlib (https://matplotlib.org/) -->
<svg height="288pt" version="1.1" viewBox="0 0 576 288" width="576pt" xmlns="http://www.w3.org/2000/svg" xmlns:xlink="http://www.w3.org/1999/xlink">
 <metadata>
  <rdf:RDF xmlns:cc="http://creativecommons.org/ns#" xmlns:dc="http://purl.org/dc/elements/1.1/" xmlns:rdf="http://www.w3.org/1999/02/22-rdf-syntax-ns#">
   <cc:Work>
    <dc:type rdf:resource="http://purl.org/dc/dcmitype/StillImage"/>
    <dc:date>2021-05-02T11:58:21.425592</dc:date>
    <dc:format>image/svg+xml</dc:format>
    <dc:creator>
     <cc:Agent>
      <dc:title>Matplotlib v3.3.3, https://matplotlib.org/</dc:title>
     </cc:Agent>
    </dc:creator>
   </cc:Work>
  </rdf:RDF>
 </metadata>
 <defs>
  <style type="text/css">*{stroke-linecap:butt;stroke-linejoin:round;}</style>
 </defs>
 <g id="figure_1">
  <g id="patch_1">
   <path d="M 0 288 
L 576 288 
L 576 0 
L 0 0 
z
" style="fill:#f9fafb;"/>
  </g>
  <g id="axes_1">
   <g id="patch_2">
    <path d="M 74.88 259.2 
L 247.68 259.2 
L 247.68 86.4 
L 74.88 86.4 
z
" style="fill:#f9fafb;"/>
   </g>
   <g id="patch_3">
    <path d="M 8.378182 164.16 
Q 71.869091 164.16 135.36 164.16 
" style="fill:none;stroke:#5c5c5c;stroke-dasharray:4,6;stroke-dashoffset:0;stroke-linecap:round;"/>
   </g>
   <g id="patch_4">
    <path d="M 135.36 25.658182 
Q 135.36 94.909091 135.36 164.16 
" style="fill:none;stroke:#5c5c5c;stroke-dasharray:4,6;stroke-dashoffset:0;stroke-linecap:round;"/>
   </g>
   <g id="matplotlib.axis_1"/>
   <g id="matplotlib.axis_2"/>
   <g id="LineCollection_1">
    <path clip-path="url(#p1b4ef0b468)" d="M 74.88 259.2 
L 74.88 86.4 
" style="fill:none;stroke:#000000;stroke-width:0.5;"/>
    <path clip-path="url(#p1b4ef0b468)" d="M 80.64 259.2 
L 80.64 86.4 
" style="fill:none;stroke:#000000;stroke-width:0.5;"/>
    <path clip-path="url(#p1b4ef0b468)" d="M 86.4 259.2 
L 86.4 86.4 
" style="fill:none;stroke:#000000;stroke-width:0.5;"/>
    <path clip-path="url(#p1b4ef0b468)" d="M 92.16 259.2 
L 92.16 86.4 
" style="fill:none;stroke:#000000;stroke-width:0.5;"/>
    <path clip-path="url(#p1b4ef0b468)" d="M 97.92 259.2 
L 97.92 86.4 
" style="fill:none;stroke:#000000;stroke-width:0.5;"/>
    <path clip-path="url(#p1b4ef0b468)" d="M 103.68 259.2 
L 103.68 86.4 
" style="fill:none;stroke:#000000;stroke-width:0.5;"/>
    <path clip-path="url(#p1b4ef0b468)" d="M 109.44 259.2 
L 109.44 86.4 
" style="fill:none;stroke:#000000;stroke-width:0.5;"/>
    <path clip-path="url(#p1b4ef0b468)" d="M 115.2 259.2 
L 115.2 86.4 
" style="fill:none;stroke:#000000;stroke-width:0.5;"/>
    <path clip-path="url(#p1b4ef0b468)" d="M 120.96 259.2 
L 120.96 86.4 
" style="fill:none;stroke:#000000;stroke-width:0.5;"/>
    <path clip-path="url(#p1b4ef0b468)" d="M 126.72 259.2 
L 126.72 86.4 
" style="fill:none;stroke:#000000;stroke-width:0.5;"/>
    <path clip-path="url(#p1b4ef0b468)" d="M 132.48 259.2 
L 132.48 86.4 
" style="fill:none;stroke:#000000;stroke-width:0.5;"/>
    <path clip-path="url(#p1b4ef0b468)" d="M 138.24 259.2 
L 138.24 86.4 
" style="fill:none;stroke:#000000;stroke-width:0.5;"/>
    <path clip-path="url(#p1b4ef0b468)" d="M 144 259.2 
L 144 86.4 
" style="fill:none;stroke:#000000;stroke-width:0.5;"/>
    <path clip-path="url(#p1b4ef0b468)" d="M 149.76 259.2 
L 149.76 86.4 
" style="fill:none;stroke:#000000;stroke-width:0.5;"/>
    <path clip-path="url(#p1b4ef0b468)" d="M 155.52 259.2 
L 155.52 86.4 
" style="fill:none;stroke:#000000;stroke-width:0.5;"/>
    <path clip-path="url(#p1b4ef0b468)" d="M 161.28 259.2 
L 161.28 86.4 
" style="fill:none;stroke:#000000;stroke-width:0.5;"/>
    <path clip-path="url(#p1b4ef0b468)" d="M 167.04 259.2 
L 167.04 86.4 
" style="fill:none;stroke:#000000;stroke-width:0.5;"/>
    <path clip-path="url(#p1b4ef0b468)" d="M 172.8 259.2 
L 172.8 86.4 
" style="fill:none;stroke:#000000;stroke-width:0.5;"/>
    <path clip-path="url(#p1b4ef0b468)" d="M 178.56 259.2 
L 178.56 86.4 
" style="fill:none;stroke:#000000;stroke-width:0.5;"/>
    <path clip-path="url(#p1b4ef0b468)" d="M 184.32 259.2 
L 184.32 86.4 
" style="fill:none;stroke:#000000;stroke-width:0.5;"/>
    <path clip-path="url(#p1b4ef0b468)" d="M 190.08 259.2 
L 190.08 86.4 
" style="fill:none;stroke:#000000;stroke-width:0.5;"/>
    <path clip-path="url(#p1b4ef0b468)" d="M 195.84 259.2 
L 195.84 86.4 
" style="fill:none;stroke:#000000;stroke-width:0.5;"/>
    <path clip-path="url(#p1b4ef0b468)" d="M 201.6 259.2 
L 201.6 86.4 
" style="fill:none;stroke:#000000;stroke-width:0.5;"/>
    <path clip-path="url(#p1b4ef0b468)" d="M 207.36 259.2 
L 207.36 86.4 
" style="fill:none;stroke:#000000;stroke-width:0.5;"/>
    <path clip-path="url(#p1b4ef0b468)" d="M 213.12 259.2 
L 213.12 86.4 
" style="fill:none;stroke:#000000;stroke-width:0.5;"/>
    <path clip-path="url(#p1b4ef0b468)" d="M 218.88 259.2 
L 218.88 86.4 
" style="fill:none;stroke:#000000;stroke-width:0.5;"/>
    <path clip-path="url(#p1b4ef0b468)" d="M 224.64 259.2 
L 224.64 86.4 
" style="fill:none;stroke:#000000;stroke-width:0.5;"/>
    <path clip-path="url(#p1b4ef0b468)" d="M 230.4 259.2 
L 230.4 86.4 
" style="fill:none;stroke:#000000;stroke-width:0.5;"/>
    <path clip-path="url(#p1b4ef0b468)" d="M 236.16 259.2 
L 236.16 86.4 
" style="fill:none;stroke:#000000;stroke-width:0.5;"/>
    <path clip-path="url(#p1b4ef0b468)" d="M 241.92 259.2 
L 241.92 86.4 
" style="fill:none;stroke:#000000;stroke-width:0.5;"/>
   </g>
   <g id="LineCollection_2">
    <path clip-path="url(#p1b4ef0b468)" d="M 74.88 259.2 
L 247.68 259.2 
" style="fill:none;stroke:#000000;stroke-width:0.5;"/>
    <path clip-path="url(#p1b4ef0b468)" d="M 74.88 253.44 
L 247.68 253.44 
" style="fill:none;stroke:#000000;stroke-width:0.5;"/>
    <path clip-path="url(#p1b4ef0b468)" d="M 74.88 247.68 
L 247.68 247.68 
" style="fill:none;stroke:#000000;stroke-width:0.5;"/>
    <path clip-path="url(#p1b4ef0b468)" d="M 74.88 241.92 
L 247.68 241.92 
" style="fill:none;stroke:#000000;stroke-width:0.5;"/>
    <path clip-path="url(#p1b4ef0b468)" d="M 74.88 236.16 
L 247.68 236.16 
" style="fill:none;stroke:#000000;stroke-width:0.5;"/>
    <path clip-path="url(#p1b4ef0b468)" d="M 74.88 230.4 
L 247.68 230.4 
" style="fill:none;stroke:#000000;stroke-width:0.5;"/>
    <path clip-path="url(#p1b4ef0b468)" d="M 74.88 224.64 
L 247.68 224.64 
" style="fill:none;stroke:#000000;stroke-width:0.5;"/>
    <path clip-path="url(#p1b4ef0b468)" d="M 74.88 218.88 
L 247.68 218.88 
" style="fill:none;stroke:#000000;stroke-width:0.5;"/>
    <path clip-path="url(#p1b4ef0b468)" d="M 74.88 213.12 
L 247.68 213.12 
" style="fill:none;stroke:#000000;stroke-width:0.5;"/>
    <path clip-path="url(#p1b4ef0b468)" d="M 74.88 207.36 
L 247.68 207.36 
" style="fill:none;stroke:#000000;stroke-width:0.5;"/>
    <path clip-path="url(#p1b4ef0b468)" d="M 74.88 201.6 
L 247.68 201.6 
" style="fill:none;stroke:#000000;stroke-width:0.5;"/>
    <path clip-path="url(#p1b4ef0b468)" d="M 74.88 195.84 
L 247.68 195.84 
" style="fill:none;stroke:#000000;stroke-width:0.5;"/>
    <path clip-path="url(#p1b4ef0b468)" d="M 74.88 190.08 
L 247.68 190.08 
" style="fill:none;stroke:#000000;stroke-width:0.5;"/>
    <path clip-path="url(#p1b4ef0b468)" d="M 74.88 184.32 
L 247.68 184.32 
" style="fill:none;stroke:#000000;stroke-width:0.5;"/>
    <path clip-path="url(#p1b4ef0b468)" d="M 74.88 178.56 
L 247.68 178.56 
" style="fill:none;stroke:#000000;stroke-width:0.5;"/>
    <path clip-path="url(#p1b4ef0b468)" d="M 74.88 172.8 
L 247.68 172.8 
" style="fill:none;stroke:#000000;stroke-width:0.5;"/>
    <path clip-path="url(#p1b4ef0b468)" d="M 74.88 167.04 
L 247.68 167.04 
" style="fill:none;stroke:#000000;stroke-width:0.5;"/>
    <path clip-path="url(#p1b4ef0b468)" d="M 74.88 161.28 
L 247.68 161.28 
" style="fill:none;stroke:#000000;stroke-width:0.5;"/>
    <path clip-path="url(#p1b4ef0b468)" d="M 74.88 155.52 
L 247.68 155.52 
" style="fill:none;stroke:#000000;stroke-width:0.5;"/>
    <path clip-path="url(#p1b4ef0b468)" d="M 74.88 149.76 
L 247.68 149.76 
" style="fill:none;stroke:#000000;stroke-width:0.5;"/>
    <path clip-path="url(#p1b4ef0b468)" d="M 74.88 144 
L 247.68 144 
" style="fill:none;stroke:#000000;stroke-width:0.5;"/>
    <path clip-path="url(#p1b4ef0b468)" d="M 74.88 138.24 
L 247.68 138.24 
" style="fill:none;stroke:#000000;stroke-width:0.5;"/>
    <path clip-path="url(#p1b4ef0b468)" d="M 74.88 132.48 
L 247.68 132.48 
" style="fill:none;stroke:#000000;stroke-width:0.5;"/>
    <path clip-path="url(#p1b4ef0b468)" d="M 74.88 126.72 
L 247.68 126.72 
" style="fill:none;stroke:#000000;stroke-width:0.5;"/>
    <path clip-path="url(#p1b4ef0b468)" d="M 74.88 120.96 
L 247.68 120.96 
" style="fill:none;stroke:#000000;stroke-width:0.5;"/>
    <path clip-path="url(#p1b4ef0b468)" d="M 74.88 115.2 
L 247.68 115.2 
" style="fill:none;stroke:#000000;stroke-width:0.5;"/>
    <path clip-path="url(#p1b4ef0b468)" d="M 74.88 109.44 
L 247.68 109.44 
" style="fill:none;stroke:#000000;stroke-width:0.5;"/>
    <path clip-path="url(#p1b4ef0b468)" d="M 74.88 103.68 
L 247.68 103.68 
" style="fill:none;stroke:#000000;stroke-width:0.5;"/>
    <path clip-path="url(#p1b4ef0b468)" d="M 74.88 97.92 
L 247.68 97.92 
" style="fill:none;stroke:#000000;stroke-width:0.5;"/>
    <path clip-path="url(#p1b4ef0b468)" d="M 74.88 92.16 
L 247.68 92.16 
" style="fill:none;stroke:#000000;stroke-width:0.5;"/>
   </g>
   <g id="line2d_1">
    <path clip-path="url(#p1b4ef0b468)" d="M 77.76 89.28 
L 77.76 95.04 
L 77.76 100.8 
L 77.76 106.56 
L 83.52 112.32 
L 89.28 118.08 
L 95.04 123.84 
L 100.8 129.6 
L 106.56 135.36 
L 112.32 141.12 
L 118.08 146.88 
L 123.84 152.64 
L 129.6 158.4 
L 135.36 164.16 
L 141.12 169.92 
L 146.88 175.68 
L 152.64 181.44 
L 158.4 187.2 
L 164.16 192.96 
L 169.92 198.72 
L 175.68 204.48 
L 181.44 210.24 
L 187.2 216 
L 192.96 221.76 
L 198.72 227.52 
L 204.48 233.28 
L 210.24 239.04 
L 216 244.8 
L 221.76 250.56 
L 227.52 250.56 
L 233.28 250.56 
L 239.04 250.56 
L 244.8 256.32 
" style="fill:none;stroke:#adadad;stroke-linecap:square;stroke-width:1.5;"/>
    <defs>
     <path d="M 0 1.5 
C 0.397805 1.5 0.77937 1.341951 1.06066 1.06066 
C 1.341951 0.77937 1.5 0.397805 1.5 0 
C 1.5 -0.397805 1.341951 -0.77937 1.06066 -1.06066 
C 0.77937 -1.341951 0.397805 -1.5 0 -1.5 
C -0.397805 -1.5 -0.77937 -1.341951 -1.06066 -1.06066 
C -1.341951 -0.77937 -1.5 -0.397805 -1.5 0 
C -1.5 0.397805 -1.341951 0.77937 -1.06066 1.06066 
C -0.77937 1.341951 -0.397805 1.5 0 1.5 
z
" id="m2596204a28" style="stroke:#adadad;"/>
    </defs>
    <g clip-path="url(#p1b4ef0b468)">
     <use style="fill:#adadad;stroke:#adadad;" x="77.76" xlink:href="#m2596204a28" y="89.28"/>
     <use style="fill:#adadad;stroke:#adadad;" x="77.76" xlink:href="#m2596204a28" y="95.04"/>
     <use style="fill:#adadad;stroke:#adadad;" x="77.76" xlink:href="#m2596204a28" y="100.8"/>
     <use style="fill:#adadad;stroke:#adadad;" x="77.76" xlink:href="#m2596204a28" y="106.56"/>
     <use style="fill:#adadad;stroke:#adadad;" x="83.52" xlink:href="#m2596204a28" y="112.32"/>
     <use style="fill:#adadad;stroke:#adadad;" x="89.28" xlink:href="#m2596204a28" y="118.08"/>
     <use style="fill:#adadad;stroke:#adadad;" x="95.04" xlink:href="#m2596204a28" y="123.84"/>
     <use style="fill:#adadad;stroke:#adadad;" x="100.8" xlink:href="#m2596204a28" y="129.6"/>
     <use style="fill:#adadad;stroke:#adadad;" x="106.56" xlink:href="#m2596204a28" y="135.36"/>
     <use style="fill:#adadad;stroke:#adadad;" x="112.32" xlink:href="#m2596204a28" y="141.12"/>
     <use style="fill:#adadad;stroke:#adadad;" x="118.08" xlink:href="#m2596204a28" y="146.88"/>
     <use style="fill:#adadad;stroke:#adadad;" x="123.84" xlink:href="#m2596204a28" y="152.64"/>
     <use style="fill:#adadad;stroke:#adadad;" x="129.6" xlink:href="#m2596204a28" y="158.4"/>
     <use style="fill:#adadad;stroke:#adadad;" x="135.36" xlink:href="#m2596204a28" y="164.16"/>
     <use style="fill:#adadad;stroke:#adadad;" x="141.12" xlink:href="#m2596204a28" y="169.92"/>
     <use style="fill:#adadad;stroke:#adadad;" x="146.88" xlink:href="#m2596204a28" y="175.68"/>
     <use style="fill:#adadad;stroke:#adadad;" x="152.64" xlink:href="#m2596204a28" y="181.44"/>
     <use style="fill:#adadad;stroke:#adadad;" x="158.4" xlink:href="#m2596204a28" y="187.2"/>
     <use style="fill:#adadad;stroke:#adadad;" x="164.16" xlink:href="#m2596204a28" y="192.96"/>
     <use style="fill:#adadad;stroke:#adadad;" x="169.92" xlink:href="#m2596204a28" y="198.72"/>
     <use style="fill:#adadad;stroke:#adadad;" x="175.68" xlink:href="#m2596204a28" y="204.48"/>
     <use style="fill:#adadad;stroke:#adadad;" x="181.44" xlink:href="#m2596204a28" y="210.24"/>
     <use style="fill:#adadad;stroke:#adadad;" x="187.2" xlink:href="#m2596204a28" y="216"/>
     <use style="fill:#adadad;stroke:#adadad;" x="192.96" xlink:href="#m2596204a28" y="221.76"/>
     <use style="fill:#adadad;stroke:#adadad;" x="198.72" xlink:href="#m2596204a28" y="227.52"/>
     <use style="fill:#adadad;stroke:#adadad;" x="204.48" xlink:href="#m2596204a28" y="233.28"/>
     <use style="fill:#adadad;stroke:#adadad;" x="210.24" xlink:href="#m2596204a28" y="239.04"/>
     <use style="fill:#adadad;stroke:#adadad;" x="216" xlink:href="#m2596204a28" y="244.8"/>
     <use style="fill:#adadad;stroke:#adadad;" x="221.76" xlink:href="#m2596204a28" y="250.56"/>
     <use style="fill:#adadad;stroke:#adadad;" x="227.52" xlink:href="#m2596204a28" y="250.56"/>
     <use style="fill:#adadad;stroke:#adadad;" x="233.28" xlink:href="#m2596204a28" y="250.56"/>
     <use style="fill:#adadad;stroke:#adadad;" x="239.04" xlink:href="#m2596204a28" y="250.56"/>
     <use style="fill:#adadad;stroke:#adadad;" x="244.8" xlink:href="#m2596204a28" y="256.32"/>
    </g>
   </g>
   <g id="line2d_2">
    <path clip-path="url(#p1b4ef0b468)" d="M 135.36 164.16 
" style="fill:none;stroke:#000000;stroke-linecap:square;stroke-width:1.5;"/>
    <defs>
     <path d="M 0 1.5 
C 0.397805 1.5 0.77937 1.341951 1.06066 1.06066 
C 1.341951 0.77937 1.5 0.397805 1.5 0 
C 1.5 -0.397805 1.341951 -0.77937 1.06066 -1.06066 
C 0.77937 -1.341951 0.397805 -1.5 0 -1.5 
C -0.397805 -1.5 -0.77937 -1.341951 -1.06066 -1.06066 
C -1.341951 -0.77937 -1.5 -0.397805 -1.5 0 
C -1.5 0.397805 -1.341951 0.77937 -1.06066 1.06066 
C -0.77937 1.341951 -0.397805 1.5 0 1.5 
z
" id="mf8866b85fc" style="stroke:#000000;"/>
    </defs>
    <g clip-path="url(#p1b4ef0b468)">
     <use style="stroke:#000000;" x="135.36" xlink:href="#mf8866b85fc" y="164.16"/>
    </g>
   </g>
   <g id="patch_5">
    <path d="M 74.88 259.2 
L 74.88 86.4 
" style="fill:none;stroke:#000000;stroke-linecap:square;stroke-linejoin:miter;stroke-width:0.8;"/>
   </g>
   <g id="patch_6">
    <path d="M 247.68 259.2 
L 247.68 86.4 
" style="fill:none;stroke:#000000;stroke-linecap:square;stroke-linejoin:miter;stroke-width:0.8;"/>
   </g>
   <g id="patch_7">
    <path d="M 74.88 259.2 
L 247.68 259.2 
" style="fill:none;stroke:#000000;stroke-linecap:square;stroke-linejoin:miter;stroke-width:0.8;"/>
   </g>
   <g id="patch_8">
    <path d="M 74.88 86.4 
L 247.68 86.4 
" style="fill:none;stroke:#000000;stroke-linecap:square;stroke-linejoin:miter;stroke-width:0.8;"/>
   </g>
  </g>
  <g id="axes_2">
   <g id="patch_9">
    <path d="M 72 51.84 
Q 167.04 51.84 260.961966 51.84 
" style="fill:none;stroke:#000000;stroke-linecap:round;"/>
    <path d="M 256.961966 49.84 
L 260.961966 51.84 
L 256.961966 53.84 
" style="fill:none;stroke:#000000;stroke-linecap:round;"/>
   </g>
   <g id="line2d_3">
    <path clip-path="url(#p61c8d194da)" d="M 77.76 51.84 
L 83.52 51.84 
L 89.28 51.84 
L 95.04 51.84 
L 100.8 51.84 
L 106.56 51.84 
L 112.32 43.309642 
L 118.08 35.703681 
L 123.84 29.84634 
L 129.6 26.372354 
L 135.36 25.658182 
L 141.12 27.781216 
L 146.88 32.511393 
L 152.64 39.336125 
L 158.4 47.515845 
L 164.16 56.164155 
L 169.92 64.343875 
L 175.68 71.168607 
L 181.44 75.898784 
L 187.2 78.021818 
L 192.96 77.307646 
L 198.72 73.83366 
L 204.48 67.976319 
L 210.24 60.370358 
L 216 51.84 
L 221.76 51.84 
L 227.52 51.84 
L 233.28 51.84 
L 239.04 51.84 
L 244.8 51.84 
" style="fill:none;stroke:#ff7f00;stroke-linecap:square;stroke-width:1.5;"/>
    <defs>
     <path d="M 0 2 
C 0.530406 2 1.03916 1.789267 1.414214 1.414214 
C 1.789267 1.03916 2 0.530406 2 0 
C 2 -0.530406 1.789267 -1.03916 1.414214 -1.414214 
C 1.03916 -1.789267 0.530406 -2 0 -2 
C -0.530406 -2 -1.03916 -1.789267 -1.414214 -1.414214 
C -1.789267 -1.03916 -2 -0.530406 -2 0 
C -2 0.530406 -1.789267 1.03916 -1.414214 1.414214 
C -1.03916 1.789267 -0.530406 2 0 2 
z
" id="m5e900aac07" style="stroke:#ff7f00;"/>
    </defs>
    <g clip-path="url(#p61c8d194da)">
     <use style="fill:#ff7f00;stroke:#ff7f00;" x="77.76" xlink:href="#m5e900aac07" y="51.84"/>
     <use style="fill:#ff7f00;stroke:#ff7f00;" x="83.52" xlink:href="#m5e900aac07" y="51.84"/>
     <use style="fill:#ff7f00;stroke:#ff7f00;" x="89.28" xlink:href="#m5e900aac07" y="51.84"/>
     <use style="fill:#ff7f00;stroke:#ff7f00;" x="95.04" xlink:href="#m5e900aac07" y="51.84"/>
     <use style="fill:#ff7f00;stroke:#ff7f00;" x="100.8" xlink:href="#m5e900aac07" y="51.84"/>
     <use style="fill:#ff7f00;stroke:#ff7f00;" x="106.56" xlink:href="#m5e900aac07" y="51.84"/>
     <use style="fill:#ff7f00;stroke:#ff7f00;" x="112.32" xlink:href="#m5e900aac07" y="43.309642"/>
     <use style="fill:#ff7f00;stroke:#ff7f00;" x="118.08" xlink:href="#m5e900aac07" y="35.703681"/>
     <use style="fill:#ff7f00;stroke:#ff7f00;" x="123.84" xlink:href="#m5e900aac07" y="29.84634"/>
     <use style="fill:#ff7f00;stroke:#ff7f00;" x="129.6" xlink:href="#m5e900aac07" y="26.372354"/>
     <use style="fill:#ff7f00;stroke:#ff7f00;" x="135.36" xlink:href="#m5e900aac07" y="25.658182"/>
     <use style="fill:#ff7f00;stroke:#ff7f00;" x="141.12" xlink:href="#m5e900aac07" y="27.781216"/>
     <use style="fill:#ff7f00;stroke:#ff7f00;" x="146.88" xlink:href="#m5e900aac07" y="32.511393"/>
     <use style="fill:#ff7f00;stroke:#ff7f00;" x="152.64" xlink:href="#m5e900aac07" y="39.336125"/>
     <use style="fill:#ff7f00;stroke:#ff7f00;" x="158.4" xlink:href="#m5e900aac07" y="47.515845"/>
     <use style="fill:#ff7f00;stroke:#ff7f00;" x="164.16" xlink:href="#m5e900aac07" y="56.164155"/>
     <use style="fill:#ff7f00;stroke:#ff7f00;" x="169.92" xlink:href="#m5e900aac07" y="64.343875"/>
     <use style="fill:#ff7f00;stroke:#ff7f00;" x="175.68" xlink:href="#m5e900aac07" y="71.168607"/>
     <use style="fill:#ff7f00;stroke:#ff7f00;" x="181.44" xlink:href="#m5e900aac07" y="75.898784"/>
     <use style="fill:#ff7f00;stroke:#ff7f00;" x="187.2" xlink:href="#m5e900aac07" y="78.021818"/>
     <use style="fill:#ff7f00;stroke:#ff7f00;" x="192.96" xlink:href="#m5e900aac07" y="77.307646"/>
     <use style="fill:#ff7f00;stroke:#ff7f00;" x="198.72" xlink:href="#m5e900aac07" y="73.83366"/>
     <use style="fill:#ff7f00;stroke:#ff7f00;" x="204.48" xlink:href="#m5e900aac07" y="67.976319"/>
     <use style="fill:#ff7f00;stroke:#ff7f00;" x="210.24" xlink:href="#m5e900aac07" y="60.370358"/>
     <use style="fill:#ff7f00;stroke:#ff7f00;" x="216" xlink:href="#m5e900aac07" y="51.84"/>
     <use style="fill:#ff7f00;stroke:#ff7f00;" x="221.76" xlink:href="#m5e900aac07" y="51.84"/>
     <use style="fill:#ff7f00;stroke:#ff7f00;" x="227.52" xlink:href="#m5e900aac07" y="51.84"/>
     <use style="fill:#ff7f00;stroke:#ff7f00;" x="233.28" xlink:href="#m5e900aac07" y="51.84"/>
     <use style="fill:#ff7f00;stroke:#ff7f00;" x="239.04" xlink:href="#m5e900aac07" y="51.84"/>
     <use style="fill:#ff7f00;stroke:#ff7f00;" x="244.8" xlink:href="#m5e900aac07" y="51.84"/>
    </g>
   </g>
  </g>
  <g id="axes_3">
   <g id="patch_10">
    <path d="M 34.56 83.52 
Q 34.56 178.56 34.56 272.481966 
" style="fill:none;stroke:#000000;stroke-linecap:round;"/>
    <path d="M 36.56 268.481966 
L 34.56 272.481966 
L 32.56 268.481966 
" style="fill:none;stroke:#000000;stroke-linecap:round;"/>
   </g>
   <g id="line2d_4">
    <path clip-path="url(#pad2009bcc8)" d="M 34.56 89.28 
L 34.56 95.04 
L 34.56 100.8 
L 34.56 106.56 
L 34.56 112.32 
L 34.56 118.08 
L 34.56 123.84 
L 34.56 129.6 
L 34.56 135.36 
L 26.029642 141.12 
L 18.423681 146.88 
L 12.56634 152.64 
L 9.092354 158.4 
L 8.378182 164.16 
L 10.501216 169.92 
L 15.231393 175.68 
L 22.056125 181.44 
L 30.235845 187.2 
L 38.884155 192.96 
L 47.063875 198.72 
L 53.888607 204.48 
L 58.618784 210.24 
L 60.741818 216 
L 60.027646 221.76 
L 56.55366 227.52 
L 50.696319 233.28 
L 43.090358 239.04 
L 34.56 244.8 
L 34.56 250.56 
L 34.56 256.32 
" style="fill:none;stroke:#ff7f00;stroke-linecap:square;stroke-width:1.5;"/>
    <g clip-path="url(#pad2009bcc8)">
     <use style="fill:#ff7f00;stroke:#ff7f00;" x="34.56" xlink:href="#m5e900aac07" y="89.28"/>
     <use style="fill:#ff7f00;stroke:#ff7f00;" x="34.56" xlink:href="#m5e900aac07" y="95.04"/>
     <use style="fill:#ff7f00;stroke:#ff7f00;" x="34.56" xlink:href="#m5e900aac07" y="100.8"/>
     <use style="fill:#ff7f00;stroke:#ff7f00;" x="34.56" xlink:href="#m5e900aac07" y="106.56"/>
     <use style="fill:#ff7f00;stroke:#ff7f00;" x="34.56" xlink:href="#m5e900aac07" y="112.32"/>
     <use style="fill:#ff7f00;stroke:#ff7f00;" x="34.56" xlink:href="#m5e900aac07" y="118.08"/>
     <use style="fill:#ff7f00;stroke:#ff7f00;" x="34.56" xlink:href="#m5e900aac07" y="123.84"/>
     <use style="fill:#ff7f00;stroke:#ff7f00;" x="34.56" xlink:href="#m5e900aac07" y="129.6"/>
     <use style="fill:#ff7f00;stroke:#ff7f00;" x="34.56" xlink:href="#m5e900aac07" y="135.36"/>
     <use style="fill:#ff7f00;stroke:#ff7f00;" x="26.029642" xlink:href="#m5e900aac07" y="141.12"/>
     <use style="fill:#ff7f00;stroke:#ff7f00;" x="18.423681" xlink:href="#m5e900aac07" y="146.88"/>
     <use style="fill:#ff7f00;stroke:#ff7f00;" x="12.56634" xlink:href="#m5e900aac07" y="152.64"/>
     <use style="fill:#ff7f00;stroke:#ff7f00;" x="9.092354" xlink:href="#m5e900aac07" y="158.4"/>
     <use style="fill:#ff7f00;stroke:#ff7f00;" x="8.378182" xlink:href="#m5e900aac07" y="164.16"/>
     <use style="fill:#ff7f00;stroke:#ff7f00;" x="10.501216" xlink:href="#m5e900aac07" y="169.92"/>
     <use style="fill:#ff7f00;stroke:#ff7f00;" x="15.231393" xlink:href="#m5e900aac07" y="175.68"/>
     <use style="fill:#ff7f00;stroke:#ff7f00;" x="22.056125" xlink:href="#m5e900aac07" y="181.44"/>
     <use style="fill:#ff7f00;stroke:#ff7f00;" x="30.235845" xlink:href="#m5e900aac07" y="187.2"/>
     <use style="fill:#ff7f00;stroke:#ff7f00;" x="38.884155" xlink:href="#m5e900aac07" y="192.96"/>
     <use style="fill:#ff7f00;stroke:#ff7f00;" x="47.063875" xlink:href="#m5e900aac07" y="198.72"/>
     <use style="fill:#ff7f00;stroke:#ff7f00;" x="53.888607" xlink:href="#m5e900aac07" y="204.48"/>
     <use style="fill:#ff7f00;stroke:#ff7f00;" x="58.618784" xlink:href="#m5e900aac07" y="210.24"/>
     <use style="fill:#ff7f00;stroke:#ff7f00;" x="60.741818" xlink:href="#m5e900aac07" y="216"/>
     <use style="fill:#ff7f00;stroke:#ff7f00;" x="60.027646" xlink:href="#m5e900aac07" y="221.76"/>
     <use style="fill:#ff7f00;stroke:#ff7f00;" x="56.55366" xlink:href="#m5e900aac07" y="227.52"/>
     <use style="fill:#ff7f00;stroke:#ff7f00;" x="50.696319" xlink:href="#m5e900aac07" y="233.28"/>
     <use style="fill:#ff7f00;stroke:#ff7f00;" x="43.090358" xlink:href="#m5e900aac07" y="239.04"/>
     <use style="fill:#ff7f00;stroke:#ff7f00;" x="34.56" xlink:href="#m5e900aac07" y="244.8"/>
     <use style="fill:#ff7f00;stroke:#ff7f00;" x="34.56" xlink:href="#m5e900aac07" y="250.56"/>
     <use style="fill:#ff7f00;stroke:#ff7f00;" x="34.56" xlink:href="#m5e900aac07" y="256.32"/>
    </g>
   </g>
  </g>
  <g id="axes_4">
   <g id="patch_11">
    <path d="M 305.28 216 
L 535.68 216 
L 535.68 100.8 
L 305.28 100.8 
z
" style="fill:#f9fafb;"/>
   </g>
   <g id="line2d_5">
    <path clip-path="url(#p53bd8e262a)" d="M 315.752727 126.938836 
L 315.752727 189.861164 
" style="fill:none;stroke:#adadad;stroke-linecap:square;stroke-width:1.5;"/>
   </g>
   <g id="line2d_6">
    <path clip-path="url(#p53bd8e262a)" d="M 315.752727 126.938836 
L 322.975298 189.861164 
" style="fill:none;stroke:#adadad;stroke-linecap:square;stroke-width:1.5;"/>
   </g>
   <g id="line2d_7">
    <path clip-path="url(#p53bd8e262a)" d="M 315.752727 126.938836 
L 330.197868 189.861164 
" style="fill:none;stroke:#adadad;stroke-linecap:square;stroke-width:1.5;"/>
   </g>
   <g id="line2d_8">
    <path clip-path="url(#p53bd8e262a)" d="M 315.752727 126.938836 
L 337.420439 189.861164 
" style="fill:none;stroke:#adadad;stroke-linecap:square;stroke-width:1.5;"/>
   </g>
   <g id="line2d_9">
    <path clip-path="url(#p53bd8e262a)" d="M 322.975298 126.938836 
L 344.643009 189.861164 
" style="fill:none;stroke:#adadad;stroke-linecap:square;stroke-width:1.5;"/>
   </g>
   <g id="line2d_10">
    <path clip-path="url(#p53bd8e262a)" d="M 330.197868 126.938836 
L 351.86558 189.861164 
" style="fill:none;stroke:#adadad;stroke-linecap:square;stroke-width:1.5;"/>
   </g>
   <g id="line2d_11">
    <path clip-path="url(#p53bd8e262a)" d="M 337.420439 126.938836 
L 359.08815 189.861164 
" style="fill:none;stroke:#adadad;stroke-linecap:square;stroke-width:1.5;"/>
   </g>
   <g id="line2d_12">
    <path clip-path="url(#p53bd8e262a)" d="M 344.643009 126.938836 
L 366.310721 189.861164 
" style="fill:none;stroke:#adadad;stroke-linecap:square;stroke-width:1.5;"/>
   </g>
   <g id="line2d_13">
    <path clip-path="url(#p53bd8e262a)" d="M 351.86558 126.938836 
L 373.533292 189.861164 
" style="fill:none;stroke:#adadad;stroke-linecap:square;stroke-width:1.5;"/>
   </g>
   <g id="line2d_14">
    <path clip-path="url(#p53bd8e262a)" d="M 359.08815 120.128554 
L 380.755862 183.050882 
" style="fill:none;stroke:#adadad;stroke-linecap:square;stroke-width:1.5;"/>
   </g>
   <g id="line2d_15">
    <path clip-path="url(#p53bd8e262a)" d="M 366.310721 114.056271 
L 387.978433 176.978599 
" style="fill:none;stroke:#adadad;stroke-linecap:square;stroke-width:1.5;"/>
   </g>
   <g id="line2d_16">
    <path clip-path="url(#p53bd8e262a)" d="M 373.533292 109.380015 
L 395.201003 172.302343 
" style="fill:none;stroke:#adadad;stroke-linecap:square;stroke-width:1.5;"/>
   </g>
   <g id="line2d_17">
    <path clip-path="url(#p53bd8e262a)" d="M 380.755862 106.606529 
L 402.423574 169.528857 
" style="fill:none;stroke:#adadad;stroke-linecap:square;stroke-width:1.5;"/>
   </g>
   <g id="line2d_18">
    <path clip-path="url(#p53bd8e262a)" d="M 387.978433 106.036364 
L 409.646144 168.958692 
" style="fill:none;stroke:#000000;stroke-linecap:square;stroke-width:1.5;"/>
   </g>
   <g id="line2d_19">
    <path clip-path="url(#p53bd8e262a)" d="M 395.201003 107.731306 
L 416.868715 170.653634 
" style="fill:none;stroke:#adadad;stroke-linecap:square;stroke-width:1.5;"/>
   </g>
   <g id="line2d_20">
    <path clip-path="url(#p53bd8e262a)" d="M 402.423574 111.507682 
L 424.091285 174.43001 
" style="fill:none;stroke:#adadad;stroke-linecap:square;stroke-width:1.5;"/>
   </g>
   <g id="line2d_21">
    <path clip-path="url(#p53bd8e262a)" d="M 409.646144 116.956263 
L 431.313856 179.878591 
" style="fill:none;stroke:#adadad;stroke-linecap:square;stroke-width:1.5;"/>
   </g>
   <g id="line2d_22">
    <path clip-path="url(#p53bd8e262a)" d="M 416.868715 123.486611 
L 438.536426 186.408939 
" style="fill:none;stroke:#adadad;stroke-linecap:square;stroke-width:1.5;"/>
   </g>
   <g id="line2d_23">
    <path clip-path="url(#p53bd8e262a)" d="M 424.091285 130.391061 
L 445.758997 193.313389 
" style="fill:none;stroke:#adadad;stroke-linecap:square;stroke-width:1.5;"/>
   </g>
   <g id="line2d_24">
    <path clip-path="url(#p53bd8e262a)" d="M 431.313856 136.921409 
L 452.981567 199.843737 
" style="fill:none;stroke:#adadad;stroke-linecap:square;stroke-width:1.5;"/>
   </g>
   <g id="line2d_25">
    <path clip-path="url(#p53bd8e262a)" d="M 438.536426 142.36999 
L 460.204138 205.292318 
" style="fill:none;stroke:#adadad;stroke-linecap:square;stroke-width:1.5;"/>
   </g>
   <g id="line2d_26">
    <path clip-path="url(#p53bd8e262a)" d="M 445.758997 146.146366 
L 467.426708 209.068694 
" style="fill:none;stroke:#adadad;stroke-linecap:square;stroke-width:1.5;"/>
   </g>
   <g id="line2d_27">
    <path clip-path="url(#p53bd8e262a)" d="M 452.981567 147.841308 
L 474.649279 210.763636 
" style="fill:none;stroke:#adadad;stroke-linecap:square;stroke-width:1.5;"/>
   </g>
   <g id="line2d_28">
    <path clip-path="url(#p53bd8e262a)" d="M 460.204138 147.271143 
L 481.87185 210.193471 
" style="fill:none;stroke:#adadad;stroke-linecap:square;stroke-width:1.5;"/>
   </g>
   <g id="line2d_29">
    <path clip-path="url(#p53bd8e262a)" d="M 467.426708 144.497657 
L 489.09442 207.419985 
" style="fill:none;stroke:#adadad;stroke-linecap:square;stroke-width:1.5;"/>
   </g>
   <g id="line2d_30">
    <path clip-path="url(#p53bd8e262a)" d="M 474.649279 139.821401 
L 496.316991 202.743729 
" style="fill:none;stroke:#adadad;stroke-linecap:square;stroke-width:1.5;"/>
   </g>
   <g id="line2d_31">
    <path clip-path="url(#p53bd8e262a)" d="M 481.87185 133.749118 
L 503.539561 196.671446 
" style="fill:none;stroke:#adadad;stroke-linecap:square;stroke-width:1.5;"/>
   </g>
   <g id="line2d_32">
    <path clip-path="url(#p53bd8e262a)" d="M 489.09442 126.938836 
L 510.762132 189.861164 
" style="fill:none;stroke:#adadad;stroke-linecap:square;stroke-width:1.5;"/>
   </g>
   <g id="line2d_33">
    <path clip-path="url(#p53bd8e262a)" d="M 496.316991 126.938836 
L 517.984702 189.861164 
" style="fill:none;stroke:#adadad;stroke-linecap:square;stroke-width:1.5;"/>
   </g>
   <g id="line2d_34">
    <path clip-path="url(#p53bd8e262a)" d="M 503.539561 126.938836 
L 517.984702 189.861164 
" style="fill:none;stroke:#adadad;stroke-linecap:square;stroke-width:1.5;"/>
   </g>
   <g id="line2d_35">
    <path clip-path="url(#p53bd8e262a)" d="M 510.762132 126.938836 
L 517.984702 189.861164 
" style="fill:none;stroke:#adadad;stroke-linecap:square;stroke-width:1.5;"/>
   </g>
   <g id="line2d_36">
    <path clip-path="url(#p53bd8e262a)" d="M 517.984702 126.938836 
L 517.984702 189.861164 
" style="fill:none;stroke:#adadad;stroke-linecap:square;stroke-width:1.5;"/>
   </g>
   <g id="line2d_37">
    <path clip-path="url(#p53bd8e262a)" d="M 525.207273 126.938836 
L 525.207273 189.861164 
" style="fill:none;stroke:#adadad;stroke-linecap:square;stroke-width:1.5;"/>
   </g>
   <g id="line2d_38">
    <path clip-path="url(#p53bd8e262a)" d="M 315.752727 126.938836 
L 322.975298 126.938836 
L 330.197868 126.938836 
L 337.420439 126.938836 
L 344.643009 126.938836 
L 351.86558 126.938836 
L 359.08815 120.128554 
L 366.310721 114.056271 
L 373.533292 109.380015 
L 380.755862 106.606529 
L 387.978433 106.036364 
L 395.201003 107.731306 
L 402.423574 111.507682 
L 409.646144 116.956263 
L 416.868715 123.486611 
L 424.091285 130.391061 
L 431.313856 136.921409 
L 438.536426 142.36999 
L 445.758997 146.146366 
L 452.981567 147.841308 
L 460.204138 147.271143 
L 467.426708 144.497657 
L 474.649279 139.821401 
L 481.87185 133.749118 
L 489.09442 126.938836 
L 496.316991 126.938836 
L 503.539561 126.938836 
L 510.762132 126.938836 
L 517.984702 126.938836 
L 525.207273 126.938836 
" style="fill:none;stroke:#ff7f00;stroke-linecap:square;stroke-width:1.5;"/>
    <g clip-path="url(#p53bd8e262a)">
     <use style="fill:#ff7f00;stroke:#ff7f00;" x="315.752727" xlink:href="#m5e900aac07" y="126.938836"/>
     <use style="fill:#ff7f00;stroke:#ff7f00;" x="322.975298" xlink:href="#m5e900aac07" y="126.938836"/>
     <use style="fill:#ff7f00;stroke:#ff7f00;" x="330.197868" xlink:href="#m5e900aac07" y="126.938836"/>
     <use style="fill:#ff7f00;stroke:#ff7f00;" x="337.420439" xlink:href="#m5e900aac07" y="126.938836"/>
     <use style="fill:#ff7f00;stroke:#ff7f00;" x="344.643009" xlink:href="#m5e900aac07" y="126.938836"/>
     <use style="fill:#ff7f00;stroke:#ff7f00;" x="351.86558" xlink:href="#m5e900aac07" y="126.938836"/>
     <use style="fill:#ff7f00;stroke:#ff7f00;" x="359.08815" xlink:href="#m5e900aac07" y="120.128554"/>
     <use style="fill:#ff7f00;stroke:#ff7f00;" x="366.310721" xlink:href="#m5e900aac07" y="114.056271"/>
     <use style="fill:#ff7f00;stroke:#ff7f00;" x="373.533292" xlink:href="#m5e900aac07" y="109.380015"/>
     <use style="fill:#ff7f00;stroke:#ff7f00;" x="380.755862" xlink:href="#m5e900aac07" y="106.606529"/>
     <use style="fill:#ff7f00;stroke:#ff7f00;" x="387.978433" xlink:href="#m5e900aac07" y="106.036364"/>
     <use style="fill:#ff7f00;stroke:#ff7f00;" x="395.201003" xlink:href="#m5e900aac07" y="107.731306"/>
     <use style="fill:#ff7f00;stroke:#ff7f00;" x="402.423574" xlink:href="#m5e900aac07" y="111.507682"/>
     <use style="fill:#ff7f00;stroke:#ff7f00;" x="409.646144" xlink:href="#m5e900aac07" y="116.956263"/>
     <use style="fill:#ff7f00;stroke:#ff7f00;" x="416.868715" xlink:href="#m5e900aac07" y="123.486611"/>
     <use style="fill:#ff7f00;stroke:#ff7f00;" x="424.091285" xlink:href="#m5e900aac07" y="130.391061"/>
     <use style="fill:#ff7f00;stroke:#ff7f00;" x="431.313856" xlink:href="#m5e900aac07" y="136.921409"/>
     <use style="fill:#ff7f00;stroke:#ff7f00;" x="438.536426" xlink:href="#m5e900aac07" y="142.36999"/>
     <use style="fill:#ff7f00;stroke:#ff7f00;" x="445.758997" xlink:href="#m5e900aac07" y="146.146366"/>
     <use style="fill:#ff7f00;stroke:#ff7f00;" x="452.981567" xlink:href="#m5e900aac07" y="147.841308"/>
     <use style="fill:#ff7f00;stroke:#ff7f00;" x="460.204138" xlink:href="#m5e900aac07" y="147.271143"/>
     <use style="fill:#ff7f00;stroke:#ff7f00;" x="467.426708" xlink:href="#m5e900aac07" y="144.497657"/>
     <use style="fill:#ff7f00;stroke:#ff7f00;" x="474.649279" xlink:href="#m5e900aac07" y="139.821401"/>
     <use style="fill:#ff7f00;stroke:#ff7f00;" x="481.87185" xlink:href="#m5e900aac07" y="133.749118"/>
     <use style="fill:#ff7f00;stroke:#ff7f00;" x="489.09442" xlink:href="#m5e900aac07" y="126.938836"/>
     <use style="fill:#ff7f00;stroke:#ff7f00;" x="496.316991" xlink:href="#m5e900aac07" y="126.938836"/>
     <use style="fill:#ff7f00;stroke:#ff7f00;" x="503.539561" xlink:href="#m5e900aac07" y="126.938836"/>
     <use style="fill:#ff7f00;stroke:#ff7f00;" x="510.762132" xlink:href="#m5e900aac07" y="126.938836"/>
     <use style="fill:#ff7f00;stroke:#ff7f00;" x="517.984702" xlink:href="#m5e900aac07" y="126.938836"/>
     <use style="fill:#ff7f00;stroke:#ff7f00;" x="525.207273" xlink:href="#m5e900aac07" y="126.938836"/>
    </g>
   </g>
   <g id="line2d_39">
    <path clip-path="url(#p53bd8e262a)" d="M 315.752727 189.861164 
L 322.975298 189.861164 
L 330.197868 189.861164 
L 337.420439 189.861164 
L 344.643009 189.861164 
L 351.86558 189.861164 
L 359.08815 189.861164 
L 366.310721 189.861164 
L 373.533292 189.861164 
L 380.755862 183.050882 
L 387.978433 176.978599 
L 395.201003 172.302343 
L 402.423574 169.528857 
L 409.646144 168.958692 
L 416.868715 170.653634 
L 424.091285 174.43001 
L 431.313856 179.878591 
L 438.536426 186.408939 
L 445.758997 193.313389 
L 452.981567 199.843737 
L 460.204138 205.292318 
L 467.426708 209.068694 
L 474.649279 210.763636 
L 481.87185 210.193471 
L 489.09442 207.419985 
L 496.316991 202.743729 
L 503.539561 196.671446 
L 510.762132 189.861164 
L 517.984702 189.861164 
L 525.207273 189.861164 
" style="fill:none;stroke:#ff7f00;stroke-linecap:square;stroke-width:1.5;"/>
    <g clip-path="url(#p53bd8e262a)">
     <use style="fill:#ff7f00;stroke:#ff7f00;" x="315.752727" xlink:href="#m5e900aac07" y="189.861164"/>
     <use style="fill:#ff7f00;stroke:#ff7f00;" x="322.975298" xlink:href="#m5e900aac07" y="189.861164"/>
     <use style="fill:#ff7f00;stroke:#ff7f00;" x="330.197868" xlink:href="#m5e900aac07" y="189.861164"/>
     <use style="fill:#ff7f00;stroke:#ff7f00;" x="337.420439" xlink:href="#m5e900aac07" y="189.861164"/>
     <use style="fill:#ff7f00;stroke:#ff7f00;" x="344.643009" xlink:href="#m5e900aac07" y="189.861164"/>
     <use style="fill:#ff7f00;stroke:#ff7f00;" x="351.86558" xlink:href="#m5e900aac07" y="189.861164"/>
     <use style="fill:#ff7f00;stroke:#ff7f00;" x="359.08815" xlink:href="#m5e900aac07" y="189.861164"/>
     <use style="fill:#ff7f00;stroke:#ff7f00;" x="366.310721" xlink:href="#m5e900aac07" y="189.861164"/>
     <use style="fill:#ff7f00;stroke:#ff7f00;" x="373.533292" xlink:href="#m5e900aac07" y="189.861164"/>
     <use style="fill:#ff7f00;stroke:#ff7f00;" x="380.755862" xlink:href="#m5e900aac07" y="183.050882"/>
     <use style="fill:#ff7f00;stroke:#ff7f00;" x="387.978433" xlink:href="#m5e900aac07" y="176.978599"/>
     <use style="fill:#ff7f00;stroke:#ff7f00;" x="395.201003" xlink:href="#m5e900aac07" y="172.302343"/>
     <use style="fill:#ff7f00;stroke:#ff7f00;" x="402.423574" xlink:href="#m5e900aac07" y="169.528857"/>
     <use style="fill:#ff7f00;stroke:#ff7f00;" x="409.646144" xlink:href="#m5e900aac07" y="168.958692"/>
     <use style="fill:#ff7f00;stroke:#ff7f00;" x="416.868715" xlink:href="#m5e900aac07" y="170.653634"/>
     <use style="fill:#ff7f00;stroke:#ff7f00;" x="424.091285" xlink:href="#m5e900aac07" y="174.43001"/>
     <use style="fill:#ff7f00;stroke:#ff7f00;" x="431.313856" xlink:href="#m5e900aac07" y="179.878591"/>
     <use style="fill:#ff7f00;stroke:#ff7f00;" x="438.536426" xlink:href="#m5e900aac07" y="186.408939"/>
     <use style="fill:#ff7f00;stroke:#ff7f00;" x="445.758997" xlink:href="#m5e900aac07" y="193.313389"/>
     <use style="fill:#ff7f00;stroke:#ff7f00;" x="452.981567" xlink:href="#m5e900aac07" y="199.843737"/>
     <use style="fill:#ff7f00;stroke:#ff7f00;" x="460.204138" xlink:href="#m5e900aac07" y="205.292318"/>
     <use style="fill:#ff7f00;stroke:#ff7f00;" x="467.426708" xlink:href="#m5e900aac07" y="209.068694"/>
     <use style="fill:#ff7f00;stroke:#ff7f00;" x="474.649279" xlink:href="#m5e900aac07" y="210.763636"/>
     <use style="fill:#ff7f00;stroke:#ff7f00;" x="481.87185" xlink:href="#m5e900aac07" y="210.193471"/>
     <use style="fill:#ff7f00;stroke:#ff7f00;" x="489.09442" xlink:href="#m5e900aac07" y="207.419985"/>
     <use style="fill:#ff7f00;stroke:#ff7f00;" x="496.316991" xlink:href="#m5e900aac07" y="202.743729"/>
     <use style="fill:#ff7f00;stroke:#ff7f00;" x="503.539561" xlink:href="#m5e900aac07" y="196.671446"/>
     <use style="fill:#ff7f00;stroke:#ff7f00;" x="510.762132" xlink:href="#m5e900aac07" y="189.861164"/>
     <use style="fill:#ff7f00;stroke:#ff7f00;" x="517.984702" xlink:href="#m5e900aac07" y="189.861164"/>
     <use style="fill:#ff7f00;stroke:#ff7f00;" x="525.207273" xlink:href="#m5e900aac07" y="189.861164"/>
    </g>
   </g>
   <g id="matplotlib.axis_3"/>
   <g id="matplotlib.axis_4"/>
   <g id="patch_12">
    <path d="M 305.28 216 
L 305.28 100.8 
" style="fill:none;stroke:#000000;stroke-linecap:square;stroke-linejoin:miter;stroke-width:0.8;"/>
   </g>
   <g id="patch_13">
    <path d="M 535.68 216 
L 535.68 100.8 
" style="fill:none;stroke:#000000;stroke-linecap:square;stroke-linejoin:miter;stroke-width:0.8;"/>
   </g>
   <g id="patch_14">
    <path d="M 305.28 216 
L 535.68 216 
" style="fill:none;stroke:#000000;stroke-linecap:square;stroke-linejoin:miter;stroke-width:0.8;"/>
   </g>
   <g id="patch_15">
    <path d="M 305.28 100.8 
L 535.68 100.8 
" style="fill:none;stroke:#000000;stroke-linecap:square;stroke-linejoin:miter;stroke-width:0.8;"/>
   </g>
  </g>
 </g>
 <defs>
  <clipPath id="p1b4ef0b468">
   <rect height="172.8" width="172.8" x="74.88" y="86.4"/>
  </clipPath>
  <clipPath id="p61c8d194da">
   <rect height="57.6" width="172.8" x="74.88" y="23.04"/>
  </clipPath>
  <clipPath id="pad2009bcc8">
   <rect height="172.8" width="57.6" x="5.76" y="86.4"/>
  </clipPath>
  <clipPath id="p53bd8e262a">
   <rect height="115.2" width="230.4" x="305.28" y="100.8"/>
  </clipPath>
 </defs>
</svg>
