<?xml version="1.0" encoding="utf-8" standalone="no"?>
<!DOCTYPE svg PUBLIC "-//W3C//DTD SVG 1.1//EN"
  "http://www.w3.org/Graphics/SVG/1.1/DTD/svg11.dtd">
<svg height="288pt" version="1.1" viewBox="0 0 576 288" width="576pt" xmlns="http://www.w3.org/2000/svg" xmlns:xlink="http://www.w3.org/1999/xlink">
 <metadata>
  <rdf:RDF xmlns:cc="http://creativecommons.org/ns#" xmlns:dc="http://purl.org/dc/elements/1.1/" xmlns:rdf="http://www.w3.org/1999/02/22-rdf-syntax-ns#">
   <cc:Work>
    <dc:type rdf:resource="http://purl.org/dc/dcmitype/StillImage"/>
    <dc:date>2021-05-06T09:34:38.411515</dc:date>
    <dc:format>image/svg+xml</dc:format>
    <dc:creator>
     <cc:Agent>
      <dc:title>Matplotlib v3.4.1, https://matplotlib.org/</dc:title>
     </cc:Agent>
    </dc:creator>
   </cc:Work>
  </rdf:RDF>
 </metadata>
 <defs>
  <style type="text/css">*{stroke-linecap:butt;stroke-linejoin:round;}</style>
 </defs>
 <g id="figure_1">
  <g id="patch_1">
   <path d="M 0 288 
L 576 288 
L 576 0 
L 0 0 
z
" style="fill:#f9fafb;"/>
  </g>
  <g id="axes_1">
   <g id="patch_2">
    <path d="M 74.88 259.2 
L 247.68 259.2 
L 247.68 86.4 
L 74.88 86.4 
z
" style="fill:#f9fafb;"/>
   </g>
   <g id="patch_3">
    <path d="M 8.378182 168.48 
Q 69.709091 168.48 131.04 168.48 
" style="fill:none;stroke:#5c5c5c;stroke-dasharray:4,6;stroke-dashoffset:0;stroke-linecap:round;"/>
   </g>
   <g id="patch_4">
    <path d="M 131.04 25.658182 
Q 131.04 97.069091 131.04 168.48 
" style="fill:none;stroke:#5c5c5c;stroke-dasharray:4,6;stroke-dashoffset:0;stroke-linecap:round;"/>
   </g>
   <g id="matplotlib.axis_1"/>
   <g id="matplotlib.axis_2"/>
   <g id="line2d_1">
    <path clip-path="url(#p6da7877a80)" d="M 79.2 90.72 
L 79.2 99.36 
L 79.2 108 
L 79.2 116.64 
L 87.84 125.28 
L 96.48 133.92 
L 105.12 142.56 
L 113.76 151.2 
L 122.4 159.84 
L 131.04 168.48 
L 139.68 177.12 
L 148.32 185.76 
L 156.96 194.4 
L 165.6 203.04 
L 174.24 211.68 
L 182.88 220.32 
L 191.52 228.96 
L 200.16 237.6 
L 208.8 246.24 
L 217.44 254.88 
L 226.08 254.88 
L 234.72 254.88 
L 243.36 254.88 
" style="fill:none;stroke:#adadad;stroke-linecap:square;stroke-width:1.5;"/>
    <defs>
     <path d="M 0 2.5 
C 0.663008 2.5 1.29895 2.236584 1.767767 1.767767 
C 2.236584 1.29895 2.5 0.663008 2.5 0 
C 2.5 -0.663008 2.236584 -1.29895 1.767767 -1.767767 
C 1.29895 -2.236584 0.663008 -2.5 0 -2.5 
C -0.663008 -2.5 -1.29895 -2.236584 -1.767767 -1.767767 
C -2.236584 -1.29895 -2.5 -0.663008 -2.5 0 
C -2.5 0.663008 -2.236584 1.29895 -1.767767 1.767767 
C -1.29895 2.236584 -0.663008 2.5 0 2.5 
z
" id="m31d679f0e3" style="stroke:#adadad;"/>
    </defs>
    <g clip-path="url(#p6da7877a80)">
     <use style="fill:#adadad;stroke:#adadad;" x="79.2" xlink:href="#m31d679f0e3" y="90.72"/>
     <use style="fill:#adadad;stroke:#adadad;" x="79.2" xlink:href="#m31d679f0e3" y="99.36"/>
     <use style="fill:#adadad;stroke:#adadad;" x="79.2" xlink:href="#m31d679f0e3" y="108"/>
     <use style="fill:#adadad;stroke:#adadad;" x="79.2" xlink:href="#m31d679f0e3" y="116.64"/>
     <use style="fill:#adadad;stroke:#adadad;" x="87.84" xlink:href="#m31d679f0e3" y="125.28"/>
     <use style="fill:#adadad;stroke:#adadad;" x="96.48" xlink:href="#m31d679f0e3" y="133.92"/>
     <use style="fill:#adadad;stroke:#adadad;" x="105.12" xlink:href="#m31d679f0e3" y="142.56"/>
     <use style="fill:#adadad;stroke:#adadad;" x="113.76" xlink:href="#m31d679f0e3" y="151.2"/>
     <use style="fill:#adadad;stroke:#adadad;" x="122.4" xlink:href="#m31d679f0e3" y="159.84"/>
     <use style="fill:#adadad;stroke:#adadad;" x="131.04" xlink:href="#m31d679f0e3" y="168.48"/>
     <use style="fill:#adadad;stroke:#adadad;" x="139.68" xlink:href="#m31d679f0e3" y="177.12"/>
     <use style="fill:#adadad;stroke:#adadad;" x="148.32" xlink:href="#m31d679f0e3" y="185.76"/>
     <use style="fill:#adadad;stroke:#adadad;" x="156.96" xlink:href="#m31d679f0e3" y="194.4"/>
     <use style="fill:#adadad;stroke:#adadad;" x="165.6" xlink:href="#m31d679f0e3" y="203.04"/>
     <use style="fill:#adadad;stroke:#adadad;" x="174.24" xlink:href="#m31d679f0e3" y="211.68"/>
     <use style="fill:#adadad;stroke:#adadad;" x="182.88" xlink:href="#m31d679f0e3" y="220.32"/>
     <use style="fill:#adadad;stroke:#adadad;" x="191.52" xlink:href="#m31d679f0e3" y="228.96"/>
     <use style="fill:#adadad;stroke:#adadad;" x="200.16" xlink:href="#m31d679f0e3" y="237.6"/>
     <use style="fill:#adadad;stroke:#adadad;" x="208.8" xlink:href="#m31d679f0e3" y="246.24"/>
     <use style="fill:#adadad;stroke:#adadad;" x="217.44" xlink:href="#m31d679f0e3" y="254.88"/>
     <use style="fill:#adadad;stroke:#adadad;" x="226.08" xlink:href="#m31d679f0e3" y="254.88"/>
     <use style="fill:#adadad;stroke:#adadad;" x="234.72" xlink:href="#m31d679f0e3" y="254.88"/>
     <use style="fill:#adadad;stroke:#adadad;" x="243.36" xlink:href="#m31d679f0e3" y="254.88"/>
    </g>
   </g>
   <g id="line2d_2">
    <path clip-path="url(#p6da7877a80)" d="M 131.04 168.48 
" style="fill:none;stroke:#000000;stroke-linecap:square;stroke-width:1.5;"/>
    <defs>
     <path d="M 0 2.5 
C 0.663008 2.5 1.29895 2.236584 1.767767 1.767767 
C 2.236584 1.29895 2.5 0.663008 2.5 0 
C 2.5 -0.663008 2.236584 -1.29895 1.767767 -1.767767 
C 1.29895 -2.236584 0.663008 -2.5 0 -2.5 
C -0.663008 -2.5 -1.29895 -2.236584 -1.767767 -1.767767 
C -2.236584 -1.29895 -2.5 -0.663008 -2.5 0 
C -2.5 0.663008 -2.236584 1.29895 -1.767767 1.767767 
C -1.29895 2.236584 -0.663008 2.5 0 2.5 
z
" id="mbd7bc1ec9b" style="stroke:#000000;"/>
    </defs>
    <g clip-path="url(#p6da7877a80)">
     <use style="stroke:#000000;" x="131.04" xlink:href="#mbd7bc1ec9b" y="168.48"/>
    </g>
   </g>
   <g id="patch_5">
    <path d="M 74.88 259.2 
L 74.88 86.4 
" style="fill:none;stroke:#000000;stroke-linecap:square;stroke-linejoin:miter;stroke-width:0.8;"/>
   </g>
   <g id="patch_6">
    <path d="M 247.68 259.2 
L 247.68 86.4 
" style="fill:none;stroke:#000000;stroke-linecap:square;stroke-linejoin:miter;stroke-width:0.8;"/>
   </g>
   <g id="patch_7">
    <path d="M 74.88 259.2 
L 247.68 259.2 
" style="fill:none;stroke:#000000;stroke-linecap:square;stroke-linejoin:miter;stroke-width:0.8;"/>
   </g>
   <g id="patch_8">
    <path d="M 74.88 86.4 
L 247.68 86.4 
" style="fill:none;stroke:#000000;stroke-linecap:square;stroke-linejoin:miter;stroke-width:0.8;"/>
   </g>
   <g id="text_1">
    <!-- $A_\pi$ -->
    <g transform="translate(208.8 125.28)scale(0.26 -0.26)">
     <defs>
      <path d="M 3610 134 
C 3245 166 3206 217 3123 682 
L 2522 4288 
L 2355 4288 
L 499 1103 
C -6 256 -70 185 -326 134 
L -326 32 
L 870 32 
L 870 134 
C 544 166 493 198 493 357 
C 493 478 512 536 621 753 
L 986 1472 
L 2394 1472 
L 2522 638 
C 2528 580 2534 523 2534 472 
C 2534 230 2445 173 2035 134 
L 2035 32 
L 3610 32 
L 3610 134 
z
M 1120 1702 
L 2080 3358 
L 2362 1702 
L 1120 1702 
z
" id="NimbusRomNo9L-ReguItal-41" transform="scale(0.015625)"/>
      <path d="M 3334 2816 
L 1120 2816 
C 531 2816 179 2115 128 1994 
L 198 1994 
C 230 2038 467 2350 800 2350 
L 1133 2350 
L 685 998 
C 544 574 19 574 19 136 
L 19 104 
C 19 -6 102 -64 256 -64 
C 499 -64 730 89 1043 993 
L 1510 2350 
L 2157 2350 
L 1843 980 
C 1798 796 1773 636 1773 510 
L 1773 452 
C 1773 177 1965 -64 2278 -64 
C 2426 -64 2598 -20 2598 190 
L 2598 216 
C 2598 592 2214 541 2214 898 
C 2214 948 2221 1006 2240 1076 
L 2554 2350 
L 3226 2350 
L 3334 2816 
z
" id="rtxmi-19" transform="scale(0.015625)"/>
     </defs>
     <use transform="scale(0.996264)" xlink:href="#NimbusRomNo9L-ReguItal-41"/>
     <use transform="translate(60.751202 -14.943915)scale(0.727268)" xlink:href="#rtxmi-19"/>
    </g>
   </g>
  </g>
  <g id="axes_2">
   <g id="patch_9">
    <path d="M 70.56 51.84 
Q 169.92 51.84 268.161966 51.84 
" style="fill:none;stroke:#000000;stroke-linecap:round;"/>
    <path d="M 264.161966 49.84 
L 268.161966 51.84 
L 264.161966 53.84 
" style="fill:none;stroke:#000000;stroke-linecap:round;"/>
   </g>
   <g id="line2d_3">
    <path clip-path="url(#pa2d3b1d07c)" d="M 79.2 51.84 
L 87.84 51.84 
L 96.48 51.84 
L 105.12 40.187995 
L 113.76 30.843812 
L 122.4 25.658182 
L 131.04 25.658182 
L 139.68 30.843812 
L 148.32 40.187995 
L 156.96 51.84 
L 165.6 63.492005 
L 174.24 72.836188 
L 182.88 78.021818 
L 191.52 78.021818 
L 200.16 72.836188 
L 208.8 63.492005 
L 217.44 51.84 
L 226.08 51.84 
L 234.72 51.84 
L 243.36 51.84 
" style="fill:none;stroke:#ff7f00;stroke-linecap:square;stroke-width:1.5;"/>
    <defs>
     <path d="M 0 2 
C 0.530406 2 1.03916 1.789267 1.414214 1.414214 
C 1.789267 1.03916 2 0.530406 2 0 
C 2 -0.530406 1.789267 -1.03916 1.414214 -1.414214 
C 1.03916 -1.789267 0.530406 -2 0 -2 
C -0.530406 -2 -1.03916 -1.789267 -1.414214 -1.414214 
C -1.789267 -1.03916 -2 -0.530406 -2 0 
C -2 0.530406 -1.789267 1.03916 -1.414214 1.414214 
C -1.03916 1.789267 -0.530406 2 0 2 
z
" id="maab6803d02" style="stroke:#ff7f00;"/>
    </defs>
    <g clip-path="url(#pa2d3b1d07c)">
     <use style="fill:#ff7f00;stroke:#ff7f00;" x="79.2" xlink:href="#maab6803d02" y="51.84"/>
     <use style="fill:#ff7f00;stroke:#ff7f00;" x="87.84" xlink:href="#maab6803d02" y="51.84"/>
     <use style="fill:#ff7f00;stroke:#ff7f00;" x="96.48" xlink:href="#maab6803d02" y="51.84"/>
     <use style="fill:#ff7f00;stroke:#ff7f00;" x="105.12" xlink:href="#maab6803d02" y="40.187995"/>
     <use style="fill:#ff7f00;stroke:#ff7f00;" x="113.76" xlink:href="#maab6803d02" y="30.843812"/>
     <use style="fill:#ff7f00;stroke:#ff7f00;" x="122.4" xlink:href="#maab6803d02" y="25.658182"/>
     <use style="fill:#ff7f00;stroke:#ff7f00;" x="131.04" xlink:href="#maab6803d02" y="25.658182"/>
     <use style="fill:#ff7f00;stroke:#ff7f00;" x="139.68" xlink:href="#maab6803d02" y="30.843812"/>
     <use style="fill:#ff7f00;stroke:#ff7f00;" x="148.32" xlink:href="#maab6803d02" y="40.187995"/>
     <use style="fill:#ff7f00;stroke:#ff7f00;" x="156.96" xlink:href="#maab6803d02" y="51.84"/>
     <use style="fill:#ff7f00;stroke:#ff7f00;" x="165.6" xlink:href="#maab6803d02" y="63.492005"/>
     <use style="fill:#ff7f00;stroke:#ff7f00;" x="174.24" xlink:href="#maab6803d02" y="72.836188"/>
     <use style="fill:#ff7f00;stroke:#ff7f00;" x="182.88" xlink:href="#maab6803d02" y="78.021818"/>
     <use style="fill:#ff7f00;stroke:#ff7f00;" x="191.52" xlink:href="#maab6803d02" y="78.021818"/>
     <use style="fill:#ff7f00;stroke:#ff7f00;" x="200.16" xlink:href="#maab6803d02" y="72.836188"/>
     <use style="fill:#ff7f00;stroke:#ff7f00;" x="208.8" xlink:href="#maab6803d02" y="63.492005"/>
     <use style="fill:#ff7f00;stroke:#ff7f00;" x="217.44" xlink:href="#maab6803d02" y="51.84"/>
     <use style="fill:#ff7f00;stroke:#ff7f00;" x="226.08" xlink:href="#maab6803d02" y="51.84"/>
     <use style="fill:#ff7f00;stroke:#ff7f00;" x="234.72" xlink:href="#maab6803d02" y="51.84"/>
     <use style="fill:#ff7f00;stroke:#ff7f00;" x="243.36" xlink:href="#maab6803d02" y="51.84"/>
    </g>
   </g>
  </g>
  <g id="axes_3">
   <g id="patch_10">
    <path d="M 34.56 82.08 
Q 34.56 181.44 34.56 279.681966 
" style="fill:none;stroke:#000000;stroke-linecap:round;"/>
    <path d="M 36.56 275.681966 
L 34.56 279.681966 
L 32.56 275.681966 
" style="fill:none;stroke:#000000;stroke-linecap:round;"/>
   </g>
   <g id="line2d_4">
    <path clip-path="url(#p40b5acbc03)" d="M 34.56 90.72 
L 34.56 99.36 
L 34.56 108 
L 34.56 116.64 
L 34.56 125.28 
L 34.56 133.92 
L 22.907995 142.56 
L 13.563812 151.2 
L 8.378182 159.84 
L 8.378182 168.48 
L 13.563812 177.12 
L 22.907995 185.76 
L 34.56 194.4 
L 46.212005 203.04 
L 55.556188 211.68 
L 60.741818 220.32 
L 60.741818 228.96 
L 55.556188 237.6 
L 46.212005 246.24 
L 34.56 254.88 
" style="fill:none;stroke:#ff7f00;stroke-linecap:square;stroke-width:1.5;"/>
    <g clip-path="url(#p40b5acbc03)">
     <use style="fill:#ff7f00;stroke:#ff7f00;" x="34.56" xlink:href="#maab6803d02" y="90.72"/>
     <use style="fill:#ff7f00;stroke:#ff7f00;" x="34.56" xlink:href="#maab6803d02" y="99.36"/>
     <use style="fill:#ff7f00;stroke:#ff7f00;" x="34.56" xlink:href="#maab6803d02" y="108"/>
     <use style="fill:#ff7f00;stroke:#ff7f00;" x="34.56" xlink:href="#maab6803d02" y="116.64"/>
     <use style="fill:#ff7f00;stroke:#ff7f00;" x="34.56" xlink:href="#maab6803d02" y="125.28"/>
     <use style="fill:#ff7f00;stroke:#ff7f00;" x="34.56" xlink:href="#maab6803d02" y="133.92"/>
     <use style="fill:#ff7f00;stroke:#ff7f00;" x="22.907995" xlink:href="#maab6803d02" y="142.56"/>
     <use style="fill:#ff7f00;stroke:#ff7f00;" x="13.563812" xlink:href="#maab6803d02" y="151.2"/>
     <use style="fill:#ff7f00;stroke:#ff7f00;" x="8.378182" xlink:href="#maab6803d02" y="159.84"/>
     <use style="fill:#ff7f00;stroke:#ff7f00;" x="8.378182" xlink:href="#maab6803d02" y="168.48"/>
     <use style="fill:#ff7f00;stroke:#ff7f00;" x="13.563812" xlink:href="#maab6803d02" y="177.12"/>
     <use style="fill:#ff7f00;stroke:#ff7f00;" x="22.907995" xlink:href="#maab6803d02" y="185.76"/>
     <use style="fill:#ff7f00;stroke:#ff7f00;" x="34.56" xlink:href="#maab6803d02" y="194.4"/>
     <use style="fill:#ff7f00;stroke:#ff7f00;" x="46.212005" xlink:href="#maab6803d02" y="203.04"/>
     <use style="fill:#ff7f00;stroke:#ff7f00;" x="55.556188" xlink:href="#maab6803d02" y="211.68"/>
     <use style="fill:#ff7f00;stroke:#ff7f00;" x="60.741818" xlink:href="#maab6803d02" y="220.32"/>
     <use style="fill:#ff7f00;stroke:#ff7f00;" x="60.741818" xlink:href="#maab6803d02" y="228.96"/>
     <use style="fill:#ff7f00;stroke:#ff7f00;" x="55.556188" xlink:href="#maab6803d02" y="237.6"/>
     <use style="fill:#ff7f00;stroke:#ff7f00;" x="46.212005" xlink:href="#maab6803d02" y="246.24"/>
     <use style="fill:#ff7f00;stroke:#ff7f00;" x="34.56" xlink:href="#maab6803d02" y="254.88"/>
    </g>
   </g>
  </g>
  <g id="axes_4">
   <g id="patch_11">
    <path d="M 305.28 216 
L 535.68 216 
L 535.68 100.8 
L 305.28 100.8 
z
" style="fill:#f9fafb;"/>
   </g>
   <g id="line2d_5">
    <path clip-path="url(#p18f028bdcb)" d="M 315.752727 126.663538 
L 315.752727 190.136462 
" style="fill:none;stroke:#adadad;stroke-linecap:square;stroke-width:1.5;"/>
   </g>
   <g id="line2d_6">
    <path clip-path="url(#p18f028bdcb)" d="M 315.752727 126.663538 
L 326.776651 190.136462 
" style="fill:none;stroke:#adadad;stroke-linecap:square;stroke-width:1.5;"/>
   </g>
   <g id="line2d_7">
    <path clip-path="url(#p18f028bdcb)" d="M 315.752727 126.663538 
L 337.800574 190.136462 
" style="fill:none;stroke:#adadad;stroke-linecap:square;stroke-width:1.5;"/>
   </g>
   <g id="line2d_8">
    <path clip-path="url(#p18f028bdcb)" d="M 315.752727 126.663538 
L 348.824498 190.136462 
" style="fill:none;stroke:#adadad;stroke-linecap:square;stroke-width:1.5;"/>
   </g>
   <g id="line2d_9">
    <path clip-path="url(#p18f028bdcb)" d="M 326.776651 126.663538 
L 359.848421 190.136462 
" style="fill:none;stroke:#adadad;stroke-linecap:square;stroke-width:1.5;"/>
   </g>
   <g id="line2d_10">
    <path clip-path="url(#p18f028bdcb)" d="M 337.800574 126.663538 
L 370.872344 190.136462 
" style="fill:none;stroke:#adadad;stroke-linecap:square;stroke-width:1.5;"/>
   </g>
   <g id="line2d_11">
    <path clip-path="url(#p18f028bdcb)" d="M 348.824498 117.483582 
L 381.896268 180.956505 
" style="fill:none;stroke:#adadad;stroke-linecap:square;stroke-width:1.5;"/>
   </g>
   <g id="line2d_12">
    <path clip-path="url(#p18f028bdcb)" d="M 359.848421 110.121829 
L 392.920191 173.594752 
" style="fill:none;stroke:#adadad;stroke-linecap:square;stroke-width:1.5;"/>
   </g>
   <g id="line2d_13">
    <path clip-path="url(#p18f028bdcb)" d="M 370.872344 106.036364 
L 403.944115 169.509287 
" style="fill:none;stroke:#adadad;stroke-linecap:square;stroke-width:1.5;"/>
   </g>
   <g id="line2d_14">
    <path clip-path="url(#p18f028bdcb)" d="M 381.896268 106.036364 
L 414.968038 169.509287 
" style="fill:none;stroke:#000000;stroke-linecap:square;stroke-width:1.5;"/>
   </g>
   <g id="line2d_15">
    <path clip-path="url(#p18f028bdcb)" d="M 392.920191 110.121829 
L 425.991962 173.594752 
" style="fill:none;stroke:#adadad;stroke-linecap:square;stroke-width:1.5;"/>
   </g>
   <g id="line2d_16">
    <path clip-path="url(#p18f028bdcb)" d="M 403.944115 117.483582 
L 437.015885 180.956505 
" style="fill:none;stroke:#adadad;stroke-linecap:square;stroke-width:1.5;"/>
   </g>
   <g id="line2d_17">
    <path clip-path="url(#p18f028bdcb)" d="M 414.968038 126.663538 
L 448.039809 190.136462 
" style="fill:none;stroke:#adadad;stroke-linecap:square;stroke-width:1.5;"/>
   </g>
   <g id="line2d_18">
    <path clip-path="url(#p18f028bdcb)" d="M 425.991962 135.843495 
L 459.063732 199.316418 
" style="fill:none;stroke:#adadad;stroke-linecap:square;stroke-width:1.5;"/>
   </g>
   <g id="line2d_19">
    <path clip-path="url(#p18f028bdcb)" d="M 437.015885 143.205248 
L 470.087656 206.678171 
" style="fill:none;stroke:#adadad;stroke-linecap:square;stroke-width:1.5;"/>
   </g>
   <g id="line2d_20">
    <path clip-path="url(#p18f028bdcb)" d="M 448.039809 147.290713 
L 481.111579 210.763636 
" style="fill:none;stroke:#adadad;stroke-linecap:square;stroke-width:1.5;"/>
   </g>
   <g id="line2d_21">
    <path clip-path="url(#p18f028bdcb)" d="M 459.063732 147.290713 
L 492.135502 210.763636 
" style="fill:none;stroke:#adadad;stroke-linecap:square;stroke-width:1.5;"/>
   </g>
   <g id="line2d_22">
    <path clip-path="url(#p18f028bdcb)" d="M 470.087656 143.205248 
L 503.159426 206.678171 
" style="fill:none;stroke:#adadad;stroke-linecap:square;stroke-width:1.5;"/>
   </g>
   <g id="line2d_23">
    <path clip-path="url(#p18f028bdcb)" d="M 481.111579 135.843495 
L 514.183349 199.316418 
" style="fill:none;stroke:#adadad;stroke-linecap:square;stroke-width:1.5;"/>
   </g>
   <g id="line2d_24">
    <path clip-path="url(#p18f028bdcb)" d="M 492.135502 126.663538 
L 525.207273 190.136462 
" style="fill:none;stroke:#adadad;stroke-linecap:square;stroke-width:1.5;"/>
   </g>
   <g id="line2d_25">
    <path clip-path="url(#p18f028bdcb)" d="M 503.159426 126.663538 
L 525.207273 190.136462 
" style="fill:none;stroke:#adadad;stroke-linecap:square;stroke-width:1.5;"/>
   </g>
   <g id="line2d_26">
    <path clip-path="url(#p18f028bdcb)" d="M 514.183349 126.663538 
L 525.207273 190.136462 
" style="fill:none;stroke:#adadad;stroke-linecap:square;stroke-width:1.5;"/>
   </g>
   <g id="line2d_27">
    <path clip-path="url(#p18f028bdcb)" d="M 525.207273 126.663538 
L 525.207273 190.136462 
" style="fill:none;stroke:#adadad;stroke-linecap:square;stroke-width:1.5;"/>
   </g>
   <g id="line2d_28">
    <path clip-path="url(#p18f028bdcb)" d="M 315.752727 126.663538 
L 326.776651 126.663538 
L 337.800574 126.663538 
L 348.824498 117.483582 
L 359.848421 110.121829 
L 370.872344 106.036364 
L 381.896268 106.036364 
L 392.920191 110.121829 
L 403.944115 117.483582 
L 414.968038 126.663538 
L 425.991962 135.843495 
L 437.015885 143.205248 
L 448.039809 147.290713 
L 459.063732 147.290713 
L 470.087656 143.205248 
L 481.111579 135.843495 
L 492.135502 126.663538 
L 503.159426 126.663538 
L 514.183349 126.663538 
L 525.207273 126.663538 
" style="fill:none;stroke:#ff7f00;stroke-linecap:square;stroke-width:1.5;"/>
    <g clip-path="url(#p18f028bdcb)">
     <use style="fill:#ff7f00;stroke:#ff7f00;" x="315.752727" xlink:href="#maab6803d02" y="126.663538"/>
     <use style="fill:#ff7f00;stroke:#ff7f00;" x="326.776651" xlink:href="#maab6803d02" y="126.663538"/>
     <use style="fill:#ff7f00;stroke:#ff7f00;" x="337.800574" xlink:href="#maab6803d02" y="126.663538"/>
     <use style="fill:#ff7f00;stroke:#ff7f00;" x="348.824498" xlink:href="#maab6803d02" y="117.483582"/>
     <use style="fill:#ff7f00;stroke:#ff7f00;" x="359.848421" xlink:href="#maab6803d02" y="110.121829"/>
     <use style="fill:#ff7f00;stroke:#ff7f00;" x="370.872344" xlink:href="#maab6803d02" y="106.036364"/>
     <use style="fill:#ff7f00;stroke:#ff7f00;" x="381.896268" xlink:href="#maab6803d02" y="106.036364"/>
     <use style="fill:#ff7f00;stroke:#ff7f00;" x="392.920191" xlink:href="#maab6803d02" y="110.121829"/>
     <use style="fill:#ff7f00;stroke:#ff7f00;" x="403.944115" xlink:href="#maab6803d02" y="117.483582"/>
     <use style="fill:#ff7f00;stroke:#ff7f00;" x="414.968038" xlink:href="#maab6803d02" y="126.663538"/>
     <use style="fill:#ff7f00;stroke:#ff7f00;" x="425.991962" xlink:href="#maab6803d02" y="135.843495"/>
     <use style="fill:#ff7f00;stroke:#ff7f00;" x="437.015885" xlink:href="#maab6803d02" y="143.205248"/>
     <use style="fill:#ff7f00;stroke:#ff7f00;" x="448.039809" xlink:href="#maab6803d02" y="147.290713"/>
     <use style="fill:#ff7f00;stroke:#ff7f00;" x="459.063732" xlink:href="#maab6803d02" y="147.290713"/>
     <use style="fill:#ff7f00;stroke:#ff7f00;" x="470.087656" xlink:href="#maab6803d02" y="143.205248"/>
     <use style="fill:#ff7f00;stroke:#ff7f00;" x="481.111579" xlink:href="#maab6803d02" y="135.843495"/>
     <use style="fill:#ff7f00;stroke:#ff7f00;" x="492.135502" xlink:href="#maab6803d02" y="126.663538"/>
     <use style="fill:#ff7f00;stroke:#ff7f00;" x="503.159426" xlink:href="#maab6803d02" y="126.663538"/>
     <use style="fill:#ff7f00;stroke:#ff7f00;" x="514.183349" xlink:href="#maab6803d02" y="126.663538"/>
     <use style="fill:#ff7f00;stroke:#ff7f00;" x="525.207273" xlink:href="#maab6803d02" y="126.663538"/>
    </g>
   </g>
   <g id="line2d_29">
    <path clip-path="url(#p18f028bdcb)" d="M 315.752727 190.136462 
L 326.776651 190.136462 
L 337.800574 190.136462 
L 348.824498 190.136462 
L 359.848421 190.136462 
L 370.872344 190.136462 
L 381.896268 180.956505 
L 392.920191 173.594752 
L 403.944115 169.509287 
L 414.968038 169.509287 
L 425.991962 173.594752 
L 437.015885 180.956505 
L 448.039809 190.136462 
L 459.063732 199.316418 
L 470.087656 206.678171 
L 481.111579 210.763636 
L 492.135502 210.763636 
L 503.159426 206.678171 
L 514.183349 199.316418 
L 525.207273 190.136462 
" style="fill:none;stroke:#ff7f00;stroke-linecap:square;stroke-width:1.5;"/>
    <g clip-path="url(#p18f028bdcb)">
     <use style="fill:#ff7f00;stroke:#ff7f00;" x="315.752727" xlink:href="#maab6803d02" y="190.136462"/>
     <use style="fill:#ff7f00;stroke:#ff7f00;" x="326.776651" xlink:href="#maab6803d02" y="190.136462"/>
     <use style="fill:#ff7f00;stroke:#ff7f00;" x="337.800574" xlink:href="#maab6803d02" y="190.136462"/>
     <use style="fill:#ff7f00;stroke:#ff7f00;" x="348.824498" xlink:href="#maab6803d02" y="190.136462"/>
     <use style="fill:#ff7f00;stroke:#ff7f00;" x="359.848421" xlink:href="#maab6803d02" y="190.136462"/>
     <use style="fill:#ff7f00;stroke:#ff7f00;" x="370.872344" xlink:href="#maab6803d02" y="190.136462"/>
     <use style="fill:#ff7f00;stroke:#ff7f00;" x="381.896268" xlink:href="#maab6803d02" y="180.956505"/>
     <use style="fill:#ff7f00;stroke:#ff7f00;" x="392.920191" xlink:href="#maab6803d02" y="173.594752"/>
     <use style="fill:#ff7f00;stroke:#ff7f00;" x="403.944115" xlink:href="#maab6803d02" y="169.509287"/>
     <use style="fill:#ff7f00;stroke:#ff7f00;" x="414.968038" xlink:href="#maab6803d02" y="169.509287"/>
     <use style="fill:#ff7f00;stroke:#ff7f00;" x="425.991962" xlink:href="#maab6803d02" y="173.594752"/>
     <use style="fill:#ff7f00;stroke:#ff7f00;" x="437.015885" xlink:href="#maab6803d02" y="180.956505"/>
     <use style="fill:#ff7f00;stroke:#ff7f00;" x="448.039809" xlink:href="#maab6803d02" y="190.136462"/>
     <use style="fill:#ff7f00;stroke:#ff7f00;" x="459.063732" xlink:href="#maab6803d02" y="199.316418"/>
     <use style="fill:#ff7f00;stroke:#ff7f00;" x="470.087656" xlink:href="#maab6803d02" y="206.678171"/>
     <use style="fill:#ff7f00;stroke:#ff7f00;" x="481.111579" xlink:href="#maab6803d02" y="210.763636"/>
     <use style="fill:#ff7f00;stroke:#ff7f00;" x="492.135502" xlink:href="#maab6803d02" y="210.763636"/>
     <use style="fill:#ff7f00;stroke:#ff7f00;" x="503.159426" xlink:href="#maab6803d02" y="206.678171"/>
     <use style="fill:#ff7f00;stroke:#ff7f00;" x="514.183349" xlink:href="#maab6803d02" y="199.316418"/>
     <use style="fill:#ff7f00;stroke:#ff7f00;" x="525.207273" xlink:href="#maab6803d02" y="190.136462"/>
    </g>
   </g>
   <g id="matplotlib.axis_3"/>
   <g id="matplotlib.axis_4"/>
   <g id="patch_12">
    <path d="M 305.28 216 
L 305.28 100.8 
" style="fill:none;stroke:#000000;stroke-linecap:square;stroke-linejoin:miter;stroke-width:0.8;"/>
   </g>
   <g id="patch_13">
    <path d="M 535.68 216 
L 535.68 100.8 
" style="fill:none;stroke:#000000;stroke-linecap:square;stroke-linejoin:miter;stroke-width:0.8;"/>
   </g>
   <g id="patch_14">
    <path d="M 305.28 216 
L 535.68 216 
" style="fill:none;stroke:#000000;stroke-linecap:square;stroke-linejoin:miter;stroke-width:0.8;"/>
   </g>
   <g id="patch_15">
    <path d="M 305.28 100.8 
L 535.68 100.8 
" style="fill:none;stroke:#000000;stroke-linecap:square;stroke-linejoin:miter;stroke-width:0.8;"/>
   </g>
  </g>
 </g>
 <defs>
  <clipPath id="p6da7877a80">
   <rect height="172.8" width="172.8" x="74.88" y="86.4"/>
  </clipPath>
  <clipPath id="pa2d3b1d07c">
   <rect height="57.6" width="172.8" x="74.88" y="23.04"/>
  </clipPath>
  <clipPath id="p40b5acbc03">
   <rect height="172.8" width="57.6" x="5.76" y="86.4"/>
  </clipPath>
  <clipPath id="p18f028bdcb">
   <rect height="115.2" width="230.4" x="305.28" y="100.8"/>
  </clipPath>
 </defs>
</svg>
