<?xml version="1.0" encoding="utf-8" standalone="no"?>
<!DOCTYPE svg PUBLIC "-//W3C//DTD SVG 1.1//EN"
  "http://www.w3.org/Graphics/SVG/1.1/DTD/svg11.dtd">
<svg height="345.6pt" version="1.1" viewBox="0 0 460.8 345.6" width="460.8pt" xmlns="http://www.w3.org/2000/svg" xmlns:xlink="http://www.w3.org/1999/xlink">
 <metadata>
  <rdf:RDF xmlns:cc="http://creativecommons.org/ns#" xmlns:dc="http://purl.org/dc/elements/1.1/" xmlns:rdf="http://www.w3.org/1999/02/22-rdf-syntax-ns#">
   <cc:Work>
    <dc:type rdf:resource="http://purl.org/dc/dcmitype/StillImage"/>
    <dc:date>2021-05-13T12:34:25.809660</dc:date>
    <dc:format>image/svg+xml</dc:format>
    <dc:creator>
     <cc:Agent>
      <dc:title>Matplotlib v3.4.1, https://matplotlib.org/</dc:title>
     </cc:Agent>
    </dc:creator>
   </cc:Work>
  </rdf:RDF>
 </metadata>
 <defs>
  <style type="text/css">*{stroke-linecap:butt;stroke-linejoin:round;}</style>
 </defs>
 <g id="figure_1">
  <g id="patch_1">
   <path d="M 0 345.6 
L 460.8 345.6 
L 460.8 0 
L 0 0 
z
" style="fill:#f9fafb;"/>
  </g>
  <g id="axes_1">
   <g id="patch_2">
    <path d="M 67.663127 292.745781 
L 445.68 292.745781 
L 445.68 15.12 
L 67.663127 15.12 
z
" style="fill:#f9fafb;"/>
   </g>
   <g id="matplotlib.axis_1">
    <g id="xtick_1">
     <g id="line2d_1">
      <defs>
       <path d="M 0 0 
L 0 3.5 
" id="mb24c5baa00" style="stroke:#000000;stroke-width:0.8;"/>
      </defs>
      <g>
       <use style="stroke:#000000;stroke-width:0.8;" x="84.845712" xlink:href="#mb24c5baa00" y="292.745781"/>
      </g>
     </g>
     <g id="text_1">
      <!-- $\mathdefault{−1.5}$ -->
      <g transform="translate(71.462906 309.202186)scale(0.14 -0.14)">
       <defs>
        <path d="M 3673 1469 
L 3673 1827 
L 396 1827 
L 396 1469 
L 3673 1469 
z
" id="txsys-0" transform="scale(0.015625)"/>
        <path d="M 2522 0 
L 2522 96 
C 2016 96 1914 160 1914 470 
L 1914 4327 
L 1862 4339 
L 710 3757 
L 710 3667 
C 787 3699 858 3725 883 3738 
C 998 3783 1107 3808 1171 3808 
C 1306 3808 1363 3711 1363 3505 
L 1363 592 
C 1363 379 1312 232 1210 173 
C 1114 116 1024 96 755 96 
L 755 0 
L 2522 0 
z
" id="TeXGyreTermes-Regular-31" transform="scale(0.015625)"/>
        <path d="M 1158 281 
C 1158 480 992 646 800 646 
C 608 646 448 486 448 281 
C 448 38 666 -64 800 -64 
C 934 -64 1158 44 1158 281 
z
" id="rtxmi-3a" transform="scale(0.015625)"/>
        <path d="M 2803 4345 
L 2746 4390 
C 2650 4256 2586 4224 2451 4224 
L 1114 4224 
L 416 2705 
C 410 2692 410 2673 410 2673 
C 410 2641 435 2622 486 2622 
C 691 2622 947 2577 1210 2494 
C 1946 2256 2285 1859 2285 1225 
C 2285 609 1894 128 1395 128 
C 1267 128 1158 173 966 314 
C 762 462 614 526 480 526 
C 294 526 205 449 205 289 
C 205 45 506 -109 986 -109 
C 1523 -109 1984 64 2304 392 
C 2598 680 2733 1045 2733 1533 
C 2733 1994 2611 2289 2291 2609 
C 2010 2892 1645 3039 890 3173 
L 1158 3718 
L 2413 3718 
C 2515 3718 2541 3731 2560 3776 
L 2803 4345 
z
" id="TeXGyreTermes-Regular-35" transform="scale(0.015625)"/>
       </defs>
       <use transform="scale(0.996264)" xlink:href="#txsys-0"/>
       <use transform="translate(63.362352 0)scale(0.996264)" xlink:href="#TeXGyreTermes-Regular-31"/>
       <use transform="translate(114.76955 0)scale(0.996264)" xlink:href="#rtxmi-3a"/>
       <use transform="translate(141.369811 0)scale(0.996264)" xlink:href="#TeXGyreTermes-Regular-35"/>
      </g>
     </g>
    </g>
    <g id="xtick_2">
     <g id="line2d_2">
      <g>
       <use style="stroke:#000000;stroke-width:0.8;" x="142.120996" xlink:href="#mb24c5baa00" y="292.745781"/>
      </g>
     </g>
     <g id="text_2">
      <!-- $\mathdefault{−1.0}$ -->
      <g transform="translate(128.73819 309.202186)scale(0.14 -0.14)">
       <defs>
        <path d="M 3046 2138 
C 3046 3450 2464 4352 1626 4352 
C 1274 4352 1005 4244 768 4020 
C 397 3661 154 2925 154 2176 
C 154 1479 365 730 666 372 
C 902 90 1229 -64 1600 -64 
C 1926 -64 2202 45 2432 269 
C 2803 621 3046 1364 3046 2138 
z
M 2432 2125 
C 2432 788 2150 103 1600 103 
C 1050 103 768 788 768 2119 
C 768 3476 1056 4186 1606 4186 
C 2144 4186 2432 3463 2432 2125 
z
" id="TeXGyreTermes-Regular-30" transform="scale(0.015625)"/>
       </defs>
       <use transform="scale(0.996264)" xlink:href="#txsys-0"/>
       <use transform="translate(63.362352 0)scale(0.996264)" xlink:href="#TeXGyreTermes-Regular-31"/>
       <use transform="translate(114.76955 0)scale(0.996264)" xlink:href="#rtxmi-3a"/>
       <use transform="translate(141.369811 0)scale(0.996264)" xlink:href="#TeXGyreTermes-Regular-30"/>
      </g>
     </g>
    </g>
    <g id="xtick_3">
     <g id="line2d_3">
      <g>
       <use style="stroke:#000000;stroke-width:0.8;" x="199.39628" xlink:href="#mb24c5baa00" y="292.745781"/>
      </g>
     </g>
     <g id="text_3">
      <!-- $\mathdefault{−0.5}$ -->
      <g transform="translate(186.013474 309.202186)scale(0.14 -0.14)">
       <use transform="scale(0.996264)" xlink:href="#txsys-0"/>
       <use transform="translate(63.362352 0)scale(0.996264)" xlink:href="#TeXGyreTermes-Regular-30"/>
       <use transform="translate(114.76955 0)scale(0.996264)" xlink:href="#rtxmi-3a"/>
       <use transform="translate(141.369811 0)scale(0.996264)" xlink:href="#TeXGyreTermes-Regular-35"/>
      </g>
     </g>
    </g>
    <g id="xtick_4">
     <g id="line2d_4">
      <g>
       <use style="stroke:#000000;stroke-width:0.8;" x="256.671563" xlink:href="#mb24c5baa00" y="292.745781"/>
      </g>
     </g>
     <g id="text_4">
      <!-- $\mathdefault{0.0}$ -->
      <g transform="translate(247.724121 309.202186)scale(0.14 -0.14)">
       <use transform="scale(0.996264)" xlink:href="#TeXGyreTermes-Regular-30"/>
       <use transform="translate(51.407199 0)scale(0.996264)" xlink:href="#rtxmi-3a"/>
       <use transform="translate(78.00746 0)scale(0.996264)" xlink:href="#TeXGyreTermes-Regular-30"/>
      </g>
     </g>
    </g>
    <g id="xtick_5">
     <g id="line2d_5">
      <g>
       <use style="stroke:#000000;stroke-width:0.8;" x="313.946847" xlink:href="#mb24c5baa00" y="292.745781"/>
      </g>
     </g>
     <g id="text_5">
      <!-- $\mathdefault{0.5}$ -->
      <g transform="translate(304.999405 309.202186)scale(0.14 -0.14)">
       <use transform="scale(0.996264)" xlink:href="#TeXGyreTermes-Regular-30"/>
       <use transform="translate(51.407199 0)scale(0.996264)" xlink:href="#rtxmi-3a"/>
       <use transform="translate(78.00746 0)scale(0.996264)" xlink:href="#TeXGyreTermes-Regular-35"/>
      </g>
     </g>
    </g>
    <g id="xtick_6">
     <g id="line2d_6">
      <g>
       <use style="stroke:#000000;stroke-width:0.8;" x="371.222131" xlink:href="#mb24c5baa00" y="292.745781"/>
      </g>
     </g>
     <g id="text_6">
      <!-- $\mathdefault{1.0}$ -->
      <g transform="translate(362.274689 309.202186)scale(0.14 -0.14)">
       <use transform="scale(0.996264)" xlink:href="#TeXGyreTermes-Regular-31"/>
       <use transform="translate(51.407199 0)scale(0.996264)" xlink:href="#rtxmi-3a"/>
       <use transform="translate(78.00746 0)scale(0.996264)" xlink:href="#TeXGyreTermes-Regular-30"/>
      </g>
     </g>
    </g>
    <g id="xtick_7">
     <g id="line2d_7">
      <g>
       <use style="stroke:#000000;stroke-width:0.8;" x="428.497415" xlink:href="#mb24c5baa00" y="292.745781"/>
      </g>
     </g>
     <g id="text_7">
      <!-- $\mathdefault{1.5}$ -->
      <g transform="translate(419.549973 309.202186)scale(0.14 -0.14)">
       <use transform="scale(0.996264)" xlink:href="#TeXGyreTermes-Regular-31"/>
       <use transform="translate(51.407199 0)scale(0.996264)" xlink:href="#rtxmi-3a"/>
       <use transform="translate(78.00746 0)scale(0.996264)" xlink:href="#TeXGyreTermes-Regular-35"/>
      </g>
     </g>
    </g>
    <g id="text_8">
     <!-- $a$ -->
     <g transform="translate(252.686507 327.029074)scale(0.16 -0.16)">
      <defs>
       <path d="M 2970 708 
C 2874 612 2835 580 2790 529 
C 2598 332 2515 268 2458 268 
C 2406 268 2368 306 2368 351 
C 2368 479 2637 1568 2938 2663 
C 2957 2727 2963 2740 2976 2797 
L 2931 2816 
L 2541 2772 
L 2522 2753 
L 2451 2447 
C 2400 2682 2214 2816 1939 2816 
C 1094 2816 109 1650 109 644 
C 109 197 352 -64 762 -64 
C 1210 -64 1485 147 2048 937 
C 1920 437 1901 353 1901 199 
C 1901 13 1978 -64 2157 -64 
C 2413 -64 2573 58 3046 644 
L 2970 708 
z
M 1978 2670 
C 2195 2670 2336 2517 2336 2293 
C 2336 1757 2016 1002 1574 530 
C 1421 357 1203 249 1018 249 
C 794 249 646 433 646 726 
C 646 1069 890 1723 1165 2117 
C 1421 2486 1722 2689 1978 2670 
z
" id="NimbusRomNo9L-ReguItal-61" transform="scale(0.015625)"/>
      </defs>
      <use transform="scale(0.996264)" xlink:href="#NimbusRomNo9L-ReguItal-61"/>
     </g>
    </g>
   </g>
   <g id="matplotlib.axis_2">
    <g id="ytick_1">
     <g id="line2d_8">
      <defs>
       <path d="M 0 0 
L -3.5 0 
" id="mf21e241adf" style="stroke:#000000;stroke-width:0.8;"/>
      </defs>
      <g>
       <use style="stroke:#000000;stroke-width:0.8;" x="67.663127" xlink:href="#mf21e241adf" y="263.300622"/>
      </g>
     </g>
     <g id="text_9">
      <!-- $\mathdefault{−1.4}$ -->
      <g transform="translate(33.897516 268.028825)scale(0.14 -0.14)">
       <defs>
        <path d="M 3021 1088 
L 3021 1497 
L 2368 1497 
L 2368 4352 
L 2086 4352 
L 77 1497 
L 77 1088 
L 1875 1088 
L 1875 32 
L 2368 32 
L 2368 1088 
L 3021 1088 
z
M 1869 1497 
L 333 1497 
L 1869 3698 
L 1869 1497 
z
" id="TeXGyreTermes-Regular-34" transform="scale(0.015625)"/>
       </defs>
       <use transform="scale(0.996264)" xlink:href="#txsys-0"/>
       <use transform="translate(63.362352 0)scale(0.996264)" xlink:href="#TeXGyreTermes-Regular-31"/>
       <use transform="translate(114.76955 0)scale(0.996264)" xlink:href="#rtxmi-3a"/>
       <use transform="translate(141.369811 0)scale(0.996264)" xlink:href="#TeXGyreTermes-Regular-34"/>
      </g>
     </g>
    </g>
    <g id="ytick_2">
     <g id="line2d_9">
      <g>
       <use style="stroke:#000000;stroke-width:0.8;" x="67.663127" xlink:href="#mf21e241adf" y="229.649012"/>
      </g>
     </g>
     <g id="text_10">
      <!-- $\mathdefault{−1.2}$ -->
      <g transform="translate(33.897516 234.377215)scale(0.14 -0.14)">
       <defs>
        <path d="M 3040 875 
L 2957 907 
C 2720 544 2637 486 2349 486 
L 819 486 
L 1894 1609 
C 2464 2202 2714 2687 2714 3185 
C 2714 3823 2195 4313 1530 4313 
C 1178 4313 845 4173 608 3918 
C 403 3700 307 3496 198 3043 
L 333 3011 
C 589 3636 819 3840 1261 3840 
C 1798 3840 2163 3476 2163 2940 
C 2163 2443 1869 1850 1331 1282 
L 192 77 
L 192 0 
L 2688 0 
L 3040 875 
z
" id="TeXGyreTermes-Regular-32" transform="scale(0.015625)"/>
       </defs>
       <use transform="scale(0.996264)" xlink:href="#txsys-0"/>
       <use transform="translate(63.362352 0)scale(0.996264)" xlink:href="#TeXGyreTermes-Regular-31"/>
       <use transform="translate(114.76955 0)scale(0.996264)" xlink:href="#rtxmi-3a"/>
       <use transform="translate(141.369811 0)scale(0.996264)" xlink:href="#TeXGyreTermes-Regular-32"/>
      </g>
     </g>
    </g>
    <g id="ytick_3">
     <g id="line2d_10">
      <g>
       <use style="stroke:#000000;stroke-width:0.8;" x="67.663127" xlink:href="#mf21e241adf" y="195.997403"/>
      </g>
     </g>
     <g id="text_11">
      <!-- $\mathdefault{−1.0}$ -->
      <g transform="translate(33.897516 200.725605)scale(0.14 -0.14)">
       <use transform="scale(0.996264)" xlink:href="#txsys-0"/>
       <use transform="translate(63.362352 0)scale(0.996264)" xlink:href="#TeXGyreTermes-Regular-31"/>
       <use transform="translate(114.76955 0)scale(0.996264)" xlink:href="#rtxmi-3a"/>
       <use transform="translate(141.369811 0)scale(0.996264)" xlink:href="#TeXGyreTermes-Regular-30"/>
      </g>
     </g>
    </g>
    <g id="ytick_4">
     <g id="line2d_11">
      <g>
       <use style="stroke:#000000;stroke-width:0.8;" x="67.663127" xlink:href="#mf21e241adf" y="162.345793"/>
      </g>
     </g>
     <g id="text_12">
      <!-- $\mathdefault{−0.8}$ -->
      <g transform="translate(33.897516 167.073996)scale(0.14 -0.14)">
       <defs>
        <path d="M 2848 1018 
C 2848 1511 2630 1824 1856 2400 
C 2490 2740 2714 3008 2714 3444 
C 2714 3968 2253 4352 1613 4352 
C 915 4352 397 3924 397 3341 
C 397 2925 518 2740 1190 2151 
C 499 1626 358 1428 358 992 
C 358 372 864 -64 1587 -64 
C 2355 -64 2848 359 2848 1018 
z
M 2362 820 
C 2362 404 2074 116 1658 116 
C 1171 116 845 487 845 1044 
C 845 1453 986 1722 1357 2023 
L 1741 1741 
C 2208 1408 2362 1178 2362 820 
z
M 2272 3450 
C 2272 3085 2093 2797 1728 2554 
C 1696 2535 1696 2535 1670 2516 
C 1101 2887 870 3181 870 3540 
C 870 3911 1158 4173 1562 4173 
C 1997 4173 2272 3892 2272 3450 
z
" id="TeXGyreTermes-Regular-38" transform="scale(0.015625)"/>
       </defs>
       <use transform="scale(0.996264)" xlink:href="#txsys-0"/>
       <use transform="translate(63.362352 0)scale(0.996264)" xlink:href="#TeXGyreTermes-Regular-30"/>
       <use transform="translate(114.76955 0)scale(0.996264)" xlink:href="#rtxmi-3a"/>
       <use transform="translate(141.369811 0)scale(0.996264)" xlink:href="#TeXGyreTermes-Regular-38"/>
      </g>
     </g>
    </g>
    <g id="ytick_5">
     <g id="line2d_12">
      <g>
       <use style="stroke:#000000;stroke-width:0.8;" x="67.663127" xlink:href="#mf21e241adf" y="128.694183"/>
      </g>
     </g>
     <g id="text_13">
      <!-- $\mathdefault{−0.6}$ -->
      <g transform="translate(33.897516 133.422386)scale(0.14 -0.14)">
       <defs>
        <path d="M 2995 1421 
C 2995 2236 2528 2752 1792 2752 
C 1510 2752 1376 2707 973 2464 
C 1146 3431 1862 4122 2867 4288 
L 2854 4391 
C 2125 4327 1754 4206 1286 3880 
C 595 3389 218 2661 218 1807 
C 218 1251 390 690 666 371 
C 909 90 1254 -64 1651 -64 
C 2445 -64 2995 541 2995 1421 
z
M 2419 1204 
C 2419 504 2170 116 1722 116 
C 1158 116 813 714 813 1700 
C 813 2025 864 2203 992 2299 
C 1126 2400 1325 2458 1549 2458 
C 2099 2458 2419 2000 2419 1204 
z
" id="TeXGyreTermes-Regular-36" transform="scale(0.015625)"/>
       </defs>
       <use transform="scale(0.996264)" xlink:href="#txsys-0"/>
       <use transform="translate(63.362352 0)scale(0.996264)" xlink:href="#TeXGyreTermes-Regular-30"/>
       <use transform="translate(114.76955 0)scale(0.996264)" xlink:href="#rtxmi-3a"/>
       <use transform="translate(141.369811 0)scale(0.996264)" xlink:href="#TeXGyreTermes-Regular-36"/>
      </g>
     </g>
    </g>
    <g id="ytick_6">
     <g id="line2d_13">
      <g>
       <use style="stroke:#000000;stroke-width:0.8;" x="67.663127" xlink:href="#mf21e241adf" y="95.042573"/>
      </g>
     </g>
     <g id="text_14">
      <!-- $\mathdefault{−0.4}$ -->
      <g transform="translate(33.897516 99.770776)scale(0.14 -0.14)">
       <use transform="scale(0.996264)" xlink:href="#txsys-0"/>
       <use transform="translate(63.362352 0)scale(0.996264)" xlink:href="#TeXGyreTermes-Regular-30"/>
       <use transform="translate(114.76955 0)scale(0.996264)" xlink:href="#rtxmi-3a"/>
       <use transform="translate(141.369811 0)scale(0.996264)" xlink:href="#TeXGyreTermes-Regular-34"/>
      </g>
     </g>
    </g>
    <g id="ytick_7">
     <g id="line2d_14">
      <g>
       <use style="stroke:#000000;stroke-width:0.8;" x="67.663127" xlink:href="#mf21e241adf" y="61.390963"/>
      </g>
     </g>
     <g id="text_15">
      <!-- $\mathdefault{−0.2}$ -->
      <g transform="translate(33.897516 66.119166)scale(0.14 -0.14)">
       <use transform="scale(0.996264)" xlink:href="#txsys-0"/>
       <use transform="translate(63.362352 0)scale(0.996264)" xlink:href="#TeXGyreTermes-Regular-30"/>
       <use transform="translate(114.76955 0)scale(0.996264)" xlink:href="#rtxmi-3a"/>
       <use transform="translate(141.369811 0)scale(0.996264)" xlink:href="#TeXGyreTermes-Regular-32"/>
      </g>
     </g>
    </g>
    <g id="ytick_8">
     <g id="line2d_15">
      <g>
       <use style="stroke:#000000;stroke-width:0.8;" x="67.663127" xlink:href="#mf21e241adf" y="27.739354"/>
      </g>
     </g>
     <g id="text_16">
      <!-- $\mathdefault{0.0}$ -->
      <g transform="translate(42.768242 32.467556)scale(0.14 -0.14)">
       <use transform="scale(0.996264)" xlink:href="#TeXGyreTermes-Regular-30"/>
       <use transform="translate(51.407199 0)scale(0.996264)" xlink:href="#rtxmi-3a"/>
       <use transform="translate(78.00746 0)scale(0.996264)" xlink:href="#TeXGyreTermes-Regular-30"/>
      </g>
     </g>
    </g>
    <g id="text_17">
     <!-- $\text{smoothMin}^\gamma(-a, a)$ -->
     <g transform="translate(26.44659 215.361917)rotate(-90)scale(0.16 -0.16)">
      <defs>
       <path d="M 2016 2010 
L 1990 2880 
L 1920 2880 
L 1907 2867 
C 1850 2822 1843 2816 1818 2816 
C 1779 2816 1715 2829 1645 2861 
C 1504 2915 1363 2944 1197 2944 
C 691 2944 326 2616 326 2154 
C 326 1796 531 1539 1075 1231 
L 1446 1020 
C 1670 892 1779 737 1779 539 
C 1779 256 1574 77 1248 77 
C 1030 77 832 159 710 298 
C 576 455 518 600 435 960 
L 333 960 
L 333 -39 
L 416 -39 
C 461 33 486 48 563 48 
C 621 48 710 35 858 -2 
C 1037 -39 1210 -64 1325 -64 
C 1818 -64 2227 308 2227 757 
C 2227 1077 2074 1289 1690 1520 
L 998 1930 
C 819 2033 723 2194 723 2367 
C 723 2624 922 2803 1216 2803 
C 1581 2803 1773 2583 1920 2010 
L 2016 2010 
z
" id="NimbusRomNo9L-Regu-73" transform="scale(0.015625)"/>
       <path d="M 122 2547 
C 205 2566 256 2573 326 2573 
C 493 2573 550 2470 550 2162 
L 550 539 
C 550 192 461 96 102 96 
L 102 0 
L 1523 0 
L 1523 96 
C 1184 96 1088 166 1088 418 
L 1088 2234 
C 1088 2246 1139 2310 1184 2355 
C 1344 2502 1619 2611 1843 2611 
C 2125 2611 2266 2385 2266 1932 
L 2266 528 
C 2266 167 2195 96 1830 96 
L 1830 0 
L 3264 0 
L 3264 96 
C 2899 96 2803 205 2803 603 
L 2803 2221 
C 2995 2496 3206 2611 3501 2611 
C 3866 2611 3981 2438 3981 1907 
L 3981 557 
C 3981 192 3930 141 3558 96 
L 3558 0 
L 4960 0 
L 4960 96 
L 4794 115 
C 4602 115 4518 230 4518 480 
L 4518 1802 
C 4518 2559 4269 2944 3776 2944 
C 3405 2944 3078 2778 2733 2407 
C 2618 2771 2400 2944 2054 2944 
C 1773 2944 1594 2854 1062 2451 
L 1062 2931 
L 1018 2944 
C 691 2822 474 2752 122 2656 
L 122 2547 
z
" id="NimbusRomNo9L-Regu-6d" transform="scale(0.015625)"/>
       <path d="M 1600 2944 
C 768 2944 186 2330 186 1446 
C 186 582 781 -64 1587 -64 
C 2394 -64 3008 614 3008 1498 
C 3008 2336 2419 2944 1600 2944 
z
M 1517 2765 
C 2054 2765 2432 2150 2432 1274 
C 2432 550 2144 115 1664 115 
C 1414 115 1178 269 1043 525 
C 864 858 762 1306 762 1760 
C 762 2368 1062 2765 1517 2765 
z
" id="NimbusRomNo9L-Regu-6f" transform="scale(0.015625)"/>
       <path d="M 1632 2880 
L 986 2880 
L 986 3622 
C 986 3686 979 3706 941 3706 
C 896 3648 858 3590 813 3526 
C 570 3174 294 2867 192 2841 
C 122 2794 83 2748 83 2715 
C 83 2695 90 2682 109 2682 
L 448 2682 
L 448 751 
C 448 212 640 -64 1018 -64 
C 1331 -64 1574 90 1786 423 
L 1702 493 
C 1568 333 1459 269 1318 269 
C 1082 269 986 443 986 847 
L 986 2682 
L 1632 2682 
L 1632 2880 
z
" id="NimbusRomNo9L-Regu-74" transform="scale(0.015625)"/>
       <path d="M 1005 2222 
C 1274 2516 1466 2624 1715 2624 
C 2035 2624 2195 2395 2195 1948 
L 2195 684 
C 2195 250 2131 166 1760 128 
L 1760 32 
L 3117 32 
L 3117 128 
C 2771 192 2733 243 2733 684 
L 2733 1954 
C 2733 2625 2464 2970 1946 2970 
C 1568 2970 1299 2816 1005 2432 
L 1005 4390 
L 973 4409 
C 755 4332 595 4281 237 4179 
L 64 4128 
L 64 4026 
C 90 4032 109 4032 141 4032 
C 416 4032 467 3980 467 3705 
L 467 686 
C 467 237 429 179 58 128 
L 58 32 
L 1440 32 
L 1440 128 
C 1069 166 1005 243 1005 684 
L 1005 2222 
z
" id="NimbusRomNo9L-Regu-68" transform="scale(0.015625)"/>
       <path d="M 4314 3667 
L 4314 751 
C 4314 217 4237 134 3731 134 
L 3731 0 
L 5523 0 
L 5523 134 
C 5056 134 4966 223 4966 681 
L 4966 3536 
C 4966 3993 5050 4077 5523 4115 
L 5523 4237 
L 4250 4237 
L 2835 1004 
L 1357 4237 
L 90 4237 
L 90 4096 
C 614 4096 698 4019 698 3550 
L 698 943 
C 698 282 608 159 77 121 
L 77 0 
L 1581 0 
L 1581 134 
C 1088 134 979 282 979 931 
L 979 3520 
L 2586 0 
L 2675 0 
L 4314 3667 
z
" id="NimbusRomNo9L-Regu-4d" transform="scale(0.015625)"/>
       <path d="M 1120 2929 
L 128 2579 
L 128 2484 
L 179 2490 
C 256 2502 339 2509 397 2509 
C 550 2509 608 2406 608 2125 
L 608 640 
C 608 179 544 109 102 109 
L 102 0 
L 1619 0 
L 1619 96 
C 1197 128 1146 191 1146 650 
L 1146 2910 
L 1120 2929 
z
M 819 4352 
C 646 4352 499 4205 499 4026 
C 499 3847 640 3699 819 3699 
C 1005 3699 1152 3840 1152 4026 
C 1152 4205 1005 4352 819 4352 
z
" id="NimbusRomNo9L-Regu-69" transform="scale(0.015625)"/>
       <path d="M 102 2579 
C 141 2598 205 2605 275 2605 
C 454 2605 512 2509 512 2195 
L 512 608 
C 512 243 442 154 115 128 
L 115 32 
L 1472 32 
L 1472 128 
C 1146 154 1050 230 1050 461 
L 1050 2259 
C 1357 2547 1498 2624 1709 2624 
C 2022 2624 2176 2426 2176 2003 
L 2176 666 
C 2176 262 2093 154 1773 128 
L 1773 32 
L 3104 32 
L 3104 128 
C 2790 160 2714 237 2714 550 
L 2714 2016 
C 2714 2618 2432 2976 1958 2976 
C 1664 2976 1466 2867 1030 2458 
L 1030 2963 
L 986 2976 
C 672 2861 454 2790 102 2688 
L 102 2579 
z
" id="NimbusRomNo9L-Regu-6e" transform="scale(0.015625)"/>
       <path d="M 3398 2794 
L 2931 2704 
C 2637 2014 2291 1338 1843 731 
C 1869 1360 1914 2816 998 2816 
C 570 2816 19 2240 19 1862 
C 19 1843 26 1817 51 1817 
C 192 1817 179 2363 806 2363 
C 1472 2363 1504 1052 1504 584 
C 1504 417 1498 269 1498 108 
C 1280 -175 762 -824 762 -1177 
C 762 -1293 813 -1344 934 -1344 
C 1466 -1344 1562 -252 1734 114 
C 1843 339 2112 661 2259 871 
C 2682 1472 3142 2104 3398 2794 
z
" id="rtxmi-d" transform="scale(0.015625)"/>
       <path d="M 1888 4589 
C 960 3987 307 2950 307 1645 
C 307 454 986 -749 1869 -1293 
L 1946 -1190 
C 1101 -525 858 250 858 1664 
C 858 3085 1120 3821 1946 4486 
L 1888 4589 
z
" id="txsys-b9" transform="scale(0.015625)"/>
       <path d="M 1248 12 
C 1248 544 877 627 730 627 
C 570 627 358 531 358 256 
C 358 0 589 -64 755 -64 
C 800 -64 832 -58 851 -52 
C 877 -45 896 -39 909 -39 
C 954 -39 998 -71 998 -128 
C 998 -250 896 -538 474 -807 
L 531 -928 
C 723 -864 1248 -442 1248 12 
z
" id="rtxmi-3b" transform="scale(0.015625)"/>
       <path d="M 243 4589 
L 186 4486 
C 1011 3821 1274 3085 1274 1664 
C 1274 250 1030 -525 186 -1190 
L 262 -1293 
C 1146 -749 1824 454 1824 1645 
C 1824 2950 1171 3987 243 4589 
z
" id="txsys-ba" transform="scale(0.015625)"/>
      </defs>
      <use transform="scale(0.996264)" xlink:href="#NimbusRomNo9L-Regu-73"/>
      <use transform="translate(38.753706 0)scale(0.996264)" xlink:href="#NimbusRomNo9L-Regu-6d"/>
      <use transform="translate(116.262076 0)scale(0.996264)" xlink:href="#NimbusRomNo9L-Regu-6f"/>
      <use transform="translate(166.075277 0)scale(0.996264)" xlink:href="#NimbusRomNo9L-Regu-6f"/>
      <use transform="translate(215.888477 0)scale(0.996264)" xlink:href="#NimbusRomNo9L-Regu-74"/>
      <use transform="translate(243.583647 0)scale(0.996264)" xlink:href="#NimbusRomNo9L-Regu-68"/>
      <use transform="translate(293.396847 0)scale(0.996264)" xlink:href="#NimbusRomNo9L-Regu-4d"/>
      <use transform="translate(381.963754 0)scale(0.996264)" xlink:href="#NimbusRomNo9L-Regu-69"/>
      <use transform="translate(409.658924 0)scale(0.996264)" xlink:href="#NimbusRomNo9L-Regu-6e"/>
      <use transform="translate(460.490294 39.871539)scale(0.727268)" xlink:href="#rtxmi-d"/>
      <use transform="translate(501.824518 0)scale(0.996264)" xlink:href="#txsys-b9"/>
      <use transform="translate(535.000128 0)scale(0.996264)" xlink:href="#txsys-0"/>
      <use transform="translate(599.657565 0)scale(0.996264)" xlink:href="#NimbusRomNo9L-ReguItal-61"/>
      <use transform="translate(647.229156 0)scale(0.996264)" xlink:href="#rtxmi-3b"/>
      <use transform="translate(680.515359 0)scale(0.996264)" xlink:href="#NimbusRomNo9L-ReguItal-61"/>
      <use transform="translate(732.072006 0)scale(0.996264)" xlink:href="#txsys-ba"/>
     </g>
    </g>
   </g>
   <g id="line2d_16">
    <path clip-path="url(#p40c386e934)" d="M 256.671563 292.745781 
L 256.671563 15.12 
" style="fill:none;stroke:#000000;stroke-dasharray:5.55,2.4;stroke-dashoffset:0;stroke-opacity:0.5;stroke-width:1.5;"/>
   </g>
   <g id="line2d_17">
    <path clip-path="url(#p40c386e934)" d="M 67.663127 27.739354 
L 445.68 27.739354 
" style="fill:none;stroke:#000000;stroke-dasharray:5.55,2.4;stroke-dashoffset:0;stroke-opacity:0.5;stroke-width:1.5;"/>
   </g>
   <g id="line2d_18">
    <path clip-path="url(#p40c386e934)" d="M 84.845712 280.126427 
L 88.316941 275.027698 
L 91.788171 269.928969 
L 95.2594 264.830241 
L 98.730629 259.731512 
L 102.201859 254.632783 
L 105.673088 249.534054 
L 109.144317 244.435326 
L 112.615547 239.336597 
L 116.086776 234.237868 
L 119.558005 229.139139 
L 123.029235 224.040411 
L 126.500464 218.941682 
L 129.971693 213.842953 
L 133.442922 208.744224 
L 136.914152 203.645496 
L 140.385381 198.546767 
L 143.85661 193.448038 
L 147.32784 188.349309 
L 150.799069 183.250581 
L 154.270298 178.151852 
L 157.741528 173.053123 
L 161.212757 167.954394 
L 164.683986 162.855666 
L 168.155216 157.756937 
L 171.626445 152.658208 
L 175.097674 147.559479 
L 178.568904 142.460751 
L 182.040133 137.362022 
L 185.511362 132.263293 
L 188.982592 127.164564 
L 192.453821 122.065836 
L 195.92505 116.967107 
L 199.39628 111.868378 
L 202.867509 106.769649 
L 206.338738 101.670921 
L 209.809968 96.572192 
L 213.281197 91.473463 
L 216.752426 86.374734 
L 220.223656 81.276006 
L 223.694885 76.177277 
L 227.166114 71.078548 
L 230.637344 65.979819 
L 234.108573 60.881091 
L 237.579802 55.782362 
L 241.051031 50.683633 
L 244.522261 45.584904 
L 247.99349 40.486169 
L 251.464719 35.385723 
L 254.935949 30.053792 
L 258.407178 30.053792 
L 261.878407 35.385723 
L 265.349637 40.486169 
L 268.820866 45.584904 
L 272.292095 50.683633 
L 275.763325 55.782362 
L 279.234554 60.881091 
L 282.705783 65.979819 
L 286.177013 71.078548 
L 289.648242 76.177277 
L 293.119471 81.276006 
L 296.590701 86.374734 
L 300.06193 91.473463 
L 303.533159 96.572192 
L 307.004389 101.670921 
L 310.475618 106.769649 
L 313.946847 111.868378 
L 317.418077 116.967107 
L 320.889306 122.065836 
L 324.360535 127.164564 
L 327.831765 132.263293 
L 331.302994 137.362022 
L 334.774223 142.460751 
L 338.245452 147.559479 
L 341.716682 152.658208 
L 345.187911 157.756937 
L 348.65914 162.855666 
L 352.13037 167.954394 
L 355.601599 173.053123 
L 359.072828 178.151852 
L 362.544058 183.250581 
L 366.015287 188.349309 
L 369.486516 193.448038 
L 372.957746 198.546767 
L 376.428975 203.645496 
L 379.900204 208.744224 
L 383.371434 213.842953 
L 386.842663 218.941682 
L 390.313892 224.040411 
L 393.785122 229.139139 
L 397.256351 234.237868 
L 400.72758 239.336597 
L 404.19881 244.435326 
L 407.670039 249.534054 
L 411.141268 254.632783 
L 414.612498 259.731512 
L 418.083727 264.830241 
L 421.554956 269.928969 
L 425.026186 275.027698 
L 428.497415 280.126427 
" style="fill:none;stroke:#0b559f;stroke-linecap:square;stroke-width:1.5;"/>
   </g>
   <g id="line2d_19">
    <path clip-path="url(#p40c386e934)" d="M 84.845712 280.126427 
L 88.316941 275.027698 
L 91.788171 269.928969 
L 95.2594 264.830241 
L 98.730629 259.731512 
L 102.201859 254.632783 
L 105.673088 249.534054 
L 109.144317 244.435326 
L 112.615547 239.336597 
L 116.086776 234.237868 
L 119.558005 229.139139 
L 123.029235 224.040411 
L 126.500464 218.941682 
L 129.971693 213.842953 
L 133.442922 208.744224 
L 136.914152 203.645495 
L 140.385381 198.546766 
L 143.85661 193.448037 
L 147.32784 188.349308 
L 150.799069 183.250578 
L 154.270298 178.151847 
L 157.741528 173.053114 
L 161.212757 167.954378 
L 164.683986 162.855637 
L 168.155216 157.756886 
L 171.626445 152.658119 
L 175.097674 147.559323 
L 178.568904 142.460476 
L 182.040133 137.361541 
L 185.511362 132.262453 
L 188.982592 127.163099 
L 192.453821 122.063287 
L 195.92505 116.962687 
L 199.39628 111.86074 
L 202.867509 106.756496 
L 206.338738 101.648364 
L 209.809968 96.533698 
L 213.281197 91.40814 
L 216.752426 86.264611 
L 220.223656 81.091826 
L 223.694885 75.872233 
L 227.166114 70.579516 
L 230.637344 65.176476 
L 234.108573 59.615836 
L 237.579802 53.850468 
L 241.051031 47.866851 
L 244.522261 41.764095 
L 247.99349 35.892818 
L 251.464719 30.994598 
L 254.935949 28.122692 
L 258.407178 28.122692 
L 261.878407 30.994598 
L 265.349637 35.892818 
L 268.820866 41.764095 
L 272.292095 47.866851 
L 275.763325 53.850468 
L 279.234554 59.615836 
L 282.705783 65.176476 
L 286.177013 70.579516 
L 289.648242 75.872233 
L 293.119471 81.091826 
L 296.590701 86.264611 
L 300.06193 91.40814 
L 303.533159 96.533698 
L 307.004389 101.648364 
L 310.475618 106.756496 
L 313.946847 111.86074 
L 317.418077 116.962687 
L 320.889306 122.063287 
L 324.360535 127.163099 
L 327.831765 132.262453 
L 331.302994 137.361541 
L 334.774223 142.460476 
L 338.245452 147.559323 
L 341.716682 152.658119 
L 345.187911 157.756886 
L 348.65914 162.855637 
L 352.13037 167.954378 
L 355.601599 173.053114 
L 359.072828 178.151847 
L 362.544058 183.250578 
L 366.015287 188.349308 
L 369.486516 193.448037 
L 372.957746 198.546766 
L 376.428975 203.645495 
L 379.900204 208.744224 
L 383.371434 213.842953 
L 386.842663 218.941682 
L 390.313892 224.040411 
L 393.785122 229.139139 
L 397.256351 234.237868 
L 400.72758 239.336597 
L 404.19881 244.435326 
L 407.670039 249.534054 
L 411.141268 254.632783 
L 414.612498 259.731512 
L 418.083727 264.830241 
L 421.554956 269.928969 
L 425.026186 275.027698 
L 428.497415 280.126427 
" style="fill:none;stroke:#2b7bba;stroke-linecap:square;stroke-width:1.5;"/>
   </g>
   <g id="line2d_20">
    <path clip-path="url(#p40c386e934)" d="M 84.845712 280.103511 
L 88.316941 275.000219 
L 91.788171 269.896033 
L 95.2594 264.790779 
L 98.730629 259.684256 
L 102.201859 254.57622 
L 105.673088 249.466386 
L 109.144317 244.354415 
L 112.615547 239.239906 
L 116.086776 234.122388 
L 119.558005 229.001305 
L 123.029235 223.876002 
L 126.500464 218.745711 
L 129.971693 213.609533 
L 133.442922 208.466413 
L 136.914152 203.315125 
L 140.385381 198.154237 
L 143.85661 192.982092 
L 147.32784 187.796771 
L 150.799069 182.596064 
L 154.270298 177.377435 
L 157.741528 172.137991 
L 161.212757 166.874449 
L 164.683986 161.58311 
L 168.155216 156.25984 
L 171.626445 150.900071 
L 175.097674 145.498816 
L 178.568904 140.050719 
L 182.040133 134.550154 
L 185.511362 128.991383 
L 188.982592 123.3688 
L 192.453821 117.677289 
L 195.92505 111.912733 
L 199.39628 106.072697 
L 202.867509 100.157352 
L 206.338738 94.170658 
L 209.809968 88.121845 
L 213.281197 82.027209 
L 216.752426 75.912182 
L 220.223656 69.813579 
L 223.694885 63.781847 
L 227.166114 57.882992 
L 230.637344 52.199746 
L 234.108573 46.831424 
L 237.579802 41.891886 
L 241.051031 37.505086 
L 244.522261 33.798046 
L 247.99349 30.891528 
L 251.464719 28.889369 
L 254.935949 27.868 
L 258.407178 27.868 
L 261.878407 28.889369 
L 265.349637 30.891528 
L 268.820866 33.798046 
L 272.292095 37.505086 
L 275.763325 41.891886 
L 279.234554 46.831424 
L 282.705783 52.199746 
L 286.177013 57.882992 
L 289.648242 63.781847 
L 293.119471 69.813579 
L 296.590701 75.912182 
L 300.06193 82.027209 
L 303.533159 88.121845 
L 307.004389 94.170658 
L 310.475618 100.157352 
L 313.946847 106.072697 
L 317.418077 111.912733 
L 320.889306 117.677289 
L 324.360535 123.3688 
L 327.831765 128.991383 
L 331.302994 134.550154 
L 334.774223 140.050719 
L 338.245452 145.498816 
L 341.716682 150.900071 
L 345.187911 156.25984 
L 348.65914 161.58311 
L 352.13037 166.874449 
L 355.601599 172.137991 
L 359.072828 177.377435 
L 362.544058 182.596064 
L 366.015287 187.796771 
L 369.486516 192.982092 
L 372.957746 198.154237 
L 376.428975 203.315125 
L 379.900204 208.466413 
L 383.371434 213.609533 
L 386.842663 218.745711 
L 390.313892 223.876002 
L 393.785122 229.001305 
L 397.256351 234.122388 
L 400.72758 239.239906 
L 404.19881 244.354415 
L 407.670039 249.466386 
L 411.141268 254.57622 
L 414.612498 259.684256 
L 418.083727 264.790779 
L 421.554956 269.896033 
L 425.026186 275.000219 
L 428.497415 280.103511 
" style="fill:none;stroke:#539ecd;stroke-linecap:square;stroke-width:1.5;"/>
   </g>
   <g id="line2d_21">
    <path clip-path="url(#p40c386e934)" d="M 84.845712 276.748049 
L 88.316941 271.368347 
L 91.788171 265.967259 
L 95.2594 260.543445 
L 98.730629 255.095525 
L 102.201859 249.622088 
L 105.673088 244.121703 
L 109.144317 238.59293 
L 112.615547 233.034335 
L 116.086776 227.444509 
L 119.558005 221.822087 
L 123.029235 216.165779 
L 126.500464 210.4744 
L 129.971693 204.746903 
L 133.442922 198.982425 
L 136.914152 193.180338 
L 140.385381 187.340301 
L 143.85661 181.462329 
L 147.32784 175.546865 
L 150.799069 169.594866 
L 154.270298 163.607889 
L 157.741528 157.588201 
L 161.212757 151.538886 
L 164.683986 145.463969 
L 168.155216 139.368547 
L 171.626445 133.258923 
L 175.097674 127.142753 
L 178.568904 121.029187 
L 182.040133 114.929014 
L 185.511362 108.854799 
L 188.982592 102.82101 
L 192.453821 96.844116 
L 195.92505 90.942676 
L 199.39628 85.137372 
L 202.867509 79.451016 
L 206.338738 73.90848 
L 209.809968 68.536586 
L 213.281197 63.3639 
L 216.752426 58.420464 
L 220.223656 53.737431 
L 223.694885 49.34663 
L 227.166114 45.280036 
L 230.637344 41.569184 
L 234.108573 38.244521 
L 237.579802 35.334722 
L 241.051031 32.865996 
L 244.522261 30.86142 
L 247.99349 29.340302 
L 251.464719 28.317649 
L 254.935949 27.803718 
L 258.407178 27.803718 
L 261.878407 28.317649 
L 265.349637 29.340302 
L 268.820866 30.86142 
L 272.292095 32.865996 
L 275.763325 35.334722 
L 279.234554 38.244521 
L 282.705783 41.569184 
L 286.177013 45.280036 
L 289.648242 49.34663 
L 293.119471 53.737431 
L 296.590701 58.420464 
L 300.06193 63.3639 
L 303.533159 68.536586 
L 307.004389 73.90848 
L 310.475618 79.451016 
L 313.946847 85.137372 
L 317.418077 90.942676 
L 320.889306 96.844116 
L 324.360535 102.82101 
L 327.831765 108.854799 
L 331.302994 114.929014 
L 334.774223 121.029187 
L 338.245452 127.142753 
L 341.716682 133.258923 
L 345.187911 139.368547 
L 348.65914 145.463969 
L 352.13037 151.538886 
L 355.601599 157.588201 
L 359.072828 163.607889 
L 362.544058 169.594866 
L 366.015287 175.546865 
L 369.486516 181.462329 
L 372.957746 187.340301 
L 376.428975 193.180338 
L 379.900204 198.982425 
L 383.371434 204.746903 
L 386.842663 210.4744 
L 390.313892 216.165779 
L 393.785122 221.822087 
L 397.256351 227.444509 
L 400.72758 233.034335 
L 404.19881 238.59293 
L 407.670039 244.121703 
L 411.141268 249.622088 
L 414.612498 255.095525 
L 418.083727 260.543445 
L 421.554956 265.967259 
L 425.026186 271.368347 
L 428.497415 276.748049 
" style="fill:none;stroke:#89bedc;stroke-linecap:square;stroke-width:1.5;"/>
   </g>
   <g id="line2d_22">
    <path clip-path="url(#p40c386e934)" d="M 84.845712 256.187072 
L 88.316941 250.180074 
L 91.788171 244.154099 
L 95.2594 238.110318 
L 98.730629 232.050104 
L 102.201859 225.975052 
L 105.673088 219.886992 
L 109.144317 213.788009 
L 112.615547 207.680462 
L 116.086776 201.567002 
L 119.558005 195.450588 
L 123.029235 189.334511 
L 126.500464 183.222408 
L 129.971693 177.118285 
L 133.442922 171.02653 
L 136.914152 164.95193 
L 140.385381 158.899691 
L 143.85661 152.875447 
L 147.32784 146.885274 
L 150.799069 140.935699 
L 154.270298 135.033707 
L 157.741528 129.186744 
L 161.212757 123.402718 
L 164.683986 117.689994 
L 168.155216 112.057383 
L 171.626445 106.514132 
L 175.097674 101.069902 
L 178.568904 95.734741 
L 182.040133 90.519058 
L 185.511362 85.43358 
L 188.982592 80.489312 
L 192.453821 75.697481 
L 195.92505 71.069483 
L 199.39628 66.616819 
L 202.867509 62.351023 
L 206.338738 58.283586 
L 209.809968 54.42588 
L 213.281197 50.789071 
L 216.752426 47.384032 
L 220.223656 44.221254 
L 223.694885 41.310753 
L 227.166114 38.661986 
L 230.637344 36.283758 
L 234.108573 34.18414 
L 237.579802 32.370388 
L 241.051031 30.848869 
L 244.522261 29.624998 
L 247.99349 28.703179 
L 251.464719 28.086755 
L 254.935949 27.777977 
L 258.407178 27.777977 
L 261.878407 28.086755 
L 265.349637 28.703179 
L 268.820866 29.624998 
L 272.292095 30.848869 
L 275.763325 32.370388 
L 279.234554 34.18414 
L 282.705783 36.283758 
L 286.177013 38.661986 
L 289.648242 41.310753 
L 293.119471 44.221254 
L 296.590701 47.384032 
L 300.06193 50.789071 
L 303.533159 54.42588 
L 307.004389 58.283586 
L 310.475618 62.351023 
L 313.946847 66.616819 
L 317.418077 71.069483 
L 320.889306 75.697481 
L 324.360535 80.489312 
L 327.831765 85.43358 
L 331.302994 90.519058 
L 334.774223 95.734741 
L 338.245452 101.069902 
L 341.716682 106.514132 
L 345.187911 112.057383 
L 348.65914 117.689994 
L 352.13037 123.402718 
L 355.601599 129.186744 
L 359.072828 135.033707 
L 362.544058 140.935699 
L 366.015287 146.885274 
L 369.486516 152.875447 
L 372.957746 158.899691 
L 376.428975 164.95193 
L 379.900204 171.02653 
L 383.371434 177.118285 
L 386.842663 183.222408 
L 390.313892 189.334511 
L 393.785122 195.450588 
L 397.256351 201.567002 
L 400.72758 207.680462 
L 404.19881 213.788009 
L 407.670039 219.886992 
L 411.141268 225.975052 
L 414.612498 232.050104 
L 418.083727 238.110318 
L 421.554956 244.154099 
L 425.026186 250.180074 
L 428.497415 256.187072 
" style="fill:none;stroke:#bad6eb;stroke-linecap:square;stroke-width:1.5;"/>
   </g>
   <g id="patch_3">
    <path d="M 67.663127 292.745781 
L 67.663127 15.12 
" style="fill:none;stroke:#000000;stroke-linecap:square;stroke-linejoin:miter;stroke-width:0.8;"/>
   </g>
   <g id="patch_4">
    <path d="M 445.68 292.745781 
L 445.68 15.12 
" style="fill:none;stroke:#000000;stroke-linecap:square;stroke-linejoin:miter;stroke-width:0.8;"/>
   </g>
   <g id="patch_5">
    <path d="M 67.663127 292.745781 
L 445.68 292.745781 
" style="fill:none;stroke:#000000;stroke-linecap:square;stroke-linejoin:miter;stroke-width:0.8;"/>
   </g>
   <g id="patch_6">
    <path d="M 67.663127 15.12 
L 445.68 15.12 
" style="fill:none;stroke:#000000;stroke-linecap:square;stroke-linejoin:miter;stroke-width:0.8;"/>
   </g>
   <g id="legend_1">
    <g id="patch_7">
     <path d="M 343.31001 125.417802 
L 435.88 125.417802 
Q 438.68 125.417802 438.68 122.617802 
L 438.68 24.92 
Q 438.68 22.12 435.88 22.12 
L 343.31001 22.12 
Q 340.51001 22.12 340.51001 24.92 
L 340.51001 122.617802 
Q 340.51001 125.417802 343.31001 125.417802 
z
" style="fill:#ffffff;opacity:0.8;stroke:#cccccc;stroke-linejoin:miter;"/>
    </g>
    <g id="line2d_23">
     <path d="M 346.11001 32.62 
L 374.11001 32.62 
" style="fill:none;stroke:#0b559f;stroke-linecap:square;stroke-width:1.5;"/>
    </g>
    <g id="line2d_24"/>
    <g id="text_18">
     <!-- $\gamma=0.01$ -->
     <g transform="translate(385.31001 37.52)scale(0.14 -0.14)">
      <defs>
       <path d="M 3674 2138 
L 3674 2496 
L 397 2496 
L 397 2138 
L 3674 2138 
z
M 3674 832 
L 3674 1190 
L 397 1190 
L 397 832 
L 3674 832 
z
" id="rtxr-3d" transform="scale(0.015625)"/>
      </defs>
      <use transform="scale(0.996264)" xlink:href="#rtxmi-d"/>
      <use transform="translate(78.079319 0)scale(0.996264)" xlink:href="#rtxr-3d"/>
      <use transform="translate(163.580816 0)scale(0.996264)" xlink:href="#TeXGyreTermes-Regular-30"/>
      <use transform="translate(214.988015 0)scale(0.996264)" xlink:href="#rtxmi-3a"/>
      <use transform="translate(241.588276 0)scale(0.996264)" xlink:href="#TeXGyreTermes-Regular-30"/>
      <use transform="translate(291.401477 0)scale(0.996264)" xlink:href="#TeXGyreTermes-Regular-31"/>
     </g>
    </g>
    <g id="line2d_25">
     <path d="M 346.11001 52.43956 
L 374.11001 52.43956 
" style="fill:none;stroke:#2b7bba;stroke-linecap:square;stroke-width:1.5;"/>
    </g>
    <g id="line2d_26"/>
    <g id="text_19">
     <!-- $\gamma=0.1$ -->
     <g transform="translate(385.31001 57.33956)scale(0.14 -0.14)">
      <use transform="scale(0.996264)" xlink:href="#rtxmi-d"/>
      <use transform="translate(78.079319 0)scale(0.996264)" xlink:href="#rtxr-3d"/>
      <use transform="translate(163.580816 0)scale(0.996264)" xlink:href="#TeXGyreTermes-Regular-30"/>
      <use transform="translate(214.988015 0)scale(0.996264)" xlink:href="#rtxmi-3a"/>
      <use transform="translate(241.588276 0)scale(0.996264)" xlink:href="#TeXGyreTermes-Regular-31"/>
     </g>
    </g>
    <g id="line2d_27">
     <path d="M 346.11001 72.259121 
L 374.11001 72.259121 
" style="fill:none;stroke:#539ecd;stroke-linecap:square;stroke-width:1.5;"/>
    </g>
    <g id="line2d_28"/>
    <g id="text_20">
     <!-- $\gamma=0.3$ -->
     <g transform="translate(385.31001 77.159121)scale(0.14 -0.14)">
      <defs>
       <path d="M 2765 1428 
C 2765 1754 2662 2055 2477 2253 
C 2349 2394 2227 2471 1946 2592 
C 2387 2893 2547 3130 2547 3476 
C 2547 3994 2138 4352 1549 4352 
C 1229 4352 947 4244 717 4039 
C 525 3866 429 3699 288 3315 
L 384 3290 
C 646 3757 934 3968 1338 3968 
C 1754 3968 2042 3687 2042 3284 
C 2042 3053 1946 2823 1786 2663 
C 1594 2471 1414 2375 979 2221 
L 979 2138 
C 1357 2138 1504 2125 1658 2068 
C 2054 1927 2304 1562 2304 1120 
C 2304 583 1939 167 1466 167 
C 1293 167 1165 212 928 365 
C 736 480 627 525 518 525 
C 371 525 275 436 275 301 
C 275 77 550 -64 998 -64 
C 1491 -64 1997 103 2298 365 
C 2598 628 2765 999 2765 1428 
z
" id="TeXGyreTermes-Regular-33" transform="scale(0.015625)"/>
      </defs>
      <use transform="scale(0.996264)" xlink:href="#rtxmi-d"/>
      <use transform="translate(78.079319 0)scale(0.996264)" xlink:href="#rtxr-3d"/>
      <use transform="translate(163.580816 0)scale(0.996264)" xlink:href="#TeXGyreTermes-Regular-30"/>
      <use transform="translate(214.988015 0)scale(0.996264)" xlink:href="#rtxmi-3a"/>
      <use transform="translate(241.588276 0)scale(0.996264)" xlink:href="#TeXGyreTermes-Regular-33"/>
     </g>
    </g>
    <g id="line2d_29">
     <path d="M 346.11001 92.078681 
L 374.11001 92.078681 
" style="fill:none;stroke:#89bedc;stroke-linecap:square;stroke-width:1.5;"/>
    </g>
    <g id="line2d_30"/>
    <g id="text_21">
     <!-- $\gamma=0.6$ -->
     <g transform="translate(385.31001 96.978681)scale(0.14 -0.14)">
      <use transform="scale(0.996264)" xlink:href="#rtxmi-d"/>
      <use transform="translate(78.079319 0)scale(0.996264)" xlink:href="#rtxr-3d"/>
      <use transform="translate(163.580816 0)scale(0.996264)" xlink:href="#TeXGyreTermes-Regular-30"/>
      <use transform="translate(214.988015 0)scale(0.996264)" xlink:href="#rtxmi-3a"/>
      <use transform="translate(241.588276 0)scale(0.996264)" xlink:href="#TeXGyreTermes-Regular-36"/>
     </g>
    </g>
    <g id="line2d_31">
     <path d="M 346.11001 111.898242 
L 374.11001 111.898242 
" style="fill:none;stroke:#bad6eb;stroke-linecap:square;stroke-width:1.5;"/>
    </g>
    <g id="line2d_32"/>
    <g id="text_22">
     <!-- $\gamma=1.0$ -->
     <g transform="translate(385.31001 116.798242)scale(0.14 -0.14)">
      <use transform="scale(0.996264)" xlink:href="#rtxmi-d"/>
      <use transform="translate(78.079319 0)scale(0.996264)" xlink:href="#rtxr-3d"/>
      <use transform="translate(163.580816 0)scale(0.996264)" xlink:href="#TeXGyreTermes-Regular-31"/>
      <use transform="translate(214.988015 0)scale(0.996264)" xlink:href="#rtxmi-3a"/>
      <use transform="translate(241.588276 0)scale(0.996264)" xlink:href="#TeXGyreTermes-Regular-30"/>
     </g>
    </g>
   </g>
  </g>
 </g>
 <defs>
  <clipPath id="p40c386e934">
   <rect height="277.625781" width="378.016873" x="67.663127" y="15.12"/>
  </clipPath>
 </defs>
</svg>
