<?xml version="1.0" encoding="utf-8" standalone="no"?>
<!DOCTYPE svg PUBLIC "-//W3C//DTD SVG 1.1//EN"
  "http://www.w3.org/Graphics/SVG/1.1/DTD/svg11.dtd">
<svg height="345.6pt" version="1.1" viewBox="0 0 460.8 345.6" width="460.8pt" xmlns="http://www.w3.org/2000/svg" xmlns:xlink="http://www.w3.org/1999/xlink">
 <metadata>
  <rdf:RDF xmlns:cc="http://creativecommons.org/ns#" xmlns:dc="http://purl.org/dc/elements/1.1/" xmlns:rdf="http://www.w3.org/1999/02/22-rdf-syntax-ns#">
   <cc:Work>
    <dc:type rdf:resource="http://purl.org/dc/dcmitype/StillImage"/>
    <dc:date>2021-05-19T09:35:44.835012</dc:date>
    <dc:format>image/svg+xml</dc:format>
    <dc:creator>
     <cc:Agent>
      <dc:title>Matplotlib v3.4.1, https://matplotlib.org/</dc:title>
     </cc:Agent>
    </dc:creator>
   </cc:Work>
  </rdf:RDF>
 </metadata>
 <defs>
  <style type="text/css">*{stroke-linecap:butt;stroke-linejoin:round;}</style>
 </defs>
 <g id="figure_1">
  <g id="patch_1">
   <path d="M 0 345.6 
L 460.8 345.6 
L 460.8 0 
L 0 0 
z
" style="fill:#f9fafb;"/>
  </g>
  <g id="axes_1">
   <g id="patch_2">
    <path d="M 67.663127 292.745781 
L 445.68 292.745781 
L 445.68 15.12 
L 67.663127 15.12 
z
" style="fill:#f9fafb;"/>
   </g>
   <g id="matplotlib.axis_1">
    <g id="xtick_1">
     <g id="line2d_1">
      <defs>
       <path d="M 0 0 
L 0 3.5 
" id="me5f8a6c36f" style="stroke:#000000;stroke-width:0.8;"/>
      </defs>
      <g>
       <use style="stroke:#000000;stroke-width:0.8;" x="84.845712" xlink:href="#me5f8a6c36f" y="292.745781"/>
      </g>
     </g>
     <g id="text_1">
      <!-- $\mathdefault{−1.5}$ -->
      <g transform="translate(71.462906 309.202186)scale(0.14 -0.14)">
       <defs>
        <path d="M 3673 1469 
L 3673 1827 
L 396 1827 
L 396 1469 
L 3673 1469 
z
" id="txsys-0" transform="scale(0.015625)"/>
        <path d="M 2522 0 
L 2522 96 
C 2016 96 1914 160 1914 470 
L 1914 4327 
L 1862 4339 
L 710 3757 
L 710 3667 
C 787 3699 858 3725 883 3738 
C 998 3783 1107 3808 1171 3808 
C 1306 3808 1363 3711 1363 3505 
L 1363 592 
C 1363 379 1312 232 1210 173 
C 1114 116 1024 96 755 96 
L 755 0 
L 2522 0 
z
" id="TeXGyreTermes-Regular-31" transform="scale(0.015625)"/>
        <path d="M 1158 281 
C 1158 480 992 646 800 646 
C 608 646 448 486 448 281 
C 448 38 666 -64 800 -64 
C 934 -64 1158 44 1158 281 
z
" id="rtxmi-3a" transform="scale(0.015625)"/>
        <path d="M 2803 4345 
L 2746 4390 
C 2650 4256 2586 4224 2451 4224 
L 1114 4224 
L 416 2705 
C 410 2692 410 2673 410 2673 
C 410 2641 435 2622 486 2622 
C 691 2622 947 2577 1210 2494 
C 1946 2256 2285 1859 2285 1225 
C 2285 609 1894 128 1395 128 
C 1267 128 1158 173 966 314 
C 762 462 614 526 480 526 
C 294 526 205 449 205 289 
C 205 45 506 -109 986 -109 
C 1523 -109 1984 64 2304 392 
C 2598 680 2733 1045 2733 1533 
C 2733 1994 2611 2289 2291 2609 
C 2010 2892 1645 3039 890 3173 
L 1158 3718 
L 2413 3718 
C 2515 3718 2541 3731 2560 3776 
L 2803 4345 
z
" id="TeXGyreTermes-Regular-35" transform="scale(0.015625)"/>
       </defs>
       <use transform="scale(0.996264)" xlink:href="#txsys-0"/>
       <use transform="translate(63.362352 0)scale(0.996264)" xlink:href="#TeXGyreTermes-Regular-31"/>
       <use transform="translate(114.76955 0)scale(0.996264)" xlink:href="#rtxmi-3a"/>
       <use transform="translate(141.369811 0)scale(0.996264)" xlink:href="#TeXGyreTermes-Regular-35"/>
      </g>
     </g>
    </g>
    <g id="xtick_2">
     <g id="line2d_2">
      <g>
       <use style="stroke:#000000;stroke-width:0.8;" x="142.120996" xlink:href="#me5f8a6c36f" y="292.745781"/>
      </g>
     </g>
     <g id="text_2">
      <!-- $\mathdefault{−1.0}$ -->
      <g transform="translate(128.73819 309.202186)scale(0.14 -0.14)">
       <defs>
        <path d="M 3046 2138 
C 3046 3450 2464 4352 1626 4352 
C 1274 4352 1005 4244 768 4020 
C 397 3661 154 2925 154 2176 
C 154 1479 365 730 666 372 
C 902 90 1229 -64 1600 -64 
C 1926 -64 2202 45 2432 269 
C 2803 621 3046 1364 3046 2138 
z
M 2432 2125 
C 2432 788 2150 103 1600 103 
C 1050 103 768 788 768 2119 
C 768 3476 1056 4186 1606 4186 
C 2144 4186 2432 3463 2432 2125 
z
" id="TeXGyreTermes-Regular-30" transform="scale(0.015625)"/>
       </defs>
       <use transform="scale(0.996264)" xlink:href="#txsys-0"/>
       <use transform="translate(63.362352 0)scale(0.996264)" xlink:href="#TeXGyreTermes-Regular-31"/>
       <use transform="translate(114.76955 0)scale(0.996264)" xlink:href="#rtxmi-3a"/>
       <use transform="translate(141.369811 0)scale(0.996264)" xlink:href="#TeXGyreTermes-Regular-30"/>
      </g>
     </g>
    </g>
    <g id="xtick_3">
     <g id="line2d_3">
      <g>
       <use style="stroke:#000000;stroke-width:0.8;" x="199.39628" xlink:href="#me5f8a6c36f" y="292.745781"/>
      </g>
     </g>
     <g id="text_3">
      <!-- $\mathdefault{−0.5}$ -->
      <g transform="translate(186.013474 309.202186)scale(0.14 -0.14)">
       <use transform="scale(0.996264)" xlink:href="#txsys-0"/>
       <use transform="translate(63.362352 0)scale(0.996264)" xlink:href="#TeXGyreTermes-Regular-30"/>
       <use transform="translate(114.76955 0)scale(0.996264)" xlink:href="#rtxmi-3a"/>
       <use transform="translate(141.369811 0)scale(0.996264)" xlink:href="#TeXGyreTermes-Regular-35"/>
      </g>
     </g>
    </g>
    <g id="xtick_4">
     <g id="line2d_4">
      <g>
       <use style="stroke:#000000;stroke-width:0.8;" x="256.671563" xlink:href="#me5f8a6c36f" y="292.745781"/>
      </g>
     </g>
     <g id="text_4">
      <!-- $\mathdefault{0.0}$ -->
      <g transform="translate(247.724121 309.202186)scale(0.14 -0.14)">
       <use transform="scale(0.996264)" xlink:href="#TeXGyreTermes-Regular-30"/>
       <use transform="translate(51.407199 0)scale(0.996264)" xlink:href="#rtxmi-3a"/>
       <use transform="translate(78.00746 0)scale(0.996264)" xlink:href="#TeXGyreTermes-Regular-30"/>
      </g>
     </g>
    </g>
    <g id="xtick_5">
     <g id="line2d_5">
      <g>
       <use style="stroke:#000000;stroke-width:0.8;" x="313.946847" xlink:href="#me5f8a6c36f" y="292.745781"/>
      </g>
     </g>
     <g id="text_5">
      <!-- $\mathdefault{0.5}$ -->
      <g transform="translate(304.999405 309.202186)scale(0.14 -0.14)">
       <use transform="scale(0.996264)" xlink:href="#TeXGyreTermes-Regular-30"/>
       <use transform="translate(51.407199 0)scale(0.996264)" xlink:href="#rtxmi-3a"/>
       <use transform="translate(78.00746 0)scale(0.996264)" xlink:href="#TeXGyreTermes-Regular-35"/>
      </g>
     </g>
    </g>
    <g id="xtick_6">
     <g id="line2d_6">
      <g>
       <use style="stroke:#000000;stroke-width:0.8;" x="371.222131" xlink:href="#me5f8a6c36f" y="292.745781"/>
      </g>
     </g>
     <g id="text_6">
      <!-- $\mathdefault{1.0}$ -->
      <g transform="translate(362.274689 309.202186)scale(0.14 -0.14)">
       <use transform="scale(0.996264)" xlink:href="#TeXGyreTermes-Regular-31"/>
       <use transform="translate(51.407199 0)scale(0.996264)" xlink:href="#rtxmi-3a"/>
       <use transform="translate(78.00746 0)scale(0.996264)" xlink:href="#TeXGyreTermes-Regular-30"/>
      </g>
     </g>
    </g>
    <g id="xtick_7">
     <g id="line2d_7">
      <g>
       <use style="stroke:#000000;stroke-width:0.8;" x="428.497415" xlink:href="#me5f8a6c36f" y="292.745781"/>
      </g>
     </g>
     <g id="text_7">
      <!-- $\mathdefault{1.5}$ -->
      <g transform="translate(419.549973 309.202186)scale(0.14 -0.14)">
       <use transform="scale(0.996264)" xlink:href="#TeXGyreTermes-Regular-31"/>
       <use transform="translate(51.407199 0)scale(0.996264)" xlink:href="#rtxmi-3a"/>
       <use transform="translate(78.00746 0)scale(0.996264)" xlink:href="#TeXGyreTermes-Regular-35"/>
      </g>
     </g>
    </g>
    <g id="text_8">
     <!-- $a$ -->
     <g transform="translate(252.686507 327.029074)scale(0.16 -0.16)">
      <defs>
       <path d="M 2970 708 
C 2874 612 2835 580 2790 529 
C 2598 332 2515 268 2458 268 
C 2406 268 2368 306 2368 351 
C 2368 479 2637 1568 2938 2663 
C 2957 2727 2963 2740 2976 2797 
L 2931 2816 
L 2541 2772 
L 2522 2753 
L 2451 2447 
C 2400 2682 2214 2816 1939 2816 
C 1094 2816 109 1650 109 644 
C 109 197 352 -64 762 -64 
C 1210 -64 1485 147 2048 937 
C 1920 437 1901 353 1901 199 
C 1901 13 1978 -64 2157 -64 
C 2413 -64 2573 58 3046 644 
L 2970 708 
z
M 1978 2670 
C 2195 2670 2336 2517 2336 2293 
C 2336 1757 2016 1002 1574 530 
C 1421 357 1203 249 1018 249 
C 794 249 646 433 646 726 
C 646 1069 890 1723 1165 2117 
C 1421 2486 1722 2689 1978 2670 
z
" id="NimbusRomNo9L-ReguItal-61" transform="scale(0.015625)"/>
      </defs>
      <use transform="scale(0.996264)" xlink:href="#NimbusRomNo9L-ReguItal-61"/>
     </g>
    </g>
   </g>
   <g id="matplotlib.axis_2">
    <g id="ytick_1">
     <g id="line2d_8">
      <defs>
       <path d="M 0 0 
L -3.5 0 
" id="m22df132cea" style="stroke:#000000;stroke-width:0.8;"/>
      </defs>
      <g>
       <use style="stroke:#000000;stroke-width:0.8;" x="67.663127" xlink:href="#m22df132cea" y="263.300622"/>
      </g>
     </g>
     <g id="text_9">
      <!-- $\mathdefault{−1.4}$ -->
      <g transform="translate(33.897516 268.028825)scale(0.14 -0.14)">
       <defs>
        <path d="M 3021 1088 
L 3021 1497 
L 2368 1497 
L 2368 4352 
L 2086 4352 
L 77 1497 
L 77 1088 
L 1875 1088 
L 1875 32 
L 2368 32 
L 2368 1088 
L 3021 1088 
z
M 1869 1497 
L 333 1497 
L 1869 3698 
L 1869 1497 
z
" id="TeXGyreTermes-Regular-34" transform="scale(0.015625)"/>
       </defs>
       <use transform="scale(0.996264)" xlink:href="#txsys-0"/>
       <use transform="translate(63.362352 0)scale(0.996264)" xlink:href="#TeXGyreTermes-Regular-31"/>
       <use transform="translate(114.76955 0)scale(0.996264)" xlink:href="#rtxmi-3a"/>
       <use transform="translate(141.369811 0)scale(0.996264)" xlink:href="#TeXGyreTermes-Regular-34"/>
      </g>
     </g>
    </g>
    <g id="ytick_2">
     <g id="line2d_9">
      <g>
       <use style="stroke:#000000;stroke-width:0.8;" x="67.663127" xlink:href="#m22df132cea" y="229.649012"/>
      </g>
     </g>
     <g id="text_10">
      <!-- $\mathdefault{−1.2}$ -->
      <g transform="translate(33.897516 234.377215)scale(0.14 -0.14)">
       <defs>
        <path d="M 3040 875 
L 2957 907 
C 2720 544 2637 486 2349 486 
L 819 486 
L 1894 1609 
C 2464 2202 2714 2687 2714 3185 
C 2714 3823 2195 4313 1530 4313 
C 1178 4313 845 4173 608 3918 
C 403 3700 307 3496 198 3043 
L 333 3011 
C 589 3636 819 3840 1261 3840 
C 1798 3840 2163 3476 2163 2940 
C 2163 2443 1869 1850 1331 1282 
L 192 77 
L 192 0 
L 2688 0 
L 3040 875 
z
" id="TeXGyreTermes-Regular-32" transform="scale(0.015625)"/>
       </defs>
       <use transform="scale(0.996264)" xlink:href="#txsys-0"/>
       <use transform="translate(63.362352 0)scale(0.996264)" xlink:href="#TeXGyreTermes-Regular-31"/>
       <use transform="translate(114.76955 0)scale(0.996264)" xlink:href="#rtxmi-3a"/>
       <use transform="translate(141.369811 0)scale(0.996264)" xlink:href="#TeXGyreTermes-Regular-32"/>
      </g>
     </g>
    </g>
    <g id="ytick_3">
     <g id="line2d_10">
      <g>
       <use style="stroke:#000000;stroke-width:0.8;" x="67.663127" xlink:href="#m22df132cea" y="195.997403"/>
      </g>
     </g>
     <g id="text_11">
      <!-- $\mathdefault{−1.0}$ -->
      <g transform="translate(33.897516 200.725605)scale(0.14 -0.14)">
       <use transform="scale(0.996264)" xlink:href="#txsys-0"/>
       <use transform="translate(63.362352 0)scale(0.996264)" xlink:href="#TeXGyreTermes-Regular-31"/>
       <use transform="translate(114.76955 0)scale(0.996264)" xlink:href="#rtxmi-3a"/>
       <use transform="translate(141.369811 0)scale(0.996264)" xlink:href="#TeXGyreTermes-Regular-30"/>
      </g>
     </g>
    </g>
    <g id="ytick_4">
     <g id="line2d_11">
      <g>
       <use style="stroke:#000000;stroke-width:0.8;" x="67.663127" xlink:href="#m22df132cea" y="162.345793"/>
      </g>
     </g>
     <g id="text_12">
      <!-- $\mathdefault{−0.8}$ -->
      <g transform="translate(33.897516 167.073996)scale(0.14 -0.14)">
       <defs>
        <path d="M 2848 1018 
C 2848 1511 2630 1824 1856 2400 
C 2490 2740 2714 3008 2714 3444 
C 2714 3968 2253 4352 1613 4352 
C 915 4352 397 3924 397 3341 
C 397 2925 518 2740 1190 2151 
C 499 1626 358 1428 358 992 
C 358 372 864 -64 1587 -64 
C 2355 -64 2848 359 2848 1018 
z
M 2362 820 
C 2362 404 2074 116 1658 116 
C 1171 116 845 487 845 1044 
C 845 1453 986 1722 1357 2023 
L 1741 1741 
C 2208 1408 2362 1178 2362 820 
z
M 2272 3450 
C 2272 3085 2093 2797 1728 2554 
C 1696 2535 1696 2535 1670 2516 
C 1101 2887 870 3181 870 3540 
C 870 3911 1158 4173 1562 4173 
C 1997 4173 2272 3892 2272 3450 
z
" id="TeXGyreTermes-Regular-38" transform="scale(0.015625)"/>
       </defs>
       <use transform="scale(0.996264)" xlink:href="#txsys-0"/>
       <use transform="translate(63.362352 0)scale(0.996264)" xlink:href="#TeXGyreTermes-Regular-30"/>
       <use transform="translate(114.76955 0)scale(0.996264)" xlink:href="#rtxmi-3a"/>
       <use transform="translate(141.369811 0)scale(0.996264)" xlink:href="#TeXGyreTermes-Regular-38"/>
      </g>
     </g>
    </g>
    <g id="ytick_5">
     <g id="line2d_12">
      <g>
       <use style="stroke:#000000;stroke-width:0.8;" x="67.663127" xlink:href="#m22df132cea" y="128.694183"/>
      </g>
     </g>
     <g id="text_13">
      <!-- $\mathdefault{−0.6}$ -->
      <g transform="translate(33.897516 133.422386)scale(0.14 -0.14)">
       <defs>
        <path d="M 2995 1421 
C 2995 2236 2528 2752 1792 2752 
C 1510 2752 1376 2707 973 2464 
C 1146 3431 1862 4122 2867 4288 
L 2854 4391 
C 2125 4327 1754 4206 1286 3880 
C 595 3389 218 2661 218 1807 
C 218 1251 390 690 666 371 
C 909 90 1254 -64 1651 -64 
C 2445 -64 2995 541 2995 1421 
z
M 2419 1204 
C 2419 504 2170 116 1722 116 
C 1158 116 813 714 813 1700 
C 813 2025 864 2203 992 2299 
C 1126 2400 1325 2458 1549 2458 
C 2099 2458 2419 2000 2419 1204 
z
" id="TeXGyreTermes-Regular-36" transform="scale(0.015625)"/>
       </defs>
       <use transform="scale(0.996264)" xlink:href="#txsys-0"/>
       <use transform="translate(63.362352 0)scale(0.996264)" xlink:href="#TeXGyreTermes-Regular-30"/>
       <use transform="translate(114.76955 0)scale(0.996264)" xlink:href="#rtxmi-3a"/>
       <use transform="translate(141.369811 0)scale(0.996264)" xlink:href="#TeXGyreTermes-Regular-36"/>
      </g>
     </g>
    </g>
    <g id="ytick_6">
     <g id="line2d_13">
      <g>
       <use style="stroke:#000000;stroke-width:0.8;" x="67.663127" xlink:href="#m22df132cea" y="95.042573"/>
      </g>
     </g>
     <g id="text_14">
      <!-- $\mathdefault{−0.4}$ -->
      <g transform="translate(33.897516 99.770776)scale(0.14 -0.14)">
       <use transform="scale(0.996264)" xlink:href="#txsys-0"/>
       <use transform="translate(63.362352 0)scale(0.996264)" xlink:href="#TeXGyreTermes-Regular-30"/>
       <use transform="translate(114.76955 0)scale(0.996264)" xlink:href="#rtxmi-3a"/>
       <use transform="translate(141.369811 0)scale(0.996264)" xlink:href="#TeXGyreTermes-Regular-34"/>
      </g>
     </g>
    </g>
    <g id="ytick_7">
     <g id="line2d_14">
      <g>
       <use style="stroke:#000000;stroke-width:0.8;" x="67.663127" xlink:href="#m22df132cea" y="61.390963"/>
      </g>
     </g>
     <g id="text_15">
      <!-- $\mathdefault{−0.2}$ -->
      <g transform="translate(33.897516 66.119166)scale(0.14 -0.14)">
       <use transform="scale(0.996264)" xlink:href="#txsys-0"/>
       <use transform="translate(63.362352 0)scale(0.996264)" xlink:href="#TeXGyreTermes-Regular-30"/>
       <use transform="translate(114.76955 0)scale(0.996264)" xlink:href="#rtxmi-3a"/>
       <use transform="translate(141.369811 0)scale(0.996264)" xlink:href="#TeXGyreTermes-Regular-32"/>
      </g>
     </g>
    </g>
    <g id="ytick_8">
     <g id="line2d_15">
      <g>
       <use style="stroke:#000000;stroke-width:0.8;" x="67.663127" xlink:href="#m22df132cea" y="27.739354"/>
      </g>
     </g>
     <g id="text_16">
      <!-- $\mathdefault{0.0}$ -->
      <g transform="translate(42.768242 32.467556)scale(0.14 -0.14)">
       <use transform="scale(0.996264)" xlink:href="#TeXGyreTermes-Regular-30"/>
       <use transform="translate(51.407199 0)scale(0.996264)" xlink:href="#rtxmi-3a"/>
       <use transform="translate(78.00746 0)scale(0.996264)" xlink:href="#TeXGyreTermes-Regular-30"/>
      </g>
     </g>
    </g>
    <g id="text_17">
     <!-- $\text{smoothMin}^\gamma(-a, a)$ -->
     <g transform="translate(26.44659 215.361917)rotate(-90)scale(0.16 -0.16)">
      <defs>
       <path d="M 2016 2010 
L 1990 2880 
L 1920 2880 
L 1907 2867 
C 1850 2822 1843 2816 1818 2816 
C 1779 2816 1715 2829 1645 2861 
C 1504 2915 1363 2944 1197 2944 
C 691 2944 326 2616 326 2154 
C 326 1796 531 1539 1075 1231 
L 1446 1020 
C 1670 892 1779 737 1779 539 
C 1779 256 1574 77 1248 77 
C 1030 77 832 159 710 298 
C 576 455 518 600 435 960 
L 333 960 
L 333 -39 
L 416 -39 
C 461 33 486 48 563 48 
C 621 48 710 35 858 -2 
C 1037 -39 1210 -64 1325 -64 
C 1818 -64 2227 308 2227 757 
C 2227 1077 2074 1289 1690 1520 
L 998 1930 
C 819 2033 723 2194 723 2367 
C 723 2624 922 2803 1216 2803 
C 1581 2803 1773 2583 1920 2010 
L 2016 2010 
z
" id="NimbusRomNo9L-Regu-73" transform="scale(0.015625)"/>
       <path d="M 122 2547 
C 205 2566 256 2573 326 2573 
C 493 2573 550 2470 550 2162 
L 550 539 
C 550 192 461 96 102 96 
L 102 0 
L 1523 0 
L 1523 96 
C 1184 96 1088 166 1088 418 
L 1088 2234 
C 1088 2246 1139 2310 1184 2355 
C 1344 2502 1619 2611 1843 2611 
C 2125 2611 2266 2385 2266 1932 
L 2266 528 
C 2266 167 2195 96 1830 96 
L 1830 0 
L 3264 0 
L 3264 96 
C 2899 96 2803 205 2803 603 
L 2803 2221 
C 2995 2496 3206 2611 3501 2611 
C 3866 2611 3981 2438 3981 1907 
L 3981 557 
C 3981 192 3930 141 3558 96 
L 3558 0 
L 4960 0 
L 4960 96 
L 4794 115 
C 4602 115 4518 230 4518 480 
L 4518 1802 
C 4518 2559 4269 2944 3776 2944 
C 3405 2944 3078 2778 2733 2407 
C 2618 2771 2400 2944 2054 2944 
C 1773 2944 1594 2854 1062 2451 
L 1062 2931 
L 1018 2944 
C 691 2822 474 2752 122 2656 
L 122 2547 
z
" id="NimbusRomNo9L-Regu-6d" transform="scale(0.015625)"/>
       <path d="M 1600 2944 
C 768 2944 186 2330 186 1446 
C 186 582 781 -64 1587 -64 
C 2394 -64 3008 614 3008 1498 
C 3008 2336 2419 2944 1600 2944 
z
M 1517 2765 
C 2054 2765 2432 2150 2432 1274 
C 2432 550 2144 115 1664 115 
C 1414 115 1178 269 1043 525 
C 864 858 762 1306 762 1760 
C 762 2368 1062 2765 1517 2765 
z
" id="NimbusRomNo9L-Regu-6f" transform="scale(0.015625)"/>
       <path d="M 1632 2880 
L 986 2880 
L 986 3622 
C 986 3686 979 3706 941 3706 
C 896 3648 858 3590 813 3526 
C 570 3174 294 2867 192 2841 
C 122 2794 83 2748 83 2715 
C 83 2695 90 2682 109 2682 
L 448 2682 
L 448 751 
C 448 212 640 -64 1018 -64 
C 1331 -64 1574 90 1786 423 
L 1702 493 
C 1568 333 1459 269 1318 269 
C 1082 269 986 443 986 847 
L 986 2682 
L 1632 2682 
L 1632 2880 
z
" id="NimbusRomNo9L-Regu-74" transform="scale(0.015625)"/>
       <path d="M 1005 2222 
C 1274 2516 1466 2624 1715 2624 
C 2035 2624 2195 2395 2195 1948 
L 2195 684 
C 2195 250 2131 166 1760 128 
L 1760 32 
L 3117 32 
L 3117 128 
C 2771 192 2733 243 2733 684 
L 2733 1954 
C 2733 2625 2464 2970 1946 2970 
C 1568 2970 1299 2816 1005 2432 
L 1005 4390 
L 973 4409 
C 755 4332 595 4281 237 4179 
L 64 4128 
L 64 4026 
C 90 4032 109 4032 141 4032 
C 416 4032 467 3980 467 3705 
L 467 686 
C 467 237 429 179 58 128 
L 58 32 
L 1440 32 
L 1440 128 
C 1069 166 1005 243 1005 684 
L 1005 2222 
z
" id="NimbusRomNo9L-Regu-68" transform="scale(0.015625)"/>
       <path d="M 4314 3667 
L 4314 751 
C 4314 217 4237 134 3731 134 
L 3731 0 
L 5523 0 
L 5523 134 
C 5056 134 4966 223 4966 681 
L 4966 3536 
C 4966 3993 5050 4077 5523 4115 
L 5523 4237 
L 4250 4237 
L 2835 1004 
L 1357 4237 
L 90 4237 
L 90 4096 
C 614 4096 698 4019 698 3550 
L 698 943 
C 698 282 608 159 77 121 
L 77 0 
L 1581 0 
L 1581 134 
C 1088 134 979 282 979 931 
L 979 3520 
L 2586 0 
L 2675 0 
L 4314 3667 
z
" id="NimbusRomNo9L-Regu-4d" transform="scale(0.015625)"/>
       <path d="M 1120 2929 
L 128 2579 
L 128 2484 
L 179 2490 
C 256 2502 339 2509 397 2509 
C 550 2509 608 2406 608 2125 
L 608 640 
C 608 179 544 109 102 109 
L 102 0 
L 1619 0 
L 1619 96 
C 1197 128 1146 191 1146 650 
L 1146 2910 
L 1120 2929 
z
M 819 4352 
C 646 4352 499 4205 499 4026 
C 499 3847 640 3699 819 3699 
C 1005 3699 1152 3840 1152 4026 
C 1152 4205 1005 4352 819 4352 
z
" id="NimbusRomNo9L-Regu-69" transform="scale(0.015625)"/>
       <path d="M 102 2579 
C 141 2598 205 2605 275 2605 
C 454 2605 512 2509 512 2195 
L 512 608 
C 512 243 442 154 115 128 
L 115 32 
L 1472 32 
L 1472 128 
C 1146 154 1050 230 1050 461 
L 1050 2259 
C 1357 2547 1498 2624 1709 2624 
C 2022 2624 2176 2426 2176 2003 
L 2176 666 
C 2176 262 2093 154 1773 128 
L 1773 32 
L 3104 32 
L 3104 128 
C 2790 160 2714 237 2714 550 
L 2714 2016 
C 2714 2618 2432 2976 1958 2976 
C 1664 2976 1466 2867 1030 2458 
L 1030 2963 
L 986 2976 
C 672 2861 454 2790 102 2688 
L 102 2579 
z
" id="NimbusRomNo9L-Regu-6e" transform="scale(0.015625)"/>
       <path d="M 3398 2794 
L 2931 2704 
C 2637 2014 2291 1338 1843 731 
C 1869 1360 1914 2816 998 2816 
C 570 2816 19 2240 19 1862 
C 19 1843 26 1817 51 1817 
C 192 1817 179 2363 806 2363 
C 1472 2363 1504 1052 1504 584 
C 1504 417 1498 269 1498 108 
C 1280 -175 762 -824 762 -1177 
C 762 -1293 813 -1344 934 -1344 
C 1466 -1344 1562 -252 1734 114 
C 1843 339 2112 661 2259 871 
C 2682 1472 3142 2104 3398 2794 
z
" id="rtxmi-d" transform="scale(0.015625)"/>
       <path d="M 1888 4589 
C 960 3987 307 2950 307 1645 
C 307 454 986 -749 1869 -1293 
L 1946 -1190 
C 1101 -525 858 250 858 1664 
C 858 3085 1120 3821 1946 4486 
L 1888 4589 
z
" id="txsys-b9" transform="scale(0.015625)"/>
       <path d="M 1248 12 
C 1248 544 877 627 730 627 
C 570 627 358 531 358 256 
C 358 0 589 -64 755 -64 
C 800 -64 832 -58 851 -52 
C 877 -45 896 -39 909 -39 
C 954 -39 998 -71 998 -128 
C 998 -250 896 -538 474 -807 
L 531 -928 
C 723 -864 1248 -442 1248 12 
z
" id="rtxmi-3b" transform="scale(0.015625)"/>
       <path d="M 243 4589 
L 186 4486 
C 1011 3821 1274 3085 1274 1664 
C 1274 250 1030 -525 186 -1190 
L 262 -1293 
C 1146 -749 1824 454 1824 1645 
C 1824 2950 1171 3987 243 4589 
z
" id="txsys-ba" transform="scale(0.015625)"/>
      </defs>
      <use transform="scale(0.996264)" xlink:href="#NimbusRomNo9L-Regu-73"/>
      <use transform="translate(38.753706 0)scale(0.996264)" xlink:href="#NimbusRomNo9L-Regu-6d"/>
      <use transform="translate(116.262076 0)scale(0.996264)" xlink:href="#NimbusRomNo9L-Regu-6f"/>
      <use transform="translate(166.075277 0)scale(0.996264)" xlink:href="#NimbusRomNo9L-Regu-6f"/>
      <use transform="translate(215.888477 0)scale(0.996264)" xlink:href="#NimbusRomNo9L-Regu-74"/>
      <use transform="translate(243.583647 0)scale(0.996264)" xlink:href="#NimbusRomNo9L-Regu-68"/>
      <use transform="translate(293.396847 0)scale(0.996264)" xlink:href="#NimbusRomNo9L-Regu-4d"/>
      <use transform="translate(381.963754 0)scale(0.996264)" xlink:href="#NimbusRomNo9L-Regu-69"/>
      <use transform="translate(409.658924 0)scale(0.996264)" xlink:href="#NimbusRomNo9L-Regu-6e"/>
      <use transform="translate(460.490294 39.871539)scale(0.727268)" xlink:href="#rtxmi-d"/>
      <use transform="translate(501.824518 0)scale(0.996264)" xlink:href="#txsys-b9"/>
      <use transform="translate(535.000128 0)scale(0.996264)" xlink:href="#txsys-0"/>
      <use transform="translate(599.657565 0)scale(0.996264)" xlink:href="#NimbusRomNo9L-ReguItal-61"/>
      <use transform="translate(647.229156 0)scale(0.996264)" xlink:href="#rtxmi-3b"/>
      <use transform="translate(680.515359 0)scale(0.996264)" xlink:href="#NimbusRomNo9L-ReguItal-61"/>
      <use transform="translate(732.072006 0)scale(0.996264)" xlink:href="#txsys-ba"/>
     </g>
    </g>
   </g>
   <g id="line2d_16">
    <path clip-path="url(#p06495beda0)" d="M 256.671563 292.745781 
L 256.671563 15.12 
" style="fill:none;stroke:#000000;stroke-dasharray:5.55,2.4;stroke-dashoffset:0;stroke-opacity:0.5;stroke-width:1.5;"/>
   </g>
   <g id="line2d_17">
    <path clip-path="url(#p06495beda0)" d="M 67.663127 27.739354 
L 445.68 27.739354 
" style="fill:none;stroke:#000000;stroke-dasharray:5.55,2.4;stroke-dashoffset:0;stroke-opacity:0.5;stroke-width:1.5;"/>
   </g>
   <g id="line2d_18">
    <path clip-path="url(#p06495beda0)" d="M 84.845712 280.126427 
L 88.282229 275.078686 
L 91.718746 270.030944 
L 95.155263 264.983203 
L 98.59178 259.935461 
L 102.028297 254.88772 
L 105.464814 249.839978 
L 108.901331 244.792237 
L 112.337848 239.744495 
L 115.774365 234.696754 
L 119.210882 229.649012 
L 122.647399 224.601271 
L 126.083916 219.553529 
L 129.520433 214.505788 
L 132.95695 209.458046 
L 136.393467 204.410305 
L 139.829984 199.362564 
L 143.266501 194.314822 
L 146.703019 189.267081 
L 150.139536 184.219339 
L 153.576053 179.171598 
L 157.01257 174.123856 
L 160.449087 169.076115 
L 163.885604 164.028373 
L 167.322121 158.980632 
L 170.758638 153.93289 
L 174.195155 148.885149 
L 177.631672 143.837407 
L 181.068189 138.789666 
L 184.504706 133.741924 
L 187.941223 128.694183 
L 191.37774 123.646442 
L 194.814257 118.5987 
L 198.250774 113.550959 
L 201.687291 108.503217 
L 205.123808 103.455476 
L 208.560325 98.407734 
L 211.996842 93.359993 
L 215.433359 88.312251 
L 218.869876 83.26451 
L 222.306393 78.216768 
L 225.74291 73.169027 
L 229.179427 68.121285 
L 232.615944 63.073544 
L 236.052461 58.025802 
L 239.488978 52.978061 
L 242.925495 47.93032 
L 246.362012 42.882578 
L 249.798529 37.834837 
L 253.235046 32.787095 
L 256.671563 27.739354 
L 260.10808 32.787095 
L 263.544597 37.834837 
L 266.981115 42.882578 
L 270.417632 47.93032 
L 273.854149 52.978061 
L 277.290666 58.025802 
L 280.727183 63.073544 
L 284.1637 68.121285 
L 287.600217 73.169027 
L 291.036734 78.216768 
L 294.473251 83.26451 
L 297.909768 88.312251 
L 301.346285 93.359993 
L 304.782802 98.407734 
L 308.219319 103.455476 
L 311.655836 108.503217 
L 315.092353 113.550959 
L 318.52887 118.5987 
L 321.965387 123.646442 
L 325.401904 128.694183 
L 328.838421 133.741924 
L 332.274938 138.789666 
L 335.711455 143.837407 
L 339.147972 148.885149 
L 342.584489 153.93289 
L 346.021006 158.980632 
L 349.457523 164.028373 
L 352.89404 169.076115 
L 356.330557 174.123856 
L 359.767074 179.171598 
L 363.203591 184.219339 
L 366.640108 189.267081 
L 370.076625 194.314822 
L 373.513142 199.362564 
L 376.949659 204.410305 
L 380.386176 209.458046 
L 383.822693 214.505788 
L 387.259211 219.553529 
L 390.695728 224.601271 
L 394.132245 229.649012 
L 397.568762 234.696754 
L 401.005279 239.744495 
L 404.441796 244.792237 
L 407.878313 249.839978 
L 411.31483 254.88772 
L 414.751347 259.935461 
L 418.187864 264.983203 
L 421.624381 270.030944 
L 425.060898 275.078686 
L 428.497415 280.126427 
" style="fill:none;stroke:#000000;stroke-linecap:square;stroke-opacity:0.5;stroke-width:3;"/>
   </g>
   <g id="line2d_19">
    <path clip-path="url(#p06495beda0)" d="M 84.845712 280.126427 
L 88.282229 275.078686 
L 91.718746 270.030944 
L 95.155263 264.983203 
L 98.59178 259.935461 
L 102.028297 254.88772 
L 105.464814 249.839978 
L 108.901331 244.792237 
L 112.337848 239.744495 
L 115.774365 234.696754 
L 119.210882 229.649012 
L 122.647399 224.601271 
L 126.083916 219.553529 
L 129.520433 214.505788 
L 132.95695 209.458046 
L 136.393467 204.410305 
L 139.829984 199.362563 
L 143.266501 194.314821 
L 146.703019 189.267079 
L 150.139536 184.219337 
L 153.576053 179.171593 
L 157.01257 174.123848 
L 160.449087 169.0761 
L 163.885604 164.028348 
L 167.322121 158.980588 
L 170.758638 153.932813 
L 174.195155 148.885014 
L 177.631672 143.837172 
L 181.068189 138.789255 
L 184.504706 133.74121 
L 187.941223 128.692942 
L 191.37774 123.644294 
L 194.814257 118.594993 
L 198.250774 113.54458 
L 201.687291 108.492278 
L 205.123808 103.43679 
L 208.560325 98.375959 
L 211.996842 93.306241 
L 215.433359 88.221873 
L 218.869876 83.113646 
L 222.306393 77.967145 
L 225.74291 72.760498 
L 229.179427 67.462045 
L 232.615944 62.029487 
L 236.052461 56.414745 
L 239.488978 50.584126 
L 242.925495 44.571645 
L 246.362012 38.586413 
L 249.798529 33.161128 
L 253.235046 29.209824 
L 256.671563 27.739354 
L 260.10808 29.209824 
L 263.544597 33.161128 
L 266.981115 38.586413 
L 270.417632 44.571645 
L 273.854149 50.584126 
L 277.290666 56.414745 
L 280.727183 62.029487 
L 284.1637 67.462045 
L 287.600217 72.760498 
L 291.036734 77.967145 
L 294.473251 83.113646 
L 297.909768 88.221873 
L 301.346285 93.306241 
L 304.782802 98.375959 
L 308.219319 103.43679 
L 311.655836 108.492278 
L 315.092353 113.54458 
L 318.52887 118.594993 
L 321.965387 123.644294 
L 325.401904 128.692942 
L 328.838421 133.74121 
L 332.274938 138.789255 
L 335.711455 143.837172 
L 339.147972 148.885014 
L 342.584489 153.932813 
L 346.021006 158.980588 
L 349.457523 164.028348 
L 352.89404 169.0761 
L 356.330557 174.123848 
L 359.767074 179.171593 
L 363.203591 184.219337 
L 366.640108 189.267079 
L 370.076625 194.314821 
L 373.513142 199.362563 
L 376.949659 204.410305 
L 380.386176 209.458046 
L 383.822693 214.505788 
L 387.259211 219.553529 
L 390.695728 224.601271 
L 394.132245 229.649012 
L 397.568762 234.696754 
L 401.005279 239.744495 
L 404.441796 244.792237 
L 407.878313 249.839978 
L 411.31483 254.88772 
L 414.751347 259.935461 
L 418.187864 264.983203 
L 421.624381 270.030944 
L 425.060898 275.078686 
L 428.497415 280.126427 
" style="fill:none;stroke:#0b559f;stroke-linecap:square;stroke-width:1.5;"/>
   </g>
   <g id="line2d_20">
    <path clip-path="url(#p06495beda0)" d="M 84.845712 280.103511 
L 88.282229 275.051256 
L 91.718746 269.998126 
L 95.155263 264.943954 
L 98.59178 259.888544 
L 102.028297 254.831662 
L 105.464814 249.773032 
L 108.901331 244.71233 
L 112.337848 239.649171 
L 115.774365 234.583102 
L 119.210882 229.513591 
L 122.647399 224.440015 
L 126.083916 219.361638 
L 129.520433 214.277604 
L 132.95695 209.186912 
L 136.393467 204.088392 
L 139.829984 198.98069 
L 143.266501 193.86223 
L 146.703019 188.731196 
L 150.139536 183.585495 
L 153.576053 178.422728 
L 157.01257 173.240157 
L 160.449087 168.034678 
L 163.885604 162.802788 
L 167.322121 157.540574 
L 170.758638 152.243701 
L 174.195155 146.907427 
L 177.631672 141.526638 
L 181.068189 136.095933 
L 184.504706 130.609754 
L 187.941223 125.062593 
L 191.37774 119.449304 
L 194.814257 113.765529 
L 198.250774 108.008307 
L 201.687291 102.176867 
L 205.123808 96.273669 
L 208.560325 90.305721 
L 211.996842 84.286178 
L 215.433359 78.236229 
L 218.869876 72.187187 
L 222.306393 66.182658 
L 225.74291 60.280532 
L 229.179427 54.554441 
L 232.615944 49.0942 
L 236.052461 44.004678 
L 239.488978 39.402593 
L 242.925495 35.41089 
L 246.362012 32.150766 
L 249.798529 29.731953 
L 253.235046 28.242452 
L 256.671563 27.739354 
L 260.10808 28.242452 
L 263.544597 29.731953 
L 266.981115 32.150766 
L 270.417632 35.41089 
L 273.854149 39.402593 
L 277.290666 44.004678 
L 280.727183 49.0942 
L 284.1637 54.554441 
L 287.600217 60.280532 
L 291.036734 66.182658 
L 294.473251 72.187187 
L 297.909768 78.236229 
L 301.346285 84.286178 
L 304.782802 90.305721 
L 308.219319 96.273669 
L 311.655836 102.176867 
L 315.092353 108.008307 
L 318.52887 113.765529 
L 321.965387 119.449304 
L 325.401904 125.062593 
L 328.838421 130.609754 
L 332.274938 136.095933 
L 335.711455 141.526638 
L 339.147972 146.907427 
L 342.584489 152.243701 
L 346.021006 157.540574 
L 349.457523 162.802788 
L 352.89404 168.034678 
L 356.330557 173.240157 
L 359.767074 178.422728 
L 363.203591 183.585495 
L 366.640108 188.731196 
L 370.076625 193.86223 
L 373.513142 198.98069 
L 376.949659 204.088392 
L 380.386176 209.186912 
L 383.822693 214.277604 
L 387.259211 219.361638 
L 390.695728 224.440015 
L 394.132245 229.513591 
L 397.568762 234.583102 
L 401.005279 239.649171 
L 404.441796 244.71233 
L 407.878313 249.773032 
L 411.31483 254.831662 
L 414.751347 259.888544 
L 418.187864 264.943954 
L 421.624381 269.998126 
L 425.060898 275.051256 
L 428.497415 280.103511 
" style="fill:none;stroke:#2b7bba;stroke-linecap:square;stroke-width:1.5;"/>
   </g>
   <g id="line2d_21">
    <path clip-path="url(#p06495beda0)" d="M 84.845712 276.748049 
L 88.282229 271.422248 
L 91.718746 266.075499 
L 95.155263 260.706503 
L 98.59178 255.313922 
L 102.028297 249.896388 
L 105.464814 244.452512 
L 108.901331 238.980899 
L 112.337848 233.480154 
L 115.774365 227.948908 
L 119.210882 222.385833 
L 122.647399 216.78967 
L 126.083916 211.159254 
L 129.520433 205.493552 
L 132.95695 199.791705 
L 136.393467 194.053066 
L 139.829984 188.277261 
L 143.266501 182.464247 
L 146.703019 176.61438 
L 150.139536 170.728494 
L 153.576053 164.807985 
L 157.01257 158.854909 
L 160.449087 152.872088 
L 163.885604 146.863219 
L 167.322121 140.833002 
L 170.758638 134.787266 
L 174.195155 128.733104 
L 177.631672 122.679011 
L 181.068189 116.63502 
L 184.504706 110.612837 
L 187.941223 104.625962 
L 191.37774 98.689792 
L 194.814257 92.82171 
L 198.250774 87.041134 
L 201.687291 81.369529 
L 205.123808 75.830369 
L 208.560325 70.449046 
L 211.996842 65.252702 
L 215.433359 60.270002 
L 218.869876 55.530817 
L 222.306393 51.065833 
L 225.74291 46.906088 
L 229.179427 43.082427 
L 232.615944 39.624911 
L 236.052461 36.562178 
L 239.488978 33.920784 
L 242.925495 31.724552 
L 246.362012 29.993953 
L 249.798529 28.74555 
L 253.235046 27.991531 
L 256.671563 27.739354 
L 260.10808 27.991531 
L 263.544597 28.74555 
L 266.981115 29.993953 
L 270.417632 31.724552 
L 273.854149 33.920784 
L 277.290666 36.562178 
L 280.727183 39.624911 
L 284.1637 43.082427 
L 287.600217 46.906088 
L 291.036734 51.065833 
L 294.473251 55.530817 
L 297.909768 60.270002 
L 301.346285 65.252702 
L 304.782802 70.449046 
L 308.219319 75.830369 
L 311.655836 81.369529 
L 315.092353 87.041134 
L 318.52887 92.82171 
L 321.965387 98.689792 
L 325.401904 104.625962 
L 328.838421 110.612837 
L 332.274938 116.63502 
L 335.711455 122.679011 
L 339.147972 128.733104 
L 342.584489 134.787266 
L 346.021006 140.833002 
L 349.457523 146.863219 
L 352.89404 152.872088 
L 356.330557 158.854909 
L 359.767074 164.807985 
L 363.203591 170.728494 
L 366.640108 176.61438 
L 370.076625 182.464247 
L 373.513142 188.277261 
L 376.949659 194.053066 
L 380.386176 199.791705 
L 383.822693 205.493552 
L 387.259211 211.159254 
L 390.695728 216.78967 
L 394.132245 222.385833 
L 397.568762 227.948908 
L 401.005279 233.480154 
L 404.441796 238.980899 
L 407.878313 244.452512 
L 411.31483 249.896388 
L 414.751347 255.313922 
L 418.187864 260.706503 
L 421.624381 266.075499 
L 425.060898 271.422248 
L 428.497415 276.748049 
" style="fill:none;stroke:#539ecd;stroke-linecap:square;stroke-width:1.5;"/>
   </g>
   <g id="line2d_22">
    <path clip-path="url(#p06495beda0)" d="M 84.845712 256.187072 
L 88.282229 250.24024 
L 91.718746 244.274797 
L 95.155263 238.291878 
L 98.59178 232.292809 
L 102.028297 226.27913 
L 105.464814 220.252606 
L 108.901331 214.215246 
L 112.337848 208.169321 
L 115.774365 202.11738 
L 119.210882 196.062271 
L 122.647399 190.007153 
L 126.083916 183.955522 
L 129.520433 177.911219 
L 132.95695 171.878457 
L 136.393467 165.861827 
L 139.829984 159.86632 
L 143.266501 153.897338 
L 146.703019 147.960704 
L 150.139536 142.062676 
L 153.576053 136.209948 
L 157.01257 130.409657 
L 160.449087 124.669385 
L 163.885604 118.997154 
L 167.322121 113.401416 
L 170.758638 107.891046 
L 174.195155 102.475322 
L 177.631672 97.1639 
L 181.068189 91.966791 
L 184.504706 86.894323 
L 187.941223 81.957101 
L 191.37774 77.165961 
L 194.814257 72.531918 
L 198.250774 68.066105 
L 201.687291 63.779712 
L 205.123808 59.68391 
L 208.560325 55.789784 
L 211.996842 52.108249 
L 215.433359 48.649968 
L 218.869876 45.42527 
L 222.306393 42.444061 
L 225.74291 39.715744 
L 229.179427 37.249127 
L 232.615944 35.052347 
L 236.052461 33.132791 
L 239.488978 31.497019 
L 242.925495 30.150706 
L 246.362012 29.098576 
L 249.798529 28.344357 
L 253.235046 27.89074 
L 256.671563 27.739354 
L 260.10808 27.89074 
L 263.544597 28.344357 
L 266.981115 29.098576 
L 270.417632 30.150706 
L 273.854149 31.497019 
L 277.290666 33.132791 
L 280.727183 35.052347 
L 284.1637 37.249127 
L 287.600217 39.715744 
L 291.036734 42.444061 
L 294.473251 45.42527 
L 297.909768 48.649968 
L 301.346285 52.108249 
L 304.782802 55.789784 
L 308.219319 59.68391 
L 311.655836 63.779712 
L 315.092353 68.066105 
L 318.52887 72.531918 
L 321.965387 77.165961 
L 325.401904 81.957101 
L 328.838421 86.894323 
L 332.274938 91.966791 
L 335.711455 97.1639 
L 339.147972 102.475322 
L 342.584489 107.891046 
L 346.021006 113.401416 
L 349.457523 118.997154 
L 352.89404 124.669385 
L 356.330557 130.409657 
L 359.767074 136.209948 
L 363.203591 142.062676 
L 366.640108 147.960704 
L 370.076625 153.897338 
L 373.513142 159.86632 
L 376.949659 165.861827 
L 380.386176 171.878457 
L 383.822693 177.911219 
L 387.259211 183.955522 
L 390.695728 190.007153 
L 394.132245 196.062271 
L 397.568762 202.11738 
L 401.005279 208.169321 
L 404.441796 214.215246 
L 407.878313 220.252606 
L 411.31483 226.27913 
L 414.751347 232.292809 
L 418.187864 238.291878 
L 421.624381 244.274797 
L 425.060898 250.24024 
L 428.497415 256.187072 
" style="fill:none;stroke:#89bedc;stroke-linecap:square;stroke-width:1.5;"/>
   </g>
   <g id="patch_3">
    <path d="M 67.663127 292.745781 
L 67.663127 15.12 
" style="fill:none;stroke:#000000;stroke-linecap:square;stroke-linejoin:miter;stroke-width:0.8;"/>
   </g>
   <g id="patch_4">
    <path d="M 445.68 292.745781 
L 445.68 15.12 
" style="fill:none;stroke:#000000;stroke-linecap:square;stroke-linejoin:miter;stroke-width:0.8;"/>
   </g>
   <g id="patch_5">
    <path d="M 67.663127 292.745781 
L 445.68 292.745781 
" style="fill:none;stroke:#000000;stroke-linecap:square;stroke-linejoin:miter;stroke-width:0.8;"/>
   </g>
   <g id="patch_6">
    <path d="M 67.663127 15.12 
L 445.68 15.12 
" style="fill:none;stroke:#000000;stroke-linecap:square;stroke-linejoin:miter;stroke-width:0.8;"/>
   </g>
   <g id="legend_1">
    <g id="patch_7">
     <path d="M 350.283858 105.598242 
L 435.88 105.598242 
Q 438.68 105.598242 438.68 102.798242 
L 438.68 24.92 
Q 438.68 22.12 435.88 22.12 
L 350.283858 22.12 
Q 347.483858 22.12 347.483858 24.92 
L 347.483858 102.798242 
Q 347.483858 105.598242 350.283858 105.598242 
z
" style="fill:#ffffff;opacity:0.8;stroke:#cccccc;stroke-linejoin:miter;"/>
    </g>
    <g id="line2d_23">
     <path d="M 353.083858 32.62 
L 381.083858 32.62 
" style="fill:none;stroke:#0b559f;stroke-linecap:square;stroke-width:1.5;"/>
    </g>
    <g id="line2d_24"/>
    <g id="text_18">
     <!-- $\gamma=0.1$ -->
     <g transform="translate(392.283858 37.52)scale(0.14 -0.14)">
      <defs>
       <path d="M 3674 2138 
L 3674 2496 
L 397 2496 
L 397 2138 
L 3674 2138 
z
M 3674 832 
L 3674 1190 
L 397 1190 
L 397 832 
L 3674 832 
z
" id="rtxr-3d" transform="scale(0.015625)"/>
      </defs>
      <use transform="scale(0.996264)" xlink:href="#rtxmi-d"/>
      <use transform="translate(78.079319 0)scale(0.996264)" xlink:href="#rtxr-3d"/>
      <use transform="translate(163.580816 0)scale(0.996264)" xlink:href="#TeXGyreTermes-Regular-30"/>
      <use transform="translate(214.988015 0)scale(0.996264)" xlink:href="#rtxmi-3a"/>
      <use transform="translate(241.588276 0)scale(0.996264)" xlink:href="#TeXGyreTermes-Regular-31"/>
     </g>
    </g>
    <g id="line2d_25">
     <path d="M 353.083858 52.43956 
L 381.083858 52.43956 
" style="fill:none;stroke:#2b7bba;stroke-linecap:square;stroke-width:1.5;"/>
    </g>
    <g id="line2d_26"/>
    <g id="text_19">
     <!-- $\gamma=0.3$ -->
     <g transform="translate(392.283858 57.33956)scale(0.14 -0.14)">
      <defs>
       <path d="M 2765 1428 
C 2765 1754 2662 2055 2477 2253 
C 2349 2394 2227 2471 1946 2592 
C 2387 2893 2547 3130 2547 3476 
C 2547 3994 2138 4352 1549 4352 
C 1229 4352 947 4244 717 4039 
C 525 3866 429 3699 288 3315 
L 384 3290 
C 646 3757 934 3968 1338 3968 
C 1754 3968 2042 3687 2042 3284 
C 2042 3053 1946 2823 1786 2663 
C 1594 2471 1414 2375 979 2221 
L 979 2138 
C 1357 2138 1504 2125 1658 2068 
C 2054 1927 2304 1562 2304 1120 
C 2304 583 1939 167 1466 167 
C 1293 167 1165 212 928 365 
C 736 480 627 525 518 525 
C 371 525 275 436 275 301 
C 275 77 550 -64 998 -64 
C 1491 -64 1997 103 2298 365 
C 2598 628 2765 999 2765 1428 
z
" id="TeXGyreTermes-Regular-33" transform="scale(0.015625)"/>
      </defs>
      <use transform="scale(0.996264)" xlink:href="#rtxmi-d"/>
      <use transform="translate(78.079319 0)scale(0.996264)" xlink:href="#rtxr-3d"/>
      <use transform="translate(163.580816 0)scale(0.996264)" xlink:href="#TeXGyreTermes-Regular-30"/>
      <use transform="translate(214.988015 0)scale(0.996264)" xlink:href="#rtxmi-3a"/>
      <use transform="translate(241.588276 0)scale(0.996264)" xlink:href="#TeXGyreTermes-Regular-33"/>
     </g>
    </g>
    <g id="line2d_27">
     <path d="M 353.083858 72.259121 
L 381.083858 72.259121 
" style="fill:none;stroke:#539ecd;stroke-linecap:square;stroke-width:1.5;"/>
    </g>
    <g id="line2d_28"/>
    <g id="text_20">
     <!-- $\gamma=0.6$ -->
     <g transform="translate(392.283858 77.159121)scale(0.14 -0.14)">
      <use transform="scale(0.996264)" xlink:href="#rtxmi-d"/>
      <use transform="translate(78.079319 0)scale(0.996264)" xlink:href="#rtxr-3d"/>
      <use transform="translate(163.580816 0)scale(0.996264)" xlink:href="#TeXGyreTermes-Regular-30"/>
      <use transform="translate(214.988015 0)scale(0.996264)" xlink:href="#rtxmi-3a"/>
      <use transform="translate(241.588276 0)scale(0.996264)" xlink:href="#TeXGyreTermes-Regular-36"/>
     </g>
    </g>
    <g id="line2d_29">
     <path d="M 353.083858 92.078681 
L 381.083858 92.078681 
" style="fill:none;stroke:#89bedc;stroke-linecap:square;stroke-width:1.5;"/>
    </g>
    <g id="line2d_30"/>
    <g id="text_21">
     <!-- $\gamma=1.0$ -->
     <g transform="translate(392.283858 96.978681)scale(0.14 -0.14)">
      <use transform="scale(0.996264)" xlink:href="#rtxmi-d"/>
      <use transform="translate(78.079319 0)scale(0.996264)" xlink:href="#rtxr-3d"/>
      <use transform="translate(163.580816 0)scale(0.996264)" xlink:href="#TeXGyreTermes-Regular-31"/>
      <use transform="translate(214.988015 0)scale(0.996264)" xlink:href="#rtxmi-3a"/>
      <use transform="translate(241.588276 0)scale(0.996264)" xlink:href="#TeXGyreTermes-Regular-30"/>
     </g>
    </g>
   </g>
  </g>
 </g>
 <defs>
  <clipPath id="p06495beda0">
   <rect height="277.625781" width="378.016873" x="67.663127" y="15.12"/>
  </clipPath>
 </defs>
</svg>
