<?xml version="1.0" encoding="utf-8" standalone="no"?>
<!DOCTYPE svg PUBLIC "-//W3C//DTD SVG 1.1//EN"
  "http://www.w3.org/Graphics/SVG/1.1/DTD/svg11.dtd">
<svg height="345.6pt" version="1.1" viewBox="0 0 460.8 345.6" width="460.8pt" xmlns="http://www.w3.org/2000/svg" xmlns:xlink="http://www.w3.org/1999/xlink">
 <metadata>
  <rdf:RDF xmlns:cc="http://creativecommons.org/ns#" xmlns:dc="http://purl.org/dc/elements/1.1/" xmlns:rdf="http://www.w3.org/1999/02/22-rdf-syntax-ns#">
   <cc:Work>
    <dc:type rdf:resource="http://purl.org/dc/dcmitype/StillImage"/>
    <dc:date>2021-05-11T09:34:25.851891</dc:date>
    <dc:format>image/svg+xml</dc:format>
    <dc:creator>
     <cc:Agent>
      <dc:title>Matplotlib v3.4.1, https://matplotlib.org/</dc:title>
     </cc:Agent>
    </dc:creator>
   </cc:Work>
  </rdf:RDF>
 </metadata>
 <defs>
  <style type="text/css">*{stroke-linecap:butt;stroke-linejoin:round;}</style>
 </defs>
 <g id="figure_1">
  <g id="patch_1">
   <path d="M 0 345.6 
L 460.8 345.6 
L 460.8 0 
L 0 0 
z
" style="fill:#f9fafb;"/>
  </g>
  <g id="axes_1">
   <g id="patch_2">
    <path d="M 63.38 299.32 
L 445.68 299.32 
L 445.68 15.12 
L 63.38 15.12 
z
" style="fill:#f9fafb;"/>
   </g>
   <g id="matplotlib.axis_1">
    <g id="xtick_1">
     <g id="line2d_1">
      <defs>
       <path d="M 0 0 
L 0 3.5 
" id="mdbed9b5685" style="stroke:#000000;stroke-width:0.8;"/>
      </defs>
      <g>
       <use style="stroke:#000000;stroke-width:0.8;" x="80.757273" xlink:href="#mdbed9b5685" y="299.32"/>
      </g>
     </g>
     <g id="text_1">
      <!-- −1.5 -->
      <g transform="translate(68.615866 313.918437)scale(0.1 -0.1)">
       <defs>
        <path d="M 678 2272 
L 4684 2272 
L 4684 1741 
L 678 1741 
L 678 2272 
z
" id="DejaVuSans-2212" transform="scale(0.015625)"/>
        <path d="M 794 531 
L 1825 531 
L 1825 4091 
L 703 3866 
L 703 4441 
L 1819 4666 
L 2450 4666 
L 2450 531 
L 3481 531 
L 3481 0 
L 794 0 
L 794 531 
z
" id="DejaVuSans-31" transform="scale(0.015625)"/>
        <path d="M 684 794 
L 1344 794 
L 1344 0 
L 684 0 
L 684 794 
z
" id="DejaVuSans-2e" transform="scale(0.015625)"/>
        <path d="M 691 4666 
L 3169 4666 
L 3169 4134 
L 1269 4134 
L 1269 2991 
Q 1406 3038 1543 3061 
Q 1681 3084 1819 3084 
Q 2600 3084 3056 2656 
Q 3513 2228 3513 1497 
Q 3513 744 3044 326 
Q 2575 -91 1722 -91 
Q 1428 -91 1123 -41 
Q 819 9 494 109 
L 494 744 
Q 775 591 1075 516 
Q 1375 441 1709 441 
Q 2250 441 2565 725 
Q 2881 1009 2881 1497 
Q 2881 1984 2565 2268 
Q 2250 2553 1709 2553 
Q 1456 2553 1204 2497 
Q 953 2441 691 2322 
L 691 4666 
z
" id="DejaVuSans-35" transform="scale(0.015625)"/>
       </defs>
       <use xlink:href="#DejaVuSans-2212"/>
       <use x="83.789062" xlink:href="#DejaVuSans-31"/>
       <use x="147.412109" xlink:href="#DejaVuSans-2e"/>
       <use x="179.199219" xlink:href="#DejaVuSans-35"/>
      </g>
     </g>
    </g>
    <g id="xtick_2">
     <g id="line2d_2">
      <g>
       <use style="stroke:#000000;stroke-width:0.8;" x="138.681515" xlink:href="#mdbed9b5685" y="299.32"/>
      </g>
     </g>
     <g id="text_2">
      <!-- −1.0 -->
      <g transform="translate(126.540109 313.918437)scale(0.1 -0.1)">
       <defs>
        <path d="M 2034 4250 
Q 1547 4250 1301 3770 
Q 1056 3291 1056 2328 
Q 1056 1369 1301 889 
Q 1547 409 2034 409 
Q 2525 409 2770 889 
Q 3016 1369 3016 2328 
Q 3016 3291 2770 3770 
Q 2525 4250 2034 4250 
z
M 2034 4750 
Q 2819 4750 3233 4129 
Q 3647 3509 3647 2328 
Q 3647 1150 3233 529 
Q 2819 -91 2034 -91 
Q 1250 -91 836 529 
Q 422 1150 422 2328 
Q 422 3509 836 4129 
Q 1250 4750 2034 4750 
z
" id="DejaVuSans-30" transform="scale(0.015625)"/>
       </defs>
       <use xlink:href="#DejaVuSans-2212"/>
       <use x="83.789062" xlink:href="#DejaVuSans-31"/>
       <use x="147.412109" xlink:href="#DejaVuSans-2e"/>
       <use x="179.199219" xlink:href="#DejaVuSans-30"/>
      </g>
     </g>
    </g>
    <g id="xtick_3">
     <g id="line2d_3">
      <g>
       <use style="stroke:#000000;stroke-width:0.8;" x="196.605758" xlink:href="#mdbed9b5685" y="299.32"/>
      </g>
     </g>
     <g id="text_3">
      <!-- −0.5 -->
      <g transform="translate(184.464351 313.918437)scale(0.1 -0.1)">
       <use xlink:href="#DejaVuSans-2212"/>
       <use x="83.789062" xlink:href="#DejaVuSans-30"/>
       <use x="147.412109" xlink:href="#DejaVuSans-2e"/>
       <use x="179.199219" xlink:href="#DejaVuSans-35"/>
      </g>
     </g>
    </g>
    <g id="xtick_4">
     <g id="line2d_4">
      <g>
       <use style="stroke:#000000;stroke-width:0.8;" x="254.53" xlink:href="#mdbed9b5685" y="299.32"/>
      </g>
     </g>
     <g id="text_4">
      <!-- 0.0 -->
      <g transform="translate(246.578438 313.918437)scale(0.1 -0.1)">
       <use xlink:href="#DejaVuSans-30"/>
       <use x="63.623047" xlink:href="#DejaVuSans-2e"/>
       <use x="95.410156" xlink:href="#DejaVuSans-30"/>
      </g>
     </g>
    </g>
    <g id="xtick_5">
     <g id="line2d_5">
      <g>
       <use style="stroke:#000000;stroke-width:0.8;" x="312.454242" xlink:href="#mdbed9b5685" y="299.32"/>
      </g>
     </g>
     <g id="text_5">
      <!-- 0.5 -->
      <g transform="translate(304.50268 313.918437)scale(0.1 -0.1)">
       <use xlink:href="#DejaVuSans-30"/>
       <use x="63.623047" xlink:href="#DejaVuSans-2e"/>
       <use x="95.410156" xlink:href="#DejaVuSans-35"/>
      </g>
     </g>
    </g>
    <g id="xtick_6">
     <g id="line2d_6">
      <g>
       <use style="stroke:#000000;stroke-width:0.8;" x="370.378485" xlink:href="#mdbed9b5685" y="299.32"/>
      </g>
     </g>
     <g id="text_6">
      <!-- 1.0 -->
      <g transform="translate(362.426922 313.918437)scale(0.1 -0.1)">
       <use xlink:href="#DejaVuSans-31"/>
       <use x="63.623047" xlink:href="#DejaVuSans-2e"/>
       <use x="95.410156" xlink:href="#DejaVuSans-30"/>
      </g>
     </g>
    </g>
    <g id="xtick_7">
     <g id="line2d_7">
      <g>
       <use style="stroke:#000000;stroke-width:0.8;" x="428.302727" xlink:href="#mdbed9b5685" y="299.32"/>
      </g>
     </g>
     <g id="text_7">
      <!-- 1.5 -->
      <g transform="translate(420.351165 313.918437)scale(0.1 -0.1)">
       <use xlink:href="#DejaVuSans-31"/>
       <use x="63.623047" xlink:href="#DejaVuSans-2e"/>
       <use x="95.410156" xlink:href="#DejaVuSans-35"/>
      </g>
     </g>
    </g>
    <g id="text_8">
     <!-- $a$ -->
     <g transform="translate(251.43 327.596563)scale(0.1 -0.1)">
      <defs>
       <path d="M 3438 1997 
L 3047 0 
L 2472 0 
L 2578 531 
Q 2325 219 2001 64 
Q 1678 -91 1281 -91 
Q 834 -91 548 182 
Q 263 456 263 884 
Q 263 1497 752 1853 
Q 1241 2209 2100 2209 
L 2900 2209 
L 2931 2363 
Q 2938 2388 2941 2417 
Q 2944 2447 2944 2509 
Q 2944 2788 2717 2942 
Q 2491 3097 2081 3097 
Q 1800 3097 1504 3025 
Q 1209 2953 897 2809 
L 997 3341 
Q 1322 3463 1633 3523 
Q 1944 3584 2234 3584 
Q 2853 3584 3176 3315 
Q 3500 3047 3500 2534 
Q 3500 2431 3484 2292 
Q 3469 2153 3438 1997 
z
M 2816 1759 
L 2241 1759 
Q 1534 1759 1195 1570 
Q 856 1381 856 984 
Q 856 709 1029 553 
Q 1203 397 1509 397 
Q 1978 397 2328 733 
Q 2678 1069 2791 1631 
L 2816 1759 
z
" id="DejaVuSans-Oblique-61" transform="scale(0.015625)"/>
      </defs>
      <use xlink:href="#DejaVuSans-Oblique-61"/>
     </g>
    </g>
   </g>
   <g id="matplotlib.axis_2">
    <g id="ytick_1">
     <g id="line2d_8">
      <defs>
       <path d="M 0 0 
L -3.5 0 
" id="m1e1460106b" style="stroke:#000000;stroke-width:0.8;"/>
      </defs>
      <g>
       <use style="stroke:#000000;stroke-width:0.8;" x="63.38" xlink:href="#m1e1460106b" y="294.979416"/>
      </g>
     </g>
     <g id="text_9">
      <!-- −1.6 -->
      <g transform="translate(32.097188 298.778634)scale(0.1 -0.1)">
       <defs>
        <path d="M 2113 2584 
Q 1688 2584 1439 2293 
Q 1191 2003 1191 1497 
Q 1191 994 1439 701 
Q 1688 409 2113 409 
Q 2538 409 2786 701 
Q 3034 994 3034 1497 
Q 3034 2003 2786 2293 
Q 2538 2584 2113 2584 
z
M 3366 4563 
L 3366 3988 
Q 3128 4100 2886 4159 
Q 2644 4219 2406 4219 
Q 1781 4219 1451 3797 
Q 1122 3375 1075 2522 
Q 1259 2794 1537 2939 
Q 1816 3084 2150 3084 
Q 2853 3084 3261 2657 
Q 3669 2231 3669 1497 
Q 3669 778 3244 343 
Q 2819 -91 2113 -91 
Q 1303 -91 875 529 
Q 447 1150 447 2328 
Q 447 3434 972 4092 
Q 1497 4750 2381 4750 
Q 2619 4750 2861 4703 
Q 3103 4656 3366 4563 
z
" id="DejaVuSans-36" transform="scale(0.015625)"/>
       </defs>
       <use xlink:href="#DejaVuSans-2212"/>
       <use x="83.789062" xlink:href="#DejaVuSans-31"/>
       <use x="147.412109" xlink:href="#DejaVuSans-2e"/>
       <use x="179.199219" xlink:href="#DejaVuSans-36"/>
      </g>
     </g>
    </g>
    <g id="ytick_2">
     <g id="line2d_9">
      <g>
       <use style="stroke:#000000;stroke-width:0.8;" x="63.38" xlink:href="#m1e1460106b" y="261.611761"/>
      </g>
     </g>
     <g id="text_10">
      <!-- −1.4 -->
      <g transform="translate(32.097188 265.41098)scale(0.1 -0.1)">
       <defs>
        <path d="M 2419 4116 
L 825 1625 
L 2419 1625 
L 2419 4116 
z
M 2253 4666 
L 3047 4666 
L 3047 1625 
L 3713 1625 
L 3713 1100 
L 3047 1100 
L 3047 0 
L 2419 0 
L 2419 1100 
L 313 1100 
L 313 1709 
L 2253 4666 
z
" id="DejaVuSans-34" transform="scale(0.015625)"/>
       </defs>
       <use xlink:href="#DejaVuSans-2212"/>
       <use x="83.789062" xlink:href="#DejaVuSans-31"/>
       <use x="147.412109" xlink:href="#DejaVuSans-2e"/>
       <use x="179.199219" xlink:href="#DejaVuSans-34"/>
      </g>
     </g>
    </g>
    <g id="ytick_3">
     <g id="line2d_10">
      <g>
       <use style="stroke:#000000;stroke-width:0.8;" x="63.38" xlink:href="#m1e1460106b" y="228.244107"/>
      </g>
     </g>
     <g id="text_11">
      <!-- −1.2 -->
      <g transform="translate(32.097188 232.043326)scale(0.1 -0.1)">
       <defs>
        <path d="M 1228 531 
L 3431 531 
L 3431 0 
L 469 0 
L 469 531 
Q 828 903 1448 1529 
Q 2069 2156 2228 2338 
Q 2531 2678 2651 2914 
Q 2772 3150 2772 3378 
Q 2772 3750 2511 3984 
Q 2250 4219 1831 4219 
Q 1534 4219 1204 4116 
Q 875 4013 500 3803 
L 500 4441 
Q 881 4594 1212 4672 
Q 1544 4750 1819 4750 
Q 2544 4750 2975 4387 
Q 3406 4025 3406 3419 
Q 3406 3131 3298 2873 
Q 3191 2616 2906 2266 
Q 2828 2175 2409 1742 
Q 1991 1309 1228 531 
z
" id="DejaVuSans-32" transform="scale(0.015625)"/>
       </defs>
       <use xlink:href="#DejaVuSans-2212"/>
       <use x="83.789062" xlink:href="#DejaVuSans-31"/>
       <use x="147.412109" xlink:href="#DejaVuSans-2e"/>
       <use x="179.199219" xlink:href="#DejaVuSans-32"/>
      </g>
     </g>
    </g>
    <g id="ytick_4">
     <g id="line2d_11">
      <g>
       <use style="stroke:#000000;stroke-width:0.8;" x="63.38" xlink:href="#m1e1460106b" y="194.876453"/>
      </g>
     </g>
     <g id="text_12">
      <!-- −1.0 -->
      <g transform="translate(32.097188 198.675672)scale(0.1 -0.1)">
       <use xlink:href="#DejaVuSans-2212"/>
       <use x="83.789062" xlink:href="#DejaVuSans-31"/>
       <use x="147.412109" xlink:href="#DejaVuSans-2e"/>
       <use x="179.199219" xlink:href="#DejaVuSans-30"/>
      </g>
     </g>
    </g>
    <g id="ytick_5">
     <g id="line2d_12">
      <g>
       <use style="stroke:#000000;stroke-width:0.8;" x="63.38" xlink:href="#m1e1460106b" y="161.508799"/>
      </g>
     </g>
     <g id="text_13">
      <!-- −0.8 -->
      <g transform="translate(32.097188 165.308017)scale(0.1 -0.1)">
       <defs>
        <path d="M 2034 2216 
Q 1584 2216 1326 1975 
Q 1069 1734 1069 1313 
Q 1069 891 1326 650 
Q 1584 409 2034 409 
Q 2484 409 2743 651 
Q 3003 894 3003 1313 
Q 3003 1734 2745 1975 
Q 2488 2216 2034 2216 
z
M 1403 2484 
Q 997 2584 770 2862 
Q 544 3141 544 3541 
Q 544 4100 942 4425 
Q 1341 4750 2034 4750 
Q 2731 4750 3128 4425 
Q 3525 4100 3525 3541 
Q 3525 3141 3298 2862 
Q 3072 2584 2669 2484 
Q 3125 2378 3379 2068 
Q 3634 1759 3634 1313 
Q 3634 634 3220 271 
Q 2806 -91 2034 -91 
Q 1263 -91 848 271 
Q 434 634 434 1313 
Q 434 1759 690 2068 
Q 947 2378 1403 2484 
z
M 1172 3481 
Q 1172 3119 1398 2916 
Q 1625 2713 2034 2713 
Q 2441 2713 2670 2916 
Q 2900 3119 2900 3481 
Q 2900 3844 2670 4047 
Q 2441 4250 2034 4250 
Q 1625 4250 1398 4047 
Q 1172 3844 1172 3481 
z
" id="DejaVuSans-38" transform="scale(0.015625)"/>
       </defs>
       <use xlink:href="#DejaVuSans-2212"/>
       <use x="83.789062" xlink:href="#DejaVuSans-30"/>
       <use x="147.412109" xlink:href="#DejaVuSans-2e"/>
       <use x="179.199219" xlink:href="#DejaVuSans-38"/>
      </g>
     </g>
    </g>
    <g id="ytick_6">
     <g id="line2d_13">
      <g>
       <use style="stroke:#000000;stroke-width:0.8;" x="63.38" xlink:href="#m1e1460106b" y="128.141144"/>
      </g>
     </g>
     <g id="text_14">
      <!-- −0.6 -->
      <g transform="translate(32.097188 131.940363)scale(0.1 -0.1)">
       <use xlink:href="#DejaVuSans-2212"/>
       <use x="83.789062" xlink:href="#DejaVuSans-30"/>
       <use x="147.412109" xlink:href="#DejaVuSans-2e"/>
       <use x="179.199219" xlink:href="#DejaVuSans-36"/>
      </g>
     </g>
    </g>
    <g id="ytick_7">
     <g id="line2d_14">
      <g>
       <use style="stroke:#000000;stroke-width:0.8;" x="63.38" xlink:href="#m1e1460106b" y="94.77349"/>
      </g>
     </g>
     <g id="text_15">
      <!-- −0.4 -->
      <g transform="translate(32.097188 98.572709)scale(0.1 -0.1)">
       <use xlink:href="#DejaVuSans-2212"/>
       <use x="83.789062" xlink:href="#DejaVuSans-30"/>
       <use x="147.412109" xlink:href="#DejaVuSans-2e"/>
       <use x="179.199219" xlink:href="#DejaVuSans-34"/>
      </g>
     </g>
    </g>
    <g id="ytick_8">
     <g id="line2d_15">
      <g>
       <use style="stroke:#000000;stroke-width:0.8;" x="63.38" xlink:href="#m1e1460106b" y="61.405836"/>
      </g>
     </g>
     <g id="text_16">
      <!-- −0.2 -->
      <g transform="translate(32.097188 65.205055)scale(0.1 -0.1)">
       <use xlink:href="#DejaVuSans-2212"/>
       <use x="83.789062" xlink:href="#DejaVuSans-30"/>
       <use x="147.412109" xlink:href="#DejaVuSans-2e"/>
       <use x="179.199219" xlink:href="#DejaVuSans-32"/>
      </g>
     </g>
    </g>
    <g id="ytick_9">
     <g id="line2d_16">
      <g>
       <use style="stroke:#000000;stroke-width:0.8;" x="63.38" xlink:href="#m1e1460106b" y="28.038182"/>
      </g>
     </g>
     <g id="text_17">
      <!-- 0.0 -->
      <g transform="translate(40.476875 31.837401)scale(0.1 -0.1)">
       <use xlink:href="#DejaVuSans-30"/>
       <use x="63.623047" xlink:href="#DejaVuSans-2e"/>
       <use x="95.410156" xlink:href="#DejaVuSans-30"/>
      </g>
     </g>
    </g>
    <g id="text_18">
     <!-- $min^\gamma(-a, a)$ -->
     <g transform="translate(26.0175 185.92)rotate(-90)scale(0.1 -0.1)">
      <defs>
       <path d="M 5747 2113 
L 5338 0 
L 4763 0 
L 5166 2094 
Q 5191 2228 5203 2325 
Q 5216 2422 5216 2491 
Q 5216 2772 5059 2928 
Q 4903 3084 4622 3084 
Q 4203 3084 3875 2770 
Q 3547 2456 3450 1953 
L 3066 0 
L 2491 0 
L 2900 2094 
Q 2925 2209 2937 2307 
Q 2950 2406 2950 2484 
Q 2950 2769 2794 2926 
Q 2638 3084 2363 3084 
Q 1938 3084 1609 2770 
Q 1281 2456 1184 1953 
L 800 0 
L 225 0 
L 909 3500 
L 1484 3500 
L 1375 2956 
Q 1609 3263 1923 3423 
Q 2238 3584 2597 3584 
Q 2978 3584 3223 3384 
Q 3469 3184 3519 2828 
Q 3781 3197 4126 3390 
Q 4472 3584 4856 3584 
Q 5306 3584 5551 3325 
Q 5797 3066 5797 2591 
Q 5797 2488 5784 2364 
Q 5772 2241 5747 2113 
z
" id="DejaVuSans-Oblique-6d" transform="scale(0.015625)"/>
       <path d="M 1172 4863 
L 1747 4863 
L 1606 4134 
L 1031 4134 
L 1172 4863 
z
M 909 3500 
L 1484 3500 
L 800 0 
L 225 0 
L 909 3500 
z
" id="DejaVuSans-Oblique-69" transform="scale(0.015625)"/>
       <path d="M 3566 2113 
L 3156 0 
L 2578 0 
L 2988 2091 
Q 3016 2238 3031 2350 
Q 3047 2463 3047 2528 
Q 3047 2791 2881 2937 
Q 2716 3084 2419 3084 
Q 1956 3084 1622 2776 
Q 1288 2469 1184 1941 
L 800 0 
L 225 0 
L 903 3500 
L 1478 3500 
L 1363 2950 
Q 1603 3253 1940 3418 
Q 2278 3584 2650 3584 
Q 3113 3584 3367 3334 
Q 3622 3084 3622 2631 
Q 3622 2519 3608 2391 
Q 3594 2263 3566 2113 
z
" id="DejaVuSans-Oblique-6e" transform="scale(0.015625)"/>
       <path d="M 1491 2950 
L 1838 788 
L 3456 3500 
L 4066 3500 
L 1972 0 
L 1713 -1331 
L 1138 -1331 
L 1397 0 
L 988 2613 
Q 925 3006 628 3006 
L 475 3006 
L 569 3500 
L 788 3500 
Q 1403 3500 1491 2950 
z
" id="DejaVuSans-Oblique-3b3" transform="scale(0.015625)"/>
       <path d="M 1984 4856 
Q 1566 4138 1362 3434 
Q 1159 2731 1159 2009 
Q 1159 1288 1364 580 
Q 1569 -128 1984 -844 
L 1484 -844 
Q 1016 -109 783 600 
Q 550 1309 550 2009 
Q 550 2706 781 3412 
Q 1013 4119 1484 4856 
L 1984 4856 
z
" id="DejaVuSans-28" transform="scale(0.015625)"/>
       <path d="M 750 794 
L 1409 794 
L 1409 256 
L 897 -744 
L 494 -744 
L 750 256 
L 750 794 
z
" id="DejaVuSans-2c" transform="scale(0.015625)"/>
       <path d="M 513 4856 
L 1013 4856 
Q 1481 4119 1714 3412 
Q 1947 2706 1947 2009 
Q 1947 1309 1714 600 
Q 1481 -109 1013 -844 
L 513 -844 
Q 928 -128 1133 580 
Q 1338 1288 1338 2009 
Q 1338 2731 1133 3434 
Q 928 4138 513 4856 
z
" id="DejaVuSans-29" transform="scale(0.015625)"/>
      </defs>
      <use transform="translate(0 0.4375)" xlink:href="#DejaVuSans-Oblique-6d"/>
      <use transform="translate(97.412109 0.4375)" xlink:href="#DejaVuSans-Oblique-69"/>
      <use transform="translate(125.195312 0.4375)" xlink:href="#DejaVuSans-Oblique-6e"/>
      <use transform="translate(193.224115 38.71875)scale(0.7)" xlink:href="#DejaVuSans-Oblique-3b3"/>
      <use transform="translate(237.384271 0.4375)" xlink:href="#DejaVuSans-28"/>
      <use transform="translate(276.397943 0.4375)" xlink:href="#DejaVuSans-2212"/>
      <use transform="translate(360.187005 0.4375)" xlink:href="#DejaVuSans-Oblique-61"/>
      <use transform="translate(421.466302 0.4375)" xlink:href="#DejaVuSans-2c"/>
      <use transform="translate(472.735833 0.4375)" xlink:href="#DejaVuSans-Oblique-61"/>
      <use transform="translate(534.01513 0.4375)" xlink:href="#DejaVuSans-29"/>
     </g>
    </g>
   </g>
   <g id="line2d_17">
    <path clip-path="url(#pf0f47cec47)" d="M 254.53 299.32 
L 254.53 15.12 
" style="fill:none;stroke:#000000;stroke-dasharray:5.55,2.4;stroke-dashoffset:0;stroke-opacity:0.5;stroke-width:1.5;"/>
   </g>
   <g id="line2d_18">
    <path clip-path="url(#pf0f47cec47)" d="M 63.38 28.038182 
L 445.68 28.038182 
" style="fill:none;stroke:#000000;stroke-dasharray:5.55,2.4;stroke-dashoffset:0;stroke-opacity:0.5;stroke-width:1.5;"/>
   </g>
   <g id="line2d_19">
    <path clip-path="url(#pf0f47cec47)" d="M 80.757273 278.295588 
L 84.267833 273.239883 
L 87.778393 268.184178 
L 91.288953 263.128473 
L 94.799513 258.072768 
L 98.310073 253.017063 
L 101.820634 247.961357 
L 105.331194 242.905652 
L 108.841754 237.849947 
L 112.352314 232.794242 
L 115.862874 227.738537 
L 119.373434 222.682831 
L 122.883994 217.627126 
L 126.394555 212.571421 
L 129.905115 207.515716 
L 133.415675 202.460011 
L 136.926235 197.404305 
L 140.436795 192.3486 
L 143.947355 187.292895 
L 147.457916 182.23719 
L 150.968476 177.181485 
L 154.479036 172.12578 
L 157.989596 167.070074 
L 161.500156 162.014369 
L 165.010716 156.958664 
L 168.521276 151.902959 
L 172.031837 146.847254 
L 175.542397 141.791548 
L 179.052957 136.735843 
L 182.563517 131.680138 
L 186.074077 126.624433 
L 189.584637 121.568728 
L 193.095197 116.513023 
L 196.605758 111.457317 
L 200.116318 106.401612 
L 203.626878 101.345907 
L 207.137438 96.290202 
L 210.647998 91.234497 
L 214.158558 86.178791 
L 217.669118 81.123086 
L 221.179679 76.067381 
L 224.690239 71.011676 
L 228.200799 65.955971 
L 231.711359 60.900266 
L 235.221919 55.84456 
L 238.732479 50.788855 
L 242.243039 45.73315 
L 245.7536 40.677445 
L 249.26416 35.621928 
L 252.77472 30.644733 
L 256.28528 30.644733 
L 259.79584 35.621928 
L 263.3064 40.677445 
L 266.816961 45.73315 
L 270.327521 50.788855 
L 273.838081 55.84456 
L 277.348641 60.900266 
L 280.859201 65.955971 
L 284.369761 71.011676 
L 287.880321 76.067381 
L 291.390882 81.123086 
L 294.901442 86.178791 
L 298.412002 91.234497 
L 301.922562 96.290202 
L 305.433122 101.345907 
L 308.943682 106.401612 
L 312.454242 111.457317 
L 315.964803 116.513023 
L 319.475363 121.568728 
L 322.985923 126.624433 
L 326.496483 131.680138 
L 330.007043 136.735843 
L 333.517603 141.791548 
L 337.028163 146.847254 
L 340.538724 151.902959 
L 344.049284 156.958664 
L 347.559844 162.014369 
L 351.070404 167.070074 
L 354.580964 172.12578 
L 358.091524 177.181485 
L 361.602084 182.23719 
L 365.112645 187.292895 
L 368.623205 192.3486 
L 372.133765 197.404305 
L 375.644325 202.460011 
L 379.154885 207.515716 
L 382.665445 212.571421 
L 386.176006 217.627126 
L 389.686566 222.682831 
L 393.197126 227.738537 
L 396.707686 232.794242 
L 400.218246 237.849947 
L 403.728806 242.905652 
L 407.239366 247.961357 
L 410.749927 253.017063 
L 414.260487 258.072768 
L 417.771047 263.128473 
L 421.281607 268.184178 
L 424.792167 273.239883 
L 428.302727 278.295588 
" style="fill:none;stroke:#89bedc;stroke-linecap:square;stroke-width:1.5;"/>
   </g>
   <g id="line2d_20">
    <path clip-path="url(#pf0f47cec47)" d="M 80.757273 278.295588 
L 84.267833 273.239883 
L 87.778393 268.184178 
L 91.288953 263.128473 
L 94.799513 258.072768 
L 98.310073 253.017063 
L 101.820634 247.961357 
L 105.331194 242.905652 
L 108.841754 237.849947 
L 112.352314 232.794242 
L 115.862874 227.738537 
L 119.373434 222.682831 
L 122.883994 217.627126 
L 126.394555 212.571421 
L 129.905115 207.515716 
L 133.415675 202.460011 
L 136.926235 197.404306 
L 140.436795 192.3486 
L 143.947355 187.292895 
L 147.457916 182.23719 
L 150.968476 177.181485 
L 154.479036 172.12578 
L 157.989596 167.070075 
L 161.500156 162.014371 
L 165.010716 156.958667 
L 168.521276 151.902965 
L 172.031837 146.847265 
L 175.542397 141.791568 
L 179.052957 136.73588 
L 182.563517 131.680205 
L 186.074077 126.624556 
L 189.584637 121.568953 
L 193.095197 116.513436 
L 196.605758 111.458075 
L 200.116318 106.403001 
L 203.626878 101.348452 
L 207.137438 96.294868 
L 210.647998 91.243049 
L 214.158558 86.194466 
L 217.669118 81.151809 
L 221.179679 76.119998 
L 224.690239 71.108007 
L 228.200799 66.132142 
L 231.711359 61.221814 
L 235.221919 56.429369 
L 238.732479 51.84574 
L 242.243039 47.622211 
L 245.7536 43.991959 
L 249.26416 41.269793 
L 252.77472 39.793305 
L 256.28528 39.793305 
L 259.79584 41.269793 
L 263.3064 43.991959 
L 266.816961 47.622211 
L 270.327521 51.84574 
L 273.838081 56.429369 
L 277.348641 61.221814 
L 280.859201 66.132142 
L 284.369761 71.108007 
L 287.880321 76.119998 
L 291.390882 81.151809 
L 294.901442 86.194466 
L 298.412002 91.243049 
L 301.922562 96.294868 
L 305.433122 101.348452 
L 308.943682 106.403001 
L 312.454242 111.458075 
L 315.964803 116.513436 
L 319.475363 121.568953 
L 322.985923 126.624556 
L 326.496483 131.680205 
L 330.007043 136.73588 
L 333.517603 141.791568 
L 337.028163 146.847265 
L 340.538724 151.902965 
L 344.049284 156.958667 
L 347.559844 162.014371 
L 351.070404 167.070075 
L 354.580964 172.12578 
L 358.091524 177.181485 
L 361.602084 182.23719 
L 365.112645 187.292895 
L 368.623205 192.3486 
L 372.133765 197.404306 
L 375.644325 202.460011 
L 379.154885 207.515716 
L 382.665445 212.571421 
L 386.176006 217.627126 
L 389.686566 222.682831 
L 393.197126 227.738537 
L 396.707686 232.794242 
L 400.218246 237.849947 
L 403.728806 242.905652 
L 407.239366 247.961357 
L 410.749927 253.017063 
L 414.260487 258.072768 
L 417.771047 263.128473 
L 421.281607 268.184178 
L 424.792167 273.239883 
L 428.302727 278.295588 
" style="fill:none;stroke:#539ecd;stroke-linecap:square;stroke-width:1.5;"/>
   </g>
   <g id="line2d_21">
    <path clip-path="url(#pf0f47cec47)" d="M 80.757273 278.297861 
L 84.267833 273.242664 
L 87.778393 268.187582 
L 91.288953 263.132638 
L 94.799513 258.077866 
L 98.310073 253.023302 
L 101.820634 247.968993 
L 105.331194 242.914997 
L 108.841754 237.861384 
L 112.352314 232.808239 
L 115.862874 227.755667 
L 119.373434 222.703796 
L 122.883994 217.652783 
L 126.394555 212.602819 
L 129.905115 207.554141 
L 133.415675 202.507034 
L 136.926235 197.46185 
L 140.436795 192.419018 
L 143.947355 187.379064 
L 147.457916 182.342629 
L 150.968476 177.310499 
L 154.479036 172.283631 
L 157.989596 167.263196 
L 161.500156 162.250624 
L 165.010716 157.247657 
L 168.521276 152.256422 
L 172.031837 147.279507 
L 175.542397 142.320062 
L 179.052957 137.381916 
L 182.563517 132.469713 
L 186.074077 127.589079 
L 189.584637 122.746808 
L 193.095197 117.951087 
L 196.605758 113.211743 
L 200.116318 108.540521 
L 203.626878 103.95139 
L 207.137438 99.460857 
L 210.647998 95.088276 
L 214.158558 90.856136 
L 217.669118 86.79027 
L 221.179679 82.919953 
L 224.690239 79.277817 
L 228.200799 75.899514 
L 231.711359 72.823062 
L 235.221919 70.08781 
L 238.732479 67.733015 
L 242.243039 65.796058 
L 245.7536 64.310413 
L 249.26416 63.303552 
L 252.77472 62.795033 
L 256.28528 62.795033 
L 259.79584 63.303552 
L 263.3064 64.310413 
L 266.816961 65.796058 
L 270.327521 67.733015 
L 273.838081 70.08781 
L 277.348641 72.823062 
L 280.859201 75.899514 
L 284.369761 79.277817 
L 287.880321 82.919953 
L 291.390882 86.79027 
L 294.901442 90.856136 
L 298.412002 95.088276 
L 301.922562 99.460857 
L 305.433122 103.95139 
L 308.943682 108.540521 
L 312.454242 113.211743 
L 315.964803 117.951087 
L 319.475363 122.746808 
L 322.985923 127.589079 
L 326.496483 132.469713 
L 330.007043 137.381916 
L 333.517603 142.320062 
L 337.028163 147.279507 
L 340.538724 152.256422 
L 344.049284 157.247657 
L 347.559844 162.250624 
L 351.070404 167.263196 
L 354.580964 172.283631 
L 358.091524 177.310499 
L 361.602084 182.342629 
L 365.112645 187.379064 
L 368.623205 192.419018 
L 372.133765 197.46185 
L 375.644325 202.507034 
L 379.154885 207.554141 
L 382.665445 212.602819 
L 386.176006 217.652783 
L 389.686566 222.703796 
L 393.197126 227.755667 
L 396.707686 232.808239 
L 400.218246 237.861384 
L 403.728806 242.914997 
L 407.239366 247.968993 
L 410.749927 253.023302 
L 414.260487 258.077866 
L 417.771047 263.132638 
L 421.281607 268.187582 
L 424.792167 273.242664 
L 428.302727 278.297861 
" style="fill:none;stroke:#2b7bba;stroke-linecap:square;stroke-width:1.5;"/>
   </g>
   <g id="line2d_22">
    <path clip-path="url(#pf0f47cec47)" d="M 80.757273 286.401818 
L 84.267833 281.839754 
L 87.778393 277.306937 
L 91.288953 272.805001 
L 94.799513 268.335658 
L 98.310073 263.900701 
L 101.820634 259.502007 
L 105.331194 255.141541 
L 108.841754 250.821352 
L 112.352314 246.543583 
L 115.862874 242.310463 
L 119.373434 238.124319 
L 122.883994 233.987565 
L 126.394555 229.902714 
L 129.905115 225.872369 
L 133.415675 221.899228 
L 136.926235 217.986082 
L 140.436795 214.13581 
L 143.947355 210.351382 
L 147.457916 206.635855 
L 150.968476 202.992364 
L 154.479036 199.424126 
L 157.989596 195.934428 
L 161.500156 192.526625 
L 165.010716 189.204132 
L 168.521276 185.970412 
L 172.031837 182.828975 
L 175.542397 179.78336 
L 179.052957 176.83713 
L 182.563517 173.993857 
L 186.074077 171.257109 
L 189.584637 168.630437 
L 193.095197 166.117361 
L 196.605758 163.721356 
L 200.116318 161.44583 
L 203.626878 159.294114 
L 207.137438 157.269442 
L 210.647998 155.374934 
L 214.158558 153.613579 
L 217.669118 151.988217 
L 221.179679 150.501522 
L 224.690239 149.155988 
L 228.200799 147.953908 
L 231.711359 146.897363 
L 235.221919 145.988208 
L 238.732479 145.228058 
L 242.243039 144.618275 
L 245.7536 144.159962 
L 249.26416 143.853953 
L 252.77472 143.700809 
L 256.28528 143.700809 
L 259.79584 143.853953 
L 263.3064 144.159962 
L 266.816961 144.618275 
L 270.327521 145.228058 
L 273.838081 145.988208 
L 277.348641 146.897363 
L 280.859201 147.953908 
L 284.369761 149.155988 
L 287.880321 150.501522 
L 291.390882 151.988217 
L 294.901442 153.613579 
L 298.412002 155.374934 
L 301.922562 157.269442 
L 305.433122 159.294114 
L 308.943682 161.44583 
L 312.454242 163.721356 
L 315.964803 166.117361 
L 319.475363 168.630437 
L 322.985923 171.257109 
L 326.496483 173.993857 
L 330.007043 176.83713 
L 333.517603 179.78336 
L 337.028163 182.828975 
L 340.538724 185.970412 
L 344.049284 189.204132 
L 347.559844 192.526625 
L 351.070404 195.934428 
L 354.580964 199.424126 
L 358.091524 202.992364 
L 361.602084 206.635855 
L 365.112645 210.351382 
L 368.623205 214.13581 
L 372.133765 217.986082 
L 375.644325 221.899228 
L 379.154885 225.872369 
L 382.665445 229.902714 
L 386.176006 233.987565 
L 389.686566 238.124319 
L 393.197126 242.310463 
L 396.707686 246.543583 
L 400.218246 250.821352 
L 403.728806 255.141541 
L 407.239366 259.502007 
L 410.749927 263.900701 
L 414.260487 268.335658 
L 417.771047 272.805001 
L 421.281607 277.306937 
L 424.792167 281.839754 
L 428.302727 286.401818 
" style="fill:none;stroke:#0b559f;stroke-linecap:square;stroke-width:1.5;"/>
   </g>
   <g id="patch_3">
    <path d="M 63.38 299.32 
L 63.38 15.12 
" style="fill:none;stroke:#000000;stroke-linecap:square;stroke-linejoin:miter;stroke-width:0.8;"/>
   </g>
   <g id="patch_4">
    <path d="M 445.68 299.32 
L 445.68 15.12 
" style="fill:none;stroke:#000000;stroke-linecap:square;stroke-linejoin:miter;stroke-width:0.8;"/>
   </g>
   <g id="patch_5">
    <path d="M 63.38 299.32 
L 445.68 299.32 
" style="fill:none;stroke:#000000;stroke-linecap:square;stroke-linejoin:miter;stroke-width:0.8;"/>
   </g>
   <g id="patch_6">
    <path d="M 63.38 15.12 
L 445.68 15.12 
" style="fill:none;stroke:#000000;stroke-linecap:square;stroke-linejoin:miter;stroke-width:0.8;"/>
   </g>
   <g id="legend_1">
    <g id="patch_7">
     <path d="M 343.31001 105.598242 
L 435.88 105.598242 
Q 438.68 105.598242 438.68 102.798242 
L 438.68 24.92 
Q 438.68 22.12 435.88 22.12 
L 343.31001 22.12 
Q 340.51001 22.12 340.51001 24.92 
L 340.51001 102.798242 
Q 340.51001 105.598242 343.31001 105.598242 
z
" style="fill:#ffffff;opacity:0.8;stroke:#cccccc;stroke-linejoin:miter;"/>
    </g>
    <g id="line2d_23">
     <path d="M 346.11001 32.62 
L 374.11001 32.62 
" style="fill:none;stroke:#89bedc;stroke-linecap:square;stroke-width:1.5;"/>
    </g>
    <g id="line2d_24"/>
    <g id="text_19">
     <!-- $\gamma=0.01$ -->
     <g transform="translate(385.31001 37.52)scale(0.14 -0.14)">
      <defs>
       <path d="M 3398 2794 
L 2931 2704 
C 2637 2014 2291 1338 1843 731 
C 1869 1360 1914 2816 998 2816 
C 570 2816 19 2240 19 1862 
C 19 1843 26 1817 51 1817 
C 192 1817 179 2363 806 2363 
C 1472 2363 1504 1052 1504 584 
C 1504 417 1498 269 1498 108 
C 1280 -175 762 -824 762 -1177 
C 762 -1293 813 -1344 934 -1344 
C 1466 -1344 1562 -252 1734 114 
C 1843 339 2112 661 2259 871 
C 2682 1472 3142 2104 3398 2794 
z
" id="rtxmi-d" transform="scale(0.015625)"/>
       <path d="M 3674 2138 
L 3674 2496 
L 397 2496 
L 397 2138 
L 3674 2138 
z
M 3674 832 
L 3674 1190 
L 397 1190 
L 397 832 
L 3674 832 
z
" id="rtxr-3d" transform="scale(0.015625)"/>
       <path d="M 3046 2138 
C 3046 3450 2464 4352 1626 4352 
C 1274 4352 1005 4244 768 4020 
C 397 3661 154 2925 154 2176 
C 154 1479 365 730 666 372 
C 902 90 1229 -64 1600 -64 
C 1926 -64 2202 45 2432 269 
C 2803 621 3046 1364 3046 2138 
z
M 2432 2125 
C 2432 788 2150 103 1600 103 
C 1050 103 768 788 768 2119 
C 768 3476 1056 4186 1606 4186 
C 2144 4186 2432 3463 2432 2125 
z
" id="TeXGyreTermes-Regular-30" transform="scale(0.015625)"/>
       <path d="M 1158 281 
C 1158 480 992 646 800 646 
C 608 646 448 486 448 281 
C 448 38 666 -64 800 -64 
C 934 -64 1158 44 1158 281 
z
" id="rtxmi-3a" transform="scale(0.015625)"/>
       <path d="M 2522 0 
L 2522 96 
C 2016 96 1914 160 1914 470 
L 1914 4327 
L 1862 4339 
L 710 3757 
L 710 3667 
C 787 3699 858 3725 883 3738 
C 998 3783 1107 3808 1171 3808 
C 1306 3808 1363 3711 1363 3505 
L 1363 592 
C 1363 379 1312 232 1210 173 
C 1114 116 1024 96 755 96 
L 755 0 
L 2522 0 
z
" id="TeXGyreTermes-Regular-31" transform="scale(0.015625)"/>
      </defs>
      <use transform="scale(0.996264)" xlink:href="#rtxmi-d"/>
      <use transform="translate(78.079319 0)scale(0.996264)" xlink:href="#rtxr-3d"/>
      <use transform="translate(163.580816 0)scale(0.996264)" xlink:href="#TeXGyreTermes-Regular-30"/>
      <use transform="translate(214.988015 0)scale(0.996264)" xlink:href="#rtxmi-3a"/>
      <use transform="translate(241.588276 0)scale(0.996264)" xlink:href="#TeXGyreTermes-Regular-30"/>
      <use transform="translate(291.401477 0)scale(0.996264)" xlink:href="#TeXGyreTermes-Regular-31"/>
     </g>
    </g>
    <g id="line2d_25">
     <path d="M 346.11001 52.43956 
L 374.11001 52.43956 
" style="fill:none;stroke:#539ecd;stroke-linecap:square;stroke-width:1.5;"/>
    </g>
    <g id="line2d_26"/>
    <g id="text_20">
     <!-- $\gamma=0.1$ -->
     <g transform="translate(385.31001 57.33956)scale(0.14 -0.14)">
      <use transform="scale(0.996264)" xlink:href="#rtxmi-d"/>
      <use transform="translate(78.079319 0)scale(0.996264)" xlink:href="#rtxr-3d"/>
      <use transform="translate(163.580816 0)scale(0.996264)" xlink:href="#TeXGyreTermes-Regular-30"/>
      <use transform="translate(214.988015 0)scale(0.996264)" xlink:href="#rtxmi-3a"/>
      <use transform="translate(241.588276 0)scale(0.996264)" xlink:href="#TeXGyreTermes-Regular-31"/>
     </g>
    </g>
    <g id="line2d_27">
     <path d="M 346.11001 72.259121 
L 374.11001 72.259121 
" style="fill:none;stroke:#2b7bba;stroke-linecap:square;stroke-width:1.5;"/>
    </g>
    <g id="line2d_28"/>
    <g id="text_21">
     <!-- $\gamma=0.3$ -->
     <g transform="translate(385.31001 77.159121)scale(0.14 -0.14)">
      <defs>
       <path d="M 2765 1428 
C 2765 1754 2662 2055 2477 2253 
C 2349 2394 2227 2471 1946 2592 
C 2387 2893 2547 3130 2547 3476 
C 2547 3994 2138 4352 1549 4352 
C 1229 4352 947 4244 717 4039 
C 525 3866 429 3699 288 3315 
L 384 3290 
C 646 3757 934 3968 1338 3968 
C 1754 3968 2042 3687 2042 3284 
C 2042 3053 1946 2823 1786 2663 
C 1594 2471 1414 2375 979 2221 
L 979 2138 
C 1357 2138 1504 2125 1658 2068 
C 2054 1927 2304 1562 2304 1120 
C 2304 583 1939 167 1466 167 
C 1293 167 1165 212 928 365 
C 736 480 627 525 518 525 
C 371 525 275 436 275 301 
C 275 77 550 -64 998 -64 
C 1491 -64 1997 103 2298 365 
C 2598 628 2765 999 2765 1428 
z
" id="TeXGyreTermes-Regular-33" transform="scale(0.015625)"/>
      </defs>
      <use transform="scale(0.996264)" xlink:href="#rtxmi-d"/>
      <use transform="translate(78.079319 0)scale(0.996264)" xlink:href="#rtxr-3d"/>
      <use transform="translate(163.580816 0)scale(0.996264)" xlink:href="#TeXGyreTermes-Regular-30"/>
      <use transform="translate(214.988015 0)scale(0.996264)" xlink:href="#rtxmi-3a"/>
      <use transform="translate(241.588276 0)scale(0.996264)" xlink:href="#TeXGyreTermes-Regular-33"/>
     </g>
    </g>
    <g id="line2d_29">
     <path d="M 346.11001 92.078681 
L 374.11001 92.078681 
" style="fill:none;stroke:#0b559f;stroke-linecap:square;stroke-width:1.5;"/>
    </g>
    <g id="line2d_30"/>
    <g id="text_22">
     <!-- $\gamma=1.0$ -->
     <g transform="translate(385.31001 96.978681)scale(0.14 -0.14)">
      <use transform="scale(0.996264)" xlink:href="#rtxmi-d"/>
      <use transform="translate(78.079319 0)scale(0.996264)" xlink:href="#rtxr-3d"/>
      <use transform="translate(163.580816 0)scale(0.996264)" xlink:href="#TeXGyreTermes-Regular-31"/>
      <use transform="translate(214.988015 0)scale(0.996264)" xlink:href="#rtxmi-3a"/>
      <use transform="translate(241.588276 0)scale(0.996264)" xlink:href="#TeXGyreTermes-Regular-30"/>
     </g>
    </g>
   </g>
  </g>
 </g>
 <defs>
  <clipPath id="pf0f47cec47">
   <rect height="284.2" width="382.3" x="63.38" y="15.12"/>
  </clipPath>
 </defs>
</svg>
