<?xml version="1.0" encoding="utf-8" standalone="no"?>
<!DOCTYPE svg PUBLIC "-//W3C//DTD SVG 1.1//EN"
  "http://www.w3.org/Graphics/SVG/1.1/DTD/svg11.dtd">
<svg height="345.6pt" version="1.1" viewBox="0 0 460.8 345.6" width="460.8pt" xmlns="http://www.w3.org/2000/svg" xmlns:xlink="http://www.w3.org/1999/xlink">
 <metadata>
  <rdf:RDF xmlns:cc="http://creativecommons.org/ns#" xmlns:dc="http://purl.org/dc/elements/1.1/" xmlns:rdf="http://www.w3.org/1999/02/22-rdf-syntax-ns#">
   <cc:Work>
    <dc:type rdf:resource="http://purl.org/dc/dcmitype/StillImage"/>
    <dc:date>2021-05-19T09:22:42.883235</dc:date>
    <dc:format>image/svg+xml</dc:format>
    <dc:creator>
     <cc:Agent>
      <dc:title>Matplotlib v3.4.1, https://matplotlib.org/</dc:title>
     </cc:Agent>
    </dc:creator>
   </cc:Work>
  </rdf:RDF>
 </metadata>
 <defs>
  <style type="text/css">*{stroke-linecap:butt;stroke-linejoin:round;}</style>
 </defs>
 <g id="figure_1">
  <g id="patch_1">
   <path d="M 0 345.6 
L 460.8 345.6 
L 460.8 0 
L 0 0 
z
" style="fill:#f9fafb;"/>
  </g>
  <g id="axes_1">
   <g id="patch_2">
    <path d="M 67.31151 292.745781 
L 445.68 292.745781 
L 445.68 15.12 
L 67.31151 15.12 
z
" style="fill:#f9fafb;"/>
   </g>
   <g id="matplotlib.axis_1">
    <g id="xtick_1">
     <g id="line2d_1">
      <defs>
       <path d="M 0 0 
L 0 3.5 
" id="m65e9fdf385" style="stroke:#000000;stroke-width:0.8;"/>
      </defs>
      <g>
       <use style="stroke:#000000;stroke-width:0.8;" x="84.510077" xlink:href="#m65e9fdf385" y="292.745781"/>
      </g>
     </g>
     <g id="text_1">
      <!-- $\mathdefault{−1.5}$ -->
      <g transform="translate(71.127272 309.202186)scale(0.14 -0.14)">
       <defs>
        <path d="M 3673 1469 
L 3673 1827 
L 396 1827 
L 396 1469 
L 3673 1469 
z
" id="txsys-0" transform="scale(0.015625)"/>
        <path d="M 2522 0 
L 2522 96 
C 2016 96 1914 160 1914 470 
L 1914 4327 
L 1862 4339 
L 710 3757 
L 710 3667 
C 787 3699 858 3725 883 3738 
C 998 3783 1107 3808 1171 3808 
C 1306 3808 1363 3711 1363 3505 
L 1363 592 
C 1363 379 1312 232 1210 173 
C 1114 116 1024 96 755 96 
L 755 0 
L 2522 0 
z
" id="TeXGyreTermes-Regular-31" transform="scale(0.015625)"/>
        <path d="M 1158 281 
C 1158 480 992 646 800 646 
C 608 646 448 486 448 281 
C 448 38 666 -64 800 -64 
C 934 -64 1158 44 1158 281 
z
" id="rtxmi-3a" transform="scale(0.015625)"/>
        <path d="M 2803 4345 
L 2746 4390 
C 2650 4256 2586 4224 2451 4224 
L 1114 4224 
L 416 2705 
C 410 2692 410 2673 410 2673 
C 410 2641 435 2622 486 2622 
C 691 2622 947 2577 1210 2494 
C 1946 2256 2285 1859 2285 1225 
C 2285 609 1894 128 1395 128 
C 1267 128 1158 173 966 314 
C 762 462 614 526 480 526 
C 294 526 205 449 205 289 
C 205 45 506 -109 986 -109 
C 1523 -109 1984 64 2304 392 
C 2598 680 2733 1045 2733 1533 
C 2733 1994 2611 2289 2291 2609 
C 2010 2892 1645 3039 890 3173 
L 1158 3718 
L 2413 3718 
C 2515 3718 2541 3731 2560 3776 
L 2803 4345 
z
" id="TeXGyreTermes-Regular-35" transform="scale(0.015625)"/>
       </defs>
       <use transform="scale(0.996264)" xlink:href="#txsys-0"/>
       <use transform="translate(63.362352 0)scale(0.996264)" xlink:href="#TeXGyreTermes-Regular-31"/>
       <use transform="translate(114.76955 0)scale(0.996264)" xlink:href="#rtxmi-3a"/>
       <use transform="translate(141.369811 0)scale(0.996264)" xlink:href="#TeXGyreTermes-Regular-35"/>
      </g>
     </g>
    </g>
    <g id="xtick_2">
     <g id="line2d_2">
      <g>
       <use style="stroke:#000000;stroke-width:0.8;" x="141.838637" xlink:href="#m65e9fdf385" y="292.745781"/>
      </g>
     </g>
     <g id="text_2">
      <!-- $\mathdefault{−1.0}$ -->
      <g transform="translate(128.455831 309.202186)scale(0.14 -0.14)">
       <defs>
        <path d="M 3046 2138 
C 3046 3450 2464 4352 1626 4352 
C 1274 4352 1005 4244 768 4020 
C 397 3661 154 2925 154 2176 
C 154 1479 365 730 666 372 
C 902 90 1229 -64 1600 -64 
C 1926 -64 2202 45 2432 269 
C 2803 621 3046 1364 3046 2138 
z
M 2432 2125 
C 2432 788 2150 103 1600 103 
C 1050 103 768 788 768 2119 
C 768 3476 1056 4186 1606 4186 
C 2144 4186 2432 3463 2432 2125 
z
" id="TeXGyreTermes-Regular-30" transform="scale(0.015625)"/>
       </defs>
       <use transform="scale(0.996264)" xlink:href="#txsys-0"/>
       <use transform="translate(63.362352 0)scale(0.996264)" xlink:href="#TeXGyreTermes-Regular-31"/>
       <use transform="translate(114.76955 0)scale(0.996264)" xlink:href="#rtxmi-3a"/>
       <use transform="translate(141.369811 0)scale(0.996264)" xlink:href="#TeXGyreTermes-Regular-30"/>
      </g>
     </g>
    </g>
    <g id="xtick_3">
     <g id="line2d_3">
      <g>
       <use style="stroke:#000000;stroke-width:0.8;" x="199.167196" xlink:href="#m65e9fdf385" y="292.745781"/>
      </g>
     </g>
     <g id="text_3">
      <!-- $\mathdefault{−0.5}$ -->
      <g transform="translate(185.78439 309.202186)scale(0.14 -0.14)">
       <use transform="scale(0.996264)" xlink:href="#txsys-0"/>
       <use transform="translate(63.362352 0)scale(0.996264)" xlink:href="#TeXGyreTermes-Regular-30"/>
       <use transform="translate(114.76955 0)scale(0.996264)" xlink:href="#rtxmi-3a"/>
       <use transform="translate(141.369811 0)scale(0.996264)" xlink:href="#TeXGyreTermes-Regular-35"/>
      </g>
     </g>
    </g>
    <g id="xtick_4">
     <g id="line2d_4">
      <g>
       <use style="stroke:#000000;stroke-width:0.8;" x="256.495755" xlink:href="#m65e9fdf385" y="292.745781"/>
      </g>
     </g>
     <g id="text_4">
      <!-- $\mathdefault{0.0}$ -->
      <g transform="translate(247.548313 309.202186)scale(0.14 -0.14)">
       <use transform="scale(0.996264)" xlink:href="#TeXGyreTermes-Regular-30"/>
       <use transform="translate(51.407199 0)scale(0.996264)" xlink:href="#rtxmi-3a"/>
       <use transform="translate(78.00746 0)scale(0.996264)" xlink:href="#TeXGyreTermes-Regular-30"/>
      </g>
     </g>
    </g>
    <g id="xtick_5">
     <g id="line2d_5">
      <g>
       <use style="stroke:#000000;stroke-width:0.8;" x="313.824314" xlink:href="#m65e9fdf385" y="292.745781"/>
      </g>
     </g>
     <g id="text_5">
      <!-- $\mathdefault{0.5}$ -->
      <g transform="translate(304.876872 309.202186)scale(0.14 -0.14)">
       <use transform="scale(0.996264)" xlink:href="#TeXGyreTermes-Regular-30"/>
       <use transform="translate(51.407199 0)scale(0.996264)" xlink:href="#rtxmi-3a"/>
       <use transform="translate(78.00746 0)scale(0.996264)" xlink:href="#TeXGyreTermes-Regular-35"/>
      </g>
     </g>
    </g>
    <g id="xtick_6">
     <g id="line2d_6">
      <g>
       <use style="stroke:#000000;stroke-width:0.8;" x="371.152873" xlink:href="#m65e9fdf385" y="292.745781"/>
      </g>
     </g>
     <g id="text_6">
      <!-- $\mathdefault{1.0}$ -->
      <g transform="translate(362.205431 309.202186)scale(0.14 -0.14)">
       <use transform="scale(0.996264)" xlink:href="#TeXGyreTermes-Regular-31"/>
       <use transform="translate(51.407199 0)scale(0.996264)" xlink:href="#rtxmi-3a"/>
       <use transform="translate(78.00746 0)scale(0.996264)" xlink:href="#TeXGyreTermes-Regular-30"/>
      </g>
     </g>
    </g>
    <g id="xtick_7">
     <g id="line2d_7">
      <g>
       <use style="stroke:#000000;stroke-width:0.8;" x="428.481432" xlink:href="#m65e9fdf385" y="292.745781"/>
      </g>
     </g>
     <g id="text_7">
      <!-- $\mathdefault{1.5}$ -->
      <g transform="translate(419.53399 309.202186)scale(0.14 -0.14)">
       <use transform="scale(0.996264)" xlink:href="#TeXGyreTermes-Regular-31"/>
       <use transform="translate(51.407199 0)scale(0.996264)" xlink:href="#rtxmi-3a"/>
       <use transform="translate(78.00746 0)scale(0.996264)" xlink:href="#TeXGyreTermes-Regular-35"/>
      </g>
     </g>
    </g>
    <g id="text_8">
     <!-- $a$ -->
     <g transform="translate(252.510699 327.029074)scale(0.16 -0.16)">
      <defs>
       <path d="M 2970 708 
C 2874 612 2835 580 2790 529 
C 2598 332 2515 268 2458 268 
C 2406 268 2368 306 2368 351 
C 2368 479 2637 1568 2938 2663 
C 2957 2727 2963 2740 2976 2797 
L 2931 2816 
L 2541 2772 
L 2522 2753 
L 2451 2447 
C 2400 2682 2214 2816 1939 2816 
C 1094 2816 109 1650 109 644 
C 109 197 352 -64 762 -64 
C 1210 -64 1485 147 2048 937 
C 1920 437 1901 353 1901 199 
C 1901 13 1978 -64 2157 -64 
C 2413 -64 2573 58 3046 644 
L 2970 708 
z
M 1978 2670 
C 2195 2670 2336 2517 2336 2293 
C 2336 1757 2016 1002 1574 530 
C 1421 357 1203 249 1018 249 
C 794 249 646 433 646 726 
C 646 1069 890 1723 1165 2117 
C 1421 2486 1722 2689 1978 2670 
z
" id="NimbusRomNo9L-ReguItal-61" transform="scale(0.015625)"/>
      </defs>
      <use transform="scale(0.996264)" xlink:href="#NimbusRomNo9L-ReguItal-61"/>
     </g>
    </g>
   </g>
   <g id="matplotlib.axis_2">
    <g id="ytick_1">
     <g id="line2d_8">
      <defs>
       <path d="M 0 0 
L -3.5 0 
" id="m05eb3fdf4e" style="stroke:#000000;stroke-width:0.8;"/>
      </defs>
      <g>
       <use style="stroke:#000000;stroke-width:0.8;" x="67.31151" xlink:href="#m05eb3fdf4e" y="288.505604"/>
      </g>
     </g>
     <g id="text_9">
      <!-- $\mathdefault{−1.6}$ -->
      <g transform="translate(33.545899 293.233807)scale(0.14 -0.14)">
       <defs>
        <path d="M 2995 1421 
C 2995 2236 2528 2752 1792 2752 
C 1510 2752 1376 2707 973 2464 
C 1146 3431 1862 4122 2867 4288 
L 2854 4391 
C 2125 4327 1754 4206 1286 3880 
C 595 3389 218 2661 218 1807 
C 218 1251 390 690 666 371 
C 909 90 1254 -64 1651 -64 
C 2445 -64 2995 541 2995 1421 
z
M 2419 1204 
C 2419 504 2170 116 1722 116 
C 1158 116 813 714 813 1700 
C 813 2025 864 2203 992 2299 
C 1126 2400 1325 2458 1549 2458 
C 2099 2458 2419 2000 2419 1204 
z
" id="TeXGyreTermes-Regular-36" transform="scale(0.015625)"/>
       </defs>
       <use transform="scale(0.996264)" xlink:href="#txsys-0"/>
       <use transform="translate(63.362352 0)scale(0.996264)" xlink:href="#TeXGyreTermes-Regular-31"/>
       <use transform="translate(114.76955 0)scale(0.996264)" xlink:href="#rtxmi-3a"/>
       <use transform="translate(141.369811 0)scale(0.996264)" xlink:href="#TeXGyreTermes-Regular-36"/>
      </g>
     </g>
    </g>
    <g id="ytick_2">
     <g id="line2d_9">
      <g>
       <use style="stroke:#000000;stroke-width:0.8;" x="67.31151" xlink:href="#m05eb3fdf4e" y="255.909823"/>
      </g>
     </g>
     <g id="text_10">
      <!-- $\mathdefault{−1.4}$ -->
      <g transform="translate(33.545899 260.638026)scale(0.14 -0.14)">
       <defs>
        <path d="M 3021 1088 
L 3021 1497 
L 2368 1497 
L 2368 4352 
L 2086 4352 
L 77 1497 
L 77 1088 
L 1875 1088 
L 1875 32 
L 2368 32 
L 2368 1088 
L 3021 1088 
z
M 1869 1497 
L 333 1497 
L 1869 3698 
L 1869 1497 
z
" id="TeXGyreTermes-Regular-34" transform="scale(0.015625)"/>
       </defs>
       <use transform="scale(0.996264)" xlink:href="#txsys-0"/>
       <use transform="translate(63.362352 0)scale(0.996264)" xlink:href="#TeXGyreTermes-Regular-31"/>
       <use transform="translate(114.76955 0)scale(0.996264)" xlink:href="#rtxmi-3a"/>
       <use transform="translate(141.369811 0)scale(0.996264)" xlink:href="#TeXGyreTermes-Regular-34"/>
      </g>
     </g>
    </g>
    <g id="ytick_3">
     <g id="line2d_10">
      <g>
       <use style="stroke:#000000;stroke-width:0.8;" x="67.31151" xlink:href="#m05eb3fdf4e" y="223.314042"/>
      </g>
     </g>
     <g id="text_11">
      <!-- $\mathdefault{−1.2}$ -->
      <g transform="translate(33.545899 228.042244)scale(0.14 -0.14)">
       <defs>
        <path d="M 3040 875 
L 2957 907 
C 2720 544 2637 486 2349 486 
L 819 486 
L 1894 1609 
C 2464 2202 2714 2687 2714 3185 
C 2714 3823 2195 4313 1530 4313 
C 1178 4313 845 4173 608 3918 
C 403 3700 307 3496 198 3043 
L 333 3011 
C 589 3636 819 3840 1261 3840 
C 1798 3840 2163 3476 2163 2940 
C 2163 2443 1869 1850 1331 1282 
L 192 77 
L 192 0 
L 2688 0 
L 3040 875 
z
" id="TeXGyreTermes-Regular-32" transform="scale(0.015625)"/>
       </defs>
       <use transform="scale(0.996264)" xlink:href="#txsys-0"/>
       <use transform="translate(63.362352 0)scale(0.996264)" xlink:href="#TeXGyreTermes-Regular-31"/>
       <use transform="translate(114.76955 0)scale(0.996264)" xlink:href="#rtxmi-3a"/>
       <use transform="translate(141.369811 0)scale(0.996264)" xlink:href="#TeXGyreTermes-Regular-32"/>
      </g>
     </g>
    </g>
    <g id="ytick_4">
     <g id="line2d_11">
      <g>
       <use style="stroke:#000000;stroke-width:0.8;" x="67.31151" xlink:href="#m05eb3fdf4e" y="190.71826"/>
      </g>
     </g>
     <g id="text_12">
      <!-- $\mathdefault{−1.0}$ -->
      <g transform="translate(33.545899 195.446463)scale(0.14 -0.14)">
       <use transform="scale(0.996264)" xlink:href="#txsys-0"/>
       <use transform="translate(63.362352 0)scale(0.996264)" xlink:href="#TeXGyreTermes-Regular-31"/>
       <use transform="translate(114.76955 0)scale(0.996264)" xlink:href="#rtxmi-3a"/>
       <use transform="translate(141.369811 0)scale(0.996264)" xlink:href="#TeXGyreTermes-Regular-30"/>
      </g>
     </g>
    </g>
    <g id="ytick_5">
     <g id="line2d_12">
      <g>
       <use style="stroke:#000000;stroke-width:0.8;" x="67.31151" xlink:href="#m05eb3fdf4e" y="158.122479"/>
      </g>
     </g>
     <g id="text_13">
      <!-- $\mathdefault{−0.8}$ -->
      <g transform="translate(33.545899 162.850682)scale(0.14 -0.14)">
       <defs>
        <path d="M 2848 1018 
C 2848 1511 2630 1824 1856 2400 
C 2490 2740 2714 3008 2714 3444 
C 2714 3968 2253 4352 1613 4352 
C 915 4352 397 3924 397 3341 
C 397 2925 518 2740 1190 2151 
C 499 1626 358 1428 358 992 
C 358 372 864 -64 1587 -64 
C 2355 -64 2848 359 2848 1018 
z
M 2362 820 
C 2362 404 2074 116 1658 116 
C 1171 116 845 487 845 1044 
C 845 1453 986 1722 1357 2023 
L 1741 1741 
C 2208 1408 2362 1178 2362 820 
z
M 2272 3450 
C 2272 3085 2093 2797 1728 2554 
C 1696 2535 1696 2535 1670 2516 
C 1101 2887 870 3181 870 3540 
C 870 3911 1158 4173 1562 4173 
C 1997 4173 2272 3892 2272 3450 
z
" id="TeXGyreTermes-Regular-38" transform="scale(0.015625)"/>
       </defs>
       <use transform="scale(0.996264)" xlink:href="#txsys-0"/>
       <use transform="translate(63.362352 0)scale(0.996264)" xlink:href="#TeXGyreTermes-Regular-30"/>
       <use transform="translate(114.76955 0)scale(0.996264)" xlink:href="#rtxmi-3a"/>
       <use transform="translate(141.369811 0)scale(0.996264)" xlink:href="#TeXGyreTermes-Regular-38"/>
      </g>
     </g>
    </g>
    <g id="ytick_6">
     <g id="line2d_13">
      <g>
       <use style="stroke:#000000;stroke-width:0.8;" x="67.31151" xlink:href="#m05eb3fdf4e" y="125.526698"/>
      </g>
     </g>
     <g id="text_14">
      <!-- $\mathdefault{−0.6}$ -->
      <g transform="translate(33.545899 130.2549)scale(0.14 -0.14)">
       <use transform="scale(0.996264)" xlink:href="#txsys-0"/>
       <use transform="translate(63.362352 0)scale(0.996264)" xlink:href="#TeXGyreTermes-Regular-30"/>
       <use transform="translate(114.76955 0)scale(0.996264)" xlink:href="#rtxmi-3a"/>
       <use transform="translate(141.369811 0)scale(0.996264)" xlink:href="#TeXGyreTermes-Regular-36"/>
      </g>
     </g>
    </g>
    <g id="ytick_7">
     <g id="line2d_14">
      <g>
       <use style="stroke:#000000;stroke-width:0.8;" x="67.31151" xlink:href="#m05eb3fdf4e" y="92.930916"/>
      </g>
     </g>
     <g id="text_15">
      <!-- $\mathdefault{−0.4}$ -->
      <g transform="translate(33.545899 97.659119)scale(0.14 -0.14)">
       <use transform="scale(0.996264)" xlink:href="#txsys-0"/>
       <use transform="translate(63.362352 0)scale(0.996264)" xlink:href="#TeXGyreTermes-Regular-30"/>
       <use transform="translate(114.76955 0)scale(0.996264)" xlink:href="#rtxmi-3a"/>
       <use transform="translate(141.369811 0)scale(0.996264)" xlink:href="#TeXGyreTermes-Regular-34"/>
      </g>
     </g>
    </g>
    <g id="ytick_8">
     <g id="line2d_15">
      <g>
       <use style="stroke:#000000;stroke-width:0.8;" x="67.31151" xlink:href="#m05eb3fdf4e" y="60.335135"/>
      </g>
     </g>
     <g id="text_16">
      <!-- $\mathdefault{−0.2}$ -->
      <g transform="translate(33.545899 65.063338)scale(0.14 -0.14)">
       <use transform="scale(0.996264)" xlink:href="#txsys-0"/>
       <use transform="translate(63.362352 0)scale(0.996264)" xlink:href="#TeXGyreTermes-Regular-30"/>
       <use transform="translate(114.76955 0)scale(0.996264)" xlink:href="#rtxmi-3a"/>
       <use transform="translate(141.369811 0)scale(0.996264)" xlink:href="#TeXGyreTermes-Regular-32"/>
      </g>
     </g>
    </g>
    <g id="ytick_9">
     <g id="line2d_16">
      <g>
       <use style="stroke:#000000;stroke-width:0.8;" x="67.31151" xlink:href="#m05eb3fdf4e" y="27.739354"/>
      </g>
     </g>
     <g id="text_17">
      <!-- $\mathdefault{0.0}$ -->
      <g transform="translate(42.416625 32.467556)scale(0.14 -0.14)">
       <use transform="scale(0.996264)" xlink:href="#TeXGyreTermes-Regular-30"/>
       <use transform="translate(51.407199 0)scale(0.996264)" xlink:href="#rtxmi-3a"/>
       <use transform="translate(78.00746 0)scale(0.996264)" xlink:href="#TeXGyreTermes-Regular-30"/>
      </g>
     </g>
    </g>
    <g id="text_18">
     <!-- $\min^\gamma(-a, a)$ -->
     <g transform="translate(26.094972 191.005637)rotate(-90)scale(0.16 -0.16)">
      <defs>
       <path d="M 4960 0 
L 4960 96 
L 4794 115 
C 4602 115 4518 230 4518 480 
L 4518 1802 
C 4518 2559 4269 2944 3776 2944 
C 3405 2944 3078 2778 2733 2407 
C 2618 2771 2400 2944 2054 2944 
C 1773 2944 1594 2854 1062 2451 
L 1062 2931 
L 1018 2944 
C 691 2822 474 2752 122 2656 
L 122 2547 
C 205 2566 256 2573 326 2573 
C 493 2573 550 2470 550 2162 
L 550 539 
C 550 192 461 96 102 96 
L 102 0 
L 1523 0 
L 1523 96 
C 1184 96 1088 166 1088 418 
L 1088 2234 
C 1088 2234 1139 2310 1184 2355 
C 1344 2502 1619 2611 1843 2611 
C 2125 2611 2266 2385 2266 1932 
L 2266 528 
C 2266 167 2195 96 1830 96 
L 1830 0 
L 3264 0 
L 3264 96 
C 2899 96 2803 205 2803 603 
L 2803 2221 
C 2995 2496 3206 2611 3501 2611 
C 3866 2611 3981 2438 3981 1907 
L 3981 557 
C 3981 192 3930 141 3558 96 
L 3558 0 
L 4960 0 
z
" id="TeXGyreTermes-Regular-6d" transform="scale(0.015625)"/>
       <path d="M 1619 0 
L 1619 96 
C 1197 128 1146 192 1146 652 
L 1146 2920 
L 1120 2939 
L 128 2588 
L 128 2492 
L 179 2498 
C 256 2511 339 2518 397 2518 
C 550 2518 608 2415 608 2133 
L 608 642 
C 608 179 544 109 102 109 
L 102 0 
L 1619 0 
z
M 1203 3770 
C 1203 3949 1062 4096 877 4096 
C 698 4096 550 3949 550 3770 
C 550 3584 698 3444 877 3444 
C 1062 3444 1203 3584 1203 3770 
z
" id="TeXGyreTermes-Regular-69" transform="scale(0.015625)"/>
       <path d="M 3104 32 
L 3104 128 
C 2790 160 2714 237 2714 550 
L 2714 2016 
C 2714 2618 2432 2976 1958 2976 
C 1664 2976 1466 2867 1030 2458 
L 1030 2963 
L 986 2976 
C 672 2861 454 2790 102 2688 
L 102 2579 
C 141 2598 205 2605 275 2605 
C 454 2605 512 2509 512 2195 
L 512 608 
C 512 243 442 154 115 128 
L 115 32 
L 1472 32 
L 1472 128 
C 1146 154 1050 230 1050 461 
L 1050 2259 
C 1357 2547 1498 2624 1709 2624 
C 2022 2624 2176 2426 2176 2003 
L 2176 666 
C 2176 262 2093 154 1773 128 
L 1773 32 
L 3104 32 
z
" id="TeXGyreTermes-Regular-6e" transform="scale(0.015625)"/>
       <path d="M 3398 2794 
L 2931 2704 
C 2637 2014 2291 1338 1843 731 
C 1869 1360 1914 2816 998 2816 
C 570 2816 19 2240 19 1862 
C 19 1843 26 1817 51 1817 
C 192 1817 179 2363 806 2363 
C 1472 2363 1504 1052 1504 584 
C 1504 417 1498 269 1498 108 
C 1280 -175 762 -824 762 -1177 
C 762 -1293 813 -1344 934 -1344 
C 1466 -1344 1562 -252 1734 114 
C 1843 339 2112 661 2259 871 
C 2682 1472 3142 2104 3398 2794 
z
" id="rtxmi-d" transform="scale(0.015625)"/>
       <path d="M 1888 4589 
C 960 3987 307 2950 307 1645 
C 307 454 986 -749 1869 -1293 
L 1946 -1190 
C 1101 -525 858 250 858 1664 
C 858 3085 1120 3821 1946 4486 
L 1888 4589 
z
" id="txsys-b9" transform="scale(0.015625)"/>
       <path d="M 1248 12 
C 1248 544 877 627 730 627 
C 570 627 358 531 358 256 
C 358 0 589 -64 755 -64 
C 800 -64 832 -58 851 -52 
C 877 -45 896 -39 909 -39 
C 954 -39 998 -71 998 -128 
C 998 -250 896 -538 474 -807 
L 531 -928 
C 723 -864 1248 -442 1248 12 
z
" id="rtxmi-3b" transform="scale(0.015625)"/>
       <path d="M 243 4589 
L 186 4486 
C 1011 3821 1274 3085 1274 1664 
C 1274 250 1030 -525 186 -1190 
L 262 -1293 
C 1146 -749 1824 454 1824 1645 
C 1824 2950 1171 3987 243 4589 
z
" id="txsys-ba" transform="scale(0.015625)"/>
      </defs>
      <use transform="scale(0.996264)" xlink:href="#TeXGyreTermes-Regular-6d"/>
      <use transform="translate(77.509328 0)scale(0.996264)" xlink:href="#TeXGyreTermes-Regular-69"/>
      <use transform="translate(105.205455 0)scale(0.996264)" xlink:href="#TeXGyreTermes-Regular-6e"/>
      <use transform="translate(156.036825 36.164371)scale(0.727268)" xlink:href="#rtxmi-d"/>
      <use transform="translate(197.371049 0)scale(0.996264)" xlink:href="#txsys-b9"/>
      <use transform="translate(230.546659 0)scale(0.996264)" xlink:href="#txsys-0"/>
      <use transform="translate(295.204096 0)scale(0.996264)" xlink:href="#NimbusRomNo9L-ReguItal-61"/>
      <use transform="translate(342.775687 0)scale(0.996264)" xlink:href="#rtxmi-3b"/>
      <use transform="translate(376.06189 0)scale(0.996264)" xlink:href="#NimbusRomNo9L-ReguItal-61"/>
      <use transform="translate(427.618537 0)scale(0.996264)" xlink:href="#txsys-ba"/>
     </g>
    </g>
   </g>
   <g id="line2d_17">
    <path clip-path="url(#pa6a8744682)" d="M 256.495755 292.745781 
L 256.495755 15.12 
" style="fill:none;stroke:#000000;stroke-dasharray:5.55,2.4;stroke-dashoffset:0;stroke-opacity:0.5;stroke-width:1.5;"/>
   </g>
   <g id="line2d_18">
    <path clip-path="url(#pa6a8744682)" d="M 67.31151 27.739354 
L 445.68 27.739354 
" style="fill:none;stroke:#000000;stroke-dasharray:5.55,2.4;stroke-dashoffset:0;stroke-opacity:0.5;stroke-width:1.5;"/>
   </g>
   <g id="line2d_19">
    <path clip-path="url(#pa6a8744682)" d="M 84.510077 272.207714 
L 87.949791 267.318346 
L 91.389504 262.428979 
L 94.829218 257.539612 
L 98.268932 252.650245 
L 101.708645 247.760878 
L 105.148359 242.87151 
L 108.588072 237.982143 
L 112.027786 233.092776 
L 115.467499 228.203409 
L 118.907213 223.314042 
L 122.346926 218.424674 
L 125.78664 213.535307 
L 129.226354 208.64594 
L 132.666067 203.756573 
L 136.105781 198.867206 
L 139.545494 193.977838 
L 142.985208 189.088471 
L 146.424921 184.199104 
L 149.864635 179.309737 
L 153.304348 174.42037 
L 156.744062 169.531002 
L 160.183775 164.641635 
L 163.623489 159.752268 
L 167.063203 154.862901 
L 170.502916 149.973534 
L 173.94263 145.084166 
L 177.382343 140.194799 
L 180.822057 135.305432 
L 184.26177 130.416065 
L 187.701484 125.526698 
L 191.141197 120.63733 
L 194.580911 115.747963 
L 198.020624 110.858596 
L 201.460338 105.969229 
L 204.900052 101.079862 
L 208.339765 96.190494 
L 211.779479 91.301127 
L 215.219192 86.41176 
L 218.658906 81.522393 
L 222.098619 76.633026 
L 225.538333 71.743658 
L 228.978046 66.854291 
L 232.41776 61.964924 
L 235.857474 57.075557 
L 239.297187 52.18619 
L 242.736901 47.296822 
L 246.176614 42.407455 
L 249.616328 37.518088 
L 253.056041 32.628721 
L 256.495755 27.739354 
L 259.935468 32.628721 
L 263.375182 37.518088 
L 266.814895 42.407455 
L 270.254609 47.296822 
L 273.694323 52.18619 
L 277.134036 57.075557 
L 280.57375 61.964924 
L 284.013463 66.854291 
L 287.453177 71.743658 
L 290.89289 76.633026 
L 294.332604 81.522393 
L 297.772317 86.41176 
L 301.212031 91.301127 
L 304.651744 96.190494 
L 308.091458 101.079862 
L 311.531172 105.969229 
L 314.970885 110.858596 
L 318.410599 115.747963 
L 321.850312 120.63733 
L 325.290026 125.526698 
L 328.729739 130.416065 
L 332.169453 135.305432 
L 335.609166 140.194799 
L 339.04888 145.084166 
L 342.488594 149.973534 
L 345.928307 154.862901 
L 349.368021 159.752268 
L 352.807734 164.641635 
L 356.247448 169.531002 
L 359.687161 174.42037 
L 363.126875 179.309737 
L 366.566588 184.199104 
L 370.006302 189.088471 
L 373.446015 193.977838 
L 376.885729 198.867206 
L 380.325443 203.756573 
L 383.765156 208.64594 
L 387.20487 213.535307 
L 390.644583 218.424674 
L 394.084297 223.314042 
L 397.52401 228.203409 
L 400.963724 233.092776 
L 404.403437 237.982143 
L 407.843151 242.87151 
L 411.282865 247.760878 
L 414.722578 252.650245 
L 418.162292 257.539612 
L 421.602005 262.428979 
L 425.041719 267.318346 
L 428.481432 272.207714 
" style="fill:none;stroke:#000000;stroke-linecap:square;stroke-opacity:0.5;stroke-width:3;"/>
   </g>
   <g id="line2d_20">
    <path clip-path="url(#pa6a8744682)" d="M 84.510077 272.207714 
L 87.949791 267.318346 
L 91.389504 262.428979 
L 94.829218 257.539612 
L 98.268932 252.650245 
L 101.708645 247.760878 
L 105.148359 242.87151 
L 108.588072 237.982143 
L 112.027786 233.092776 
L 115.467499 228.203409 
L 118.907213 223.314042 
L 122.346926 218.424674 
L 125.78664 213.535307 
L 129.226354 208.64594 
L 132.666067 203.756573 
L 136.105781 198.867206 
L 139.545494 193.977838 
L 142.985208 189.088471 
L 146.424921 184.199104 
L 149.864635 179.309737 
L 153.304348 174.42037 
L 156.744062 169.531003 
L 160.183775 164.641636 
L 163.623489 159.75227 
L 167.063203 154.862904 
L 170.502916 149.973539 
L 173.94263 145.084176 
L 177.382343 140.194816 
L 180.822057 135.305462 
L 184.26177 130.41612 
L 187.701484 125.526798 
L 191.141197 120.637513 
L 194.580911 115.748296 
L 198.020624 110.859202 
L 201.460338 105.970333 
L 204.900052 101.081873 
L 208.339765 96.194159 
L 211.779479 91.307804 
L 215.219192 86.423923 
L 218.658906 81.544549 
L 222.098619 76.673374 
L 225.538333 71.817103 
L 228.978046 66.98787 
L 232.41776 62.207506 
L 235.857474 57.514901 
L 239.297187 52.978061 
L 242.736901 48.712069 
L 246.176614 44.900668 
L 249.616328 41.809037 
L 253.056041 39.758852 
L 256.495755 39.036191 
L 259.935468 39.758852 
L 263.375182 41.809037 
L 266.814895 44.900668 
L 270.254609 48.712069 
L 273.694323 52.978061 
L 277.134036 57.514901 
L 280.57375 62.207506 
L 284.013463 66.98787 
L 287.453177 71.817103 
L 290.89289 76.673374 
L 294.332604 81.544549 
L 297.772317 86.423923 
L 301.212031 91.307804 
L 304.651744 96.194159 
L 308.091458 101.081873 
L 311.531172 105.970333 
L 314.970885 110.859202 
L 318.410599 115.748296 
L 321.850312 120.637513 
L 325.290026 125.526798 
L 328.729739 130.41612 
L 332.169453 135.305462 
L 335.609166 140.194816 
L 339.04888 145.084176 
L 342.488594 149.973539 
L 345.928307 154.862904 
L 349.368021 159.75227 
L 352.807734 164.641636 
L 356.247448 169.531003 
L 359.687161 174.42037 
L 363.126875 179.309737 
L 366.566588 184.199104 
L 370.006302 189.088471 
L 373.446015 193.977838 
L 376.885729 198.867206 
L 380.325443 203.756573 
L 383.765156 208.64594 
L 387.20487 213.535307 
L 390.644583 218.424674 
L 394.084297 223.314042 
L 397.52401 228.203409 
L 400.963724 233.092776 
L 404.403437 237.982143 
L 407.843151 242.87151 
L 411.282865 247.760878 
L 414.722578 252.650245 
L 418.162292 257.539612 
L 421.602005 262.428979 
L 425.041719 267.318346 
L 428.481432 272.207714 
" style="fill:none;stroke:#0b559f;stroke-linecap:square;stroke-width:1.5;"/>
   </g>
   <g id="line2d_21">
    <path clip-path="url(#pa6a8744682)" d="M 84.510077 272.209933 
L 87.949791 267.321058 
L 91.389504 262.432291 
L 94.829218 257.543656 
L 98.268932 252.655185 
L 101.708645 247.766911 
L 105.148359 242.87888 
L 108.588072 237.991144 
L 112.027786 233.103769 
L 115.467499 228.216836 
L 118.907213 223.330441 
L 122.346926 218.444704 
L 125.78664 213.55977 
L 129.226354 208.675817 
L 132.666067 203.793062 
L 136.105781 198.911771 
L 139.545494 194.032265 
L 142.985208 189.154939 
L 146.424921 184.280276 
L 149.864635 179.408863 
L 153.304348 174.541415 
L 156.744062 169.678807 
L 160.183775 164.822104 
L 163.623489 159.972603 
L 167.063203 155.131885 
L 170.502916 150.301872 
L 173.94263 145.484902 
L 177.382343 140.683817 
L 180.822057 135.902061 
L 184.26177 131.143811 
L 187.701484 126.414114 
L 191.141197 121.719065 
L 194.580911 117.065994 
L 198.020624 112.4637 
L 201.460338 107.922694 
L 204.900052 103.455476 
L 208.339765 99.076826 
L 211.779479 94.804099 
L 215.219192 90.657498 
L 218.658906 86.660302 
L 222.098619 82.839002 
L 225.538333 79.223296 
L 228.978046 75.845874 
L 232.41776 72.741941 
L 235.857474 69.948403 
L 239.297187 67.502704 
L 242.736901 65.441297 
L 246.176614 63.797848 
L 249.616328 62.601288 
L 253.056041 61.873927 
L 256.495755 61.629865 
L 259.935468 61.873927 
L 263.375182 62.601288 
L 266.814895 63.797848 
L 270.254609 65.441297 
L 273.694323 67.502704 
L 277.134036 69.948403 
L 280.57375 72.741941 
L 284.013463 75.845874 
L 287.453177 79.223296 
L 290.89289 82.839002 
L 294.332604 86.660302 
L 297.772317 90.657498 
L 301.212031 94.804099 
L 304.651744 99.076826 
L 308.091458 103.455476 
L 311.531172 107.922694 
L 314.970885 112.4637 
L 318.410599 117.065994 
L 321.850312 121.719065 
L 325.290026 126.414114 
L 328.729739 131.143811 
L 332.169453 135.902061 
L 335.609166 140.683817 
L 339.04888 145.484902 
L 342.488594 150.301872 
L 345.928307 155.131885 
L 349.368021 159.972603 
L 352.807734 164.822104 
L 356.247448 169.678807 
L 359.687161 174.541415 
L 363.126875 179.408863 
L 366.566588 184.280276 
L 370.006302 189.154939 
L 373.446015 194.032265 
L 376.885729 198.911771 
L 380.325443 203.793062 
L 383.765156 208.675817 
L 387.20487 213.55977 
L 390.644583 218.444704 
L 394.084297 223.330441 
L 397.52401 228.216836 
L 400.963724 233.103769 
L 404.403437 237.991144 
L 407.843151 242.87888 
L 411.282865 247.766911 
L 414.722578 252.655185 
L 418.162292 257.543656 
L 421.602005 262.432291 
L 425.041719 267.321058 
L 428.481432 272.209933 
" style="fill:none;stroke:#2b7bba;stroke-linecap:square;stroke-width:1.5;"/>
   </g>
   <g id="line2d_22">
    <path clip-path="url(#pa6a8744682)" d="M 84.510077 272.86439 
L 87.949791 268.04383 
L 91.389504 263.230451 
L 94.829218 258.424995 
L 98.268932 253.62828 
L 101.708645 248.841207 
L 105.148359 244.064769 
L 108.588072 239.300056 
L 112.027786 234.548268 
L 115.467499 229.810724 
L 118.907213 225.088875 
L 122.346926 220.38431 
L 125.78664 215.698776 
L 129.226354 211.034185 
L 132.666067 206.392635 
L 136.105781 201.77642 
L 139.545494 197.188047 
L 142.985208 192.630256 
L 146.424921 188.106034 
L 149.864635 183.618635 
L 153.304348 179.171598 
L 156.744062 174.768764 
L 160.183775 170.414298 
L 163.623489 166.112705 
L 167.063203 161.868845 
L 170.502916 157.687951 
L 173.94263 153.575643 
L 177.382343 149.537936 
L 180.822057 145.581251 
L 184.26177 141.712412 
L 187.701484 137.938651 
L 191.141197 134.267591 
L 194.580911 130.707237 
L 198.020624 127.265946 
L 201.460338 123.952394 
L 204.900052 120.775531 
L 208.339765 117.744528 
L 211.779479 114.868704 
L 215.219192 112.157453 
L 218.658906 109.620151 
L 222.098619 107.266054 
L 225.538333 105.10419 
L 228.978046 103.14324 
L 232.41776 101.391417 
L 235.857474 99.856342 
L 239.297187 98.544919 
L 242.736901 97.463221 
L 246.176614 96.616382 
L 249.616328 96.008499 
L 253.056041 95.642559 
L 256.495755 95.520375 
L 259.935468 95.642559 
L 263.375182 96.008499 
L 266.814895 96.616382 
L 270.254609 97.463221 
L 273.694323 98.544919 
L 277.134036 99.856342 
L 280.57375 101.391417 
L 284.013463 103.14324 
L 287.453177 105.10419 
L 290.89289 107.266054 
L 294.332604 109.620151 
L 297.772317 112.157453 
L 301.212031 114.868704 
L 304.651744 117.744528 
L 308.091458 120.775531 
L 311.531172 123.952394 
L 314.970885 127.265946 
L 318.410599 130.707237 
L 321.850312 134.267591 
L 325.290026 137.938651 
L 328.729739 141.712412 
L 332.169453 145.581251 
L 335.609166 149.537936 
L 339.04888 153.575643 
L 342.488594 157.687951 
L 345.928307 161.868845 
L 349.368021 166.112705 
L 352.807734 170.414298 
L 356.247448 174.768764 
L 359.687161 179.171598 
L 363.126875 183.618635 
L 366.566588 188.106034 
L 370.006302 192.630256 
L 373.446015 197.188047 
L 376.885729 201.77642 
L 380.325443 206.392635 
L 383.765156 211.034185 
L 387.20487 215.698776 
L 390.644583 220.38431 
L 394.084297 225.088875 
L 397.52401 229.810724 
L 400.963724 234.548268 
L 404.403437 239.300056 
L 407.843151 244.064769 
L 411.282865 248.841207 
L 414.722578 253.62828 
L 418.162292 258.424995 
L 421.602005 263.230451 
L 425.041719 268.04383 
L 428.481432 272.86439 
" style="fill:none;stroke:#539ecd;stroke-linecap:square;stroke-width:1.5;"/>
   </g>
   <g id="line2d_23">
    <path clip-path="url(#pa6a8744682)" d="M 84.510077 280.126427 
L 87.949791 275.714321 
L 91.389504 271.330201 
L 94.829218 266.975616 
L 98.268932 262.652185 
L 101.708645 258.361606 
L 105.148359 254.105655 
L 108.588072 249.886189 
L 112.027786 245.705145 
L 115.467499 241.564547 
L 118.907213 237.466503 
L 122.346926 233.413206 
L 125.78664 229.406939 
L 129.226354 225.450072 
L 132.666067 221.545061 
L 136.105781 217.694451 
L 139.545494 213.900875 
L 142.985208 210.167051 
L 146.424921 206.495778 
L 149.864635 202.889939 
L 153.304348 199.352493 
L 156.744062 195.886475 
L 160.183775 192.494987 
L 163.623489 189.181196 
L 167.063203 185.948325 
L 170.502916 182.799649 
L 173.94263 179.738484 
L 177.382343 176.768178 
L 180.822057 173.892104 
L 184.26177 171.113645 
L 187.701484 168.436186 
L 191.141197 165.863101 
L 194.580911 163.397735 
L 198.020624 161.043397 
L 201.460338 158.803339 
L 204.900052 156.680747 
L 208.339765 154.678718 
L 211.779479 152.800251 
L 215.219192 151.048224 
L 218.658906 149.425386 
L 222.098619 147.934333 
L 225.538333 146.577499 
L 228.978046 145.357136 
L 232.41776 144.275301 
L 235.857474 143.333846 
L 239.297187 142.534401 
L 242.736901 141.878366 
L 246.176614 141.366899 
L 249.616328 141.000909 
L 253.056041 140.781053 
L 256.495755 140.707723 
L 259.935468 140.781053 
L 263.375182 141.000909 
L 266.814895 141.366899 
L 270.254609 141.878366 
L 273.694323 142.534401 
L 277.134036 143.333846 
L 280.57375 144.275301 
L 284.013463 145.357136 
L 287.453177 146.577499 
L 290.89289 147.934333 
L 294.332604 149.425386 
L 297.772317 151.048224 
L 301.212031 152.800251 
L 304.651744 154.678718 
L 308.091458 156.680747 
L 311.531172 158.803339 
L 314.970885 161.043397 
L 318.410599 163.397735 
L 321.850312 165.863101 
L 325.290026 168.436186 
L 328.729739 171.113645 
L 332.169453 173.892104 
L 335.609166 176.768178 
L 339.04888 179.738484 
L 342.488594 182.799649 
L 345.928307 185.948325 
L 349.368021 189.181196 
L 352.807734 192.494987 
L 356.247448 195.886475 
L 359.687161 199.352493 
L 363.126875 202.889939 
L 366.566588 206.495778 
L 370.006302 210.167051 
L 373.446015 213.900875 
L 376.885729 217.694451 
L 380.325443 221.545061 
L 383.765156 225.450072 
L 387.20487 229.406939 
L 390.644583 233.413206 
L 394.084297 237.466503 
L 397.52401 241.564547 
L 400.963724 245.705145 
L 404.403437 249.886189 
L 407.843151 254.105655 
L 411.282865 258.361606 
L 414.722578 262.652185 
L 418.162292 266.975616 
L 421.602005 271.330201 
L 425.041719 275.714321 
L 428.481432 280.126427 
" style="fill:none;stroke:#89bedc;stroke-linecap:square;stroke-width:1.5;"/>
   </g>
   <g id="patch_3">
    <path d="M 67.31151 292.745781 
L 67.31151 15.12 
" style="fill:none;stroke:#000000;stroke-linecap:square;stroke-linejoin:miter;stroke-width:0.8;"/>
   </g>
   <g id="patch_4">
    <path d="M 445.68 292.745781 
L 445.68 15.12 
" style="fill:none;stroke:#000000;stroke-linecap:square;stroke-linejoin:miter;stroke-width:0.8;"/>
   </g>
   <g id="patch_5">
    <path d="M 67.31151 292.745781 
L 445.68 292.745781 
" style="fill:none;stroke:#000000;stroke-linecap:square;stroke-linejoin:miter;stroke-width:0.8;"/>
   </g>
   <g id="patch_6">
    <path d="M 67.31151 15.12 
L 445.68 15.12 
" style="fill:none;stroke:#000000;stroke-linecap:square;stroke-linejoin:miter;stroke-width:0.8;"/>
   </g>
   <g id="legend_1">
    <g id="patch_7">
     <path d="M 350.283858 105.598242 
L 435.88 105.598242 
Q 438.68 105.598242 438.68 102.798242 
L 438.68 24.92 
Q 438.68 22.12 435.88 22.12 
L 350.283858 22.12 
Q 347.483858 22.12 347.483858 24.92 
L 347.483858 102.798242 
Q 347.483858 105.598242 350.283858 105.598242 
z
" style="fill:#ffffff;opacity:0.8;stroke:#cccccc;stroke-linejoin:miter;"/>
    </g>
    <g id="line2d_24">
     <path d="M 353.083858 32.62 
L 381.083858 32.62 
" style="fill:none;stroke:#0b559f;stroke-linecap:square;stroke-width:1.5;"/>
    </g>
    <g id="line2d_25"/>
    <g id="text_19">
     <!-- $\gamma=0.1$ -->
     <g transform="translate(392.283858 37.52)scale(0.14 -0.14)">
      <defs>
       <path d="M 3674 2138 
L 3674 2496 
L 397 2496 
L 397 2138 
L 3674 2138 
z
M 3674 832 
L 3674 1190 
L 397 1190 
L 397 832 
L 3674 832 
z
" id="rtxr-3d" transform="scale(0.015625)"/>
      </defs>
      <use transform="scale(0.996264)" xlink:href="#rtxmi-d"/>
      <use transform="translate(78.079319 0)scale(0.996264)" xlink:href="#rtxr-3d"/>
      <use transform="translate(163.580816 0)scale(0.996264)" xlink:href="#TeXGyreTermes-Regular-30"/>
      <use transform="translate(214.988015 0)scale(0.996264)" xlink:href="#rtxmi-3a"/>
      <use transform="translate(241.588276 0)scale(0.996264)" xlink:href="#TeXGyreTermes-Regular-31"/>
     </g>
    </g>
    <g id="line2d_26">
     <path d="M 353.083858 52.43956 
L 381.083858 52.43956 
" style="fill:none;stroke:#2b7bba;stroke-linecap:square;stroke-width:1.5;"/>
    </g>
    <g id="line2d_27"/>
    <g id="text_20">
     <!-- $\gamma=0.3$ -->
     <g transform="translate(392.283858 57.33956)scale(0.14 -0.14)">
      <defs>
       <path d="M 2765 1428 
C 2765 1754 2662 2055 2477 2253 
C 2349 2394 2227 2471 1946 2592 
C 2387 2893 2547 3130 2547 3476 
C 2547 3994 2138 4352 1549 4352 
C 1229 4352 947 4244 717 4039 
C 525 3866 429 3699 288 3315 
L 384 3290 
C 646 3757 934 3968 1338 3968 
C 1754 3968 2042 3687 2042 3284 
C 2042 3053 1946 2823 1786 2663 
C 1594 2471 1414 2375 979 2221 
L 979 2138 
C 1357 2138 1504 2125 1658 2068 
C 2054 1927 2304 1562 2304 1120 
C 2304 583 1939 167 1466 167 
C 1293 167 1165 212 928 365 
C 736 480 627 525 518 525 
C 371 525 275 436 275 301 
C 275 77 550 -64 998 -64 
C 1491 -64 1997 103 2298 365 
C 2598 628 2765 999 2765 1428 
z
" id="TeXGyreTermes-Regular-33" transform="scale(0.015625)"/>
      </defs>
      <use transform="scale(0.996264)" xlink:href="#rtxmi-d"/>
      <use transform="translate(78.079319 0)scale(0.996264)" xlink:href="#rtxr-3d"/>
      <use transform="translate(163.580816 0)scale(0.996264)" xlink:href="#TeXGyreTermes-Regular-30"/>
      <use transform="translate(214.988015 0)scale(0.996264)" xlink:href="#rtxmi-3a"/>
      <use transform="translate(241.588276 0)scale(0.996264)" xlink:href="#TeXGyreTermes-Regular-33"/>
     </g>
    </g>
    <g id="line2d_28">
     <path d="M 353.083858 72.259121 
L 381.083858 72.259121 
" style="fill:none;stroke:#539ecd;stroke-linecap:square;stroke-width:1.5;"/>
    </g>
    <g id="line2d_29"/>
    <g id="text_21">
     <!-- $\gamma=0.6$ -->
     <g transform="translate(392.283858 77.159121)scale(0.14 -0.14)">
      <use transform="scale(0.996264)" xlink:href="#rtxmi-d"/>
      <use transform="translate(78.079319 0)scale(0.996264)" xlink:href="#rtxr-3d"/>
      <use transform="translate(163.580816 0)scale(0.996264)" xlink:href="#TeXGyreTermes-Regular-30"/>
      <use transform="translate(214.988015 0)scale(0.996264)" xlink:href="#rtxmi-3a"/>
      <use transform="translate(241.588276 0)scale(0.996264)" xlink:href="#TeXGyreTermes-Regular-36"/>
     </g>
    </g>
    <g id="line2d_30">
     <path d="M 353.083858 92.078681 
L 381.083858 92.078681 
" style="fill:none;stroke:#89bedc;stroke-linecap:square;stroke-width:1.5;"/>
    </g>
    <g id="line2d_31"/>
    <g id="text_22">
     <!-- $\gamma=1.0$ -->
     <g transform="translate(392.283858 96.978681)scale(0.14 -0.14)">
      <use transform="scale(0.996264)" xlink:href="#rtxmi-d"/>
      <use transform="translate(78.079319 0)scale(0.996264)" xlink:href="#rtxr-3d"/>
      <use transform="translate(163.580816 0)scale(0.996264)" xlink:href="#TeXGyreTermes-Regular-31"/>
      <use transform="translate(214.988015 0)scale(0.996264)" xlink:href="#rtxmi-3a"/>
      <use transform="translate(241.588276 0)scale(0.996264)" xlink:href="#TeXGyreTermes-Regular-30"/>
     </g>
    </g>
   </g>
  </g>
 </g>
 <defs>
  <clipPath id="pa6a8744682">
   <rect height="277.625781" width="378.36849" x="67.31151" y="15.12"/>
  </clipPath>
 </defs>
</svg>
