<?xml version="1.0" encoding="utf-8" standalone="no"?>
<!DOCTYPE svg PUBLIC "-//W3C//DTD SVG 1.1//EN"
  "http://www.w3.org/Graphics/SVG/1.1/DTD/svg11.dtd">
<svg height="345.6pt" version="1.1" viewBox="0 0 460.8 345.6" width="460.8pt" xmlns="http://www.w3.org/2000/svg" xmlns:xlink="http://www.w3.org/1999/xlink">
 <metadata>
  <rdf:RDF xmlns:cc="http://creativecommons.org/ns#" xmlns:dc="http://purl.org/dc/elements/1.1/" xmlns:rdf="http://www.w3.org/1999/02/22-rdf-syntax-ns#">
   <cc:Work>
    <dc:type rdf:resource="http://purl.org/dc/dcmitype/StillImage"/>
    <dc:date>2021-05-11T13:48:55.152193</dc:date>
    <dc:format>image/svg+xml</dc:format>
    <dc:creator>
     <cc:Agent>
      <dc:title>Matplotlib v3.4.1, https://matplotlib.org/</dc:title>
     </cc:Agent>
    </dc:creator>
   </cc:Work>
  </rdf:RDF>
 </metadata>
 <defs>
  <style type="text/css">*{stroke-linecap:butt;stroke-linejoin:round;}</style>
 </defs>
 <g id="figure_1">
  <g id="patch_1">
   <path d="M 0 345.6 
L 460.8 345.6 
L 460.8 0 
L 0 0 
z
" style="fill:#f9fafb;"/>
  </g>
  <g id="axes_1">
   <g id="patch_2">
    <path d="M 59.664177 296.31034 
L 445.68 296.31034 
L 445.68 15.12 
L 59.664177 15.12 
z
" style="fill:#f9fafb;"/>
   </g>
   <g id="matplotlib.axis_1">
    <g id="xtick_1">
     <g id="line2d_1">
      <defs>
       <path d="M 0 0 
L 0 3.5 
" id="mc55d28968a" style="stroke:#000000;stroke-width:0.8;"/>
      </defs>
      <g>
       <use style="stroke:#000000;stroke-width:0.8;" x="77.210351" xlink:href="#mc55d28968a" y="296.31034"/>
      </g>
     </g>
     <g id="text_1">
      <!-- $\mathdefault{−1.5}$ -->
      <g transform="translate(67.651212 310.064918)scale(0.1 -0.1)">
       <defs>
        <path d="M 3673 1469 
L 3673 1827 
L 396 1827 
L 396 1469 
L 3673 1469 
z
" id="txsys-0" transform="scale(0.015625)"/>
        <path d="M 2522 0 
L 2522 96 
C 2016 96 1914 160 1914 470 
L 1914 4327 
L 1862 4339 
L 710 3757 
L 710 3667 
C 787 3699 858 3725 883 3738 
C 998 3783 1107 3808 1171 3808 
C 1306 3808 1363 3711 1363 3505 
L 1363 592 
C 1363 379 1312 232 1210 173 
C 1114 116 1024 96 755 96 
L 755 0 
L 2522 0 
z
" id="TeXGyreTermes-Regular-31" transform="scale(0.015625)"/>
        <path d="M 1158 281 
C 1158 480 992 646 800 646 
C 608 646 448 486 448 281 
C 448 38 666 -64 800 -64 
C 934 -64 1158 44 1158 281 
z
" id="rtxmi-3a" transform="scale(0.015625)"/>
        <path d="M 2803 4345 
L 2746 4390 
C 2650 4256 2586 4224 2451 4224 
L 1114 4224 
L 416 2705 
C 410 2692 410 2673 410 2673 
C 410 2641 435 2622 486 2622 
C 691 2622 947 2577 1210 2494 
C 1946 2256 2285 1859 2285 1225 
C 2285 609 1894 128 1395 128 
C 1267 128 1158 173 966 314 
C 762 462 614 526 480 526 
C 294 526 205 449 205 289 
C 205 45 506 -109 986 -109 
C 1523 -109 1984 64 2304 392 
C 2598 680 2733 1045 2733 1533 
C 2733 1994 2611 2289 2291 2609 
C 2010 2892 1645 3039 890 3173 
L 1158 3718 
L 2413 3718 
C 2515 3718 2541 3731 2560 3776 
L 2803 4345 
z
" id="TeXGyreTermes-Regular-35" transform="scale(0.015625)"/>
       </defs>
       <use transform="scale(0.996264)" xlink:href="#txsys-0"/>
       <use transform="translate(63.362352 0)scale(0.996264)" xlink:href="#TeXGyreTermes-Regular-31"/>
       <use transform="translate(114.76955 0)scale(0.996264)" xlink:href="#rtxmi-3a"/>
       <use transform="translate(141.369811 0)scale(0.996264)" xlink:href="#TeXGyreTermes-Regular-35"/>
      </g>
     </g>
    </g>
    <g id="xtick_2">
     <g id="line2d_2">
      <g>
       <use style="stroke:#000000;stroke-width:0.8;" x="135.697597" xlink:href="#mc55d28968a" y="296.31034"/>
      </g>
     </g>
     <g id="text_2">
      <!-- $\mathdefault{−1.0}$ -->
      <g transform="translate(126.138457 310.064918)scale(0.1 -0.1)">
       <defs>
        <path d="M 3046 2138 
C 3046 3450 2464 4352 1626 4352 
C 1274 4352 1005 4244 768 4020 
C 397 3661 154 2925 154 2176 
C 154 1479 365 730 666 372 
C 902 90 1229 -64 1600 -64 
C 1926 -64 2202 45 2432 269 
C 2803 621 3046 1364 3046 2138 
z
M 2432 2125 
C 2432 788 2150 103 1600 103 
C 1050 103 768 788 768 2119 
C 768 3476 1056 4186 1606 4186 
C 2144 4186 2432 3463 2432 2125 
z
" id="TeXGyreTermes-Regular-30" transform="scale(0.015625)"/>
       </defs>
       <use transform="scale(0.996264)" xlink:href="#txsys-0"/>
       <use transform="translate(63.362352 0)scale(0.996264)" xlink:href="#TeXGyreTermes-Regular-31"/>
       <use transform="translate(114.76955 0)scale(0.996264)" xlink:href="#rtxmi-3a"/>
       <use transform="translate(141.369811 0)scale(0.996264)" xlink:href="#TeXGyreTermes-Regular-30"/>
      </g>
     </g>
    </g>
    <g id="xtick_3">
     <g id="line2d_3">
      <g>
       <use style="stroke:#000000;stroke-width:0.8;" x="194.184843" xlink:href="#mc55d28968a" y="296.31034"/>
      </g>
     </g>
     <g id="text_3">
      <!-- $\mathdefault{−0.5}$ -->
      <g transform="translate(184.625703 310.064918)scale(0.1 -0.1)">
       <use transform="scale(0.996264)" xlink:href="#txsys-0"/>
       <use transform="translate(63.362352 0)scale(0.996264)" xlink:href="#TeXGyreTermes-Regular-30"/>
       <use transform="translate(114.76955 0)scale(0.996264)" xlink:href="#rtxmi-3a"/>
       <use transform="translate(141.369811 0)scale(0.996264)" xlink:href="#TeXGyreTermes-Regular-35"/>
      </g>
     </g>
    </g>
    <g id="xtick_4">
     <g id="line2d_4">
      <g>
       <use style="stroke:#000000;stroke-width:0.8;" x="252.672088" xlink:href="#mc55d28968a" y="296.31034"/>
      </g>
     </g>
     <g id="text_4">
      <!-- $\mathdefault{0.0}$ -->
      <g transform="translate(246.281062 310.064918)scale(0.1 -0.1)">
       <use transform="scale(0.996264)" xlink:href="#TeXGyreTermes-Regular-30"/>
       <use transform="translate(51.407199 0)scale(0.996264)" xlink:href="#rtxmi-3a"/>
       <use transform="translate(78.00746 0)scale(0.996264)" xlink:href="#TeXGyreTermes-Regular-30"/>
      </g>
     </g>
    </g>
    <g id="xtick_5">
     <g id="line2d_5">
      <g>
       <use style="stroke:#000000;stroke-width:0.8;" x="311.159334" xlink:href="#mc55d28968a" y="296.31034"/>
      </g>
     </g>
     <g id="text_5">
      <!-- $\mathdefault{0.5}$ -->
      <g transform="translate(304.768307 310.064918)scale(0.1 -0.1)">
       <use transform="scale(0.996264)" xlink:href="#TeXGyreTermes-Regular-30"/>
       <use transform="translate(51.407199 0)scale(0.996264)" xlink:href="#rtxmi-3a"/>
       <use transform="translate(78.00746 0)scale(0.996264)" xlink:href="#TeXGyreTermes-Regular-35"/>
      </g>
     </g>
    </g>
    <g id="xtick_6">
     <g id="line2d_6">
      <g>
       <use style="stroke:#000000;stroke-width:0.8;" x="369.64658" xlink:href="#mc55d28968a" y="296.31034"/>
      </g>
     </g>
     <g id="text_6">
      <!-- $\mathdefault{1.0}$ -->
      <g transform="translate(363.255553 310.064918)scale(0.1 -0.1)">
       <use transform="scale(0.996264)" xlink:href="#TeXGyreTermes-Regular-31"/>
       <use transform="translate(51.407199 0)scale(0.996264)" xlink:href="#rtxmi-3a"/>
       <use transform="translate(78.00746 0)scale(0.996264)" xlink:href="#TeXGyreTermes-Regular-30"/>
      </g>
     </g>
    </g>
    <g id="xtick_7">
     <g id="line2d_7">
      <g>
       <use style="stroke:#000000;stroke-width:0.8;" x="428.133826" xlink:href="#mc55d28968a" y="296.31034"/>
      </g>
     </g>
     <g id="text_7">
      <!-- $\mathdefault{1.5}$ -->
      <g transform="translate(421.742799 310.064918)scale(0.1 -0.1)">
       <use transform="scale(0.996264)" xlink:href="#TeXGyreTermes-Regular-31"/>
       <use transform="translate(51.407199 0)scale(0.996264)" xlink:href="#rtxmi-3a"/>
       <use transform="translate(78.00746 0)scale(0.996264)" xlink:href="#TeXGyreTermes-Regular-35"/>
      </g>
     </g>
    </g>
    <g id="text_8">
     <!-- $a$ -->
     <g transform="translate(248.687032 327.029074)scale(0.16 -0.16)">
      <defs>
       <path d="M 2970 708 
C 2874 612 2835 580 2790 529 
C 2598 332 2515 268 2458 268 
C 2406 268 2368 306 2368 351 
C 2368 479 2637 1568 2938 2663 
C 2957 2727 2963 2740 2976 2797 
L 2931 2816 
L 2541 2772 
L 2522 2753 
L 2451 2447 
C 2400 2682 2214 2816 1939 2816 
C 1094 2816 109 1650 109 644 
C 109 197 352 -64 762 -64 
C 1210 -64 1485 147 2048 937 
C 1920 437 1901 353 1901 199 
C 1901 13 1978 -64 2157 -64 
C 2413 -64 2573 58 3046 644 
L 2970 708 
z
M 1978 2670 
C 2195 2670 2336 2517 2336 2293 
C 2336 1757 2016 1002 1574 530 
C 1421 357 1203 249 1018 249 
C 794 249 646 433 646 726 
C 646 1069 890 1723 1165 2117 
C 1421 2486 1722 2689 1978 2670 
z
" id="NimbusRomNo9L-ReguItal-61" transform="scale(0.015625)"/>
      </defs>
      <use transform="scale(0.996264)" xlink:href="#NimbusRomNo9L-ReguItal-61"/>
     </g>
    </g>
   </g>
   <g id="matplotlib.axis_2">
    <g id="ytick_1">
     <g id="line2d_8">
      <defs>
       <path d="M 0 0 
L -3.5 0 
" id="m85ba2478ae" style="stroke:#000000;stroke-width:0.8;"/>
      </defs>
      <g>
       <use style="stroke:#000000;stroke-width:0.8;" x="59.664177" xlink:href="#m85ba2478ae" y="292.015722"/>
      </g>
     </g>
     <g id="text_9">
      <!-- $\mathdefault{−1.6}$ -->
      <g transform="translate(33.545899 295.393011)scale(0.1 -0.1)">
       <defs>
        <path d="M 2995 1421 
C 2995 2236 2528 2752 1792 2752 
C 1510 2752 1376 2707 973 2464 
C 1146 3431 1862 4122 2867 4288 
L 2854 4391 
C 2125 4327 1754 4206 1286 3880 
C 595 3389 218 2661 218 1807 
C 218 1251 390 690 666 371 
C 909 90 1254 -64 1651 -64 
C 2445 -64 2995 541 2995 1421 
z
M 2419 1204 
C 2419 504 2170 116 1722 116 
C 1158 116 813 714 813 1700 
C 813 2025 864 2203 992 2299 
C 1126 2400 1325 2458 1549 2458 
C 2099 2458 2419 2000 2419 1204 
z
" id="TeXGyreTermes-Regular-36" transform="scale(0.015625)"/>
       </defs>
       <use transform="scale(0.996264)" xlink:href="#txsys-0"/>
       <use transform="translate(63.362352 0)scale(0.996264)" xlink:href="#TeXGyreTermes-Regular-31"/>
       <use transform="translate(114.76955 0)scale(0.996264)" xlink:href="#rtxmi-3a"/>
       <use transform="translate(141.369811 0)scale(0.996264)" xlink:href="#TeXGyreTermes-Regular-36"/>
      </g>
     </g>
    </g>
    <g id="ytick_2">
     <g id="line2d_9">
      <g>
       <use style="stroke:#000000;stroke-width:0.8;" x="59.664177" xlink:href="#m85ba2478ae" y="259.001429"/>
      </g>
     </g>
     <g id="text_10">
      <!-- $\mathdefault{−1.4}$ -->
      <g transform="translate(33.545899 262.378718)scale(0.1 -0.1)">
       <defs>
        <path d="M 3021 1088 
L 3021 1497 
L 2368 1497 
L 2368 4352 
L 2086 4352 
L 77 1497 
L 77 1088 
L 1875 1088 
L 1875 32 
L 2368 32 
L 2368 1088 
L 3021 1088 
z
M 1869 1497 
L 333 1497 
L 1869 3698 
L 1869 1497 
z
" id="TeXGyreTermes-Regular-34" transform="scale(0.015625)"/>
       </defs>
       <use transform="scale(0.996264)" xlink:href="#txsys-0"/>
       <use transform="translate(63.362352 0)scale(0.996264)" xlink:href="#TeXGyreTermes-Regular-31"/>
       <use transform="translate(114.76955 0)scale(0.996264)" xlink:href="#rtxmi-3a"/>
       <use transform="translate(141.369811 0)scale(0.996264)" xlink:href="#TeXGyreTermes-Regular-34"/>
      </g>
     </g>
    </g>
    <g id="ytick_3">
     <g id="line2d_10">
      <g>
       <use style="stroke:#000000;stroke-width:0.8;" x="59.664177" xlink:href="#m85ba2478ae" y="225.987136"/>
      </g>
     </g>
     <g id="text_11">
      <!-- $\mathdefault{−1.2}$ -->
      <g transform="translate(33.545899 229.364425)scale(0.1 -0.1)">
       <defs>
        <path d="M 3040 875 
L 2957 907 
C 2720 544 2637 486 2349 486 
L 819 486 
L 1894 1609 
C 2464 2202 2714 2687 2714 3185 
C 2714 3823 2195 4313 1530 4313 
C 1178 4313 845 4173 608 3918 
C 403 3700 307 3496 198 3043 
L 333 3011 
C 589 3636 819 3840 1261 3840 
C 1798 3840 2163 3476 2163 2940 
C 2163 2443 1869 1850 1331 1282 
L 192 77 
L 192 0 
L 2688 0 
L 3040 875 
z
" id="TeXGyreTermes-Regular-32" transform="scale(0.015625)"/>
       </defs>
       <use transform="scale(0.996264)" xlink:href="#txsys-0"/>
       <use transform="translate(63.362352 0)scale(0.996264)" xlink:href="#TeXGyreTermes-Regular-31"/>
       <use transform="translate(114.76955 0)scale(0.996264)" xlink:href="#rtxmi-3a"/>
       <use transform="translate(141.369811 0)scale(0.996264)" xlink:href="#TeXGyreTermes-Regular-32"/>
      </g>
     </g>
    </g>
    <g id="ytick_4">
     <g id="line2d_11">
      <g>
       <use style="stroke:#000000;stroke-width:0.8;" x="59.664177" xlink:href="#m85ba2478ae" y="192.972844"/>
      </g>
     </g>
     <g id="text_12">
      <!-- $\mathdefault{−1.0}$ -->
      <g transform="translate(33.545899 196.350132)scale(0.1 -0.1)">
       <use transform="scale(0.996264)" xlink:href="#txsys-0"/>
       <use transform="translate(63.362352 0)scale(0.996264)" xlink:href="#TeXGyreTermes-Regular-31"/>
       <use transform="translate(114.76955 0)scale(0.996264)" xlink:href="#rtxmi-3a"/>
       <use transform="translate(141.369811 0)scale(0.996264)" xlink:href="#TeXGyreTermes-Regular-30"/>
      </g>
     </g>
    </g>
    <g id="ytick_5">
     <g id="line2d_12">
      <g>
       <use style="stroke:#000000;stroke-width:0.8;" x="59.664177" xlink:href="#m85ba2478ae" y="159.958551"/>
      </g>
     </g>
     <g id="text_13">
      <!-- $\mathdefault{−0.8}$ -->
      <g transform="translate(33.545899 163.335839)scale(0.1 -0.1)">
       <defs>
        <path d="M 2848 1018 
C 2848 1511 2630 1824 1856 2400 
C 2490 2740 2714 3008 2714 3444 
C 2714 3968 2253 4352 1613 4352 
C 915 4352 397 3924 397 3341 
C 397 2925 518 2740 1190 2151 
C 499 1626 358 1428 358 992 
C 358 372 864 -64 1587 -64 
C 2355 -64 2848 359 2848 1018 
z
M 2362 820 
C 2362 404 2074 116 1658 116 
C 1171 116 845 487 845 1044 
C 845 1453 986 1722 1357 2023 
L 1741 1741 
C 2208 1408 2362 1178 2362 820 
z
M 2272 3450 
C 2272 3085 2093 2797 1728 2554 
C 1696 2535 1696 2535 1670 2516 
C 1101 2887 870 3181 870 3540 
C 870 3911 1158 4173 1562 4173 
C 1997 4173 2272 3892 2272 3450 
z
" id="TeXGyreTermes-Regular-38" transform="scale(0.015625)"/>
       </defs>
       <use transform="scale(0.996264)" xlink:href="#txsys-0"/>
       <use transform="translate(63.362352 0)scale(0.996264)" xlink:href="#TeXGyreTermes-Regular-30"/>
       <use transform="translate(114.76955 0)scale(0.996264)" xlink:href="#rtxmi-3a"/>
       <use transform="translate(141.369811 0)scale(0.996264)" xlink:href="#TeXGyreTermes-Regular-38"/>
      </g>
     </g>
    </g>
    <g id="ytick_6">
     <g id="line2d_13">
      <g>
       <use style="stroke:#000000;stroke-width:0.8;" x="59.664177" xlink:href="#m85ba2478ae" y="126.944258"/>
      </g>
     </g>
     <g id="text_14">
      <!-- $\mathdefault{−0.6}$ -->
      <g transform="translate(33.545899 130.321547)scale(0.1 -0.1)">
       <use transform="scale(0.996264)" xlink:href="#txsys-0"/>
       <use transform="translate(63.362352 0)scale(0.996264)" xlink:href="#TeXGyreTermes-Regular-30"/>
       <use transform="translate(114.76955 0)scale(0.996264)" xlink:href="#rtxmi-3a"/>
       <use transform="translate(141.369811 0)scale(0.996264)" xlink:href="#TeXGyreTermes-Regular-36"/>
      </g>
     </g>
    </g>
    <g id="ytick_7">
     <g id="line2d_14">
      <g>
       <use style="stroke:#000000;stroke-width:0.8;" x="59.664177" xlink:href="#m85ba2478ae" y="93.929965"/>
      </g>
     </g>
     <g id="text_15">
      <!-- $\mathdefault{−0.4}$ -->
      <g transform="translate(33.545899 97.307254)scale(0.1 -0.1)">
       <use transform="scale(0.996264)" xlink:href="#txsys-0"/>
       <use transform="translate(63.362352 0)scale(0.996264)" xlink:href="#TeXGyreTermes-Regular-30"/>
       <use transform="translate(114.76955 0)scale(0.996264)" xlink:href="#rtxmi-3a"/>
       <use transform="translate(141.369811 0)scale(0.996264)" xlink:href="#TeXGyreTermes-Regular-34"/>
      </g>
     </g>
    </g>
    <g id="ytick_8">
     <g id="line2d_15">
      <g>
       <use style="stroke:#000000;stroke-width:0.8;" x="59.664177" xlink:href="#m85ba2478ae" y="60.915672"/>
      </g>
     </g>
     <g id="text_16">
      <!-- $\mathdefault{−0.2}$ -->
      <g transform="translate(33.545899 64.292961)scale(0.1 -0.1)">
       <use transform="scale(0.996264)" xlink:href="#txsys-0"/>
       <use transform="translate(63.362352 0)scale(0.996264)" xlink:href="#TeXGyreTermes-Regular-30"/>
       <use transform="translate(114.76955 0)scale(0.996264)" xlink:href="#rtxmi-3a"/>
       <use transform="translate(141.369811 0)scale(0.996264)" xlink:href="#TeXGyreTermes-Regular-32"/>
      </g>
     </g>
    </g>
    <g id="ytick_9">
     <g id="line2d_16">
      <g>
       <use style="stroke:#000000;stroke-width:0.8;" x="59.664177" xlink:href="#m85ba2478ae" y="27.901379"/>
      </g>
     </g>
     <g id="text_17">
      <!-- $\mathdefault{0.0}$ -->
      <g transform="translate(39.882123 31.278668)scale(0.1 -0.1)">
       <use transform="scale(0.996264)" xlink:href="#TeXGyreTermes-Regular-30"/>
       <use transform="translate(51.407199 0)scale(0.996264)" xlink:href="#rtxmi-3a"/>
       <use transform="translate(78.00746 0)scale(0.996264)" xlink:href="#TeXGyreTermes-Regular-30"/>
      </g>
     </g>
    </g>
    <g id="text_18">
     <!-- $\min^\gamma(-a, a)$ -->
     <g transform="translate(26.094972 192.787916)rotate(-90)scale(0.16 -0.16)">
      <defs>
       <path d="M 4960 0 
L 4960 96 
L 4794 115 
C 4602 115 4518 230 4518 480 
L 4518 1802 
C 4518 2559 4269 2944 3776 2944 
C 3405 2944 3078 2778 2733 2407 
C 2618 2771 2400 2944 2054 2944 
C 1773 2944 1594 2854 1062 2451 
L 1062 2931 
L 1018 2944 
C 691 2822 474 2752 122 2656 
L 122 2547 
C 205 2566 256 2573 326 2573 
C 493 2573 550 2470 550 2162 
L 550 539 
C 550 192 461 96 102 96 
L 102 0 
L 1523 0 
L 1523 96 
C 1184 96 1088 166 1088 418 
L 1088 2234 
C 1088 2234 1139 2310 1184 2355 
C 1344 2502 1619 2611 1843 2611 
C 2125 2611 2266 2385 2266 1932 
L 2266 528 
C 2266 167 2195 96 1830 96 
L 1830 0 
L 3264 0 
L 3264 96 
C 2899 96 2803 205 2803 603 
L 2803 2221 
C 2995 2496 3206 2611 3501 2611 
C 3866 2611 3981 2438 3981 1907 
L 3981 557 
C 3981 192 3930 141 3558 96 
L 3558 0 
L 4960 0 
z
" id="TeXGyreTermes-Regular-6d" transform="scale(0.015625)"/>
       <path d="M 1619 0 
L 1619 96 
C 1197 128 1146 192 1146 652 
L 1146 2920 
L 1120 2939 
L 128 2588 
L 128 2492 
L 179 2498 
C 256 2511 339 2518 397 2518 
C 550 2518 608 2415 608 2133 
L 608 642 
C 608 179 544 109 102 109 
L 102 0 
L 1619 0 
z
M 1203 3770 
C 1203 3949 1062 4096 877 4096 
C 698 4096 550 3949 550 3770 
C 550 3584 698 3444 877 3444 
C 1062 3444 1203 3584 1203 3770 
z
" id="TeXGyreTermes-Regular-69" transform="scale(0.015625)"/>
       <path d="M 3104 32 
L 3104 128 
C 2790 160 2714 237 2714 550 
L 2714 2016 
C 2714 2618 2432 2976 1958 2976 
C 1664 2976 1466 2867 1030 2458 
L 1030 2963 
L 986 2976 
C 672 2861 454 2790 102 2688 
L 102 2579 
C 141 2598 205 2605 275 2605 
C 454 2605 512 2509 512 2195 
L 512 608 
C 512 243 442 154 115 128 
L 115 32 
L 1472 32 
L 1472 128 
C 1146 154 1050 230 1050 461 
L 1050 2259 
C 1357 2547 1498 2624 1709 2624 
C 2022 2624 2176 2426 2176 2003 
L 2176 666 
C 2176 262 2093 154 1773 128 
L 1773 32 
L 3104 32 
z
" id="TeXGyreTermes-Regular-6e" transform="scale(0.015625)"/>
       <path d="M 3398 2794 
L 2931 2704 
C 2637 2014 2291 1338 1843 731 
C 1869 1360 1914 2816 998 2816 
C 570 2816 19 2240 19 1862 
C 19 1843 26 1817 51 1817 
C 192 1817 179 2363 806 2363 
C 1472 2363 1504 1052 1504 584 
C 1504 417 1498 269 1498 108 
C 1280 -175 762 -824 762 -1177 
C 762 -1293 813 -1344 934 -1344 
C 1466 -1344 1562 -252 1734 114 
C 1843 339 2112 661 2259 871 
C 2682 1472 3142 2104 3398 2794 
z
" id="rtxmi-d" transform="scale(0.015625)"/>
       <path d="M 1888 4589 
C 960 3987 307 2950 307 1645 
C 307 454 986 -749 1869 -1293 
L 1946 -1190 
C 1101 -525 858 250 858 1664 
C 858 3085 1120 3821 1946 4486 
L 1888 4589 
z
" id="txsys-b9" transform="scale(0.015625)"/>
       <path d="M 1248 12 
C 1248 544 877 627 730 627 
C 570 627 358 531 358 256 
C 358 0 589 -64 755 -64 
C 800 -64 832 -58 851 -52 
C 877 -45 896 -39 909 -39 
C 954 -39 998 -71 998 -128 
C 998 -250 896 -538 474 -807 
L 531 -928 
C 723 -864 1248 -442 1248 12 
z
" id="rtxmi-3b" transform="scale(0.015625)"/>
       <path d="M 243 4589 
L 186 4486 
C 1011 3821 1274 3085 1274 1664 
C 1274 250 1030 -525 186 -1190 
L 262 -1293 
C 1146 -749 1824 454 1824 1645 
C 1824 2950 1171 3987 243 4589 
z
" id="txsys-ba" transform="scale(0.015625)"/>
      </defs>
      <use transform="scale(0.996264)" xlink:href="#TeXGyreTermes-Regular-6d"/>
      <use transform="translate(77.509328 0)scale(0.996264)" xlink:href="#TeXGyreTermes-Regular-69"/>
      <use transform="translate(105.205455 0)scale(0.996264)" xlink:href="#TeXGyreTermes-Regular-6e"/>
      <use transform="translate(156.036825 36.164371)scale(0.727268)" xlink:href="#rtxmi-d"/>
      <use transform="translate(197.371049 0)scale(0.996264)" xlink:href="#txsys-b9"/>
      <use transform="translate(230.546659 0)scale(0.996264)" xlink:href="#txsys-0"/>
      <use transform="translate(295.204096 0)scale(0.996264)" xlink:href="#NimbusRomNo9L-ReguItal-61"/>
      <use transform="translate(342.775687 0)scale(0.996264)" xlink:href="#rtxmi-3b"/>
      <use transform="translate(376.06189 0)scale(0.996264)" xlink:href="#NimbusRomNo9L-ReguItal-61"/>
      <use transform="translate(427.618537 0)scale(0.996264)" xlink:href="#txsys-ba"/>
     </g>
    </g>
   </g>
   <g id="line2d_17">
    <path clip-path="url(#pfb30127a23)" d="M 252.672088 296.31034 
L 252.672088 15.12 
" style="fill:none;stroke:#000000;stroke-dasharray:5.55,2.4;stroke-dashoffset:0;stroke-opacity:0.5;stroke-width:1.5;"/>
   </g>
   <g id="line2d_18">
    <path clip-path="url(#pfb30127a23)" d="M 59.664177 27.901379 
L 445.68 27.901379 
" style="fill:none;stroke:#000000;stroke-dasharray:5.55,2.4;stroke-dashoffset:0;stroke-opacity:0.5;stroke-width:1.5;"/>
   </g>
   <g id="line2d_19">
    <path clip-path="url(#pfb30127a23)" d="M 77.210351 275.508576 
L 80.755032 270.50641 
L 84.299714 265.504245 
L 87.844395 260.502079 
L 91.389077 255.499913 
L 94.933759 250.497748 
L 98.47844 245.495582 
L 102.023122 240.493417 
L 105.567803 235.491251 
L 109.112485 230.489086 
L 112.657166 225.48692 
L 116.201848 220.484754 
L 119.74653 215.482589 
L 123.291211 210.480423 
L 126.835893 205.478258 
L 130.380574 200.476092 
L 133.925256 195.473926 
L 137.469937 190.471761 
L 141.014619 185.469595 
L 144.559301 180.46743 
L 148.103982 175.465264 
L 151.648664 170.463098 
L 155.193345 165.460933 
L 158.738027 160.458767 
L 162.282708 155.456602 
L 165.82739 150.454436 
L 169.372072 145.45227 
L 172.916753 140.450105 
L 176.461435 135.447939 
L 180.006116 130.445774 
L 183.550798 125.443608 
L 187.095479 120.441443 
L 190.640161 115.439277 
L 194.184843 110.437111 
L 197.729524 105.434946 
L 201.274206 100.43278 
L 204.818887 95.430615 
L 208.363569 90.428449 
L 211.90825 85.426283 
L 215.452932 80.424118 
L 218.997614 75.421952 
L 222.542295 70.419787 
L 226.086977 65.417621 
L 229.631658 60.415455 
L 233.17634 55.41329 
L 236.721021 50.411124 
L 240.265703 45.408959 
L 243.810385 40.406794 
L 247.355066 35.404813 
L 250.899748 30.480327 
L 254.444429 30.480327 
L 257.989111 35.404813 
L 261.533792 40.406794 
L 265.078474 45.408959 
L 268.623156 50.411124 
L 272.167837 55.41329 
L 275.712519 60.415455 
L 279.2572 65.417621 
L 282.801882 70.419787 
L 286.346563 75.421952 
L 289.891245 80.424118 
L 293.435927 85.426283 
L 296.980608 90.428449 
L 300.52529 95.430615 
L 304.069971 100.43278 
L 307.614653 105.434946 
L 311.159334 110.437111 
L 314.704016 115.439277 
L 318.248698 120.441443 
L 321.793379 125.443608 
L 325.338061 130.445774 
L 328.882742 135.447939 
L 332.427424 140.450105 
L 335.972105 145.45227 
L 339.516787 150.454436 
L 343.061469 155.456602 
L 346.60615 160.458767 
L 350.150832 165.460933 
L 353.695513 170.463098 
L 357.240195 175.465264 
L 360.784876 180.46743 
L 364.329558 185.469595 
L 367.87424 190.471761 
L 371.418921 195.473926 
L 374.963603 200.476092 
L 378.508284 205.478258 
L 382.052966 210.480423 
L 385.597647 215.482589 
L 389.142329 220.484754 
L 392.687011 225.48692 
L 396.231692 230.489086 
L 399.776374 235.491251 
L 403.321055 240.493417 
L 406.865737 245.495582 
L 410.410418 250.497748 
L 413.9551 255.499913 
L 417.499782 260.502079 
L 421.044463 265.504245 
L 424.589145 270.50641 
L 428.133826 275.508576 
" style="fill:none;stroke:#89bedc;stroke-linecap:square;stroke-width:1.5;"/>
   </g>
   <g id="line2d_20">
    <path clip-path="url(#pfb30127a23)" d="M 77.210351 275.508576 
L 80.755032 270.50641 
L 84.299714 265.504245 
L 87.844395 260.502079 
L 91.389077 255.499913 
L 94.933759 250.497748 
L 98.47844 245.495582 
L 102.023122 240.493417 
L 105.567803 235.491251 
L 109.112485 230.489086 
L 112.657166 225.48692 
L 116.201848 220.484754 
L 119.74653 215.482589 
L 123.291211 210.480423 
L 126.835893 205.478258 
L 130.380574 200.476092 
L 133.925256 195.473926 
L 137.469937 190.471761 
L 141.014619 185.469595 
L 144.559301 180.46743 
L 148.103982 175.465264 
L 151.648664 170.463099 
L 155.193345 165.460934 
L 158.738027 160.458769 
L 162.282708 155.456605 
L 165.82739 150.454442 
L 169.372072 145.452281 
L 172.916753 140.450125 
L 176.461435 135.447975 
L 180.006116 130.44584 
L 183.550798 125.44373 
L 187.095479 120.441666 
L 190.640161 115.439686 
L 194.184843 110.437861 
L 197.729524 105.43632 
L 201.274206 100.435298 
L 204.818887 95.435231 
L 208.363569 90.436911 
L 211.90825 85.441792 
L 215.452932 80.452537 
L 218.997614 75.474012 
L 222.542295 70.515098 
L 226.086977 65.591927 
L 229.631658 60.733599 
L 233.17634 55.991905 
L 236.721021 51.456817 
L 240.265703 47.278015 
L 243.810385 43.686207 
L 247.355066 40.992868 
L 250.899748 39.532017 
L 254.444429 39.532017 
L 257.989111 40.992868 
L 261.533792 43.686207 
L 265.078474 47.278015 
L 268.623156 51.456817 
L 272.167837 55.991905 
L 275.712519 60.733599 
L 279.2572 65.591927 
L 282.801882 70.515098 
L 286.346563 75.474012 
L 289.891245 80.452537 
L 293.435927 85.441792 
L 296.980608 90.436911 
L 300.52529 95.435231 
L 304.069971 100.435298 
L 307.614653 105.43632 
L 311.159334 110.437861 
L 314.704016 115.439686 
L 318.248698 120.441666 
L 321.793379 125.44373 
L 325.338061 130.44584 
L 328.882742 135.447975 
L 332.427424 140.450125 
L 335.972105 145.452281 
L 339.516787 150.454442 
L 343.061469 155.456605 
L 346.60615 160.458769 
L 350.150832 165.460934 
L 353.695513 170.463099 
L 357.240195 175.465264 
L 360.784876 180.46743 
L 364.329558 185.469595 
L 367.87424 190.471761 
L 371.418921 195.473926 
L 374.963603 200.476092 
L 378.508284 205.478258 
L 382.052966 210.480423 
L 385.597647 215.482589 
L 389.142329 220.484754 
L 392.687011 225.48692 
L 396.231692 230.489086 
L 399.776374 235.491251 
L 403.321055 240.493417 
L 406.865737 245.495582 
L 410.410418 250.497748 
L 413.9551 255.499913 
L 417.499782 260.502079 
L 421.044463 265.504245 
L 424.589145 270.50641 
L 428.133826 275.508576 
" style="fill:none;stroke:#539ecd;stroke-linecap:square;stroke-width:1.5;"/>
   </g>
   <g id="line2d_21">
    <path clip-path="url(#pfb30127a23)" d="M 77.210351 275.510824 
L 80.755032 270.509162 
L 84.299714 265.507612 
L 87.844395 260.5062 
L 91.389077 255.504957 
L 94.933759 250.503921 
L 98.47844 245.503137 
L 102.023122 240.502663 
L 105.567803 235.502567 
L 109.112485 230.502934 
L 112.657166 225.503869 
L 116.201848 220.505497 
L 119.74653 215.507973 
L 123.291211 210.511489 
L 126.835893 205.516276 
L 130.380574 200.522617 
L 133.925256 195.530861 
L 137.469937 190.541433 
L 141.014619 185.554852 
L 144.559301 180.571753 
L 148.103982 175.592912 
L 151.648664 170.619278 
L 155.193345 165.65201 
L 158.738027 160.69252 
L 162.282708 155.742535 
L 165.82739 150.804156 
L 169.372072 145.879946 
L 172.916753 140.973022 
L 176.461435 136.08717 
L 180.006116 131.226987 
L 183.550798 126.398039 
L 187.095479 121.607047 
L 190.640161 116.862113 
L 194.184843 112.172957 
L 197.729524 107.551204 
L 201.274206 103.010672 
L 204.818887 98.567693 
L 208.363569 94.241417 
L 211.90825 90.054095 
L 215.452932 86.031286 
L 218.997614 82.201956 
L 222.542295 78.59839 
L 226.086977 75.255863 
L 229.631658 72.21199 
L 233.17634 69.505704 
L 236.721021 67.175846 
L 240.265703 65.259402 
L 243.810385 63.78949 
L 247.355066 62.793291 
L 250.899748 62.290157 
L 254.444429 62.290157 
L 257.989111 62.793291 
L 261.533792 63.78949 
L 265.078474 65.259402 
L 268.623156 67.175846 
L 272.167837 69.505704 
L 275.712519 72.21199 
L 279.2572 75.255863 
L 282.801882 78.59839 
L 286.346563 82.201956 
L 289.891245 86.031286 
L 293.435927 90.054095 
L 296.980608 94.241417 
L 300.52529 98.567693 
L 304.069971 103.010672 
L 307.614653 107.551204 
L 311.159334 112.172957 
L 314.704016 116.862113 
L 318.248698 121.607047 
L 321.793379 126.398039 
L 325.338061 131.226987 
L 328.882742 136.08717 
L 332.427424 140.973022 
L 335.972105 145.879946 
L 339.516787 150.804156 
L 343.061469 155.742535 
L 346.60615 160.69252 
L 350.150832 165.65201 
L 353.695513 170.619278 
L 357.240195 175.592912 
L 360.784876 180.571753 
L 364.329558 185.554852 
L 367.87424 190.541433 
L 371.418921 195.530861 
L 374.963603 200.522617 
L 378.508284 205.516276 
L 382.052966 210.511489 
L 385.597647 215.507973 
L 389.142329 220.505497 
L 392.687011 225.503869 
L 396.231692 230.502934 
L 399.776374 235.502567 
L 403.321055 240.502663 
L 406.865737 245.503137 
L 410.410418 250.503921 
L 413.9551 255.504957 
L 417.499782 260.5062 
L 421.044463 265.507612 
L 424.589145 270.509162 
L 428.133826 275.510824 
" style="fill:none;stroke:#2b7bba;stroke-linecap:square;stroke-width:1.5;"/>
   </g>
   <g id="line2d_22">
    <path clip-path="url(#pfb30127a23)" d="M 77.210351 283.528961 
L 80.755032 279.015209 
L 84.299714 274.530395 
L 87.844395 270.076134 
L 91.389077 265.65412 
L 94.933759 261.266129 
L 98.47844 256.914017 
L 102.023122 252.599728 
L 105.567803 248.32529 
L 109.112485 244.092822 
L 112.657166 239.904531 
L 116.201848 235.762717 
L 119.74653 231.669772 
L 123.291211 227.628179 
L 126.835893 223.640515 
L 130.380574 219.709449 
L 133.925256 215.837743 
L 137.469937 212.028245 
L 141.014619 208.283895 
L 144.559301 204.607714 
L 148.103982 201.002808 
L 151.648664 197.472357 
L 155.193345 194.019615 
L 158.738027 190.647901 
L 162.282708 187.360592 
L 165.82739 184.161117 
L 169.372072 181.052948 
L 172.916753 178.039586 
L 176.461435 175.124556 
L 180.006116 172.311393 
L 183.550798 169.603627 
L 187.095479 167.004771 
L 190.640161 164.518309 
L 194.184843 162.147677 
L 197.729524 159.896249 
L 201.274206 157.767319 
L 204.818887 155.764089 
L 208.363569 153.889643 
L 211.90825 152.146941 
L 215.452932 150.538791 
L 218.997614 149.067841 
L 222.542295 147.736555 
L 226.086977 146.547205 
L 229.631658 145.501849 
L 233.17634 144.602322 
L 236.721021 143.850222 
L 240.265703 143.246896 
L 243.810385 142.793437 
L 247.355066 142.490669 
L 250.899748 142.339146 
L 254.444429 142.339146 
L 257.989111 142.490669 
L 261.533792 142.793437 
L 265.078474 143.246896 
L 268.623156 143.850222 
L 272.167837 144.602322 
L 275.712519 145.501849 
L 279.2572 146.547205 
L 282.801882 147.736555 
L 286.346563 149.067841 
L 289.891245 150.538791 
L 293.435927 152.146941 
L 296.980608 153.889643 
L 300.52529 155.764089 
L 304.069971 157.767319 
L 307.614653 159.896249 
L 311.159334 162.147677 
L 314.704016 164.518309 
L 318.248698 167.004771 
L 321.793379 169.603627 
L 325.338061 172.311393 
L 328.882742 175.124556 
L 332.427424 178.039586 
L 335.972105 181.052948 
L 339.516787 184.161117 
L 343.061469 187.360592 
L 346.60615 190.647901 
L 350.150832 194.019615 
L 353.695513 197.472357 
L 357.240195 201.002808 
L 360.784876 204.607714 
L 364.329558 208.283895 
L 367.87424 212.028245 
L 371.418921 215.837743 
L 374.963603 219.709449 
L 378.508284 223.640515 
L 382.052966 227.628179 
L 385.597647 231.669772 
L 389.142329 235.762717 
L 392.687011 239.904531 
L 396.231692 244.092822 
L 399.776374 248.32529 
L 403.321055 252.599728 
L 406.865737 256.914017 
L 410.410418 261.266129 
L 413.9551 265.65412 
L 417.499782 270.076134 
L 421.044463 274.530395 
L 424.589145 279.015209 
L 428.133826 283.528961 
" style="fill:none;stroke:#0b559f;stroke-linecap:square;stroke-width:1.5;"/>
   </g>
   <g id="patch_3">
    <path d="M 59.664177 296.31034 
L 59.664177 15.12 
" style="fill:none;stroke:#000000;stroke-linecap:square;stroke-linejoin:miter;stroke-width:0.8;"/>
   </g>
   <g id="patch_4">
    <path d="M 445.68 296.31034 
L 445.68 15.12 
" style="fill:none;stroke:#000000;stroke-linecap:square;stroke-linejoin:miter;stroke-width:0.8;"/>
   </g>
   <g id="patch_5">
    <path d="M 59.664177 296.31034 
L 445.68 296.31034 
" style="fill:none;stroke:#000000;stroke-linecap:square;stroke-linejoin:miter;stroke-width:0.8;"/>
   </g>
   <g id="patch_6">
    <path d="M 59.664177 15.12 
L 445.68 15.12 
" style="fill:none;stroke:#000000;stroke-linecap:square;stroke-linejoin:miter;stroke-width:0.8;"/>
   </g>
   <g id="legend_1">
    <g id="patch_7">
     <path d="M 343.31001 105.598242 
L 435.88 105.598242 
Q 438.68 105.598242 438.68 102.798242 
L 438.68 24.92 
Q 438.68 22.12 435.88 22.12 
L 343.31001 22.12 
Q 340.51001 22.12 340.51001 24.92 
L 340.51001 102.798242 
Q 340.51001 105.598242 343.31001 105.598242 
z
" style="fill:#ffffff;opacity:0.8;stroke:#cccccc;stroke-linejoin:miter;"/>
    </g>
    <g id="line2d_23">
     <path d="M 346.11001 32.62 
L 374.11001 32.62 
" style="fill:none;stroke:#89bedc;stroke-linecap:square;stroke-width:1.5;"/>
    </g>
    <g id="line2d_24"/>
    <g id="text_19">
     <!-- $\gamma=0.01$ -->
     <g transform="translate(385.31001 37.52)scale(0.14 -0.14)">
      <defs>
       <path d="M 3674 2138 
L 3674 2496 
L 397 2496 
L 397 2138 
L 3674 2138 
z
M 3674 832 
L 3674 1190 
L 397 1190 
L 397 832 
L 3674 832 
z
" id="rtxr-3d" transform="scale(0.015625)"/>
      </defs>
      <use transform="scale(0.996264)" xlink:href="#rtxmi-d"/>
      <use transform="translate(78.079319 0)scale(0.996264)" xlink:href="#rtxr-3d"/>
      <use transform="translate(163.580816 0)scale(0.996264)" xlink:href="#TeXGyreTermes-Regular-30"/>
      <use transform="translate(214.988015 0)scale(0.996264)" xlink:href="#rtxmi-3a"/>
      <use transform="translate(241.588276 0)scale(0.996264)" xlink:href="#TeXGyreTermes-Regular-30"/>
      <use transform="translate(291.401477 0)scale(0.996264)" xlink:href="#TeXGyreTermes-Regular-31"/>
     </g>
    </g>
    <g id="line2d_25">
     <path d="M 346.11001 52.43956 
L 374.11001 52.43956 
" style="fill:none;stroke:#539ecd;stroke-linecap:square;stroke-width:1.5;"/>
    </g>
    <g id="line2d_26"/>
    <g id="text_20">
     <!-- $\gamma=0.1$ -->
     <g transform="translate(385.31001 57.33956)scale(0.14 -0.14)">
      <use transform="scale(0.996264)" xlink:href="#rtxmi-d"/>
      <use transform="translate(78.079319 0)scale(0.996264)" xlink:href="#rtxr-3d"/>
      <use transform="translate(163.580816 0)scale(0.996264)" xlink:href="#TeXGyreTermes-Regular-30"/>
      <use transform="translate(214.988015 0)scale(0.996264)" xlink:href="#rtxmi-3a"/>
      <use transform="translate(241.588276 0)scale(0.996264)" xlink:href="#TeXGyreTermes-Regular-31"/>
     </g>
    </g>
    <g id="line2d_27">
     <path d="M 346.11001 72.259121 
L 374.11001 72.259121 
" style="fill:none;stroke:#2b7bba;stroke-linecap:square;stroke-width:1.5;"/>
    </g>
    <g id="line2d_28"/>
    <g id="text_21">
     <!-- $\gamma=0.3$ -->
     <g transform="translate(385.31001 77.159121)scale(0.14 -0.14)">
      <defs>
       <path d="M 2765 1428 
C 2765 1754 2662 2055 2477 2253 
C 2349 2394 2227 2471 1946 2592 
C 2387 2893 2547 3130 2547 3476 
C 2547 3994 2138 4352 1549 4352 
C 1229 4352 947 4244 717 4039 
C 525 3866 429 3699 288 3315 
L 384 3290 
C 646 3757 934 3968 1338 3968 
C 1754 3968 2042 3687 2042 3284 
C 2042 3053 1946 2823 1786 2663 
C 1594 2471 1414 2375 979 2221 
L 979 2138 
C 1357 2138 1504 2125 1658 2068 
C 2054 1927 2304 1562 2304 1120 
C 2304 583 1939 167 1466 167 
C 1293 167 1165 212 928 365 
C 736 480 627 525 518 525 
C 371 525 275 436 275 301 
C 275 77 550 -64 998 -64 
C 1491 -64 1997 103 2298 365 
C 2598 628 2765 999 2765 1428 
z
" id="TeXGyreTermes-Regular-33" transform="scale(0.015625)"/>
      </defs>
      <use transform="scale(0.996264)" xlink:href="#rtxmi-d"/>
      <use transform="translate(78.079319 0)scale(0.996264)" xlink:href="#rtxr-3d"/>
      <use transform="translate(163.580816 0)scale(0.996264)" xlink:href="#TeXGyreTermes-Regular-30"/>
      <use transform="translate(214.988015 0)scale(0.996264)" xlink:href="#rtxmi-3a"/>
      <use transform="translate(241.588276 0)scale(0.996264)" xlink:href="#TeXGyreTermes-Regular-33"/>
     </g>
    </g>
    <g id="line2d_29">
     <path d="M 346.11001 92.078681 
L 374.11001 92.078681 
" style="fill:none;stroke:#0b559f;stroke-linecap:square;stroke-width:1.5;"/>
    </g>
    <g id="line2d_30"/>
    <g id="text_22">
     <!-- $\gamma=1.0$ -->
     <g transform="translate(385.31001 96.978681)scale(0.14 -0.14)">
      <use transform="scale(0.996264)" xlink:href="#rtxmi-d"/>
      <use transform="translate(78.079319 0)scale(0.996264)" xlink:href="#rtxr-3d"/>
      <use transform="translate(163.580816 0)scale(0.996264)" xlink:href="#TeXGyreTermes-Regular-31"/>
      <use transform="translate(214.988015 0)scale(0.996264)" xlink:href="#rtxmi-3a"/>
      <use transform="translate(241.588276 0)scale(0.996264)" xlink:href="#TeXGyreTermes-Regular-30"/>
     </g>
    </g>
   </g>
  </g>
 </g>
 <defs>
  <clipPath id="pfb30127a23">
   <rect height="281.19034" width="386.015823" x="59.664177" y="15.12"/>
  </clipPath>
 </defs>
</svg>
