<?xml version="1.0" encoding="utf-8" standalone="no"?>
<!DOCTYPE svg PUBLIC "-//W3C//DTD SVG 1.1//EN"
  "http://www.w3.org/Graphics/SVG/1.1/DTD/svg11.dtd">
<svg height="345.6pt" version="1.1" viewBox="0 0 460.8 345.6" width="460.8pt" xmlns="http://www.w3.org/2000/svg" xmlns:xlink="http://www.w3.org/1999/xlink">
 <metadata>
  <rdf:RDF xmlns:cc="http://creativecommons.org/ns#" xmlns:dc="http://purl.org/dc/elements/1.1/" xmlns:rdf="http://www.w3.org/1999/02/22-rdf-syntax-ns#">
   <cc:Work>
    <dc:type rdf:resource="http://purl.org/dc/dcmitype/StillImage"/>
    <dc:date>2021-05-11T14:04:35.522109</dc:date>
    <dc:format>image/svg+xml</dc:format>
    <dc:creator>
     <cc:Agent>
      <dc:title>Matplotlib v3.4.1, https://matplotlib.org/</dc:title>
     </cc:Agent>
    </dc:creator>
   </cc:Work>
  </rdf:RDF>
 </metadata>
 <defs>
  <style type="text/css">*{stroke-linecap:butt;stroke-linejoin:round;}</style>
 </defs>
 <g id="figure_1">
  <g id="patch_1">
   <path d="M 0 345.6 
L 460.8 345.6 
L 460.8 0 
L 0 0 
z
" style="fill:#f9fafb;"/>
  </g>
  <g id="axes_1">
   <g id="patch_2">
    <path d="M 67.31151 292.745781 
L 445.68 292.745781 
L 445.68 15.12 
L 67.31151 15.12 
z
" style="fill:#f9fafb;"/>
   </g>
   <g id="matplotlib.axis_1">
    <g id="xtick_1">
     <g id="line2d_1">
      <defs>
       <path d="M 0 0 
L 0 3.5 
" id="mc2c87ddee9" style="stroke:#000000;stroke-width:0.8;"/>
      </defs>
      <g>
       <use style="stroke:#000000;stroke-width:0.8;" x="84.510077" xlink:href="#mc2c87ddee9" y="292.745781"/>
      </g>
     </g>
     <g id="text_1">
      <!-- $\mathdefault{−1.5}$ -->
      <g transform="translate(71.127272 309.202186)scale(0.14 -0.14)">
       <defs>
        <path d="M 3673 1469 
L 3673 1827 
L 396 1827 
L 396 1469 
L 3673 1469 
z
" id="txsys-0" transform="scale(0.015625)"/>
        <path d="M 2522 0 
L 2522 96 
C 2016 96 1914 160 1914 470 
L 1914 4327 
L 1862 4339 
L 710 3757 
L 710 3667 
C 787 3699 858 3725 883 3738 
C 998 3783 1107 3808 1171 3808 
C 1306 3808 1363 3711 1363 3505 
L 1363 592 
C 1363 379 1312 232 1210 173 
C 1114 116 1024 96 755 96 
L 755 0 
L 2522 0 
z
" id="TeXGyreTermes-Regular-31" transform="scale(0.015625)"/>
        <path d="M 1158 281 
C 1158 480 992 646 800 646 
C 608 646 448 486 448 281 
C 448 38 666 -64 800 -64 
C 934 -64 1158 44 1158 281 
z
" id="rtxmi-3a" transform="scale(0.015625)"/>
        <path d="M 2803 4345 
L 2746 4390 
C 2650 4256 2586 4224 2451 4224 
L 1114 4224 
L 416 2705 
C 410 2692 410 2673 410 2673 
C 410 2641 435 2622 486 2622 
C 691 2622 947 2577 1210 2494 
C 1946 2256 2285 1859 2285 1225 
C 2285 609 1894 128 1395 128 
C 1267 128 1158 173 966 314 
C 762 462 614 526 480 526 
C 294 526 205 449 205 289 
C 205 45 506 -109 986 -109 
C 1523 -109 1984 64 2304 392 
C 2598 680 2733 1045 2733 1533 
C 2733 1994 2611 2289 2291 2609 
C 2010 2892 1645 3039 890 3173 
L 1158 3718 
L 2413 3718 
C 2515 3718 2541 3731 2560 3776 
L 2803 4345 
z
" id="TeXGyreTermes-Regular-35" transform="scale(0.015625)"/>
       </defs>
       <use transform="scale(0.996264)" xlink:href="#txsys-0"/>
       <use transform="translate(63.362352 0)scale(0.996264)" xlink:href="#TeXGyreTermes-Regular-31"/>
       <use transform="translate(114.76955 0)scale(0.996264)" xlink:href="#rtxmi-3a"/>
       <use transform="translate(141.369811 0)scale(0.996264)" xlink:href="#TeXGyreTermes-Regular-35"/>
      </g>
     </g>
    </g>
    <g id="xtick_2">
     <g id="line2d_2">
      <g>
       <use style="stroke:#000000;stroke-width:0.8;" x="141.838637" xlink:href="#mc2c87ddee9" y="292.745781"/>
      </g>
     </g>
     <g id="text_2">
      <!-- $\mathdefault{−1.0}$ -->
      <g transform="translate(128.455831 309.202186)scale(0.14 -0.14)">
       <defs>
        <path d="M 3046 2138 
C 3046 3450 2464 4352 1626 4352 
C 1274 4352 1005 4244 768 4020 
C 397 3661 154 2925 154 2176 
C 154 1479 365 730 666 372 
C 902 90 1229 -64 1600 -64 
C 1926 -64 2202 45 2432 269 
C 2803 621 3046 1364 3046 2138 
z
M 2432 2125 
C 2432 788 2150 103 1600 103 
C 1050 103 768 788 768 2119 
C 768 3476 1056 4186 1606 4186 
C 2144 4186 2432 3463 2432 2125 
z
" id="TeXGyreTermes-Regular-30" transform="scale(0.015625)"/>
       </defs>
       <use transform="scale(0.996264)" xlink:href="#txsys-0"/>
       <use transform="translate(63.362352 0)scale(0.996264)" xlink:href="#TeXGyreTermes-Regular-31"/>
       <use transform="translate(114.76955 0)scale(0.996264)" xlink:href="#rtxmi-3a"/>
       <use transform="translate(141.369811 0)scale(0.996264)" xlink:href="#TeXGyreTermes-Regular-30"/>
      </g>
     </g>
    </g>
    <g id="xtick_3">
     <g id="line2d_3">
      <g>
       <use style="stroke:#000000;stroke-width:0.8;" x="199.167196" xlink:href="#mc2c87ddee9" y="292.745781"/>
      </g>
     </g>
     <g id="text_3">
      <!-- $\mathdefault{−0.5}$ -->
      <g transform="translate(185.78439 309.202186)scale(0.14 -0.14)">
       <use transform="scale(0.996264)" xlink:href="#txsys-0"/>
       <use transform="translate(63.362352 0)scale(0.996264)" xlink:href="#TeXGyreTermes-Regular-30"/>
       <use transform="translate(114.76955 0)scale(0.996264)" xlink:href="#rtxmi-3a"/>
       <use transform="translate(141.369811 0)scale(0.996264)" xlink:href="#TeXGyreTermes-Regular-35"/>
      </g>
     </g>
    </g>
    <g id="xtick_4">
     <g id="line2d_4">
      <g>
       <use style="stroke:#000000;stroke-width:0.8;" x="256.495755" xlink:href="#mc2c87ddee9" y="292.745781"/>
      </g>
     </g>
     <g id="text_4">
      <!-- $\mathdefault{0.0}$ -->
      <g transform="translate(247.548313 309.202186)scale(0.14 -0.14)">
       <use transform="scale(0.996264)" xlink:href="#TeXGyreTermes-Regular-30"/>
       <use transform="translate(51.407199 0)scale(0.996264)" xlink:href="#rtxmi-3a"/>
       <use transform="translate(78.00746 0)scale(0.996264)" xlink:href="#TeXGyreTermes-Regular-30"/>
      </g>
     </g>
    </g>
    <g id="xtick_5">
     <g id="line2d_5">
      <g>
       <use style="stroke:#000000;stroke-width:0.8;" x="313.824314" xlink:href="#mc2c87ddee9" y="292.745781"/>
      </g>
     </g>
     <g id="text_5">
      <!-- $\mathdefault{0.5}$ -->
      <g transform="translate(304.876872 309.202186)scale(0.14 -0.14)">
       <use transform="scale(0.996264)" xlink:href="#TeXGyreTermes-Regular-30"/>
       <use transform="translate(51.407199 0)scale(0.996264)" xlink:href="#rtxmi-3a"/>
       <use transform="translate(78.00746 0)scale(0.996264)" xlink:href="#TeXGyreTermes-Regular-35"/>
      </g>
     </g>
    </g>
    <g id="xtick_6">
     <g id="line2d_6">
      <g>
       <use style="stroke:#000000;stroke-width:0.8;" x="371.152873" xlink:href="#mc2c87ddee9" y="292.745781"/>
      </g>
     </g>
     <g id="text_6">
      <!-- $\mathdefault{1.0}$ -->
      <g transform="translate(362.205431 309.202186)scale(0.14 -0.14)">
       <use transform="scale(0.996264)" xlink:href="#TeXGyreTermes-Regular-31"/>
       <use transform="translate(51.407199 0)scale(0.996264)" xlink:href="#rtxmi-3a"/>
       <use transform="translate(78.00746 0)scale(0.996264)" xlink:href="#TeXGyreTermes-Regular-30"/>
      </g>
     </g>
    </g>
    <g id="xtick_7">
     <g id="line2d_7">
      <g>
       <use style="stroke:#000000;stroke-width:0.8;" x="428.481432" xlink:href="#mc2c87ddee9" y="292.745781"/>
      </g>
     </g>
     <g id="text_7">
      <!-- $\mathdefault{1.5}$ -->
      <g transform="translate(419.53399 309.202186)scale(0.14 -0.14)">
       <use transform="scale(0.996264)" xlink:href="#TeXGyreTermes-Regular-31"/>
       <use transform="translate(51.407199 0)scale(0.996264)" xlink:href="#rtxmi-3a"/>
       <use transform="translate(78.00746 0)scale(0.996264)" xlink:href="#TeXGyreTermes-Regular-35"/>
      </g>
     </g>
    </g>
    <g id="text_8">
     <!-- $a$ -->
     <g transform="translate(252.510699 327.029074)scale(0.16 -0.16)">
      <defs>
       <path d="M 2970 708 
C 2874 612 2835 580 2790 529 
C 2598 332 2515 268 2458 268 
C 2406 268 2368 306 2368 351 
C 2368 479 2637 1568 2938 2663 
C 2957 2727 2963 2740 2976 2797 
L 2931 2816 
L 2541 2772 
L 2522 2753 
L 2451 2447 
C 2400 2682 2214 2816 1939 2816 
C 1094 2816 109 1650 109 644 
C 109 197 352 -64 762 -64 
C 1210 -64 1485 147 2048 937 
C 1920 437 1901 353 1901 199 
C 1901 13 1978 -64 2157 -64 
C 2413 -64 2573 58 3046 644 
L 2970 708 
z
M 1978 2670 
C 2195 2670 2336 2517 2336 2293 
C 2336 1757 2016 1002 1574 530 
C 1421 357 1203 249 1018 249 
C 794 249 646 433 646 726 
C 646 1069 890 1723 1165 2117 
C 1421 2486 1722 2689 1978 2670 
z
" id="NimbusRomNo9L-ReguItal-61" transform="scale(0.015625)"/>
      </defs>
      <use transform="scale(0.996264)" xlink:href="#NimbusRomNo9L-ReguItal-61"/>
     </g>
    </g>
   </g>
   <g id="matplotlib.axis_2">
    <g id="ytick_1">
     <g id="line2d_8">
      <defs>
       <path d="M 0 0 
L -3.5 0 
" id="m43ca13d179" style="stroke:#000000;stroke-width:0.8;"/>
      </defs>
      <g>
       <use style="stroke:#000000;stroke-width:0.8;" x="67.31151" xlink:href="#m43ca13d179" y="288.505604"/>
      </g>
     </g>
     <g id="text_9">
      <!-- $\mathdefault{−1.6}$ -->
      <g transform="translate(33.545899 293.233807)scale(0.14 -0.14)">
       <defs>
        <path d="M 2995 1421 
C 2995 2236 2528 2752 1792 2752 
C 1510 2752 1376 2707 973 2464 
C 1146 3431 1862 4122 2867 4288 
L 2854 4391 
C 2125 4327 1754 4206 1286 3880 
C 595 3389 218 2661 218 1807 
C 218 1251 390 690 666 371 
C 909 90 1254 -64 1651 -64 
C 2445 -64 2995 541 2995 1421 
z
M 2419 1204 
C 2419 504 2170 116 1722 116 
C 1158 116 813 714 813 1700 
C 813 2025 864 2203 992 2299 
C 1126 2400 1325 2458 1549 2458 
C 2099 2458 2419 2000 2419 1204 
z
" id="TeXGyreTermes-Regular-36" transform="scale(0.015625)"/>
       </defs>
       <use transform="scale(0.996264)" xlink:href="#txsys-0"/>
       <use transform="translate(63.362352 0)scale(0.996264)" xlink:href="#TeXGyreTermes-Regular-31"/>
       <use transform="translate(114.76955 0)scale(0.996264)" xlink:href="#rtxmi-3a"/>
       <use transform="translate(141.369811 0)scale(0.996264)" xlink:href="#TeXGyreTermes-Regular-36"/>
      </g>
     </g>
    </g>
    <g id="ytick_2">
     <g id="line2d_9">
      <g>
       <use style="stroke:#000000;stroke-width:0.8;" x="67.31151" xlink:href="#m43ca13d179" y="255.909823"/>
      </g>
     </g>
     <g id="text_10">
      <!-- $\mathdefault{−1.4}$ -->
      <g transform="translate(33.545899 260.638026)scale(0.14 -0.14)">
       <defs>
        <path d="M 3021 1088 
L 3021 1497 
L 2368 1497 
L 2368 4352 
L 2086 4352 
L 77 1497 
L 77 1088 
L 1875 1088 
L 1875 32 
L 2368 32 
L 2368 1088 
L 3021 1088 
z
M 1869 1497 
L 333 1497 
L 1869 3698 
L 1869 1497 
z
" id="TeXGyreTermes-Regular-34" transform="scale(0.015625)"/>
       </defs>
       <use transform="scale(0.996264)" xlink:href="#txsys-0"/>
       <use transform="translate(63.362352 0)scale(0.996264)" xlink:href="#TeXGyreTermes-Regular-31"/>
       <use transform="translate(114.76955 0)scale(0.996264)" xlink:href="#rtxmi-3a"/>
       <use transform="translate(141.369811 0)scale(0.996264)" xlink:href="#TeXGyreTermes-Regular-34"/>
      </g>
     </g>
    </g>
    <g id="ytick_3">
     <g id="line2d_10">
      <g>
       <use style="stroke:#000000;stroke-width:0.8;" x="67.31151" xlink:href="#m43ca13d179" y="223.314042"/>
      </g>
     </g>
     <g id="text_11">
      <!-- $\mathdefault{−1.2}$ -->
      <g transform="translate(33.545899 228.042244)scale(0.14 -0.14)">
       <defs>
        <path d="M 3040 875 
L 2957 907 
C 2720 544 2637 486 2349 486 
L 819 486 
L 1894 1609 
C 2464 2202 2714 2687 2714 3185 
C 2714 3823 2195 4313 1530 4313 
C 1178 4313 845 4173 608 3918 
C 403 3700 307 3496 198 3043 
L 333 3011 
C 589 3636 819 3840 1261 3840 
C 1798 3840 2163 3476 2163 2940 
C 2163 2443 1869 1850 1331 1282 
L 192 77 
L 192 0 
L 2688 0 
L 3040 875 
z
" id="TeXGyreTermes-Regular-32" transform="scale(0.015625)"/>
       </defs>
       <use transform="scale(0.996264)" xlink:href="#txsys-0"/>
       <use transform="translate(63.362352 0)scale(0.996264)" xlink:href="#TeXGyreTermes-Regular-31"/>
       <use transform="translate(114.76955 0)scale(0.996264)" xlink:href="#rtxmi-3a"/>
       <use transform="translate(141.369811 0)scale(0.996264)" xlink:href="#TeXGyreTermes-Regular-32"/>
      </g>
     </g>
    </g>
    <g id="ytick_4">
     <g id="line2d_11">
      <g>
       <use style="stroke:#000000;stroke-width:0.8;" x="67.31151" xlink:href="#m43ca13d179" y="190.71826"/>
      </g>
     </g>
     <g id="text_12">
      <!-- $\mathdefault{−1.0}$ -->
      <g transform="translate(33.545899 195.446463)scale(0.14 -0.14)">
       <use transform="scale(0.996264)" xlink:href="#txsys-0"/>
       <use transform="translate(63.362352 0)scale(0.996264)" xlink:href="#TeXGyreTermes-Regular-31"/>
       <use transform="translate(114.76955 0)scale(0.996264)" xlink:href="#rtxmi-3a"/>
       <use transform="translate(141.369811 0)scale(0.996264)" xlink:href="#TeXGyreTermes-Regular-30"/>
      </g>
     </g>
    </g>
    <g id="ytick_5">
     <g id="line2d_12">
      <g>
       <use style="stroke:#000000;stroke-width:0.8;" x="67.31151" xlink:href="#m43ca13d179" y="158.122479"/>
      </g>
     </g>
     <g id="text_13">
      <!-- $\mathdefault{−0.8}$ -->
      <g transform="translate(33.545899 162.850682)scale(0.14 -0.14)">
       <defs>
        <path d="M 2848 1018 
C 2848 1511 2630 1824 1856 2400 
C 2490 2740 2714 3008 2714 3444 
C 2714 3968 2253 4352 1613 4352 
C 915 4352 397 3924 397 3341 
C 397 2925 518 2740 1190 2151 
C 499 1626 358 1428 358 992 
C 358 372 864 -64 1587 -64 
C 2355 -64 2848 359 2848 1018 
z
M 2362 820 
C 2362 404 2074 116 1658 116 
C 1171 116 845 487 845 1044 
C 845 1453 986 1722 1357 2023 
L 1741 1741 
C 2208 1408 2362 1178 2362 820 
z
M 2272 3450 
C 2272 3085 2093 2797 1728 2554 
C 1696 2535 1696 2535 1670 2516 
C 1101 2887 870 3181 870 3540 
C 870 3911 1158 4173 1562 4173 
C 1997 4173 2272 3892 2272 3450 
z
" id="TeXGyreTermes-Regular-38" transform="scale(0.015625)"/>
       </defs>
       <use transform="scale(0.996264)" xlink:href="#txsys-0"/>
       <use transform="translate(63.362352 0)scale(0.996264)" xlink:href="#TeXGyreTermes-Regular-30"/>
       <use transform="translate(114.76955 0)scale(0.996264)" xlink:href="#rtxmi-3a"/>
       <use transform="translate(141.369811 0)scale(0.996264)" xlink:href="#TeXGyreTermes-Regular-38"/>
      </g>
     </g>
    </g>
    <g id="ytick_6">
     <g id="line2d_13">
      <g>
       <use style="stroke:#000000;stroke-width:0.8;" x="67.31151" xlink:href="#m43ca13d179" y="125.526698"/>
      </g>
     </g>
     <g id="text_14">
      <!-- $\mathdefault{−0.6}$ -->
      <g transform="translate(33.545899 130.2549)scale(0.14 -0.14)">
       <use transform="scale(0.996264)" xlink:href="#txsys-0"/>
       <use transform="translate(63.362352 0)scale(0.996264)" xlink:href="#TeXGyreTermes-Regular-30"/>
       <use transform="translate(114.76955 0)scale(0.996264)" xlink:href="#rtxmi-3a"/>
       <use transform="translate(141.369811 0)scale(0.996264)" xlink:href="#TeXGyreTermes-Regular-36"/>
      </g>
     </g>
    </g>
    <g id="ytick_7">
     <g id="line2d_14">
      <g>
       <use style="stroke:#000000;stroke-width:0.8;" x="67.31151" xlink:href="#m43ca13d179" y="92.930916"/>
      </g>
     </g>
     <g id="text_15">
      <!-- $\mathdefault{−0.4}$ -->
      <g transform="translate(33.545899 97.659119)scale(0.14 -0.14)">
       <use transform="scale(0.996264)" xlink:href="#txsys-0"/>
       <use transform="translate(63.362352 0)scale(0.996264)" xlink:href="#TeXGyreTermes-Regular-30"/>
       <use transform="translate(114.76955 0)scale(0.996264)" xlink:href="#rtxmi-3a"/>
       <use transform="translate(141.369811 0)scale(0.996264)" xlink:href="#TeXGyreTermes-Regular-34"/>
      </g>
     </g>
    </g>
    <g id="ytick_8">
     <g id="line2d_15">
      <g>
       <use style="stroke:#000000;stroke-width:0.8;" x="67.31151" xlink:href="#m43ca13d179" y="60.335135"/>
      </g>
     </g>
     <g id="text_16">
      <!-- $\mathdefault{−0.2}$ -->
      <g transform="translate(33.545899 65.063338)scale(0.14 -0.14)">
       <use transform="scale(0.996264)" xlink:href="#txsys-0"/>
       <use transform="translate(63.362352 0)scale(0.996264)" xlink:href="#TeXGyreTermes-Regular-30"/>
       <use transform="translate(114.76955 0)scale(0.996264)" xlink:href="#rtxmi-3a"/>
       <use transform="translate(141.369811 0)scale(0.996264)" xlink:href="#TeXGyreTermes-Regular-32"/>
      </g>
     </g>
    </g>
    <g id="ytick_9">
     <g id="line2d_16">
      <g>
       <use style="stroke:#000000;stroke-width:0.8;" x="67.31151" xlink:href="#m43ca13d179" y="27.739354"/>
      </g>
     </g>
     <g id="text_17">
      <!-- $\mathdefault{0.0}$ -->
      <g transform="translate(42.416625 32.467556)scale(0.14 -0.14)">
       <use transform="scale(0.996264)" xlink:href="#TeXGyreTermes-Regular-30"/>
       <use transform="translate(51.407199 0)scale(0.996264)" xlink:href="#rtxmi-3a"/>
       <use transform="translate(78.00746 0)scale(0.996264)" xlink:href="#TeXGyreTermes-Regular-30"/>
      </g>
     </g>
    </g>
    <g id="text_18">
     <!-- $\min^\gamma(-a, a)$ -->
     <g transform="translate(26.094972 191.005637)rotate(-90)scale(0.16 -0.16)">
      <defs>
       <path d="M 4960 0 
L 4960 96 
L 4794 115 
C 4602 115 4518 230 4518 480 
L 4518 1802 
C 4518 2559 4269 2944 3776 2944 
C 3405 2944 3078 2778 2733 2407 
C 2618 2771 2400 2944 2054 2944 
C 1773 2944 1594 2854 1062 2451 
L 1062 2931 
L 1018 2944 
C 691 2822 474 2752 122 2656 
L 122 2547 
C 205 2566 256 2573 326 2573 
C 493 2573 550 2470 550 2162 
L 550 539 
C 550 192 461 96 102 96 
L 102 0 
L 1523 0 
L 1523 96 
C 1184 96 1088 166 1088 418 
L 1088 2234 
C 1088 2234 1139 2310 1184 2355 
C 1344 2502 1619 2611 1843 2611 
C 2125 2611 2266 2385 2266 1932 
L 2266 528 
C 2266 167 2195 96 1830 96 
L 1830 0 
L 3264 0 
L 3264 96 
C 2899 96 2803 205 2803 603 
L 2803 2221 
C 2995 2496 3206 2611 3501 2611 
C 3866 2611 3981 2438 3981 1907 
L 3981 557 
C 3981 192 3930 141 3558 96 
L 3558 0 
L 4960 0 
z
" id="TeXGyreTermes-Regular-6d" transform="scale(0.015625)"/>
       <path d="M 1619 0 
L 1619 96 
C 1197 128 1146 192 1146 652 
L 1146 2920 
L 1120 2939 
L 128 2588 
L 128 2492 
L 179 2498 
C 256 2511 339 2518 397 2518 
C 550 2518 608 2415 608 2133 
L 608 642 
C 608 179 544 109 102 109 
L 102 0 
L 1619 0 
z
M 1203 3770 
C 1203 3949 1062 4096 877 4096 
C 698 4096 550 3949 550 3770 
C 550 3584 698 3444 877 3444 
C 1062 3444 1203 3584 1203 3770 
z
" id="TeXGyreTermes-Regular-69" transform="scale(0.015625)"/>
       <path d="M 3104 32 
L 3104 128 
C 2790 160 2714 237 2714 550 
L 2714 2016 
C 2714 2618 2432 2976 1958 2976 
C 1664 2976 1466 2867 1030 2458 
L 1030 2963 
L 986 2976 
C 672 2861 454 2790 102 2688 
L 102 2579 
C 141 2598 205 2605 275 2605 
C 454 2605 512 2509 512 2195 
L 512 608 
C 512 243 442 154 115 128 
L 115 32 
L 1472 32 
L 1472 128 
C 1146 154 1050 230 1050 461 
L 1050 2259 
C 1357 2547 1498 2624 1709 2624 
C 2022 2624 2176 2426 2176 2003 
L 2176 666 
C 2176 262 2093 154 1773 128 
L 1773 32 
L 3104 32 
z
" id="TeXGyreTermes-Regular-6e" transform="scale(0.015625)"/>
       <path d="M 3398 2794 
L 2931 2704 
C 2637 2014 2291 1338 1843 731 
C 1869 1360 1914 2816 998 2816 
C 570 2816 19 2240 19 1862 
C 19 1843 26 1817 51 1817 
C 192 1817 179 2363 806 2363 
C 1472 2363 1504 1052 1504 584 
C 1504 417 1498 269 1498 108 
C 1280 -175 762 -824 762 -1177 
C 762 -1293 813 -1344 934 -1344 
C 1466 -1344 1562 -252 1734 114 
C 1843 339 2112 661 2259 871 
C 2682 1472 3142 2104 3398 2794 
z
" id="rtxmi-d" transform="scale(0.015625)"/>
       <path d="M 1888 4589 
C 960 3987 307 2950 307 1645 
C 307 454 986 -749 1869 -1293 
L 1946 -1190 
C 1101 -525 858 250 858 1664 
C 858 3085 1120 3821 1946 4486 
L 1888 4589 
z
" id="txsys-b9" transform="scale(0.015625)"/>
       <path d="M 1248 12 
C 1248 544 877 627 730 627 
C 570 627 358 531 358 256 
C 358 0 589 -64 755 -64 
C 800 -64 832 -58 851 -52 
C 877 -45 896 -39 909 -39 
C 954 -39 998 -71 998 -128 
C 998 -250 896 -538 474 -807 
L 531 -928 
C 723 -864 1248 -442 1248 12 
z
" id="rtxmi-3b" transform="scale(0.015625)"/>
       <path d="M 243 4589 
L 186 4486 
C 1011 3821 1274 3085 1274 1664 
C 1274 250 1030 -525 186 -1190 
L 262 -1293 
C 1146 -749 1824 454 1824 1645 
C 1824 2950 1171 3987 243 4589 
z
" id="txsys-ba" transform="scale(0.015625)"/>
      </defs>
      <use transform="scale(0.996264)" xlink:href="#TeXGyreTermes-Regular-6d"/>
      <use transform="translate(77.509328 0)scale(0.996264)" xlink:href="#TeXGyreTermes-Regular-69"/>
      <use transform="translate(105.205455 0)scale(0.996264)" xlink:href="#TeXGyreTermes-Regular-6e"/>
      <use transform="translate(156.036825 36.164371)scale(0.727268)" xlink:href="#rtxmi-d"/>
      <use transform="translate(197.371049 0)scale(0.996264)" xlink:href="#txsys-b9"/>
      <use transform="translate(230.546659 0)scale(0.996264)" xlink:href="#txsys-0"/>
      <use transform="translate(295.204096 0)scale(0.996264)" xlink:href="#NimbusRomNo9L-ReguItal-61"/>
      <use transform="translate(342.775687 0)scale(0.996264)" xlink:href="#rtxmi-3b"/>
      <use transform="translate(376.06189 0)scale(0.996264)" xlink:href="#NimbusRomNo9L-ReguItal-61"/>
      <use transform="translate(427.618537 0)scale(0.996264)" xlink:href="#txsys-ba"/>
     </g>
    </g>
   </g>
   <g id="line2d_17">
    <path clip-path="url(#p94b9710f9a)" d="M 256.495755 292.745781 
L 256.495755 15.12 
" style="fill:none;stroke:#000000;stroke-dasharray:5.55,2.4;stroke-dashoffset:0;stroke-opacity:0.5;stroke-width:1.5;"/>
   </g>
   <g id="line2d_18">
    <path clip-path="url(#p94b9710f9a)" d="M 67.31151 27.739354 
L 445.68 27.739354 
" style="fill:none;stroke:#000000;stroke-dasharray:5.55,2.4;stroke-dashoffset:0;stroke-opacity:0.5;stroke-width:1.5;"/>
   </g>
   <g id="line2d_19">
    <path clip-path="url(#p94b9710f9a)" d="M 84.510077 272.207714 
L 87.984535 267.268959 
L 91.458994 262.330204 
L 94.933452 257.391449 
L 98.40791 252.452695 
L 101.882368 247.51394 
L 105.356826 242.575185 
L 108.831284 237.63643 
L 112.305742 232.697676 
L 115.780201 227.758921 
L 119.254659 222.820166 
L 122.729117 217.881411 
L 126.203575 212.942657 
L 129.678033 208.003902 
L 133.152491 203.065147 
L 136.626949 198.126392 
L 140.101407 193.187638 
L 143.575866 188.248883 
L 147.050324 183.310128 
L 150.524782 178.371373 
L 153.99924 173.432619 
L 157.473698 168.493864 
L 160.948156 163.555109 
L 164.422614 158.616354 
L 167.897072 153.6776 
L 171.371531 148.738845 
L 174.845989 143.80009 
L 178.320447 138.861335 
L 181.794905 133.922581 
L 185.269363 128.983826 
L 188.743821 124.045071 
L 192.218279 119.106316 
L 195.692738 114.167562 
L 199.167196 109.228807 
L 202.641654 104.290052 
L 206.116112 99.351297 
L 209.59057 94.412543 
L 213.065028 89.473788 
L 216.539486 84.535033 
L 220.013944 79.596278 
L 223.488403 74.657524 
L 226.962861 69.718769 
L 230.437319 64.780014 
L 233.911777 59.84126 
L 237.386235 54.902505 
L 240.860693 49.96375 
L 244.335151 45.024995 
L 247.809609 40.086241 
L 251.284068 35.147669 
L 254.758526 30.285609 
L 258.232984 30.285609 
L 261.707442 35.147669 
L 265.1819 40.086241 
L 268.656358 45.024995 
L 272.130816 49.96375 
L 275.605275 54.902505 
L 279.079733 59.84126 
L 282.554191 64.780014 
L 286.028649 69.718769 
L 289.503107 74.657524 
L 292.977565 79.596278 
L 296.452023 84.535033 
L 299.926481 89.473788 
L 303.40094 94.412543 
L 306.875398 99.351297 
L 310.349856 104.290052 
L 313.824314 109.228807 
L 317.298772 114.167562 
L 320.77323 119.106316 
L 324.247688 124.045071 
L 327.722146 128.983826 
L 331.196605 133.922581 
L 334.671063 138.861335 
L 338.145521 143.80009 
L 341.619979 148.738845 
L 345.094437 153.6776 
L 348.568895 158.616354 
L 352.043353 163.555109 
L 355.517812 168.493864 
L 358.99227 173.432619 
L 362.466728 178.371373 
L 365.941186 183.310128 
L 369.415644 188.248883 
L 372.890102 193.187638 
L 376.36456 198.126392 
L 379.839018 203.065147 
L 383.313477 208.003902 
L 386.787935 212.942657 
L 390.262393 217.881411 
L 393.736851 222.820166 
L 397.211309 227.758921 
L 400.685767 232.697676 
L 404.160225 237.63643 
L 407.634683 242.575185 
L 411.109142 247.51394 
L 414.5836 252.452695 
L 418.058058 257.391449 
L 421.532516 262.330204 
L 425.006974 267.268959 
L 428.481432 272.207714 
" style="fill:none;stroke:#89bedc;stroke-linecap:square;stroke-width:1.5;"/>
   </g>
   <g id="line2d_20">
    <path clip-path="url(#p94b9710f9a)" d="M 84.510077 272.207714 
L 87.984535 267.268959 
L 91.458994 262.330204 
L 94.933452 257.391449 
L 98.40791 252.452695 
L 101.882368 247.51394 
L 105.356826 242.575185 
L 108.831284 237.63643 
L 112.305742 232.697676 
L 115.780201 227.758921 
L 119.254659 222.820166 
L 122.729117 217.881411 
L 126.203575 212.942657 
L 129.678033 208.003902 
L 133.152491 203.065147 
L 136.626949 198.126392 
L 140.101407 193.187638 
L 143.575866 188.248883 
L 147.050324 183.310128 
L 150.524782 178.371374 
L 153.99924 173.432619 
L 157.473698 168.493864 
L 160.948156 163.55511 
L 164.422614 158.616356 
L 167.897072 153.677603 
L 171.371531 148.738851 
L 174.845989 143.800101 
L 178.320447 138.861355 
L 181.794905 133.922616 
L 185.269363 128.983891 
L 188.743821 124.045191 
L 192.218279 119.106537 
L 195.692738 114.167965 
L 199.167196 109.229547 
L 202.641654 104.291409 
L 206.116112 99.353784 
L 209.59057 94.4171 
L 213.065028 89.482142 
L 216.539486 84.550345 
L 220.013944 79.624337 
L 223.488403 74.708924 
L 226.962861 69.812872 
L 230.437319 64.95211 
L 233.911777 60.15537 
L 237.386235 55.473785 
L 240.860693 50.996187 
L 244.335151 46.870358 
L 247.809609 43.324082 
L 251.284068 40.664886 
L 254.758526 39.222553 
L 258.232984 39.222553 
L 261.707442 40.664886 
L 265.1819 43.324082 
L 268.656358 46.870358 
L 272.130816 50.996187 
L 275.605275 55.473785 
L 279.079733 60.15537 
L 282.554191 64.95211 
L 286.028649 69.812872 
L 289.503107 74.708924 
L 292.977565 79.624337 
L 296.452023 84.550345 
L 299.926481 89.482142 
L 303.40094 94.4171 
L 306.875398 99.353784 
L 310.349856 104.291409 
L 313.824314 109.229547 
L 317.298772 114.167965 
L 320.77323 119.106537 
L 324.247688 124.045191 
L 327.722146 128.983891 
L 331.196605 133.922616 
L 334.671063 138.861355 
L 338.145521 143.800101 
L 341.619979 148.738851 
L 345.094437 153.677603 
L 348.568895 158.616356 
L 352.043353 163.55511 
L 355.517812 168.493864 
L 358.99227 173.432619 
L 362.466728 178.371374 
L 365.941186 183.310128 
L 369.415644 188.248883 
L 372.890102 193.187638 
L 376.36456 198.126392 
L 379.839018 203.065147 
L 383.313477 208.003902 
L 386.787935 212.942657 
L 390.262393 217.881411 
L 393.736851 222.820166 
L 397.211309 227.758921 
L 400.685767 232.697676 
L 404.160225 237.63643 
L 407.634683 242.575185 
L 411.109142 247.51394 
L 414.5836 252.452695 
L 418.058058 257.391449 
L 421.532516 262.330204 
L 425.006974 267.268959 
L 428.481432 272.207714 
" style="fill:none;stroke:#539ecd;stroke-linecap:square;stroke-width:1.5;"/>
   </g>
   <g id="line2d_21">
    <path clip-path="url(#p94b9710f9a)" d="M 84.510077 272.209933 
L 87.984535 267.271675 
L 91.458994 262.333529 
L 94.933452 257.395518 
L 98.40791 252.457675 
L 101.882368 247.520035 
L 105.356826 242.582644 
L 108.831284 237.645559 
L 112.305742 232.708848 
L 115.780201 227.772594 
L 119.254659 222.8369 
L 122.729117 217.901891 
L 126.203575 212.96772 
L 129.678033 208.034574 
L 133.152491 203.102683 
L 136.626949 198.172328 
L 140.101407 193.243851 
L 143.575866 188.317672 
L 147.050324 183.394304 
L 150.524782 178.474374 
L 153.99924 173.558648 
L 157.473698 168.648064 
L 160.948156 163.743764 
L 164.422614 158.847144 
L 167.897072 153.959908 
L 171.371531 149.084132 
L 174.845989 144.222344 
L 178.320447 139.377623 
L 181.794905 134.553708 
L 185.269363 129.755137 
L 188.743821 124.987403 
L 192.218279 120.257145 
L 195.692738 115.572361 
L 199.167196 110.942648 
L 202.641654 106.379483 
L 206.116112 101.89651 
L 209.59057 97.509853 
L 213.065028 93.238421 
L 216.539486 89.10418 
L 220.013944 85.132367 
L 223.488403 81.351579 
L 226.962861 77.793695 
L 230.437319 74.49354 
L 233.911777 71.488253 
L 237.386235 68.816274 
L 240.860693 66.515951 
L 244.335151 64.623801 
L 247.809609 63.172523 
L 251.284068 62.188952 
L 254.758526 61.692196 
L 258.232984 61.692196 
L 261.707442 62.188952 
L 265.1819 63.172523 
L 268.656358 64.623801 
L 272.130816 66.515951 
L 275.605275 68.816274 
L 279.079733 71.488253 
L 282.554191 74.49354 
L 286.028649 77.793695 
L 289.503107 81.351579 
L 292.977565 85.132367 
L 296.452023 89.10418 
L 299.926481 93.238421 
L 303.40094 97.509853 
L 306.875398 101.89651 
L 310.349856 106.379483 
L 313.824314 110.942648 
L 317.298772 115.572361 
L 320.77323 120.257145 
L 324.247688 124.987403 
L 327.722146 129.755137 
L 331.196605 134.553708 
L 334.671063 139.377623 
L 338.145521 144.222344 
L 341.619979 149.084132 
L 345.094437 153.959908 
L 348.568895 158.847144 
L 352.043353 163.743764 
L 355.517812 168.648064 
L 358.99227 173.558648 
L 362.466728 178.474374 
L 365.941186 183.394304 
L 369.415644 188.317672 
L 372.890102 193.243851 
L 376.36456 198.172328 
L 379.839018 203.102683 
L 383.313477 208.034574 
L 386.787935 212.96772 
L 390.262393 217.901891 
L 393.736851 222.8369 
L 397.211309 227.772594 
L 400.685767 232.708848 
L 404.160225 237.645559 
L 407.634683 242.582644 
L 411.109142 247.520035 
L 414.5836 252.457675 
L 418.058058 257.395518 
L 421.532516 262.333529 
L 425.006974 267.271675 
L 428.481432 272.209933 
" style="fill:none;stroke:#2b7bba;stroke-linecap:square;stroke-width:1.5;"/>
   </g>
   <g id="line2d_22">
    <path clip-path="url(#p94b9710f9a)" d="M 84.510077 280.126427 
L 87.984535 275.669894 
L 91.458994 271.241932 
L 94.933452 266.844137 
L 98.40791 262.47818 
L 101.882368 258.145814 
L 105.356826 253.848872 
L 108.831284 249.589274 
L 112.305742 245.369022 
L 115.780201 241.190207 
L 119.254659 237.05501 
L 122.729117 232.9657 
L 126.203575 228.92464 
L 129.678033 224.934281 
L 133.152491 220.997167 
L 136.626949 217.115935 
L 140.101407 213.293309 
L 143.575866 209.532103 
L 147.050324 205.835218 
L 150.524782 202.205639 
L 153.99924 198.646431 
L 157.473698 195.160735 
L 160.948156 191.751762 
L 164.422614 188.42279 
L 167.897072 185.177153 
L 171.371531 182.018237 
L 174.845989 178.949469 
L 178.320447 175.974307 
L 181.794905 173.09623 
L 185.269363 170.318728 
L 188.743821 167.645287 
L 192.218279 165.079377 
L 195.692738 162.624435 
L 199.167196 160.283854 
L 202.641654 158.060967 
L 206.116112 155.959025 
L 209.59057 153.981189 
L 213.065028 152.130505 
L 216.539486 150.409895 
L 220.013944 148.822131 
L 223.488403 147.369827 
L 226.962861 146.055418 
L 230.437319 144.881145 
L 233.911777 143.84904 
L 237.386235 142.960917 
L 240.860693 142.21835 
L 244.335151 141.622673 
L 247.809609 141.174962 
L 251.284068 140.876032 
L 254.758526 140.72643 
L 258.232984 140.72643 
L 261.707442 140.876032 
L 265.1819 141.174962 
L 268.656358 141.622673 
L 272.130816 142.21835 
L 275.605275 142.960917 
L 279.079733 143.84904 
L 282.554191 144.881145 
L 286.028649 146.055418 
L 289.503107 147.369827 
L 292.977565 148.822131 
L 296.452023 150.409895 
L 299.926481 152.130505 
L 303.40094 153.981189 
L 306.875398 155.959025 
L 310.349856 158.060967 
L 313.824314 160.283854 
L 317.298772 162.624435 
L 320.77323 165.079377 
L 324.247688 167.645287 
L 327.722146 170.318728 
L 331.196605 173.09623 
L 334.671063 175.974307 
L 338.145521 178.949469 
L 341.619979 182.018237 
L 345.094437 185.177153 
L 348.568895 188.42279 
L 352.043353 191.751762 
L 355.517812 195.160735 
L 358.99227 198.646431 
L 362.466728 202.205639 
L 365.941186 205.835218 
L 369.415644 209.532103 
L 372.890102 213.293309 
L 376.36456 217.115935 
L 379.839018 220.997167 
L 383.313477 224.934281 
L 386.787935 228.92464 
L 390.262393 232.9657 
L 393.736851 237.05501 
L 397.211309 241.190207 
L 400.685767 245.369022 
L 404.160225 249.589274 
L 407.634683 253.848872 
L 411.109142 258.145814 
L 414.5836 262.47818 
L 418.058058 266.844137 
L 421.532516 271.241932 
L 425.006974 275.669894 
L 428.481432 280.126427 
" style="fill:none;stroke:#0b559f;stroke-linecap:square;stroke-width:1.5;"/>
   </g>
   <g id="patch_3">
    <path d="M 67.31151 292.745781 
L 67.31151 15.12 
" style="fill:none;stroke:#000000;stroke-linecap:square;stroke-linejoin:miter;stroke-width:0.8;"/>
   </g>
   <g id="patch_4">
    <path d="M 445.68 292.745781 
L 445.68 15.12 
" style="fill:none;stroke:#000000;stroke-linecap:square;stroke-linejoin:miter;stroke-width:0.8;"/>
   </g>
   <g id="patch_5">
    <path d="M 67.31151 292.745781 
L 445.68 292.745781 
" style="fill:none;stroke:#000000;stroke-linecap:square;stroke-linejoin:miter;stroke-width:0.8;"/>
   </g>
   <g id="patch_6">
    <path d="M 67.31151 15.12 
L 445.68 15.12 
" style="fill:none;stroke:#000000;stroke-linecap:square;stroke-linejoin:miter;stroke-width:0.8;"/>
   </g>
   <g id="legend_1">
    <g id="patch_7">
     <path d="M 343.31001 105.598242 
L 435.88 105.598242 
Q 438.68 105.598242 438.68 102.798242 
L 438.68 24.92 
Q 438.68 22.12 435.88 22.12 
L 343.31001 22.12 
Q 340.51001 22.12 340.51001 24.92 
L 340.51001 102.798242 
Q 340.51001 105.598242 343.31001 105.598242 
z
" style="fill:#ffffff;opacity:0.8;stroke:#cccccc;stroke-linejoin:miter;"/>
    </g>
    <g id="line2d_23">
     <path d="M 346.11001 32.62 
L 374.11001 32.62 
" style="fill:none;stroke:#89bedc;stroke-linecap:square;stroke-width:1.5;"/>
    </g>
    <g id="line2d_24"/>
    <g id="text_19">
     <!-- $\gamma=0.01$ -->
     <g transform="translate(385.31001 37.52)scale(0.14 -0.14)">
      <defs>
       <path d="M 3674 2138 
L 3674 2496 
L 397 2496 
L 397 2138 
L 3674 2138 
z
M 3674 832 
L 3674 1190 
L 397 1190 
L 397 832 
L 3674 832 
z
" id="rtxr-3d" transform="scale(0.015625)"/>
      </defs>
      <use transform="scale(0.996264)" xlink:href="#rtxmi-d"/>
      <use transform="translate(78.079319 0)scale(0.996264)" xlink:href="#rtxr-3d"/>
      <use transform="translate(163.580816 0)scale(0.996264)" xlink:href="#TeXGyreTermes-Regular-30"/>
      <use transform="translate(214.988015 0)scale(0.996264)" xlink:href="#rtxmi-3a"/>
      <use transform="translate(241.588276 0)scale(0.996264)" xlink:href="#TeXGyreTermes-Regular-30"/>
      <use transform="translate(291.401477 0)scale(0.996264)" xlink:href="#TeXGyreTermes-Regular-31"/>
     </g>
    </g>
    <g id="line2d_25">
     <path d="M 346.11001 52.43956 
L 374.11001 52.43956 
" style="fill:none;stroke:#539ecd;stroke-linecap:square;stroke-width:1.5;"/>
    </g>
    <g id="line2d_26"/>
    <g id="text_20">
     <!-- $\gamma=0.1$ -->
     <g transform="translate(385.31001 57.33956)scale(0.14 -0.14)">
      <use transform="scale(0.996264)" xlink:href="#rtxmi-d"/>
      <use transform="translate(78.079319 0)scale(0.996264)" xlink:href="#rtxr-3d"/>
      <use transform="translate(163.580816 0)scale(0.996264)" xlink:href="#TeXGyreTermes-Regular-30"/>
      <use transform="translate(214.988015 0)scale(0.996264)" xlink:href="#rtxmi-3a"/>
      <use transform="translate(241.588276 0)scale(0.996264)" xlink:href="#TeXGyreTermes-Regular-31"/>
     </g>
    </g>
    <g id="line2d_27">
     <path d="M 346.11001 72.259121 
L 374.11001 72.259121 
" style="fill:none;stroke:#2b7bba;stroke-linecap:square;stroke-width:1.5;"/>
    </g>
    <g id="line2d_28"/>
    <g id="text_21">
     <!-- $\gamma=0.3$ -->
     <g transform="translate(385.31001 77.159121)scale(0.14 -0.14)">
      <defs>
       <path d="M 2765 1428 
C 2765 1754 2662 2055 2477 2253 
C 2349 2394 2227 2471 1946 2592 
C 2387 2893 2547 3130 2547 3476 
C 2547 3994 2138 4352 1549 4352 
C 1229 4352 947 4244 717 4039 
C 525 3866 429 3699 288 3315 
L 384 3290 
C 646 3757 934 3968 1338 3968 
C 1754 3968 2042 3687 2042 3284 
C 2042 3053 1946 2823 1786 2663 
C 1594 2471 1414 2375 979 2221 
L 979 2138 
C 1357 2138 1504 2125 1658 2068 
C 2054 1927 2304 1562 2304 1120 
C 2304 583 1939 167 1466 167 
C 1293 167 1165 212 928 365 
C 736 480 627 525 518 525 
C 371 525 275 436 275 301 
C 275 77 550 -64 998 -64 
C 1491 -64 1997 103 2298 365 
C 2598 628 2765 999 2765 1428 
z
" id="TeXGyreTermes-Regular-33" transform="scale(0.015625)"/>
      </defs>
      <use transform="scale(0.996264)" xlink:href="#rtxmi-d"/>
      <use transform="translate(78.079319 0)scale(0.996264)" xlink:href="#rtxr-3d"/>
      <use transform="translate(163.580816 0)scale(0.996264)" xlink:href="#TeXGyreTermes-Regular-30"/>
      <use transform="translate(214.988015 0)scale(0.996264)" xlink:href="#rtxmi-3a"/>
      <use transform="translate(241.588276 0)scale(0.996264)" xlink:href="#TeXGyreTermes-Regular-33"/>
     </g>
    </g>
    <g id="line2d_29">
     <path d="M 346.11001 92.078681 
L 374.11001 92.078681 
" style="fill:none;stroke:#0b559f;stroke-linecap:square;stroke-width:1.5;"/>
    </g>
    <g id="line2d_30"/>
    <g id="text_22">
     <!-- $\gamma=1.0$ -->
     <g transform="translate(385.31001 96.978681)scale(0.14 -0.14)">
      <use transform="scale(0.996264)" xlink:href="#rtxmi-d"/>
      <use transform="translate(78.079319 0)scale(0.996264)" xlink:href="#rtxr-3d"/>
      <use transform="translate(163.580816 0)scale(0.996264)" xlink:href="#TeXGyreTermes-Regular-31"/>
      <use transform="translate(214.988015 0)scale(0.996264)" xlink:href="#rtxmi-3a"/>
      <use transform="translate(241.588276 0)scale(0.996264)" xlink:href="#TeXGyreTermes-Regular-30"/>
     </g>
    </g>
   </g>
  </g>
 </g>
 <defs>
  <clipPath id="p94b9710f9a">
   <rect height="277.625781" width="378.36849" x="67.31151" y="15.12"/>
  </clipPath>
 </defs>
</svg>
